<svg xmlns:svg="http://www.w3.org/2000/svg" xmlns="http://www.w3.org/2000/svg" width="15" height="15" version="1.1">
  <g transform="translate(-1.9371206e-4,-1037.3601)">
    <path d="m1.1 1037.4c0.4-0.1 0.7-0.1 1.1 0.1 0.4 0.2 0.7 0.6 0.8 1 0.1 0.3 0 0.7-0.1 1 0.2 0.2 0.5 0.4 0.7 0.6 0.9 0.8 1.8 1.6 2.7 2.4 0.2-0.2 0.4-0.3 0.6-0.4 0.4-0.1 0.9-0.1 1.3 0.1 0.1 0.1 0.2 0.2 0.4 0.3 0.9-0.8 1.9-1.6 2.8-2.4 0.2-0.2 0.5-0.4 0.7-0.6 0 0 0 0 0 0-0.1-0.3-0.2-0.6-0.1-0.8 0-0.4 0.2-0.7 0.5-0.9 0.3-0.2 0.6-0.4 1-0.4 0.4 0 0.8 0.1 1.1 0.4 0.3 0.3 0.5 0.6 0.5 1 0 0.3 0 0.6-0.2 0.8-0.2 0.4-0.5 0.6-0.9 0.8-0.4 0.1-0.8 0.1-1.1-0.1-0.1 0-0.2-0.1-0.2-0.1-0.3 0.2-0.5 0.4-0.7 0.6-1 0.8-1.9 1.7-2.9 2.5 0.1 0.3 0.1 0.7-0.1 1-0.2 0.4-0.6 0.7-1 0.9 0 1.2 0 2.3 0 3.5 0 0.2 0 0.4 0 0.6 0.3 0.1 0.6 0.3 0.8 0.5 0.2 0.3 0.4 0.7 0.3 1.1 0 0.4-0.2 0.8-0.5 1.1-0.3 0.2-0.6 0.4-1 0.4-0.4 0-0.7-0.1-1-0.4-0.2-0.2-0.4-0.5-0.5-0.8-0.1-0.4 0-0.8 0.1-1.1 0.2-0.4 0.6-0.7 1-0.8 0-1.4 0-2.7 0-4.1-0.3-0.1-0.6-0.3-0.8-0.5-0.3-0.3-0.4-0.8-0.3-1.3 0-0.1 0.1-0.2 0-0.2-0.7-0.6-1.4-1.2-2.1-1.8-0.3-0.3-0.7-0.6-1.1-0.9-0.1-0.1-0.3-0.2-0.4-0.3-0.3 0.2-0.6 0.3-0.9 0.3-0.4 0-0.9-0.2-1.2-0.5-0.3-0.3-0.4-0.7-0.4-1 0-0.4 0.1-0.7 0.4-1 0.2-0.2 0.5-0.4 0.8-0.5z" fill="#000"/>
  </g>
</svg>
