<?xml version="1.0" encoding="UTF-8" standalone="no"?>
<!-- Created with Inkscape (http://www.inkscape.org/) -->
<svg
   xmlns:dc="http://purl.org/dc/elements/1.1/"
   xmlns:cc="http://web.resource.org/cc/"
   xmlns:rdf="http://www.w3.org/1999/02/22-rdf-syntax-ns#"
   xmlns:svg="http://www.w3.org/2000/svg"
   xmlns="http://www.w3.org/2000/svg"
   xmlns:xlink="http://www.w3.org/1999/xlink"
   xmlns:sodipodi="http://sodipodi.sourceforge.net/DTD/sodipodi-0.dtd"
   xmlns:inkscape="http://www.inkscape.org/namespaces/inkscape"
   id="svg1"
   sodipodi:version="0.32"
   inkscape:version="0.45.1"
   width="125.25612"
   height="140.88696"
   sodipodi:docbase="/home/sept/svg"
   sodipodi:docname="py.svg"
   inkscape:output_extension="org.inkscape.output.svg.inkscape"
   version="1.0">
  <metadata
     id="metadata15">
    <rdf:RDF>
      <cc:Work
         rdf:about="">
        <dc:format>image/svg+xml</dc:format>
        <dc:type
           rdf:resource="http://purl.org/dc/dcmitype/StillImage" />
      </cc:Work>
    </rdf:RDF>
  </metadata>
  <defs
     id="defs3">
    <linearGradient
       id="linearGradient3587">
      <stop
         id="stop3589"
         offset="0.0000000"
         style="stop-color:#efe0cd;stop-opacity:0.56097561;" />
      <stop
         id="stop3591"
         offset="1.0000000"
         style="stop-color:#cececd;stop-opacity:0.21951219;" />
    </linearGradient>
    <linearGradient
       id="linearGradient2832">
      <stop
         style="stop-color:#ffffff;stop-opacity:1.0000000;"
         offset="0.0000000"
         id="stop2834" />
      <stop
         style="stop-color:#ffffff;stop-opacity:0.0000000;"
         offset="1.0000000"
         id="stop2836" />
    </linearGradient>
    <linearGradient
       id="linearGradient839">
      <stop
         style="stop-color:#46a046;stop-opacity:1.0000000;"
         offset="0.0000000"
         id="stop840" />
      <stop
         style="stop-color:#df421e;stop-opacity:1.0000000;"
         offset="0.39364964"
         id="stop841" />
      <stop
         style="stop-color:#ada7c8;stop-opacity:1.0000000;"
         offset="0.72036445"
         id="stop842" />
      <stop
         style="stop-color:#eed680;stop-opacity:1.0000000;"
         offset="1.0000000"
         id="stop843" />
    </linearGradient>
    <linearGradient
       xlink:href="#linearGradient839"
       id="linearGradient836"
       x1="1.3267924e-17"
       y1="0.5"
       x2="1"
       y2="0.5" />
    <linearGradient
       inkscape:collect="always"
       xlink:href="#linearGradient2832"
       id="linearGradient2830"
       gradientTransform="matrix(0.939922,0,0,0.896911,-12.081733,-3.3524237)"
       x1="23.983805"
       y1="16.369013"
       x2="72.999245"
       y2="73.39872"
       gradientUnits="userSpaceOnUse" />
    <linearGradient
       y2="93.732185"
       x2="107.31592"
       y1="124.28045"
       x1="111.32588"
       gradientTransform="matrix(0.777129,0,0,0.894628,-162.4688,12.76856)"
       gradientUnits="userSpaceOnUse"
       id="linearGradient1407"
       xlink:href="#linearGradient1700"
       inkscape:collect="always" />
    <linearGradient
       y2="93.732185"
       x2="107.31592"
       y1="124.28045"
       x1="111.32588"
       gradientTransform="matrix(0.777129,0,0,0.894628,-2.922179,10.43077)"
       gradientUnits="userSpaceOnUse"
       id="linearGradient1390"
       xlink:href="#linearGradient1700"
       inkscape:collect="always" />
    <linearGradient
       id="linearGradient1350">
      <stop
         style="stop-color:#46a046;stop-opacity:1.0000000;"
         offset="0.0000000"
         id="stop1352" />
      <stop
         style="stop-color:#df421e;stop-opacity:1.0000000;"
         offset="0.39364964"
         id="stop1354" />
      <stop
         style="stop-color:#ada7c8;stop-opacity:1.0000000;"
         offset="0.72036445"
         id="stop1356" />
      <stop
         style="stop-color:#eed680;stop-opacity:1.0000000;"
         offset="1.0000000"
         id="stop1358" />
    </linearGradient>
    <linearGradient
       xlink:href="#linearGradient839"
       id="linearGradient1360"
       x1="1.3267924e-17"
       y1="0.5"
       x2="1"
       y2="0.5" />
    <linearGradient
       inkscape:collect="always"
       xlink:href="#linearGradient1700"
       id="linearGradient1362"
       gradientTransform="matrix(0.870364,0,0,1.001961,4.612015,4.886798)"
       x1="123.50353"
       y1="121.73159"
       x2="128.66997"
       y2="87.980263"
       gradientUnits="userSpaceOnUse" />
    <linearGradient
       xlink:href="#linearGradient839"
       id="linearGradient1363"
       x1="1.3267924e-17"
       y1="0.5"
       x2="1"
       y2="0.5" />
    <linearGradient
       id="linearGradient1353">
      <stop
         style="stop-color:#46a046;stop-opacity:1.0000000;"
         offset="0.0000000"
         id="stop1355" />
      <stop
         style="stop-color:#df421e;stop-opacity:1.0000000;"
         offset="0.39364964"
         id="stop1357" />
      <stop
         style="stop-color:#ada7c8;stop-opacity:1.0000000;"
         offset="0.72036445"
         id="stop1359" />
      <stop
         style="stop-color:#eed680;stop-opacity:1.0000000;"
         offset="1.0000000"
         id="stop1361" />
    </linearGradient>
    <linearGradient
       id="linearGradient1700">
      <stop
         style="stop-color:#000000;stop-opacity:0.69918698;"
         offset="0.0000000"
         id="stop1701" />
      <stop
         style="stop-color:#000000;stop-opacity:0;"
         offset="1"
         id="stop1702" />
    </linearGradient>
    <linearGradient
       y2="0.5"
       x2="1"
       y1="0.5"
       x1="1.3267924e-17"
       id="linearGradient1427"
       xlink:href="#linearGradient839" />
    <linearGradient
       id="linearGradient1417">
      <stop
         id="stop1419"
         offset="0.0000000"
         style="stop-color:#46a046;stop-opacity:1.0000000;" />
      <stop
         id="stop1421"
         offset="0.39364964"
         style="stop-color:#df421e;stop-opacity:1.0000000;" />
      <stop
         id="stop1423"
         offset="0.72036445"
         style="stop-color:#ada7c8;stop-opacity:1.0000000;" />
      <stop
         id="stop1425"
         offset="1.0000000"
         style="stop-color:#eed680;stop-opacity:1.0000000;" />
    </linearGradient>
    <linearGradient
       xlink:href="#linearGradient839"
       id="linearGradient1381"
       x1="1.3267924e-17"
       y1="0.5"
       x2="1"
       y2="0.5" />
    <linearGradient
       id="linearGradient1371">
      <stop
         style="stop-color:#46a046;stop-opacity:1.0000000;"
         offset="0.0000000"
         id="stop1373" />
      <stop
         style="stop-color:#df421e;stop-opacity:1.0000000;"
         offset="0.39364964"
         id="stop1375" />
      <stop
         style="stop-color:#ada7c8;stop-opacity:1.0000000;"
         offset="0.72036445"
         id="stop1377" />
      <stop
         style="stop-color:#eed680;stop-opacity:1.0000000;"
         offset="1.0000000"
         id="stop1379" />
    </linearGradient>
    <linearGradient
       y2="0.5"
       x2="1"
       y1="0.5"
       x1="1.3267924e-17"
       id="linearGradient1374"
       xlink:href="#linearGradient839" />
    <linearGradient
       id="linearGradient1364">
      <stop
         id="stop1366"
         offset="0.0000000"
         style="stop-color:#46a046;stop-opacity:1.0000000;" />
      <stop
         id="stop1368"
         offset="0.39364964"
         style="stop-color:#df421e;stop-opacity:1.0000000;" />
      <stop
         id="stop1370"
         offset="0.72036445"
         style="stop-color:#ada7c8;stop-opacity:1.0000000;" />
      <stop
         id="stop1372"
         offset="1.0000000"
         style="stop-color:#eed680;stop-opacity:1.0000000;" />
    </linearGradient>
    <linearGradient
       gradientUnits="userSpaceOnUse"
       y2="85.785439"
       x2="78.810638"
       y1="46.285152"
       x1="41.381039"
       gradientTransform="scale(0.998875,1.001127)"
       id="linearGradient2840"
       xlink:href="#linearGradient2832"
       inkscape:collect="always" />
    <linearGradient
       gradientUnits="userSpaceOnUse"
       y2="86.589195"
       x2="79.162498"
       y1="51.416485"
       x1="44.246502"
       gradientTransform="scale(0.998853,1.001148)"
       id="linearGradient2857"
       xlink:href="#linearGradient2851"
       inkscape:collect="always" />
    <linearGradient
       spreadMethod="reflect"
       y2="0.58706468"
       x2="0.55882353"
       y1="0.46766168"
       x1="0.44607842"
       id="linearGradient1391"
       xlink:href="#linearGradient870" />
    <linearGradient
       id="linearGradient832">
      <stop
         id="stop833"
         offset="0.0000000"
         style="stop-color:#ffffff;stop-opacity:1.0000000;" />
      <stop
         id="stop835"
         offset="0.50000000"
         style="stop-color:#00b8df;stop-opacity:1.0000000;" />
      <stop
         id="stop834"
         offset="1.0000000"
         style="stop-color:#0058a9;stop-opacity:1.0000000;" />
    </linearGradient>
    <linearGradient
       id="linearGradient870">
      <stop
         id="stop871"
         offset="0.0000000"
         style="stop-color:#ffffff;stop-opacity:1.0000000;" />
      <stop
         id="stop875"
         offset="0.50000000"
         style="stop-color:#ff7f7f;stop-opacity:1.0000000;" />
      <stop
         id="stop873"
         offset="1.0000000"
         style="stop-color:#ff0000;stop-opacity:1.0000000;" />
    </linearGradient>
    <linearGradient
       id="linearGradient2851">
      <stop
         id="stop2853"
         offset="0.0000000"
         style="stop-color:#ffffff;stop-opacity:1.0000000;" />
      <stop
         id="stop2855"
         offset="1.0000000"
         style="stop-color:#ffffff;stop-opacity:0.0000000;" />
    </linearGradient>
    <linearGradient
       id="linearGradient1375">
      <stop
         id="stop2832"
         offset="0.0000000"
         style="stop-color:#ffffff;stop-opacity:1.0000000;" />
      <stop
         id="stop1378"
         offset="1.0000000"
         style="stop-color:#ffffff;stop-opacity:0.0000000;" />
    </linearGradient>
    <linearGradient
       spreadMethod="reflect"
       y2="0.47328246"
       x2="0.37377051"
       y1="0.78625953"
       x1="0.6885246"
       id="linearGradient674"
       xlink:href="#linearGradient869" />
    <linearGradient
       y2="0.5"
       x2="1"
       y1="0.5"
       x1="1.3267924e-17"
       id="linearGradient1432"
       xlink:href="#linearGradient839" />
    <linearGradient
       id="linearGradient1422">
      <stop
         id="stop1424"
         offset="0.0000000"
         style="stop-color:#46a046;stop-opacity:1.0000000;" />
      <stop
         id="stop1426"
         offset="0.39364964"
         style="stop-color:#df421e;stop-opacity:1.0000000;" />
      <stop
         id="stop1428"
         offset="0.72036445"
         style="stop-color:#ada7c8;stop-opacity:1.0000000;" />
      <stop
         id="stop1430"
         offset="1.0000000"
         style="stop-color:#eed680;stop-opacity:1.0000000;" />
    </linearGradient>
    <linearGradient
       spreadMethod="reflect"
       y2="0.29411766"
       x2="0.17377049"
       y1="0.49346405"
       x1="0.35737705"
       id="linearGradient904"
       xlink:href="#linearGradient907" />
    <linearGradient
       id="linearGradient866">
      <stop
         id="stop867"
         offset="0.0000000"
         style="stop-color:#ffff00;stop-opacity:1.0000000;" />
      <stop
         id="stop901"
         offset="0.36908397"
         style="stop-color:#ffea00;stop-opacity:1.0000000;" />
      <stop
         id="stop868"
         offset="1.0000000"
         style="stop-color:#ffd600;stop-opacity:1.0000000;" />
    </linearGradient>
    <linearGradient
       id="linearGradient869">
      <stop
         id="stop870"
         offset="0.0000000"
         style="stop-color:#7590ae;stop-opacity:1.0000000;" />
      <stop
         id="stop912"
         offset="0.87030536"
         style="stop-color:#89a4c0;stop-opacity:1.0000000;" />
      <stop
         id="stop1415"
         offset="1.0000000"
         style="stop-color:#9db8d2;stop-opacity:1.0000000;" />
    </linearGradient>
    <linearGradient
       id="linearGradient907">
      <stop
         id="stop908"
         offset="0.0000000"
         style="stop-color:#eed680;stop-opacity:1.0000000;" />
      <stop
         id="stop911"
         offset="0.29427481"
         style="stop-color:#dfb546;stop-opacity:1.0000000;" />
      <stop
         id="stop910"
         offset="1.0000000"
         style="stop-color:#d1940c;stop-opacity:1.0000000;" />
    </linearGradient>
    <linearGradient
       xlink:href="#linearGradient869"
       id="linearGradient1471"
       x1="0.6885246"
       y1="0.78625953"
       x2="0.37377051"
       y2="0.47328246"
       spreadMethod="reflect" />
    <linearGradient
       xlink:href="#linearGradient839"
       id="linearGradient1469"
       x1="1.3267924e-17"
       y1="0.5"
       x2="1"
       y2="0.5" />
    <linearGradient
       id="linearGradient1459">
      <stop
         style="stop-color:#46a046;stop-opacity:1.0000000;"
         offset="0.0000000"
         id="stop1461" />
      <stop
         style="stop-color:#df421e;stop-opacity:1.0000000;"
         offset="0.39364964"
         id="stop1463" />
      <stop
         style="stop-color:#ada7c8;stop-opacity:1.0000000;"
         offset="0.72036445"
         id="stop1465" />
      <stop
         style="stop-color:#eed680;stop-opacity:1.0000000;"
         offset="1.0000000"
         id="stop1467" />
    </linearGradient>
    <linearGradient
       xlink:href="#linearGradient907"
       id="linearGradient1457"
       x1="0.35737705"
       y1="0.49346405"
       x2="0.17377049"
       y2="0.29411766"
       spreadMethod="reflect" />
    <linearGradient
       id="linearGradient1449">
      <stop
         style="stop-color:#ffff00;stop-opacity:1.0000000;"
         offset="0.0000000"
         id="stop1451" />
      <stop
         style="stop-color:#ffea00;stop-opacity:1.0000000;"
         offset="0.36908397"
         id="stop1453" />
      <stop
         style="stop-color:#ffd600;stop-opacity:1.0000000;"
         offset="1.0000000"
         id="stop1455" />
    </linearGradient>
    <linearGradient
       id="linearGradient1441">
      <stop
         style="stop-color:#7590ae;stop-opacity:1.0000000;"
         offset="0.0000000"
         id="stop1443" />
      <stop
         style="stop-color:#89a4c0;stop-opacity:1.0000000;"
         offset="0.87030536"
         id="stop1445" />
      <stop
         style="stop-color:#9db8d2;stop-opacity:1.0000000;"
         offset="1.0000000"
         id="stop1447" />
    </linearGradient>
    <linearGradient
       id="linearGradient1433">
      <stop
         style="stop-color:#eed680;stop-opacity:1.0000000;"
         offset="0.0000000"
         id="stop1435" />
      <stop
         style="stop-color:#dfb546;stop-opacity:1.0000000;"
         offset="0.29427481"
         id="stop1437" />
      <stop
         style="stop-color:#d1940c;stop-opacity:1.0000000;"
         offset="1.0000000"
         id="stop1439" />
    </linearGradient>
    <linearGradient
       inkscape:collect="always"
       xlink:href="#linearGradient2832"
       id="linearGradient1496"
       gradientUnits="userSpaceOnUse"
       gradientTransform="scale(0.998875,1.001127)"
       x1="41.381039"
       y1="46.285152"
       x2="78.810638"
       y2="85.785439" />
    <linearGradient
       xlink:href="#linearGradient869"
       id="linearGradient2348"
       x1="0.6885246"
       y1="0.78625953"
       x2="0.37377051"
       y2="0.47328246"
       spreadMethod="reflect" />
    <linearGradient
       xlink:href="#linearGradient839"
       id="linearGradient2346"
       x1="1.3267924e-17"
       y1="0.5"
       x2="1"
       y2="0.5" />
    <linearGradient
       id="linearGradient2336">
      <stop
         style="stop-color:#46a046;stop-opacity:1.0000000;"
         offset="0.0000000"
         id="stop2338" />
      <stop
         style="stop-color:#df421e;stop-opacity:1.0000000;"
         offset="0.39364964"
         id="stop2340" />
      <stop
         style="stop-color:#ada7c8;stop-opacity:1.0000000;"
         offset="0.72036445"
         id="stop2342" />
      <stop
         style="stop-color:#eed680;stop-opacity:1.0000000;"
         offset="1.0000000"
         id="stop2344" />
    </linearGradient>
    <linearGradient
       xlink:href="#linearGradient907"
       id="linearGradient2334"
       x1="0.35737705"
       y1="0.49346405"
       x2="0.17377049"
       y2="0.29411766"
       spreadMethod="reflect" />
    <linearGradient
       id="linearGradient2326">
      <stop
         style="stop-color:#ffff00;stop-opacity:1.0000000;"
         offset="0.0000000"
         id="stop2328" />
      <stop
         style="stop-color:#ffea00;stop-opacity:1.0000000;"
         offset="0.36908397"
         id="stop2330" />
      <stop
         style="stop-color:#ffd600;stop-opacity:1.0000000;"
         offset="1.0000000"
         id="stop2332" />
    </linearGradient>
    <linearGradient
       id="linearGradient2318">
      <stop
         style="stop-color:#7590ae;stop-opacity:1.0000000;"
         offset="0.0000000"
         id="stop2320" />
      <stop
         style="stop-color:#89a4c0;stop-opacity:1.0000000;"
         offset="0.87030536"
         id="stop2322" />
      <stop
         style="stop-color:#9db8d2;stop-opacity:1.0000000;"
         offset="1.0000000"
         id="stop2324" />
    </linearGradient>
    <linearGradient
       id="linearGradient2310">
      <stop
         style="stop-color:#eed680;stop-opacity:1.0000000;"
         offset="0.0000000"
         id="stop2312" />
      <stop
         style="stop-color:#dfb546;stop-opacity:1.0000000;"
         offset="0.29427481"
         id="stop2314" />
      <stop
         style="stop-color:#d1940c;stop-opacity:1.0000000;"
         offset="1.0000000"
         id="stop2316" />
    </linearGradient>
    <linearGradient
       xlink:href="#linearGradient869"
       id="linearGradient3212"
       x1="0.6885246"
       y1="0.78625953"
       x2="0.37377051"
       y2="0.47328246"
       spreadMethod="reflect" />
    <linearGradient
       xlink:href="#linearGradient839"
       id="linearGradient3210"
       x1="1.3267924e-17"
       y1="0.5"
       x2="1"
       y2="0.5" />
    <linearGradient
       id="linearGradient3200">
      <stop
         style="stop-color:#46a046;stop-opacity:1.0000000;"
         offset="0.0000000"
         id="stop3202" />
      <stop
         style="stop-color:#df421e;stop-opacity:1.0000000;"
         offset="0.39364964"
         id="stop3204" />
      <stop
         style="stop-color:#ada7c8;stop-opacity:1.0000000;"
         offset="0.72036445"
         id="stop3206" />
      <stop
         style="stop-color:#eed680;stop-opacity:1.0000000;"
         offset="1.0000000"
         id="stop3208" />
    </linearGradient>
    <linearGradient
       xlink:href="#linearGradient907"
       id="linearGradient3198"
       x1="0.35737705"
       y1="0.49346405"
       x2="0.17377049"
       y2="0.29411766"
       spreadMethod="reflect" />
    <linearGradient
       id="linearGradient3190">
      <stop
         style="stop-color:#ffff00;stop-opacity:1.0000000;"
         offset="0.0000000"
         id="stop3192" />
      <stop
         style="stop-color:#ffea00;stop-opacity:1.0000000;"
         offset="0.36908397"
         id="stop3194" />
      <stop
         style="stop-color:#ffd600;stop-opacity:1.0000000;"
         offset="1.0000000"
         id="stop3196" />
    </linearGradient>
    <linearGradient
       id="linearGradient3182">
      <stop
         style="stop-color:#7590ae;stop-opacity:1.0000000;"
         offset="0.0000000"
         id="stop3184" />
      <stop
         style="stop-color:#89a4c0;stop-opacity:1.0000000;"
         offset="0.87030536"
         id="stop3186" />
      <stop
         style="stop-color:#9db8d2;stop-opacity:1.0000000;"
         offset="1.0000000"
         id="stop3188" />
    </linearGradient>
    <linearGradient
       id="linearGradient3174">
      <stop
         style="stop-color:#eed680;stop-opacity:1.0000000;"
         offset="0.0000000"
         id="stop3176" />
      <stop
         style="stop-color:#dfb546;stop-opacity:1.0000000;"
         offset="0.29427481"
         id="stop3178" />
      <stop
         style="stop-color:#d1940c;stop-opacity:1.0000000;"
         offset="1.0000000"
         id="stop3180" />
    </linearGradient>
    <linearGradient
       xlink:href="#linearGradient869"
       id="linearGradient4076"
       x1="0.6885246"
       y1="0.78625953"
       x2="0.37377051"
       y2="0.47328246"
       spreadMethod="reflect" />
    <linearGradient
       xlink:href="#linearGradient839"
       id="linearGradient4074"
       x1="1.3267924e-17"
       y1="0.5"
       x2="1"
       y2="0.5" />
    <linearGradient
       id="linearGradient4064">
      <stop
         style="stop-color:#46a046;stop-opacity:1.0000000;"
         offset="0.0000000"
         id="stop4066" />
      <stop
         style="stop-color:#df421e;stop-opacity:1.0000000;"
         offset="0.39364964"
         id="stop4068" />
      <stop
         style="stop-color:#ada7c8;stop-opacity:1.0000000;"
         offset="0.72036445"
         id="stop4070" />
      <stop
         style="stop-color:#eed680;stop-opacity:1.0000000;"
         offset="1.0000000"
         id="stop4072" />
    </linearGradient>
    <linearGradient
       xlink:href="#linearGradient907"
       id="linearGradient4062"
       x1="0.35737705"
       y1="0.49346405"
       x2="0.17377049"
       y2="0.29411766"
       spreadMethod="reflect" />
    <linearGradient
       id="linearGradient4054">
      <stop
         style="stop-color:#ffff00;stop-opacity:1.0000000;"
         offset="0.0000000"
         id="stop4056" />
      <stop
         style="stop-color:#ffea00;stop-opacity:1.0000000;"
         offset="0.36908397"
         id="stop4058" />
      <stop
         style="stop-color:#ffd600;stop-opacity:1.0000000;"
         offset="1.0000000"
         id="stop4060" />
    </linearGradient>
    <linearGradient
       id="linearGradient4046">
      <stop
         style="stop-color:#7590ae;stop-opacity:1.0000000;"
         offset="0.0000000"
         id="stop4048" />
      <stop
         style="stop-color:#89a4c0;stop-opacity:1.0000000;"
         offset="0.87030536"
         id="stop4050" />
      <stop
         style="stop-color:#9db8d2;stop-opacity:1.0000000;"
         offset="1.0000000"
         id="stop4052" />
    </linearGradient>
    <linearGradient
       id="linearGradient4038">
      <stop
         style="stop-color:#eed680;stop-opacity:1.0000000;"
         offset="0.0000000"
         id="stop4040" />
      <stop
         style="stop-color:#dfb546;stop-opacity:1.0000000;"
         offset="0.29427481"
         id="stop4042" />
      <stop
         style="stop-color:#d1940c;stop-opacity:1.0000000;"
         offset="1.0000000"
         id="stop4044" />
    </linearGradient>
  </defs>
  <sodipodi:namedview
     id="base"
     pagecolor="#ffffff"
     bordercolor="#666666"
     borderopacity="1.0"
     inkscape:pageopacity="0.0"
     inkscape:pageshadow="2"
     inkscape:zoom="2.9625"
     inkscape:cx="80"
     inkscape:cy="80"
     inkscape:window-width="756"
     inkscape:window-height="653"
     showgrid="true"
     snaptogrid="false"
     gridspacingx="1.0000000mm"
     gridspacingy="1.0000000mm"
     inkscape:window-x="616"
     inkscape:window-y="216"
     inkscape:current-layer="svg1" />
  <rect
     style="fill:none;fill-rule:evenodd;stroke:#000000;stroke-width:7.5;stroke-linejoin:round;stroke-miterlimit:4;stroke-dasharray:none;stroke-opacity:0.5"
     id="rect834"
     width="117.75612"
     height="133.38696"
     x="3.75"
     y="3.75"
     ry="22.892691"
     rx="22.892691" />
  <rect
     style="fill:#bab5ab;fill-opacity:1;fill-rule:evenodd;stroke:#000000;stroke-width:3.75;stroke-miterlimit:4;stroke-dasharray:none"
     id="rect828"
     width="117.75612"
     height="133.38696"
     x="3.6112251"
     y="3.6603317"
     ry="22.892691"
     rx="22.892691" />
  <path
     style="font-size:40px;fill:#ffffff;fill-opacity:1;stroke-width:1pt;font-family:Trek"
     d="M 62.932266,100.81058 L 69.444718,100.81058 L 76.203586,111.75854 L 82.997664,100.81058 L 89.439714,100.81058 L 79.160591,116.47566 L 79.160591,128.19808 L 73.281784,128.19808 L 73.281784,116.47566 L 62.932266,100.81058 z M 41.353174,118.4118 L 41.353174,128.19808 L 35.439164,128.19808 L 35.439164,100.81058 L 51.878704,100.81058 C 54.413274,100.81058 56.419814,101.56156 57.898314,103.06353 C 59.37682,104.54204 60.116071,106.72459 60.116071,109.61119 C 60.116071,112.47432 59.37682,114.65687 57.898314,116.15884 C 56.419814,117.66081 54.413274,118.4118 51.878704,118.4118 L 41.353174,118.4118 z M 41.353174,105.5277 L 41.353174,113.72987 L 49.203314,113.72987 C 50.494074,113.72987 51.550144,113.40131 52.371534,112.74421 C 53.192924,112.06362 53.603624,111.01929 53.603624,109.61119 C 53.603624,108.22655 53.192924,107.20568 52.371534,106.54857 C 51.573614,105.86799 50.517534,105.5277 49.203314,105.5277 L 41.353174,105.5277 z "
     id="path4100" />
  <path
     style="fill:#ffffff;fill-opacity:0.27935223;fill-rule:evenodd;stroke:none;stroke-width:6.25"
     d="M 100.34807,132.55498 L 24.630491,132.55498 C 12.985818,132.55498 7.2838846,126.85305 7.2838846,115.20838 C 7.2838846,115.20838 34.904216,48.692898 117.69468,38.550602 L 117.69468,115.20838 C 117.69468,126.85305 111.99274,132.55498 100.34807,132.55498 z "
     id="path2838"
     sodipodi:nodetypes="cccccc" />
  <g
     id="g1395"
     transform="matrix(0.507928,0,0,0.507928,8.8675636,5.4427143)">
    <path
       id="path1306"
       d="M 94.0625,9.9375 L 83.3125,25.53125 L 80.5625,19.875 L 76.90625,27.125 L 64.8125,10.375 L 59.0625,29.59375 L 41.25,20.34375 L 44.625,39.5625 L 38.15625,37.34375 L 40.5625,44.53125 L 20.75,41.25 L 30.375,59.3125 L 10.8125,65.59375 L 26.75,76.65625 L 20.75,79.6875 L 27.625,83.03125 L 11.25,94.875 L 30.4375,100.59375 L 21.1875,118.46875 L 40.875,115 L 38.5625,121.90625 L 44.53125,119.8125 L 41.25,138.53125 L 59.96875,128.84375 L 66.4375,148.875 L 77.5,132.90625 L 80.5625,138.96875 L 83.5625,132.78125 L 94.8125,148.75 L 100.8125,129.5625 L 118.46875,138.96875 L 115.125,118.59375 L 122.78125,121.09375 L 120.4375,114.40625 L 139.8125,117.625 L 130.46875,100.0625 L 149.4375,94.15625 L 133.03125,82.53125 L 139.8125,79.15625 L 132.96875,75.8125 L 149.3125,64 L 130.09375,58.21875 L 139.375,40.375 L 119.65625,43.875 L 121.9375,36.9375 L 115.25,39.25 L 118.46875,19.875 L 100.375,29.53125 L 94.0625,9.9375 z M 79.25,50.21875 C 96.090675,50.218749 109.75,63.878072 109.75,80.71875 C 109.75,97.559425 96.090678,111.21875 79.25,111.21875 C 62.409319,111.21875 48.75,97.559428 48.75,80.71875 C 48.749999,63.878069 62.409322,50.21875 79.25,50.21875 z "
       style="fill:#b39169;fill-opacity:1;fill-rule:evenodd;stroke:#000000;stroke-width:3.75;stroke-linecap:butt;stroke-miterlimit:4;stroke-dashoffset:0;stroke-opacity:0.44129555" />
    <path
       id="path1308"
       d="M 94.0625,9.9375 L 83.3125,25.53125 L 80.5625,19.875 L 76.90625,27.125 L 64.8125,10.375 L 59.0625,29.59375 L 41.25,20.34375 L 44.625,39.5625 L 38.15625,37.34375 L 40.5625,44.53125 L 20.75,41.25 L 30.375,59.3125 L 10.8125,65.59375 L 26.75,76.65625 L 20.75,79.6875 L 27.625,83.03125 L 11.25,94.875 L 30.4375,100.59375 L 21.1875,118.46875 L 40.875,115 L 38.5625,121.90625 L 44.53125,119.8125 L 41.25,138.53125 L 59.96875,128.84375 L 66.4375,148.875 L 77.5,132.90625 L 80.5625,138.96875 L 83.5625,132.78125 L 94.8125,148.75 L 100.8125,129.5625 L 118.46875,138.96875 L 115.125,118.59375 L 122.78125,121.09375 L 120.4375,114.40625 L 139.8125,117.625 L 130.46875,100.0625 L 149.4375,94.15625 L 133.03125,82.53125 L 139.8125,79.15625 L 132.96875,75.8125 L 149.3125,64 L 130.09375,58.21875 L 139.375,40.375 L 119.65625,43.875 L 121.9375,36.9375 L 115.25,39.25 L 118.46875,19.875 L 100.375,29.53125 L 94.0625,9.9375 z M 79.25,50.21875 C 96.090675,50.218749 109.75,63.878072 109.75,80.71875 C 109.75,97.559425 96.090678,111.21875 79.25,111.21875 C 62.409319,111.21875 48.75,97.559428 48.75,80.71875 C 48.749999,63.878069 62.409322,50.21875 79.25,50.21875 z "
       style="fill:#b39169;fill-opacity:1;fill-rule:evenodd;stroke:#000000;stroke-width:2.31577086;stroke-linecap:butt;stroke-miterlimit:4;stroke-dashoffset:0;stroke-opacity:1" />
    <path
       id="path2070"
       d="M 92.318617,18.476222 L 82.861382,32.19471 L 80.44209,27.218666 L 77.225531,33.5968 L 66.586142,18.861109 L 61.527622,35.768665 L 45.857204,27.631044 L 48.826336,44.538601 L 43.1355,42.586671 L 45.252381,48.909822 L 27.822479,46.023166 L 36.290002,61.913519 L 19.080035,67.439403 L 33.100934,77.171557 L 27.822479,79.838277 L 33.870709,82.779917 L 19.464922,93.199369 L 36.344986,98.230399 L 28.207366,113.95579 L 45.527301,110.90419 L 43.492896,116.97991 L 48.74386,115.13795 L 45.857204,131.60563 L 62.324889,123.08313 L 68.015724,140.70547 L 77.747878,126.65708 L 80.44209,131.99052 L 83.081319,126.54711 L 92.978424,140.59551 L 98.256879,123.71544 L 113.7898,131.99052 L 110.84816,114.06576 L 117.58369,116.26512 L 115.52179,110.38184 L 132.56681,113.21351 L 124.34671,97.763036 L 141.03433,92.567054 L 126.60105,82.340046 L 132.56681,79.370914 L 126.54607,76.429274 L 140.92436,66.037313 L 124.01681,60.951301 L 132.18192,45.253391 L 114.83449,48.332491 L 116.84141,42.229276 L 110.95812,44.263681 L 113.7898,27.218666 L 97.871992,35.713681 L 92.318617,18.476222 z M 79.287427,53.913359 C 94.102889,53.913358 106.11954,65.930048 106.11954,80.745512 C 106.11954,95.560973 94.102892,107.57766 79.287427,107.57766 C 64.471961,107.57766 52.455274,95.560976 52.455274,80.745512 C 52.455273,65.930045 64.471964,53.913359 79.287427,53.913359 z "
       style="fill:url(#linearGradient2840);fill-opacity:1;fill-rule:evenodd;stroke:none;stroke-width:2.03728247;stroke-linecap:butt;stroke-miterlimit:4;stroke-dashoffset:0;stroke-opacity:1" />
    <path
       sodipodi:nodetypes="ccccccccccccccccccccccccc"
       id="path2842"
       d="M 45.857204,131.60563 L 62.324889,123.08313 L 68.015724,140.70547 L 77.747878,126.65708 L 80.44209,131.99052 L 83.081319,126.54711 L 92.978424,140.59551 L 98.256879,123.71544 L 113.7898,131.99052 L 110.84816,114.06576 L 117.58369,116.26512 L 115.52179,110.38184 L 132.56681,113.21351 L 124.34671,97.763036 L 141.03433,92.567054 L 126.60105,82.340046 L 132.56681,79.370914 L 126.54607,76.429274 L 140.92436,66.037313 L 124.01681,60.951301 L 132.18192,45.253391 L 45.857204,131.60563 z M 106.11954,80.745512 C 106.11954,95.560973 94.102892,107.57766 79.287427,107.57766 C 64.471961,107.57766 106.11954,65.930048 106.11954,80.745512 z "
       style="fill:#ffffff;fill-opacity:0.35222671;fill-rule:evenodd;stroke:none;stroke-width:2.03728247;stroke-linecap:butt;stroke-miterlimit:4;stroke-dashoffset:0;stroke-opacity:1" />
  </g>
  <g
     id="g1486"
     transform="matrix(0.507928,0,0,0.507928,34.867564,21.442714)">
    <path
       id="path1488"
       d="M 94.0625,9.9375 L 83.3125,25.53125 L 80.5625,19.875 L 76.90625,27.125 L 64.8125,10.375 L 59.0625,29.59375 L 41.25,20.34375 L 44.625,39.5625 L 38.15625,37.34375 L 40.5625,44.53125 L 20.75,41.25 L 30.375,59.3125 L 10.8125,65.59375 L 26.75,76.65625 L 20.75,79.6875 L 27.625,83.03125 L 11.25,94.875 L 30.4375,100.59375 L 21.1875,118.46875 L 40.875,115 L 38.5625,121.90625 L 44.53125,119.8125 L 41.25,138.53125 L 59.96875,128.84375 L 66.4375,148.875 L 77.5,132.90625 L 80.5625,138.96875 L 83.5625,132.78125 L 94.8125,148.75 L 100.8125,129.5625 L 118.46875,138.96875 L 115.125,118.59375 L 122.78125,121.09375 L 120.4375,114.40625 L 139.8125,117.625 L 130.46875,100.0625 L 149.4375,94.15625 L 133.03125,82.53125 L 139.8125,79.15625 L 132.96875,75.8125 L 149.3125,64 L 130.09375,58.21875 L 139.375,40.375 L 119.65625,43.875 L 121.9375,36.9375 L 115.25,39.25 L 118.46875,19.875 L 100.375,29.53125 L 94.0625,9.9375 z M 79.25,50.21875 C 96.090675,50.218749 109.75,63.878072 109.75,80.71875 C 109.75,97.559425 96.090678,111.21875 79.25,111.21875 C 62.409319,111.21875 48.75,97.559428 48.75,80.71875 C 48.749999,63.878069 62.409322,50.21875 79.25,50.21875 z "
       style="fill:#b39169;fill-opacity:1;fill-rule:evenodd;stroke:#000000;stroke-width:3.75;stroke-linecap:butt;stroke-miterlimit:4;stroke-dashoffset:0;stroke-opacity:0.44129555" />
    <path
       id="path1490"
       d="M 94.0625,9.9375 L 83.3125,25.53125 L 80.5625,19.875 L 76.90625,27.125 L 64.8125,10.375 L 59.0625,29.59375 L 41.25,20.34375 L 44.625,39.5625 L 38.15625,37.34375 L 40.5625,44.53125 L 20.75,41.25 L 30.375,59.3125 L 10.8125,65.59375 L 26.75,76.65625 L 20.75,79.6875 L 27.625,83.03125 L 11.25,94.875 L 30.4375,100.59375 L 21.1875,118.46875 L 40.875,115 L 38.5625,121.90625 L 44.53125,119.8125 L 41.25,138.53125 L 59.96875,128.84375 L 66.4375,148.875 L 77.5,132.90625 L 80.5625,138.96875 L 83.5625,132.78125 L 94.8125,148.75 L 100.8125,129.5625 L 118.46875,138.96875 L 115.125,118.59375 L 122.78125,121.09375 L 120.4375,114.40625 L 139.8125,117.625 L 130.46875,100.0625 L 149.4375,94.15625 L 133.03125,82.53125 L 139.8125,79.15625 L 132.96875,75.8125 L 149.3125,64 L 130.09375,58.21875 L 139.375,40.375 L 119.65625,43.875 L 121.9375,36.9375 L 115.25,39.25 L 118.46875,19.875 L 100.375,29.53125 L 94.0625,9.9375 z M 79.25,50.21875 C 96.090675,50.218749 109.75,63.878072 109.75,80.71875 C 109.75,97.559425 96.090678,111.21875 79.25,111.21875 C 62.409319,111.21875 48.75,97.559428 48.75,80.71875 C 48.749999,63.878069 62.409322,50.21875 79.25,50.21875 z "
       style="fill:#b39169;fill-opacity:1;fill-rule:evenodd;stroke:#000000;stroke-width:2.31577086;stroke-linecap:butt;stroke-miterlimit:4;stroke-dashoffset:0;stroke-opacity:1" />
    <path
       id="path1492"
       d="M 92.318617,18.476222 L 82.861382,32.19471 L 80.44209,27.218666 L 77.225531,33.5968 L 66.586142,18.861109 L 61.527622,35.768665 L 45.857204,27.631044 L 48.826336,44.538601 L 43.1355,42.586671 L 45.252381,48.909822 L 27.822479,46.023166 L 36.290002,61.913519 L 19.080035,67.439403 L 33.100934,77.171557 L 27.822479,79.838277 L 33.870709,82.779917 L 19.464922,93.199369 L 36.344986,98.230399 L 28.207366,113.95579 L 45.527301,110.90419 L 43.492896,116.97991 L 48.74386,115.13795 L 45.857204,131.60563 L 62.324889,123.08313 L 68.015724,140.70547 L 77.747878,126.65708 L 80.44209,131.99052 L 83.081319,126.54711 L 92.978424,140.59551 L 98.256879,123.71544 L 113.7898,131.99052 L 110.84816,114.06576 L 117.58369,116.26512 L 115.52179,110.38184 L 132.56681,113.21351 L 124.34671,97.763036 L 141.03433,92.567054 L 126.60105,82.340046 L 132.56681,79.370914 L 126.54607,76.429274 L 140.92436,66.037313 L 124.01681,60.951301 L 132.18192,45.253391 L 114.83449,48.332491 L 116.84141,42.229276 L 110.95812,44.263681 L 113.7898,27.218666 L 97.871992,35.713681 L 92.318617,18.476222 z M 79.287427,53.913359 C 94.102889,53.913358 106.11954,65.930048 106.11954,80.745512 C 106.11954,95.560973 94.102892,107.57766 79.287427,107.57766 C 64.471961,107.57766 52.455274,95.560976 52.455274,80.745512 C 52.455273,65.930045 64.471964,53.913359 79.287427,53.913359 z "
       style="fill:url(#linearGradient1496);fill-opacity:1;fill-rule:evenodd;stroke:none;stroke-width:2.03728247;stroke-linecap:butt;stroke-miterlimit:4;stroke-dashoffset:0;stroke-opacity:1" />
    <path
       sodipodi:nodetypes="ccccccccccccccccccccccccc"
       id="path1494"
       d="M 45.857204,131.60563 L 62.324889,123.08313 L 68.015724,140.70547 L 77.747878,126.65708 L 80.44209,131.99052 L 83.081319,126.54711 L 92.978424,140.59551 L 98.256879,123.71544 L 113.7898,131.99052 L 110.84816,114.06576 L 117.58369,116.26512 L 115.52179,110.38184 L 132.56681,113.21351 L 124.34671,97.763036 L 141.03433,92.567054 L 126.60105,82.340046 L 132.56681,79.370914 L 126.54607,76.429274 L 140.92436,66.037313 L 124.01681,60.951301 L 132.18192,45.253391 L 45.857204,131.60563 z M 106.11954,80.745512 C 106.11954,95.560973 94.102892,107.57766 79.287427,107.57766 C 64.471961,107.57766 106.11954,65.930048 106.11954,80.745512 z "
       style="fill:#ffffff;fill-opacity:0.35222671;fill-rule:evenodd;stroke:none;stroke-width:2.03728247;stroke-linecap:butt;stroke-miterlimit:4;stroke-dashoffset:0;stroke-opacity:1" />
  </g>
  <path
     style="font-size:40px;stroke-width:1pt;font-family:Trek"
     d="M 63.610232,101.48854 L 70.122684,101.48854 L 76.881552,112.4365 L 83.675624,101.48854 L 90.117674,101.48854 L 79.838557,117.15362 L 79.838557,128.87604 L 73.95975,128.87604 L 73.95975,117.15362 L 63.610232,101.48854 z M 42.03114,119.08976 L 42.03114,128.87604 L 36.11713,128.87604 L 36.11713,101.48854 L 52.55667,101.48854 C 55.09124,101.48854 57.09778,102.23952 58.57628,103.74149 C 60.054786,105.22 60.794037,107.40255 60.794037,110.28915 C 60.794037,113.15228 60.054786,115.33483 58.57628,116.8368 C 57.09778,118.33877 55.09124,119.08976 52.55667,119.08976 L 42.03114,119.08976 z M 42.03114,106.20566 L 42.03114,114.40783 L 49.88128,114.40783 C 51.17204,114.40783 52.22811,114.07927 53.0495,113.42217 C 53.87089,112.74158 54.28159,111.69725 54.28159,110.28915 C 54.28159,108.90451 53.87089,107.88364 53.0495,107.22653 C 52.25158,106.54595 51.1955,106.20566 49.88128,106.20566 L 42.03114,106.20566 z "
     id="path873" />
  <path
     style="fill:url(#linearGradient2830);fill-opacity:1;fill-rule:evenodd;stroke:none;stroke-width:6.25"
     d="M 24.630491,7.3329923 L 100.34807,7.3329923 C 111.99274,7.3329923 117.69468,13.034925 117.69468,24.6796 C 117.69468,24.6796 38.408122,25.585198 7.2838846,116.02801 L 7.2838846,24.6796 C 7.2838846,14.390857 14.34175,7.3329923 24.630491,7.3329923 z "
     id="rect2063"
     sodipodi:nodetypes="cccccc" />
</svg>
