<?xml version="1.0" encoding="UTF-8" standalone="no"?>
<!-- Created with Inkscape (http://www.inkscape.org/) -->
<svg
   xmlns:dc="http://purl.org/dc/elements/1.1/"
   xmlns:cc="http://web.resource.org/cc/"
   xmlns:rdf="http://www.w3.org/1999/02/22-rdf-syntax-ns#"
   xmlns:svg="http://www.w3.org/2000/svg"
   xmlns="http://www.w3.org/2000/svg"
   xmlns:xlink="http://www.w3.org/1999/xlink"
   xmlns:sodipodi="http://sodipodi.sourceforge.net/DTD/sodipodi-0.dtd"
   xmlns:inkscape="http://www.inkscape.org/namespaces/inkscape"
   sodipodi:docname="rar.svg"
   sodipodi:docbase="/home/sept/svg"
   height="145.19621"
   width="144.01471"
   inkscape:version="0.45.1"
   sodipodi:version="0.32"
   id="svg1"
   inkscape:output_extension="org.inkscape.output.svg.inkscape"
   version="1.0">
  <metadata
     id="metadata33">
    <rdf:RDF>
      <cc:Work
         rdf:about="">
        <dc:format>image/svg+xml</dc:format>
        <dc:type
           rdf:resource="http://purl.org/dc/dcmitype/StillImage" />
      </cc:Work>
    </rdf:RDF>
  </metadata>
  <defs
     id="defs3">
    <linearGradient
       id="linearGradient850">
      <stop
         id="stop851"
         offset="0.0000000"
         style="stop-color:#fbffff;stop-opacity:0.0000000;" />
      <stop
         id="stop852"
         offset="1.0000000"
         style="stop-color:#ffffff;stop-opacity:1.0000000;" />
    </linearGradient>
    <linearGradient
       gradientUnits="userSpaceOnUse"
       gradientTransform="matrix(0.79345,0,0,1.071523,-1.4135254,-1.9700024)"
       y2="11.502785"
       x2="22.394283"
       y1="74.459419"
       x1="78.702637"
       id="linearGradient859"
       xlink:href="#linearGradient850" />
    <linearGradient
       id="linearGradient839">
      <stop
         id="stop840"
         offset="0.0000000"
         style="stop-color:#46a046;stop-opacity:1.0000000;" />
      <stop
         id="stop841"
         offset="0.39364964"
         style="stop-color:#df421e;stop-opacity:1.0000000;" />
      <stop
         id="stop842"
         offset="0.72036445"
         style="stop-color:#ada7c8;stop-opacity:1.0000000;" />
      <stop
         id="stop843"
         offset="1.0000000"
         style="stop-color:#eed680;stop-opacity:1.0000000;" />
    </linearGradient>
    <linearGradient
       id="linearGradient833">
      <stop
         id="stop834"
         offset="0.0000000"
         style="stop-color:#00ff00;stop-opacity:1.0000000;" />
      <stop
         id="stop837"
         offset="0.30839416"
         style="stop-color:#ff0000;stop-opacity:1.0000000;" />
      <stop
         id="stop838"
         offset="0.75000000"
         style="stop-color:#7f8cff;stop-opacity:1.0000000;" />
      <stop
         id="stop835"
         offset="1.0000000"
         style="stop-color:#ffff00;stop-opacity:1.0000000;" />
    </linearGradient>
    <linearGradient
       gradientUnits="userSpaceOnUse"
       gradientTransform="matrix(0.67348,0,0,1.262399,-1.4135254,-1.9700024)"
       y2="16.549269"
       x2="110.16822"
       y1="79.337822"
       x1="157.2149"
       id="linearGradient836"
       xlink:href="#linearGradient850" />
    <linearGradient
       y2="0.019354839"
       x2="0.029508196"
       y1="0.66881722"
       x1="0.61967212"
       id="linearGradient855"
       xlink:href="#linearGradient850" />
    <linearGradient
       y2="0.2920354"
       x2="0.67540985"
       y1="0.92035401"
       x1="0.39344263"
       id="linearGradient853"
       xlink:href="#linearGradient850" />
  </defs>
  <sodipodi:namedview
     inkscape:current-layer="svg1"
     inkscape:window-y="216"
     inkscape:window-x="624"
     gridspacingy="1.0000000mm"
     gridspacingx="1.0000000mm"
     snaptogrid="false"
     showgrid="true"
     inkscape:window-height="653"
     inkscape:window-width="751"
     inkscape:cy="25.762712"
     inkscape:cx="80"
     inkscape:zoom="2.95"
     inkscape:pageshadow="2"
     inkscape:pageopacity="0.0"
     borderopacity="1.0"
     bordercolor="#666666"
     pagecolor="#ffffff"
     id="base" />
  <path
     id="path874"
     d="M 74.456608,5.7628946 L 5.7628946,23.166832 L 5.9069666,114.04776 L 5.9357816,114.04776 L 5.9357816,114.22065 L 6.1951116,114.16302 L 74.283721,139.43331 L 138.25181,113.01044 L 138.25181,107.73739 L 138.25181,23.166832 L 74.456608,5.7628946 z "
     style="font-size:40px;fill:none;stroke:#000000;stroke-width:11.52578926;stroke-linejoin:round;stroke-opacity:0.5;font-family:Trek" />
  <path
     sodipodi:nodetypes="ccccc"
     id="path633"
     d="M 138.16986,22.956115 L 138.16986,107.51867 L 76.435364,93.937735 L 74.36735,5.5656666 L 138.16986,22.956115 z "
     style="font-size:12px;fill:#515151;fill-rule:evenodd;stroke:#000000;stroke-width:6.93449545;stroke-linecap:round;stroke-linejoin:round" />
  <path
     sodipodi:nodetypes="ccccc"
     id="path631"
     d="M 5.6602936,22.956115 L 74.36735,5.5656666 L 78.769027,96.948365 L 5.8404836,114.00122 L 5.6602936,22.956115 z "
     style="font-size:12px;fill:#4a494d;fill-rule:evenodd;stroke:#000000;stroke-width:6.93449545;stroke-linecap:round;stroke-linejoin:round" />
  <path
     sodipodi:nodetypes="ccccc"
     id="path640"
     d="M 74.199732,44.096749 L 138.16986,22.956115 L 74.36735,5.5656666 L 5.6602936,22.956115 L 74.199732,44.096749 z "
     style="font-size:12px;fill:#9db8d2;fill-rule:evenodd;stroke:#000000;stroke-width:6.93449545;stroke-linecap:round;stroke-linejoin:round" />
  <path
     sodipodi:nodetypes="ccccc"
     id="path627"
     d="M 138.16986,22.956115 L 138.16986,112.80383 L 74.199732,139.22961 L 74.199732,44.096749 L 138.16986,22.956115 z "
     style="font-size:12px;fill:#4b6983;fill-rule:evenodd;stroke:#000000;stroke-width:6.93449545;stroke-linecap:round;stroke-linejoin:round" />
  <path
     sodipodi:nodetypes="ccccc"
     id="path629"
     d="M 74.199732,44.096749 L 74.199732,139.22961 L 5.8017616,113.82714 L 5.6602936,22.956115 L 74.199732,44.096749 z "
     style="font-size:12px;fill:#7590ae;fill-rule:evenodd;stroke:#000000;stroke-width:6.93449545;stroke-linecap:round;stroke-linejoin:round" />
  <path
     sodipodi:nodetypes="ccccc"
     id="path892"
     d="M 74.113924,9.1743796 L 9.4104756,25.697393 L 9.4104756,110.21842 C 76.756357,136.63949 87.972606,153.97345 70.758635,41.652816 C 131.75496,19.179507 74.113924,9.1743796 74.113924,9.1743796 z "
     style="fill:url(#linearGradient859);fill-opacity:1;fill-rule:evenodd;stroke:none;stroke-width:1pt;stroke-linecap:butt;stroke-linejoin:miter;stroke-opacity:1" />
  <path
     sodipodi:nodetypes="cccccc"
     id="path849"
     d="M 77.785496,46.769497 L 77.785496,133.18811 C 78.038924,133.18811 104.90217,123.05103 117.32009,110.37968 C 129.99143,99.989175 134.2997,78.954722 134.2997,78.954722 L 134.2997,27.25562 L 77.785496,46.769497 z "
     style="fill:url(#linearGradient836);fill-opacity:0.75;fill-rule:evenodd;stroke:none;stroke-width:1pt;stroke-linecap:butt;stroke-linejoin:miter;stroke-opacity:1" />
  <path
     sodipodi:nodetypes="ccccc"
     id="path852"
     d="M 74.199732,44.096749 L 74.199732,139.22961 L 5.8017616,113.82714 L 5.6602936,22.956115 L 74.199732,44.096749 z "
     style="font-size:12px;fill:none;fill-rule:evenodd;stroke:#000000;stroke-width:6.93449545;stroke-linecap:round;stroke-linejoin:round" />
  <rect
     rx="7.4109697"
     y="65.944328"
     x="21.611664"
     ry="7.4109697"
     height="43.364216"
     width="102.16805"
     id="rect853"
     style="fill:#ffffff;fill-rule:evenodd;stroke:#000000;stroke-width:3.45773697" />
  <path
     id="path901"
     d="M 104.03487,90.45098 L 97.432905,90.45098 L 97.432905,101.73703 L 91.236645,101.73703 L 91.236645,73.042406 L 107.87066,73.042406 C 110.62456,73.042406 112.72686,73.718585 114.17757,75.070945 C 115.77581,76.546246 116.57493,78.771491 116.57493,81.746682 C 116.57493,82.902334 116.47658,83.910456 116.27987,84.771053 C 116.08317,85.607051 115.75123,86.381584 115.28404,87.094652 C 114.44804,88.397832 113.09568,89.381369 111.22697,90.045273 L 111.07944,90.082155 L 117.34947,101.73703 L 110.04673,101.73703 L 104.03487,90.45098 z M 97.432905,77.984664 L 97.432905,85.951294 L 104.66188,85.951294 C 106.088,85.951294 107.1576,85.680816 107.87066,85.139878 C 108.78043,84.525165 109.23531,83.467866 109.23531,81.967977 C 109.23531,80.566441 108.80501,79.558318 107.94442,78.94361 C 107.10842,78.304312 106.01424,77.984664 104.66188,77.984664 L 97.432905,77.984664 z M 58.853787,101.73703 L 71.135668,73.042406 L 77.442581,73.042406 L 89.724462,101.73703 L 83.159372,101.73703 L 80.319418,94.766235 L 68.332596,94.766235 L 65.455759,101.73703 L 58.853787,101.73703 z M 74.307566,80.050086 L 70.102958,90.266568 L 78.475291,90.266568 L 74.307566,80.050086 z M 42.588593,90.45098 L 35.986621,90.45098 L 35.986621,101.73703 L 29.790356,101.73703 L 29.790356,73.042406 L 46.424376,73.042406 C 49.17827,73.042406 51.280574,73.718585 52.731288,75.070945 C 54.32953,76.546246 55.128652,78.771491 55.128652,81.746682 C 55.128652,82.902334 55.030298,83.910456 54.833592,84.771053 C 54.636884,85.607051 54.304942,86.381584 53.837763,87.094652 C 53.001759,88.397832 51.6494,89.381369 49.780686,90.045273 L 49.633155,90.082155 L 55.903185,101.73703 L 48.600445,101.73703 L 42.588593,90.45098 z M 35.986621,77.984664 L 35.986621,85.951294 L 43.215596,85.951294 C 44.64172,85.951294 45.711313,85.680816 46.424376,85.139878 C 47.334144,84.525165 47.789029,83.467866 47.789029,81.967977 C 47.789029,80.566441 47.358733,79.558318 46.498141,78.94361 C 45.662136,78.304312 44.567954,77.984664 43.215596,77.984664 L 35.986621,77.984664 z "
     style="font-size:40px;stroke-width:1pt;font-family:Trek" />
</svg>
