<?xml version="1.0" encoding="UTF-8" standalone="no"?>
<!-- Created with Inkscape (http://www.inkscape.org/) -->
<svg
   xmlns:dc="http://purl.org/dc/elements/1.1/"
   xmlns:cc="http://web.resource.org/cc/"
   xmlns:rdf="http://www.w3.org/1999/02/22-rdf-syntax-ns#"
   xmlns:svg="http://www.w3.org/2000/svg"
   xmlns="http://www.w3.org/2000/svg"
   xmlns:xlink="http://www.w3.org/1999/xlink"
   xmlns:sodipodi="http://sodipodi.sourceforge.net/DTD/sodipodi-0.dtd"
   xmlns:inkscape="http://www.inkscape.org/namespaces/inkscape"
   sodipodi:docname="xls.svg"
   sodipodi:docbase="/home/sept/svg"
   height="140.88696"
   width="125.25612"
   inkscape:version="0.45.1"
   sodipodi:version="0.32"
   id="svg1"
   inkscape:output_extension="org.inkscape.output.svg.inkscape"
   version="1.0">
  <metadata
     id="metadata15">
    <rdf:RDF>
      <cc:Work
         rdf:about="">
        <dc:format>image/svg+xml</dc:format>
        <dc:type
           rdf:resource="http://purl.org/dc/dcmitype/StillImage" />
      </cc:Work>
    </rdf:RDF>
  </metadata>
  <defs
     id="defs3">
    <linearGradient
       id="linearGradient3587">
      <stop
         style="stop-color:#efe0cd;stop-opacity:0.56097561;"
         offset="0.0000000"
         id="stop3589" />
      <stop
         style="stop-color:#cececd;stop-opacity:0.21951219;"
         offset="1.0000000"
         id="stop3591" />
    </linearGradient>
    <linearGradient
       id="linearGradient2832">
      <stop
         id="stop2834"
         offset="0.0000000"
         style="stop-color:#ffffff;stop-opacity:1.0000000;" />
      <stop
         id="stop2836"
         offset="1.0000000"
         style="stop-color:#ffffff;stop-opacity:0.0000000;" />
    </linearGradient>
    <linearGradient
       id="linearGradient839">
      <stop
         id="stop840"
         offset="0.0000000"
         style="stop-color:#46a046;stop-opacity:1.0000000;" />
      <stop
         id="stop841"
         offset="0.39364964"
         style="stop-color:#df421e;stop-opacity:1.0000000;" />
      <stop
         id="stop842"
         offset="0.72036445"
         style="stop-color:#ada7c8;stop-opacity:1.0000000;" />
      <stop
         id="stop843"
         offset="1.0000000"
         style="stop-color:#eed680;stop-opacity:1.0000000;" />
    </linearGradient>
    <linearGradient
       y2="0.5"
       x2="1"
       y1="0.5"
       x1="1.3267924e-17"
       id="linearGradient836"
       xlink:href="#linearGradient839" />
    <linearGradient
       gradientUnits="userSpaceOnUse"
       y2="73.39872"
       x2="72.999245"
       y1="16.369013"
       x1="23.983805"
       gradientTransform="matrix(0.939922,0,0,0.896911,-12.081733,-3.3524237)"
       id="linearGradient2830"
       xlink:href="#linearGradient2832"
       inkscape:collect="always" />
    <linearGradient
       inkscape:collect="always"
       xlink:href="#linearGradient1700"
       id="linearGradient1407"
       gradientUnits="userSpaceOnUse"
       gradientTransform="matrix(0.777129,0,0,0.894628,-162.4688,12.76856)"
       x1="111.32588"
       y1="124.28045"
       x2="107.31592"
       y2="93.732185" />
    <linearGradient
       inkscape:collect="always"
       xlink:href="#linearGradient1700"
       id="linearGradient1390"
       gradientUnits="userSpaceOnUse"
       gradientTransform="matrix(0.777129,0,0,0.894628,-2.922179,10.43077)"
       x1="111.32588"
       y1="124.28045"
       x2="107.31592"
       y2="93.732185" />
    <linearGradient
       id="linearGradient1350">
      <stop
         id="stop1352"
         offset="0.0000000"
         style="stop-color:#46a046;stop-opacity:1.0000000;" />
      <stop
         id="stop1354"
         offset="0.39364964"
         style="stop-color:#df421e;stop-opacity:1.0000000;" />
      <stop
         id="stop1356"
         offset="0.72036445"
         style="stop-color:#ada7c8;stop-opacity:1.0000000;" />
      <stop
         id="stop1358"
         offset="1.0000000"
         style="stop-color:#eed680;stop-opacity:1.0000000;" />
    </linearGradient>
    <linearGradient
       y2="0.5"
       x2="1"
       y1="0.5"
       x1="1.3267924e-17"
       id="linearGradient1360"
       xlink:href="#linearGradient839" />
    <linearGradient
       gradientUnits="userSpaceOnUse"
       y2="87.980263"
       x2="128.66997"
       y1="121.73159"
       x1="123.50353"
       gradientTransform="matrix(0.870364,0,0,1.001961,4.612015,4.886798)"
       id="linearGradient1362"
       xlink:href="#linearGradient1700"
       inkscape:collect="always" />
    <linearGradient
       y2="0.5"
       x2="1"
       y1="0.5"
       x1="1.3267924e-17"
       id="linearGradient1363"
       xlink:href="#linearGradient839" />
    <linearGradient
       id="linearGradient1353">
      <stop
         id="stop1355"
         offset="0.0000000"
         style="stop-color:#46a046;stop-opacity:1.0000000;" />
      <stop
         id="stop1357"
         offset="0.39364964"
         style="stop-color:#df421e;stop-opacity:1.0000000;" />
      <stop
         id="stop1359"
         offset="0.72036445"
         style="stop-color:#ada7c8;stop-opacity:1.0000000;" />
      <stop
         id="stop1361"
         offset="1.0000000"
         style="stop-color:#eed680;stop-opacity:1.0000000;" />
    </linearGradient>
    <linearGradient
       id="linearGradient1700">
      <stop
         id="stop1701"
         offset="0.0000000"
         style="stop-color:#000000;stop-opacity:0.69918698;" />
      <stop
         id="stop1702"
         offset="1"
         style="stop-color:#000000;stop-opacity:0;" />
    </linearGradient>
    <linearGradient
       xlink:href="#linearGradient839"
       id="linearGradient1427"
       x1="1.3267924e-17"
       y1="0.5"
       x2="1"
       y2="0.5" />
    <linearGradient
       id="linearGradient1417">
      <stop
         style="stop-color:#46a046;stop-opacity:1.0000000;"
         offset="0.0000000"
         id="stop1419" />
      <stop
         style="stop-color:#df421e;stop-opacity:1.0000000;"
         offset="0.39364964"
         id="stop1421" />
      <stop
         style="stop-color:#ada7c8;stop-opacity:1.0000000;"
         offset="0.72036445"
         id="stop1423" />
      <stop
         style="stop-color:#eed680;stop-opacity:1.0000000;"
         offset="1.0000000"
         id="stop1425" />
    </linearGradient>
    <linearGradient
       y2="0.5"
       x2="1"
       y1="0.5"
       x1="1.3267924e-17"
       id="linearGradient1381"
       xlink:href="#linearGradient839" />
    <linearGradient
       id="linearGradient1371">
      <stop
         id="stop1373"
         offset="0.0000000"
         style="stop-color:#46a046;stop-opacity:1.0000000;" />
      <stop
         id="stop1375"
         offset="0.39364964"
         style="stop-color:#df421e;stop-opacity:1.0000000;" />
      <stop
         id="stop1377"
         offset="0.72036445"
         style="stop-color:#ada7c8;stop-opacity:1.0000000;" />
      <stop
         id="stop1379"
         offset="1.0000000"
         style="stop-color:#eed680;stop-opacity:1.0000000;" />
    </linearGradient>
    <linearGradient
       xlink:href="#linearGradient839"
       id="linearGradient1374"
       x1="1.3267924e-17"
       y1="0.5"
       x2="1"
       y2="0.5" />
    <linearGradient
       id="linearGradient1364">
      <stop
         style="stop-color:#46a046;stop-opacity:1.0000000;"
         offset="0.0000000"
         id="stop1366" />
      <stop
         style="stop-color:#df421e;stop-opacity:1.0000000;"
         offset="0.39364964"
         id="stop1368" />
      <stop
         style="stop-color:#ada7c8;stop-opacity:1.0000000;"
         offset="0.72036445"
         id="stop1370" />
      <stop
         style="stop-color:#eed680;stop-opacity:1.0000000;"
         offset="1.0000000"
         id="stop1372" />
    </linearGradient>
    <linearGradient
       spreadMethod="reflect"
       y2="0.47328246"
       x2="0.37377051"
       y1="0.78625953"
       x1="0.6885246"
       id="linearGradient674"
       xlink:href="#linearGradient869" />
    <linearGradient
       y2="0.5"
       x2="1"
       y1="0.5"
       x1="1.3267924e-17"
       id="linearGradient1462"
       xlink:href="#linearGradient839" />
    <linearGradient
       id="linearGradient1452">
      <stop
         id="stop1454"
         offset="0.0000000"
         style="stop-color:#46a046;stop-opacity:1.0000000;" />
      <stop
         id="stop1456"
         offset="0.39364964"
         style="stop-color:#df421e;stop-opacity:1.0000000;" />
      <stop
         id="stop1458"
         offset="0.72036445"
         style="stop-color:#ada7c8;stop-opacity:1.0000000;" />
      <stop
         id="stop1460"
         offset="1.0000000"
         style="stop-color:#eed680;stop-opacity:1.0000000;" />
    </linearGradient>
    <linearGradient
       spreadMethod="reflect"
       y2="0.29411766"
       x2="0.17377049"
       y1="0.49346405"
       x1="0.35737705"
       id="linearGradient904"
       xlink:href="#linearGradient907" />
    <linearGradient
       id="linearGradient866">
      <stop
         id="stop867"
         offset="0.0000000"
         style="stop-color:#ffff00;stop-opacity:1.0000000;" />
      <stop
         id="stop901"
         offset="0.36908397"
         style="stop-color:#ffea00;stop-opacity:1.0000000;" />
      <stop
         id="stop868"
         offset="1.0000000"
         style="stop-color:#ffd600;stop-opacity:1.0000000;" />
    </linearGradient>
    <linearGradient
       id="linearGradient869">
      <stop
         id="stop870"
         offset="0.0000000"
         style="stop-color:#7590ae;stop-opacity:1.0000000;" />
      <stop
         id="stop912"
         offset="0.87030536"
         style="stop-color:#89a4c0;stop-opacity:1.0000000;" />
      <stop
         id="stop871"
         offset="1.0000000"
         style="stop-color:#9db8d2;stop-opacity:1.0000000;" />
    </linearGradient>
    <linearGradient
       id="linearGradient907">
      <stop
         id="stop908"
         offset="0.0000000"
         style="stop-color:#eed680;stop-opacity:1.0000000;" />
      <stop
         id="stop911"
         offset="0.29427481"
         style="stop-color:#dfb546;stop-opacity:1.0000000;" />
      <stop
         id="stop910"
         offset="1.0000000"
         style="stop-color:#d1940c;stop-opacity:1.0000000;" />
    </linearGradient>
  </defs>
  <sodipodi:namedview
     inkscape:current-layer="svg1"
     inkscape:window-y="216"
     inkscape:window-x="616"
     gridspacingy="1.0000000mm"
     gridspacingx="1.0000000mm"
     snaptogrid="false"
     showgrid="true"
     inkscape:window-height="653"
     inkscape:window-width="756"
     inkscape:cy="77.288136"
     inkscape:cx="71.186441"
     inkscape:zoom="2.95"
     inkscape:pageshadow="2"
     inkscape:pageopacity="0.0"
     borderopacity="1.0"
     bordercolor="#666666"
     pagecolor="#ffffff"
     id="base" />
  <rect
     rx="22.892691"
     ry="22.892691"
     y="3.75"
     x="3.75"
     height="133.38696"
     width="117.75612"
     id="rect834"
     style="fill:none;fill-rule:evenodd;stroke:#000000;stroke-width:7.5;stroke-linejoin:round;stroke-miterlimit:4;stroke-dasharray:none;stroke-opacity:0.5" />
  <rect
     rx="22.892691"
     ry="22.892691"
     y="3.6603317"
     x="3.6112251"
     height="133.38696"
     width="117.75612"
     id="rect828"
     style="fill:#bab5ab;fill-opacity:1;fill-rule:evenodd;stroke:#000000;stroke-width:3.75;stroke-miterlimit:4;stroke-dasharray:none" />
  <path
     sodipodi:nodetypes="cccccc"
     id="path2838"
     d="M 100.34807,132.55498 L 24.630491,132.55498 C 12.985818,132.55498 7.2838846,126.85305 7.2838846,115.20838 C 7.2838846,115.20838 34.904216,48.692898 117.69468,38.550602 L 117.69468,115.20838 C 117.69468,126.85305 111.99274,132.55498 100.34807,132.55498 z "
     style="fill:#ffffff;fill-opacity:0.27935223;fill-rule:evenodd;stroke:none;stroke-width:6.25" />
  <path
     id="path1592"
     d="M 103.59323,94.588084 L 103.59323,99.948084 L 86.393234,99.948084 C 85.299904,99.948084 84.313234,100.26808 83.433234,100.90808 C 82.686561,101.57475 82.313228,102.49475 82.313228,103.66808 C 82.313228,104.94808 82.726561,105.90808 83.553234,106.54808 C 84.273234,107.10808 85.259904,107.38808 86.513234,107.38808 L 96.193234,107.38808 C 98.353234,107.38808 100.2999,108.00141 102.03323,109.22808 C 104.2199,110.85475 105.31323,113.29475 105.31323,116.54808 C 105.31323,119.64141 104.2199,122.06808 102.03323,123.82808 C 100.32656,125.08141 98.379904,125.70808 96.193234,125.70808 L 75.593228,125.70808 L 75.593228,120.38808 L 93.193234,120.38808 C 94.206564,120.38808 95.139904,120.02808 95.993234,119.30808 C 96.846564,118.58808 97.273234,117.66808 97.273234,116.54808 C 97.273234,115.40141 96.846564,114.48141 95.993234,113.78808 C 95.193234,113.06808 94.219904,112.70808 93.073234,112.70808 L 83.313234,112.70808 C 81.153228,112.70808 79.233228,112.10808 77.553228,110.90808 C 75.366568,109.28141 74.273228,106.86808 74.273228,103.66808 C 74.273228,100.46808 75.366568,98.054754 77.553228,96.428084 C 79.179898,95.201414 81.099898,94.588084 83.313234,94.588084 L 103.59323,94.588084 z M 61.673228,125.70808 C 60.099898,125.70808 58.659898,125.49475 57.353228,125.06808 C 56.046558,124.61475 54.926568,123.97475 53.993228,123.14808 C 53.513228,122.72141 53.046558,122.18808 52.593228,121.54808 C 52.379898,121.25475 52.206568,120.98808 52.073228,120.74808 C 51.939898,120.48141 51.766568,120.06808 51.553228,119.50808 C 51.019898,118.04141 50.753228,116.34808 50.753228,114.42808 L 50.753228,94.588084 L 57.473228,94.588084 L 57.473228,113.98808 C 57.473228,115.02808 57.593228,115.90808 57.833228,116.62808 C 58.099898,117.34808 58.553228,118.04141 59.193228,118.70808 C 59.806568,119.26808 60.513228,119.69475 61.313228,119.98808 C 62.113228,120.25475 62.979898,120.38808 63.913228,120.38808 L 72.633228,120.38808 L 72.633228,125.70808 L 61.673228,125.70808 z M 19.513228,94.588084 L 27.433228,94.588084 L 34.353228,105.30808 L 41.153228,94.588084 L 49.073228,94.588084 L 37.673228,110.14808 L 49.073228,125.70808 L 41.153228,125.70808 L 34.353228,114.98808 L 27.433228,125.70808 L 19.513228,125.70808 L 30.913228,110.14808 L 19.513228,94.588084 z "
     style="font-size:40px;fill:#ffffff;fill-opacity:1;stroke-width:1pt;font-family:Trek" />
  <path
     id="path1068"
     d="M 104.27119,95.266044 L 104.27119,100.62604 L 87.071194,100.62604 C 85.977864,100.62604 84.991194,100.94604 84.111194,101.58604 C 83.364524,102.25271 82.991194,103.17271 82.991194,104.34604 C 82.991194,105.62604 83.404524,106.58604 84.231194,107.22604 C 84.951194,107.78604 85.937864,108.06604 87.191194,108.06604 L 96.871194,108.06604 C 99.031194,108.06604 100.97786,108.67937 102.71119,109.90604 C 104.89786,111.53271 105.99119,113.97271 105.99119,117.22604 C 105.99119,120.31937 104.89786,122.74604 102.71119,124.50604 C 101.00452,125.75937 99.057864,126.38604 96.871194,126.38604 L 76.271194,126.38604 L 76.271194,121.06604 L 93.871194,121.06604 C 94.884524,121.06604 95.817864,120.70604 96.671194,119.98604 C 97.524524,119.26604 97.951194,118.34604 97.951194,117.22604 C 97.951194,116.07937 97.524524,115.15937 96.671194,114.46604 C 95.871194,113.74604 94.897864,113.38604 93.751194,113.38604 L 83.991194,113.38604 C 81.831194,113.38604 79.911194,112.78604 78.231194,111.58604 C 76.044534,109.95937 74.951194,107.54604 74.951194,104.34604 C 74.951194,101.14604 76.044534,98.732714 78.231194,97.106044 C 79.857864,95.879374 81.777864,95.266044 83.991194,95.266044 L 104.27119,95.266044 z M 62.351194,126.38604 C 60.777864,126.38604 59.337864,126.17271 58.031194,125.74604 C 56.724524,125.29271 55.604534,124.65271 54.671194,123.82604 C 54.191194,123.39937 53.724524,122.86604 53.271194,122.22604 C 53.057864,121.93271 52.884534,121.66604 52.751194,121.42604 C 52.617864,121.15937 52.444534,120.74604 52.231194,120.18604 C 51.697864,118.71937 51.431194,117.02604 51.431194,115.10604 L 51.431194,95.266044 L 58.151194,95.266044 L 58.151194,114.66604 C 58.151194,115.70604 58.271194,116.58604 58.511194,117.30604 C 58.777864,118.02604 59.231194,118.71937 59.871194,119.38604 C 60.484534,119.94604 61.191194,120.37271 61.991194,120.66604 C 62.791194,120.93271 63.657864,121.06604 64.591194,121.06604 L 73.311194,121.06604 L 73.311194,126.38604 L 62.351194,126.38604 z M 20.191194,95.266044 L 28.111194,95.266044 L 35.031194,105.98604 L 41.831194,95.266044 L 49.751194,95.266044 L 38.351194,110.82604 L 49.751194,126.38604 L 41.831194,126.38604 L 35.031194,115.66604 L 28.111194,126.38604 L 20.191194,126.38604 L 31.591194,110.82604 L 20.191194,95.266044 z "
     style="font-size:40px;stroke-width:1pt;font-family:Trek" />
  <g
     transform="translate(-26.091876,-6.4631057)"
     id="g938">
    <rect
       y="23.673359"
       x="41.156162"
       height="70.600235"
       width="79.987961"
       id="rect830"
       style="fill:#ffffff;fill-rule:evenodd;stroke:#000000;stroke-width:3.49224687" />
    <rect
       y="24.866571"
       x="42.489933"
       height="11.28526"
       width="25.79488"
       id="rect831"
       style="fill:#b8baba;fill-rule:evenodd;stroke:#717373;stroke-width:0.45499301pt" />
    <rect
       y="25.173307"
       x="42.898914"
       height="0.89646012"
       width="25.110155"
       id="rect837"
       style="fill:#ffffff;fill-rule:evenodd;stroke-width:1pt" />
    <rect
       transform="matrix(0,1,-1,0,0,0)"
       y="-43.734993"
       x="25.642673"
       height="0.89646012"
       width="10.182296"
       id="rect838"
       style="fill:#ffffff;fill-rule:evenodd;stroke-width:1pt" />
    <rect
       y="34.886642"
       x="43.716877"
       height="0.89646012"
       width="24.292191"
       id="rect839"
       style="fill:#333333;fill-rule:evenodd;stroke-width:1pt" />
    <rect
       transform="matrix(0,1,-1,0,0,0)"
       y="-67.967209"
       x="26.153902"
       height="0.89646012"
       width="8.8531008"
       id="rect840"
       style="fill:#333333;fill-rule:evenodd;stroke-width:1pt" />
    <rect
       y="24.866571"
       x="68.284813"
       height="11.28526"
       width="25.79488"
       id="rect841"
       style="fill:#b8baba;fill-rule:evenodd;stroke:#717373;stroke-width:0.45499301pt" />
    <rect
       y="25.173307"
       x="68.693794"
       height="0.89646012"
       width="25.110155"
       id="rect842"
       style="fill:#ffffff;fill-rule:evenodd;stroke-width:1pt" />
    <rect
       transform="matrix(0,1,-1,0,0,0)"
       y="-69.529869"
       x="25.642673"
       height="0.89646012"
       width="10.182296"
       id="rect843"
       style="fill:#ffffff;fill-rule:evenodd;stroke-width:1pt" />
    <rect
       y="34.886642"
       x="69.511757"
       height="0.89646012"
       width="24.292191"
       id="rect844"
       style="fill:#333333;fill-rule:evenodd;stroke-width:1pt" />
    <rect
       transform="matrix(0,1,-1,0,0,0)"
       y="-93.762085"
       x="26.153902"
       height="0.89646012"
       width="8.8531008"
       id="rect845"
       style="fill:#333333;fill-rule:evenodd;stroke-width:1pt" />
    <rect
       y="24.866571"
       x="94.079689"
       height="11.28526"
       width="25.79488"
       id="rect846"
       style="fill:#b8baba;fill-rule:evenodd;stroke:#717373;stroke-width:0.45499301pt" />
    <rect
       y="25.173309"
       x="94.48867"
       height="0.89646012"
       width="25.110155"
       id="rect847"
       style="fill:#ffffff;fill-rule:evenodd;stroke-width:1pt" />
    <rect
       transform="matrix(0,1,-1,0,0,0)"
       y="-95.324745"
       x="25.642673"
       height="0.89646012"
       width="10.182296"
       id="rect848"
       style="fill:#ffffff;fill-rule:evenodd;stroke-width:1pt" />
    <rect
       y="34.886646"
       x="95.306633"
       height="0.89646012"
       width="24.292191"
       id="rect849"
       style="fill:#333333;fill-rule:evenodd;stroke-width:1pt" />
    <rect
       transform="matrix(0,1,-1,0,0,0)"
       y="-119.55696"
       x="26.153902"
       height="0.89646012"
       width="8.8531008"
       id="rect850"
       style="fill:#333333;fill-rule:evenodd;stroke-width:1pt" />
    <rect
       y="58.722347"
       x="42.489929"
       height="11.28526"
       width="25.79488"
       id="rect851"
       style="fill:#b8baba;fill-rule:evenodd;stroke:#717373;stroke-width:0.45499301pt" />
    <rect
       y="59.029091"
       x="42.898914"
       height="0.89646012"
       width="25.110155"
       id="rect852"
       style="fill:#ffffff;fill-rule:evenodd;stroke-width:1pt" />
    <rect
       transform="matrix(0,1,-1,0,0,0)"
       y="-43.734982"
       x="59.498455"
       height="0.89646012"
       width="10.182296"
       id="rect853"
       style="fill:#ffffff;fill-rule:evenodd;stroke-width:1pt" />
    <rect
       y="68.742424"
       x="43.716869"
       height="0.89646012"
       width="24.292191"
       id="rect854"
       style="fill:#333333;fill-rule:evenodd;stroke-width:1pt" />
    <rect
       transform="matrix(0,1,-1,0,0,0)"
       y="-67.967201"
       x="60.009682"
       height="0.89646012"
       width="8.8531008"
       id="rect855"
       style="fill:#333333;fill-rule:evenodd;stroke-width:1pt" />
    <rect
       y="36.151833"
       x="42.489933"
       height="11.28526"
       width="25.79488"
       id="rect856"
       style="fill:#b8baba;fill-rule:evenodd;stroke:#717373;stroke-width:0.45499301pt" />
    <rect
       y="36.458569"
       x="42.898914"
       height="0.89646012"
       width="25.110155"
       id="rect857"
       style="fill:#ffffff;fill-rule:evenodd;stroke-width:1pt" />
    <rect
       transform="matrix(0,1,-1,0,0,0)"
       y="-43.734993"
       x="36.927933"
       height="0.89646012"
       width="10.182296"
       id="rect858"
       style="fill:#ffffff;fill-rule:evenodd;stroke-width:1pt" />
    <rect
       y="46.171906"
       x="43.716877"
       height="0.89646012"
       width="24.292191"
       id="rect859"
       style="fill:#333333;fill-rule:evenodd;stroke-width:1pt" />
    <rect
       transform="matrix(0,1,-1,0,0,0)"
       y="-67.967209"
       x="37.439163"
       height="0.89646012"
       width="8.8531008"
       id="rect860"
       style="fill:#333333;fill-rule:evenodd;stroke-width:1pt" />
    <rect
       y="47.437092"
       x="42.489933"
       height="11.28526"
       width="25.79488"
       id="rect861"
       style="fill:#b8baba;fill-rule:evenodd;stroke:#717373;stroke-width:0.45499301pt" />
    <rect
       y="47.743828"
       x="42.898914"
       height="0.89646012"
       width="25.110155"
       id="rect862"
       style="fill:#ffffff;fill-rule:evenodd;stroke-width:1pt" />
    <rect
       transform="matrix(0,1,-1,0,0,0)"
       y="-43.734989"
       x="48.213192"
       height="0.89646012"
       width="10.182296"
       id="rect863"
       style="fill:#ffffff;fill-rule:evenodd;stroke-width:1pt" />
    <rect
       y="57.457165"
       x="43.716877"
       height="0.89646012"
       width="24.292191"
       id="rect864"
       style="fill:#333333;fill-rule:evenodd;stroke-width:1pt" />
    <rect
       transform="matrix(0,1,-1,0,0,0)"
       y="-67.967209"
       x="48.724422"
       height="0.89646012"
       width="8.8531008"
       id="rect865"
       style="fill:#333333;fill-rule:evenodd;stroke-width:1pt" />
    <rect
       y="70.007614"
       x="42.489933"
       height="11.28526"
       width="25.79488"
       id="rect866"
       style="fill:#b8baba;fill-rule:evenodd;stroke:#717373;stroke-width:0.45499301pt" />
    <rect
       y="70.314354"
       x="42.898918"
       height="0.89646012"
       width="25.110155"
       id="rect867"
       style="fill:#ffffff;fill-rule:evenodd;stroke-width:1pt" />
    <rect
       transform="matrix(0,1,-1,0,0,0)"
       y="-43.734982"
       x="70.783714"
       height="0.89646012"
       width="10.182296"
       id="rect868"
       style="fill:#ffffff;fill-rule:evenodd;stroke-width:1pt" />
    <rect
       y="80.027679"
       x="43.716869"
       height="0.89646012"
       width="24.292191"
       id="rect869"
       style="fill:#333333;fill-rule:evenodd;stroke-width:1pt" />
    <rect
       transform="matrix(0,1,-1,0,0,0)"
       y="-67.967201"
       x="71.294945"
       height="0.89646012"
       width="8.8531008"
       id="rect870"
       style="fill:#333333;fill-rule:evenodd;stroke-width:1pt" />
    <rect
       y="81.29287"
       x="42.489933"
       height="11.28526"
       width="25.79488"
       id="rect871"
       style="fill:#b8baba;fill-rule:evenodd;stroke:#717373;stroke-width:0.45499301pt" />
    <rect
       y="81.599609"
       x="42.898918"
       height="0.89646012"
       width="25.110155"
       id="rect872"
       style="fill:#ffffff;fill-rule:evenodd;stroke-width:1pt" />
    <rect
       transform="matrix(0,1,-1,0,0,0)"
       y="-43.734982"
       x="82.06897"
       height="0.89646012"
       width="10.182296"
       id="rect873"
       style="fill:#ffffff;fill-rule:evenodd;stroke-width:1pt" />
    <rect
       y="91.312935"
       x="43.716869"
       height="0.89646012"
       width="24.292191"
       id="rect874"
       style="fill:#333333;fill-rule:evenodd;stroke-width:1pt" />
    <rect
       transform="matrix(0,1,-1,0,0,0)"
       y="-67.967201"
       x="82.580193"
       height="0.89646012"
       width="8.8531008"
       id="rect875"
       style="fill:#333333;fill-rule:evenodd;stroke-width:1pt" />
    <rect
       y="36.436203"
       x="68.000443"
       height="11.28526"
       width="25.79488"
       id="rect876"
       style="fill:#ffffff;fill-rule:evenodd;stroke:#717373;stroke-width:0.45499301pt" />
    <rect
       y="36.436203"
       x="93.795319"
       height="11.28526"
       width="25.79488"
       id="rect877"
       style="fill:#ffffff;fill-rule:evenodd;stroke:#717373;stroke-width:0.45499301pt" />
    <rect
       y="47.721462"
       x="68.000443"
       height="11.28526"
       width="25.79488"
       id="rect878"
       style="fill:#ffffff;fill-rule:evenodd;stroke:#717373;stroke-width:0.45499301pt" />
    <rect
       y="47.721462"
       x="93.795319"
       height="11.28526"
       width="25.79488"
       id="rect879"
       style="fill:#ffffff;fill-rule:evenodd;stroke:#717373;stroke-width:0.45499301pt" />
    <rect
       y="59.006721"
       x="68.000443"
       height="11.28526"
       width="25.79488"
       id="rect880"
       style="fill:#ffffff;fill-rule:evenodd;stroke:#717373;stroke-width:0.45499301pt" />
    <rect
       y="59.006721"
       x="93.795319"
       height="11.28526"
       width="25.79488"
       id="rect881"
       style="fill:#ffffff;fill-rule:evenodd;stroke:#717373;stroke-width:0.45499301pt" />
    <rect
       y="70.291977"
       x="68.000443"
       height="11.28526"
       width="25.79488"
       id="rect882"
       style="fill:#ffffff;fill-rule:evenodd;stroke:#717373;stroke-width:0.45499301pt" />
    <rect
       y="70.291977"
       x="93.795319"
       height="11.28526"
       width="25.79488"
       id="rect883"
       style="fill:#ffffff;fill-rule:evenodd;stroke:#717373;stroke-width:0.45499301pt" />
    <rect
       y="81.57724"
       x="68.000443"
       height="11.28526"
       width="25.79488"
       id="rect884"
       style="fill:#ffffff;fill-rule:evenodd;stroke:#717373;stroke-width:0.45499301pt" />
    <rect
       y="81.57724"
       x="93.795319"
       height="11.28526"
       width="25.79488"
       id="rect885"
       style="fill:#ffffff;fill-rule:evenodd;stroke:#717373;stroke-width:0.45499301pt" />
  </g>
  <g
     transform="matrix(0.410918,0,0,0.410918,54.912524,20.127804)"
     id="g926">
    <path
       sodipodi:nodetypes="ccccccc"
       id="path1525"
       d="M 21.9247,25.980724 L 21.9247,139.05883 C 45.782025,120.21248 57.486998,124.92408 78.463757,139.05883 C 99.891292,153.1936 121.39975,153.1936 139.71441,129.63566 L 139.71441,11.84596 C 120.86806,35.4039 106.73329,49.538665 79.860986,26.645457 C 55.869935,7.7991038 45.782025,7.1343714 21.9247,25.980724 z "
       style="fill-rule:evenodd;stroke:#000000;stroke-width:1.32971489;stroke-linejoin:round" />
    <path
       sodipodi:nodetypes="ccccccc"
       id="path855"
       d="M 26.636288,30.692312 L 26.636288,77.808194 C 31.347876,68.385018 40.771052,63.67343 50.194228,63.67343 C 59.617405,63.67343 69.040581,68.385018 78.463757,77.808194 L 78.463757,30.692312 C 69.040581,21.269136 59.617405,16.557548 50.194228,16.557548 C 40.771052,16.557548 31.347876,21.269136 26.636288,30.692312 z "
       style="fill:#df421e;fill-rule:evenodd;stroke:#000000;stroke-width:1.32971487pt" />
    <path
       sodipodi:nodetypes="ccccccc"
       id="path856"
       d="M 26.636288,82.519782 L 26.636288,129.63566 C 35.228392,124.093 40.771052,120.21249 50.194228,120.21249 C 59.617405,120.21249 72.921097,128.80458 78.463757,134.34724 L 78.463757,82.519782 C 69.040581,73.096606 59.617405,68.385018 50.194228,68.385018 C 40.771052,68.385018 31.347876,73.096606 26.636288,82.519782 z "
       style="fill:#7590ae;fill-rule:evenodd;stroke:#000000;stroke-width:1.32971487pt" />
    <path
       sodipodi:nodetypes="ccccccc"
       id="path858"
       d="M 83.175345,82.519782 L 83.175345,35.4039 C 91.76745,40.946564 97.310109,44.827077 106.73329,44.827077 C 120.86805,44.827077 129.46015,31.523388 135.00281,25.980724 L 135.00281,77.808194 C 125.57964,87.231365 116.15646,91.942958 106.73329,91.942958 C 102.0217,91.942958 92.598521,91.942958 83.175345,82.519782 z "
       style="fill:#46a046;fill-rule:evenodd;stroke:#000000;stroke-width:1.32971487pt" />
    <path
       sodipodi:nodetypes="ccccccc"
       id="path859"
       d="M 83.175345,134.34724 L 83.175345,87.23137 C 91.76745,92.774034 97.310109,96.654546 106.73329,96.654546 C 120.03699,95.82347 129.46015,88.062446 135.00281,82.519782 L 135.00281,129.63566 C 125.57964,139.05883 116.15647,143.77042 106.73329,143.77042 C 102.0217,143.77042 92.598521,143.77042 83.175345,134.34724 z "
       style="fill:#eed680;fill-rule:evenodd;stroke:#000000;stroke-width:1.32971487pt" />
  </g>
  <path
     sodipodi:nodetypes="cccccc"
     id="rect2063"
     d="M 24.630491,7.3329923 L 100.34807,7.3329923 C 111.99274,7.3329923 117.69468,13.034925 117.69468,24.6796 C 117.69468,24.6796 38.408122,25.585198 7.2838846,116.02801 L 7.2838846,24.6796 C 7.2838846,14.390857 14.34175,7.3329923 24.630491,7.3329923 z "
     style="fill:url(#linearGradient2830);fill-opacity:1;fill-rule:evenodd;stroke:none;stroke-width:6.25" />
</svg>
