<?xml version="1.0" encoding="UTF-8" standalone="no"?>
<!-- Created with Inkscape (http://www.inkscape.org/) -->
<svg
   xmlns:dc="http://purl.org/dc/elements/1.1/"
   xmlns:cc="http://web.resource.org/cc/"
   xmlns:rdf="http://www.w3.org/1999/02/22-rdf-syntax-ns#"
   xmlns:svg="http://www.w3.org/2000/svg"
   xmlns="http://www.w3.org/2000/svg"
   xmlns:xlink="http://www.w3.org/1999/xlink"
   xmlns:sodipodi="http://sodipodi.sourceforge.net/DTD/sodipodi-0.dtd"
   xmlns:inkscape="http://www.inkscape.org/namespaces/inkscape"
   sodipodi:docname="jpeg.svg"
   sodipodi:docbase="/home/sept/svg"
   height="140.88696"
   width="125.25612"
   inkscape:version="0.45.1"
   sodipodi:version="0.32"
   id="svg1"
   inkscape:output_extension="org.inkscape.output.svg.inkscape"
   version="1.0">
  <metadata
     id="metadata15">
    <rdf:RDF>
      <cc:Work
         rdf:about="">
        <dc:format>image/svg+xml</dc:format>
        <dc:type
           rdf:resource="http://purl.org/dc/dcmitype/StillImage" />
      </cc:Work>
    </rdf:RDF>
  </metadata>
  <defs
     id="defs3">
    <linearGradient
       id="linearGradient3587">
      <stop
         style="stop-color:#efe0cd;stop-opacity:0.56097561;"
         offset="0.0000000"
         id="stop3589" />
      <stop
         style="stop-color:#cececd;stop-opacity:0.21951219;"
         offset="1.0000000"
         id="stop3591" />
    </linearGradient>
    <linearGradient
       id="linearGradient2832">
      <stop
         id="stop2834"
         offset="0.0000000"
         style="stop-color:#ffffff;stop-opacity:1.0000000;" />
      <stop
         id="stop2836"
         offset="1.0000000"
         style="stop-color:#ffffff;stop-opacity:0.0000000;" />
    </linearGradient>
    <linearGradient
       id="linearGradient839">
      <stop
         id="stop840"
         offset="0.0000000"
         style="stop-color:#46a046;stop-opacity:1.0000000;" />
      <stop
         id="stop841"
         offset="0.39364964"
         style="stop-color:#df421e;stop-opacity:1.0000000;" />
      <stop
         id="stop842"
         offset="0.72036445"
         style="stop-color:#ada7c8;stop-opacity:1.0000000;" />
      <stop
         id="stop843"
         offset="1.0000000"
         style="stop-color:#eed680;stop-opacity:1.0000000;" />
    </linearGradient>
    <linearGradient
       y2="84.03492"
       x2="107.81382"
       y1="84.03492"
       x1="12.23059"
       id="linearGradient836"
       xlink:href="#linearGradient839"
       gradientTransform="scale(1.353569,0.738788)"
       gradientUnits="userSpaceOnUse" />
    <linearGradient
       gradientUnits="userSpaceOnUse"
       y2="73.39872"
       x2="72.999245"
       y1="16.369013"
       x1="23.983805"
       gradientTransform="matrix(0.939922,0,0,0.896911,-12.081733,-3.3524237)"
       id="linearGradient2830"
       xlink:href="#linearGradient2832"
       inkscape:collect="always" />
    <linearGradient
       inkscape:collect="always"
       xlink:href="#linearGradient1700"
       id="linearGradient1407"
       gradientUnits="userSpaceOnUse"
       gradientTransform="matrix(0.777129,0,0,0.894628,-162.4688,12.76856)"
       x1="111.32588"
       y1="124.28045"
       x2="107.31592"
       y2="93.732185" />
    <linearGradient
       inkscape:collect="always"
       xlink:href="#linearGradient1700"
       id="linearGradient1390"
       gradientUnits="userSpaceOnUse"
       gradientTransform="matrix(0.777129,0,0,0.894628,-2.922179,10.43077)"
       x1="111.32588"
       y1="124.28045"
       x2="107.31592"
       y2="93.732185" />
    <linearGradient
       id="linearGradient1350">
      <stop
         id="stop1352"
         offset="0.0000000"
         style="stop-color:#46a046;stop-opacity:1.0000000;" />
      <stop
         id="stop1354"
         offset="0.39364964"
         style="stop-color:#df421e;stop-opacity:1.0000000;" />
      <stop
         id="stop1356"
         offset="0.72036445"
         style="stop-color:#ada7c8;stop-opacity:1.0000000;" />
      <stop
         id="stop1358"
         offset="1.0000000"
         style="stop-color:#eed680;stop-opacity:1.0000000;" />
    </linearGradient>
    <linearGradient
       y2="0.5"
       x2="1"
       y1="0.5"
       x1="1.3267924e-17"
       id="linearGradient1360"
       xlink:href="#linearGradient839" />
    <linearGradient
       gradientUnits="userSpaceOnUse"
       y2="87.980263"
       x2="128.66997"
       y1="121.73159"
       x1="123.50353"
       gradientTransform="matrix(0.870364,0,0,1.001961,4.612015,4.886798)"
       id="linearGradient1362"
       xlink:href="#linearGradient1700"
       inkscape:collect="always" />
    <linearGradient
       y2="0.5"
       x2="1"
       y1="0.5"
       x1="1.3267924e-17"
       id="linearGradient1363"
       xlink:href="#linearGradient839" />
    <linearGradient
       id="linearGradient1353">
      <stop
         id="stop1355"
         offset="0.0000000"
         style="stop-color:#46a046;stop-opacity:1.0000000;" />
      <stop
         id="stop1357"
         offset="0.39364964"
         style="stop-color:#df421e;stop-opacity:1.0000000;" />
      <stop
         id="stop1359"
         offset="0.72036445"
         style="stop-color:#ada7c8;stop-opacity:1.0000000;" />
      <stop
         id="stop1361"
         offset="1.0000000"
         style="stop-color:#eed680;stop-opacity:1.0000000;" />
    </linearGradient>
    <linearGradient
       id="linearGradient1700">
      <stop
         id="stop1701"
         offset="0.0000000"
         style="stop-color:#000000;stop-opacity:0.69918698;" />
      <stop
         id="stop1702"
         offset="1"
         style="stop-color:#000000;stop-opacity:0;" />
    </linearGradient>
    <linearGradient
       xlink:href="#linearGradient839"
       id="linearGradient1427"
       x1="1.3267924e-17"
       y1="0.5"
       x2="1"
       y2="0.5" />
    <linearGradient
       id="linearGradient1417">
      <stop
         style="stop-color:#46a046;stop-opacity:1.0000000;"
         offset="0.0000000"
         id="stop1419" />
      <stop
         style="stop-color:#df421e;stop-opacity:1.0000000;"
         offset="0.39364964"
         id="stop1421" />
      <stop
         style="stop-color:#ada7c8;stop-opacity:1.0000000;"
         offset="0.72036445"
         id="stop1423" />
      <stop
         style="stop-color:#eed680;stop-opacity:1.0000000;"
         offset="1.0000000"
         id="stop1425" />
    </linearGradient>
    <linearGradient
       y2="0.5"
       x2="1"
       y1="0.5"
       x1="1.3267924e-17"
       id="linearGradient1381"
       xlink:href="#linearGradient839" />
    <linearGradient
       id="linearGradient1371">
      <stop
         id="stop1373"
         offset="0.0000000"
         style="stop-color:#46a046;stop-opacity:1.0000000;" />
      <stop
         id="stop1375"
         offset="0.39364964"
         style="stop-color:#df421e;stop-opacity:1.0000000;" />
      <stop
         id="stop1377"
         offset="0.72036445"
         style="stop-color:#ada7c8;stop-opacity:1.0000000;" />
      <stop
         id="stop1379"
         offset="1.0000000"
         style="stop-color:#eed680;stop-opacity:1.0000000;" />
    </linearGradient>
    <linearGradient
       xlink:href="#linearGradient839"
       id="linearGradient1374"
       x1="1.3267924e-17"
       y1="0.5"
       x2="1"
       y2="0.5" />
    <linearGradient
       id="linearGradient1364">
      <stop
         style="stop-color:#46a046;stop-opacity:1.0000000;"
         offset="0.0000000"
         id="stop1366" />
      <stop
         style="stop-color:#df421e;stop-opacity:1.0000000;"
         offset="0.39364964"
         id="stop1368" />
      <stop
         style="stop-color:#ada7c8;stop-opacity:1.0000000;"
         offset="0.72036445"
         id="stop1370" />
      <stop
         style="stop-color:#eed680;stop-opacity:1.0000000;"
         offset="1.0000000"
         id="stop1372" />
    </linearGradient>
    <linearGradient
       xlink:href="#linearGradient839"
       id="linearGradient1389"
       x1="1.3267924e-17"
       y1="0.5"
       x2="1"
       y2="0.5" />
    <linearGradient
       id="linearGradient833">
      <stop
         style="stop-color:#00ff00;stop-opacity:1.0000000;"
         offset="0.0000000"
         id="stop834" />
      <stop
         style="stop-color:#ff0000;stop-opacity:1.0000000;"
         offset="0.30839416"
         id="stop837" />
      <stop
         style="stop-color:#7f8cff;stop-opacity:1.0000000;"
         offset="0.75000000"
         id="stop838" />
      <stop
         style="stop-color:#ffff00;stop-opacity:1.0000000;"
         offset="1.0000000"
         id="stop835" />
    </linearGradient>
    <linearGradient
       id="linearGradient1373">
      <stop
         style="stop-color:#46a046;stop-opacity:1.0000000;"
         offset="0.0000000"
         id="stop1376" />
      <stop
         style="stop-color:#df421e;stop-opacity:1.0000000;"
         offset="0.39364964"
         id="stop1378" />
      <stop
         style="stop-color:#ada7c8;stop-opacity:1.0000000;"
         offset="0.72036445"
         id="stop1380" />
      <stop
         style="stop-color:#eed680;stop-opacity:1.0000000;"
         offset="1.0000000"
         id="stop1382" />
    </linearGradient>
    <linearGradient
       inkscape:collect="always"
       xlink:href="#linearGradient839"
       id="linearGradient1401"
       gradientUnits="userSpaceOnUse"
       gradientTransform="matrix(1.222575,0,0,0.738788,-10.653167,-7.7425927)"
       x1="12.23059"
       y1="84.03492"
       x2="107.81382"
       y2="84.03492" />
    <linearGradient
       xlink:href="#linearGradient839"
       id="linearGradient2974"
       x1="1.3267924e-17"
       y1="0.5"
       x2="1"
       y2="0.5" />
    <linearGradient
       id="linearGradient2964">
      <stop
         style="stop-color:#00ff00;stop-opacity:1.0000000;"
         offset="0.0000000"
         id="stop2966" />
      <stop
         style="stop-color:#ff0000;stop-opacity:1.0000000;"
         offset="0.30839416"
         id="stop2968" />
      <stop
         style="stop-color:#7f8cff;stop-opacity:1.0000000;"
         offset="0.75000000"
         id="stop2970" />
      <stop
         style="stop-color:#ffff00;stop-opacity:1.0000000;"
         offset="1.0000000"
         id="stop2972" />
    </linearGradient>
    <linearGradient
       id="linearGradient2954">
      <stop
         style="stop-color:#46a046;stop-opacity:1.0000000;"
         offset="0.0000000"
         id="stop2956" />
      <stop
         style="stop-color:#df421e;stop-opacity:1.0000000;"
         offset="0.39364964"
         id="stop2958" />
      <stop
         style="stop-color:#ada7c8;stop-opacity:1.0000000;"
         offset="0.72036445"
         id="stop2960" />
      <stop
         style="stop-color:#eed680;stop-opacity:1.0000000;"
         offset="1.0000000"
         id="stop2962" />
    </linearGradient>
    <linearGradient
       inkscape:collect="always"
       xlink:href="#linearGradient839"
       id="linearGradient2987"
       gradientUnits="userSpaceOnUse"
       gradientTransform="matrix(1.353569,0,0,0.738788,-182.1667,-25.6819)"
       x1="12.23059"
       y1="84.03492"
       x2="107.81382"
       y2="84.03492" />
    <linearGradient
       y2="0.5"
       x2="1"
       y1="0.5"
       x1="1.3267924e-17"
       id="linearGradient1418"
       xlink:href="#linearGradient839" />
    <linearGradient
       id="linearGradient1408">
      <stop
         id="stop1410"
         offset="0.0000000"
         style="stop-color:#00ff00;stop-opacity:1.0000000;" />
      <stop
         id="stop1412"
         offset="0.30839416"
         style="stop-color:#ff0000;stop-opacity:1.0000000;" />
      <stop
         id="stop1414"
         offset="0.75000000"
         style="stop-color:#7f8cff;stop-opacity:1.0000000;" />
      <stop
         id="stop1416"
         offset="1.0000000"
         style="stop-color:#ffff00;stop-opacity:1.0000000;" />
    </linearGradient>
    <linearGradient
       id="linearGradient1397">
      <stop
         id="stop1399"
         offset="0.0000000"
         style="stop-color:#46a046;stop-opacity:1.0000000;" />
      <stop
         id="stop1401"
         offset="0.39364964"
         style="stop-color:#df421e;stop-opacity:1.0000000;" />
      <stop
         id="stop1403"
         offset="0.72036445"
         style="stop-color:#ada7c8;stop-opacity:1.0000000;" />
      <stop
         id="stop1405"
         offset="1.0000000"
         style="stop-color:#eed680;stop-opacity:1.0000000;" />
    </linearGradient>
    <linearGradient
       y2="84.03492"
       x2="107.81382"
       y1="84.03492"
       x1="12.23059"
       gradientTransform="matrix(1.353569,0,0,0.738788,-194.7091,-13.83491)"
       gradientUnits="userSpaceOnUse"
       id="linearGradient1431"
       xlink:href="#linearGradient839"
       inkscape:collect="always" />
    <linearGradient
       xlink:href="#linearGradient839"
       id="linearGradient1430"
       x1="1.3267924e-17"
       y1="0.5"
       x2="1"
       y2="0.5" />
    <linearGradient
       id="linearGradient1419">
      <stop
         style="stop-color:#00ff00;stop-opacity:1.0000000;"
         offset="0.0000000"
         id="stop1422" />
      <stop
         style="stop-color:#ff0000;stop-opacity:1.0000000;"
         offset="0.30839416"
         id="stop1424" />
      <stop
         style="stop-color:#7f8cff;stop-opacity:1.0000000;"
         offset="0.75000000"
         id="stop1426" />
      <stop
         style="stop-color:#ffff00;stop-opacity:1.0000000;"
         offset="1.0000000"
         id="stop1428" />
    </linearGradient>
    <linearGradient
       id="linearGradient1409">
      <stop
         style="stop-color:#46a046;stop-opacity:1.0000000;"
         offset="0.0000000"
         id="stop1411" />
      <stop
         style="stop-color:#df421e;stop-opacity:1.0000000;"
         offset="0.39364964"
         id="stop1413" />
      <stop
         style="stop-color:#ada7c8;stop-opacity:1.0000000;"
         offset="0.72036445"
         id="stop1415" />
      <stop
         style="stop-color:#eed680;stop-opacity:1.0000000;"
         offset="1.0000000"
         id="stop1417" />
    </linearGradient>
    <linearGradient
       inkscape:collect="always"
       xlink:href="#linearGradient839"
       id="linearGradient1443"
       gradientUnits="userSpaceOnUse"
       gradientTransform="matrix(1.353569,0,0,0.738788,-178.4379,0.402376)"
       x1="12.23059"
       y1="84.03492"
       x2="107.81382"
       y2="84.03492" />
  </defs>
  <sodipodi:namedview
     inkscape:current-layer="svg1"
     inkscape:window-y="216"
     inkscape:window-x="616"
     gridspacingy="1.0000000mm"
     gridspacingx="1.0000000mm"
     snaptogrid="false"
     showgrid="true"
     inkscape:window-height="653"
     inkscape:window-width="756"
     inkscape:cy="80"
     inkscape:cx="80"
     inkscape:zoom="2.95"
     inkscape:pageshadow="2"
     inkscape:pageopacity="0.0"
     borderopacity="1.0"
     bordercolor="#666666"
     pagecolor="#ffffff"
     id="base" />
  <rect
     rx="22.892691"
     ry="22.892691"
     y="3.75"
     x="3.75"
     height="133.38696"
     width="117.75612"
     id="rect834"
     style="fill:none;fill-rule:evenodd;stroke:#000000;stroke-width:7.5;stroke-linejoin:round;stroke-miterlimit:4;stroke-dasharray:none;stroke-opacity:0.5" />
  <rect
     rx="22.892691"
     ry="22.892691"
     y="3.6603317"
     x="3.6112251"
     height="133.38696"
     width="117.75612"
     id="rect828"
     style="fill:#df421e;fill-opacity:1;fill-rule:evenodd;stroke:#000000;stroke-width:3.75;stroke-miterlimit:4;stroke-dasharray:none" />
  <rect
     style="fill:url(#linearGradient1401);fill-rule:evenodd;stroke:#000000;stroke-width:3.27278566"
     id="rect832"
     width="113.74728"
     height="67.172066"
     ry="1.2896985"
     x="5.8548298"
     y="20.755352"
     rx="1.2896985" />
  <path
     sodipodi:nodetypes="cccccc"
     id="path2838"
     d="M 100.34807,132.55498 L 24.630491,132.55498 C 12.985818,132.55498 7.2838846,126.85305 7.2838846,115.20838 C 7.2838846,115.20838 34.904216,48.692898 117.69468,38.550602 L 117.69468,115.20838 C 117.69468,126.85305 111.99274,132.55498 100.34807,132.55498 z "
     style="fill:#ffffff;fill-opacity:0.27935223;fill-rule:evenodd;stroke:none;stroke-width:6.25" />
  <path
     sodipodi:nodetypes="cccccc"
     id="rect2063"
     d="M 24.630491,7.3329923 L 100.34807,7.3329923 C 111.99274,7.3329923 117.69468,13.034925 117.69468,24.6796 C 117.69468,24.6796 38.408122,25.585198 7.2838846,116.02801 L 7.2838846,24.6796 C 7.2838846,14.390857 14.34175,7.3329923 24.630491,7.3329923 z "
     style="fill:url(#linearGradient2830);fill-opacity:1;fill-rule:evenodd;stroke:none;stroke-width:6.25" />
  <path
     style="font-size:40px;stroke-width:1pt;font-family:Trek"
     d="M 89.440594,127.60234 C 85.227264,127.60234 81.987265,126.269 79.720597,123.60234 C 77.480597,120.909 76.360597,117.05567 76.360597,112.04234 C 76.360597,106.97567 77.480597,103.12234 79.720597,100.48234 C 81.960595,97.815674 85.200594,96.482344 89.440594,96.482344 L 106.20059,96.482344 L 106.20059,101.84234 L 91.440594,101.84234 C 88.880594,101.84234 86.960594,102.69567 85.680594,104.40234 C 84.400594,106.109 83.760594,108.65567 83.760594,112.04234 C 83.760594,115.45567 84.360594,118.01567 85.560594,119.72234 C 86.760594,121.429 88.720594,122.28234 91.440594,122.28234 L 99.560594,122.28234 L 99.560594,114.60234 L 90.800594,114.60234 L 90.800594,109.48234 L 106.20059,109.48234 L 106.20059,127.60234 L 89.440594,127.60234 z M 51.840595,116.48234 L 51.840595,127.60234 L 45.120595,127.60234 L 45.120595,96.482344 L 63.800597,96.482344 C 66.680597,96.482344 68.960597,97.335674 70.640597,99.042344 C 72.320597,100.72234 73.160597,103.20234 73.160597,106.48234 C 73.160597,109.73567 72.320597,112.21567 70.640597,113.92234 C 68.960597,115.629 66.680597,116.48234 63.800597,116.48234 L 51.840595,116.48234 z M 51.840595,101.84234 L 51.840595,111.16234 L 60.760597,111.16234 C 62.227263,111.16234 63.427263,110.789 64.360597,110.04234 C 65.29393,109.269 65.760597,108.08234 65.760597,106.48234 C 65.760597,104.909 65.29393,103.749 64.360597,103.00234 C 63.45393,102.229 62.25393,101.84234 60.760597,101.84234 L 51.840595,101.84234 z M 18.400595,127.60234 L 18.400595,122.28234 L 27.120595,122.28234 C 28.160595,122.28234 29.027265,122.149 29.720595,121.88234 C 30.067265,121.77567 30.413925,121.61567 30.760595,121.40234 L 31.320595,121.00234 L 31.880595,120.48234 L 32.680595,119.56234 L 33.240595,118.48234 C 33.347265,118.08234 33.440595,117.65567 33.520595,117.20234 C 33.600595,116.749 33.640595,116.309 33.640595,115.88234 L 33.640595,96.482344 L 40.280595,96.482344 L 40.280595,116.32234 C 40.280595,118.21567 40.027265,119.909 39.520595,121.40234 C 39.013925,122.869 38.227265,124.05567 37.160595,124.96234 C 36.227265,125.789 35.107265,126.45567 33.800595,126.96234 L 31.760595,127.44234 L 29.440595,127.60234 L 18.400595,127.60234 z "
     id="path853" />
  <path
     style="font-size:40px;fill:#ffffff;fill-opacity:1;stroke-width:1pt;font-family:Trek"
     d="M 88.762634,126.92438 C 84.549304,126.92438 81.309299,125.59104 79.042631,122.92438 C 76.802631,120.23104 75.682631,116.37771 75.682631,111.36438 C 75.682631,106.29771 76.802631,102.44438 79.042631,99.804384 C 81.282629,97.137714 84.522634,95.804384 88.762634,95.804384 L 105.52263,95.804384 L 105.52263,101.16438 L 90.762634,101.16438 C 88.202634,101.16438 86.282634,102.01771 85.002634,103.72438 C 83.722634,105.43104 83.082634,107.97771 83.082634,111.36438 C 83.082634,114.77771 83.682634,117.33771 84.882634,119.04438 C 86.082634,120.75104 88.042634,121.60438 90.762634,121.60438 L 98.882634,121.60438 L 98.882634,113.92438 L 90.122634,113.92438 L 90.122634,108.80438 L 105.52263,108.80438 L 105.52263,126.92438 L 88.762634,126.92438 z M 51.162629,115.80438 L 51.162629,126.92438 L 44.442629,126.92438 L 44.442629,95.804384 L 63.122631,95.804384 C 66.002631,95.804384 68.282631,96.657714 69.962631,98.364384 C 71.642631,100.04438 72.482631,102.52438 72.482631,105.80438 C 72.482631,109.05771 71.642631,111.53771 69.962631,113.24438 C 68.282631,114.95104 66.002631,115.80438 63.122631,115.80438 L 51.162629,115.80438 z M 51.162629,101.16438 L 51.162629,110.48438 L 60.082631,110.48438 C 61.549297,110.48438 62.749297,110.11104 63.682631,109.36438 C 64.615964,108.59104 65.082631,107.40438 65.082631,105.80438 C 65.082631,104.23104 64.615964,103.07104 63.682631,102.32438 C 62.775964,101.55104 61.575964,101.16438 60.082631,101.16438 L 51.162629,101.16438 z M 17.722629,126.92438 L 17.722629,121.60438 L 26.442629,121.60438 C 27.482629,121.60438 28.349299,121.47104 29.042629,121.20438 C 29.389299,121.09771 29.735959,120.93771 30.082629,120.72438 L 30.642629,120.32438 L 31.202629,119.80438 L 32.002629,118.88438 L 32.562629,117.80438 C 32.669299,117.40438 32.762629,116.97771 32.842629,116.52438 C 32.922629,116.07104 32.962629,115.63104 32.962629,115.20438 L 32.962629,95.804384 L 39.602629,95.804384 L 39.602629,115.64438 C 39.602629,117.53771 39.349299,119.23104 38.842629,120.72438 C 38.335959,122.19104 37.549299,123.37771 36.482629,124.28438 C 35.549299,125.11104 34.429299,125.77771 33.122629,126.28438 L 31.082629,126.76438 L 28.762629,126.92438 L 17.722629,126.92438 z "
     id="path1447" />
</svg>
