<svg version="1.1" xmlns="http://www.w3.org/2000/svg" width="28.4" height="28" viewBox="0 0 28.4 28" overflow="visible" enable-background="new 0 0 28.375 28" xml:space="preserve">
  <path fill="none" stroke="#00008B" stroke-width="1.5" d="M27.9 1.4 0 1.4 0 27.5 1 27.6 1 0.5"/>
  <line fill="none" stroke="#FFFFFF" x1="0.9" y1="27.5" x2="27.9" y2="27.5"/>
  <rect x="0.9" y="1" fill="#ADD8E6" width="27.1" height="26"/>
  <line fill="none" stroke="#FFFFFF" x1="27.9" y1="26.9" x2="27.9" y2="0.9"/>
  <line fill="none" stroke="#00008B" x1="1.4" y1="0.5" x2="27.4" y2="0.5"/>
  <line fill="none" stroke="#00008B" x1="0.9" y1="1" x2="0.9" y2="27"/>
  <path fill="#FFFFFF" stroke="#000000" d="M8.5 23.5c-0.5-0.2-1-1.3-1.4-1.7 -0.5-0.6-0.9-1.2-1.4-1.8 -0.7-0.9-1.4-1.7-1.9-2.8 -0.4-0.8-0.9-2 0-2.6 1-0.8 2.1-0.2 2.9 0.5 0.8 0.6 1.7 1.2 2.5 1.9 -0.4-0.3-0.5-1-0.8-1.4 -0.3-0.5-0.6-0.9-0.8-1.4 -0.4-0.7-0.8-1.2-1.2-1.8 -0.5-0.8-1.1-1.7-0.9-2.7 0.1-1 1-1.5 1.9-1.2 1.2 0.4 2 1.7 2.6 2.7 0.6 1 1.2 2.2 1.9 3 -0.2-0.2-0.1-0.5-0.2-0.8 0-0.4-0.1-0.6-0.2-1 -0.2-0.5-0.2-1-0.2-1.4 0-0.8-0.2-1.5-0.2-2.2 0-1-0.1-2 0.7-2.6 0.7-0.5 1.6-0.8 2.4-0.2 1.4 1 1.1 3 1.2 4.5 0.1 0.8 0.2 1.5 0.2 2.3 0 0.5 0.2 1.1 0.2 1.6 -0.1-0.3-0.1-0.7-0.1-1.1 0-0.5 0-1-0.1-1.5 -0.1-0.7-0.2-1.6-0.2-2.3 -0.2-1.9 2.1-3.2 3.3-1.5 0.9 1.2 0.8 2.6 0.8 4.1 0 0.7 0 1.3-0.2 1.9 -0.1 0.5-0.3 1.2-0.2 1.6 0-0.9 0.3-1.7 0.3-2.6 0-0.7-0.3-2.1 0.6-2.3 1.1-0.3 2 0.9 2.4 1.7 0.5 0.9 0.6 1.9 0.4 2.9 -0.3 2.2-0.8 4.2-2.1 6.1 -0.3 0.4-0.5 0.8-0.8 1.2 -0.4 0.5-0.9 0.8-1.4 1.1 -0.4 0.2-0.8 0.5-1.2 0.6 -0.8 0.1-1.7 0.2-2.6 0.2 -1.3 0-2.6-0.1-3.8-0.3 -0.8-0.1-2.1 0.2-2.7-0.5"/>
</svg>
