<svg version="1.0" xmlns="http://www.w3.org/2000/svg" width="700.000000pt" height="700.000000pt" viewBox="0 0 700.000000 700.000000" preserveAspectRatio="xMidYMid meet">
  <metadata>
    
Created by potrace 1.11, written by Peter Selinger 2001-2013

  </metadata>
  <g transform="translate(0.000000,700.000000) scale(0.100000,-0.100000)" fill="#000000" stroke="none">
    <path d="M3088 6180c-153-26-308-115-423-242-27-29-140-191-252-359l-203-306 0-526 0-527 510 0 510 0 0-685 0-685-140 0-140 0 0 555 0 555-370 0-370 0 0-392c0-229 4-408 10-429 26-93 125-116 320-73 26 5 34-10 95-178 14-38-238-85-366-68-122 16-188 48-251 120-92 105-107 203-108 693l0 327-308 0-307 0-180-252c-99-138-195-281-213-317-48-97-69-213-54-311 21-147 81-271 188-388 72-80 96-98 498-365 499-332 919-624 1756-1222 168-120 328-229 357-242 61-28 170-53 233-53 107 0 252 47 355 115 128 84 183 154 497 625 163 245 432 636 596 870l299 425-309 3-308 2 0 585 0 585-229 0-229 0-171-197c-94-108-171-200-171-203 0-4 121-178 268-386l268-379-171-3c-167-3-170-2-189 20-10 13-122 167-250 343l-231 320-3-342-2-343-140 0-140 0 0 925 0 925 140 0 140 0 2-518 3-518 238 283 238 283 462-2 462-3 3-552 2-553 258 0 257 0 151 213c213 299 239 355 238 522-1 122-31 220-102 335-83 135-159 198-535 447-506 335-991 672-1867 1298-129 92-262 181-296 197-106 50-218 66-326 48zm81-1507c85-63 75-186-20-236-92-49-208 33-195 137 12 104 133 159 215 99zm2070 0c59-43 75-129 37-188-75-114-250-61-250 75 0 111 125 177 213 113zM1698 4532l-208-297 202-3c112-1 208 0 215 2 10 4 13 70 13 301 0 162-3 295-7 294-5 0-101-134-215-297zM6399 4776c-95-34-152-117-151-219 1-64 21-115 63-156 51-51 86-65 164-65 78 0 113 14 165 65 52 52 75 134 59 208-29 134-172 213-300 167zm149-32c136-56 170-227 65-326-146-139-379-2-329 193 30 114 156 178 264 133zM6380 4560c0-123 1-130 20-130 17 0 20 7 20 50 0 49 1 50 29 50 25 0 34-8 58-50 21-37 34-50 51-50 20 0 22 2 11 23-7 12-21 35-32 51l-20 29 21 16c32 24 42 61 27 97-16 39-30 44-116 44l-69 0 0-130zm139 86c7-8 11-27 9-43-2-23-10-29-41-36-55-13-67-5-67 48l0 45 44 0c26 0 48-6 55-14z"/>
  </g>
</svg>
