<svg xmlns:svg="http://www.w3.org/2000/svg" xmlns="http://www.w3.org/2000/svg" xmlns:xlink="http://www.w3.org/1999/xlink" height="143.6" width="142.4" id="svg1" version="1">
  <metadata id="metadata33"/>
  <defs id="defs3">
    <linearGradient id="linearGradient850">
      <stop id="stop851" offset="0" style="stop-color:#fbffff;stop-opacity:0"/>
      <stop id="stop852" offset="1" style="stop-color:#ffffff;stop-opacity:1"/>
    </linearGradient>
    <linearGradient gradientUnits="userSpaceOnUse" gradientTransform="matrix(0.784721,0,0,1.059734,-1.397976,-1.721425)" y2="11.5" x2="22.4" y1="74.5" x1="78.7" id="linearGradient859" xlink:href="#linearGradient850"/>
    <linearGradient id="linearGradient839">
      <stop id="stop840" offset="0" style="stop-color:#46a046;stop-opacity:1"/>
      <stop id="stop841" offset="0.4" style="stop-color:#df421e;stop-opacity:1"/>
      <stop id="stop842" offset="0.7" style="stop-color:#ada7c8;stop-opacity:1"/>
      <stop id="stop843" offset="1" style="stop-color:#eed680;stop-opacity:1"/>
    </linearGradient>
    <linearGradient id="linearGradient833">
      <stop id="stop834" offset="0" style="stop-color:#00ff00;stop-opacity:1"/>
      <stop id="stop837" offset="0.3" style="stop-color:#ff0000;stop-opacity:1"/>
      <stop id="stop838" offset="0.8" style="stop-color:#7f8cff;stop-opacity:1"/>
      <stop id="stop835" offset="1" style="stop-color:#ffff00;stop-opacity:1"/>
    </linearGradient>
    <linearGradient gradientUnits="userSpaceOnUse" gradientTransform="matrix(0.666071,0,0,1.24851,-1.397976,-1.721425)" y2="16.5" x2="110.2" y1="79.3" x1="157.2" id="linearGradient836" xlink:href="#linearGradient850"/>
    <linearGradient y2="0" x2="0" y1="0.7" x1="0.6" id="linearGradient855" xlink:href="#linearGradient850"/>
    <linearGradient y2="0.3" x2="0.7" y1="0.9" x1="0.4" id="linearGradient853" xlink:href="#linearGradient850"/>
  </defs>
  <path id="path874" d="M73.6 5.7L5.7 22.9 5.8 112.8 5.9 112.8 5.9 113 6.1 112.9 73.5 137.9 136.7 111.8 136.7 106.6 136.7 22.9 73.6 5.7z" style="fill:none;font-family:Trek;font-size:40;stroke-linejoin:round;stroke-opacity:0.5;stroke-width:11.4;stroke:#000"/>
  <path id="path633" d="M136.6 22.9L136.6 106.6 75.6 93.1 73.5 5.7 136.6 22.9z" style="fill:#515151;font-size:12;stroke-linecap:round;stroke-linejoin:round;stroke-width:6.9;stroke:#000"/>
  <path id="path631" d="M5.6 22.9L73.5 5.7 77.9 96.1 5.8 113 5.6 22.9z" style="fill:#4a494d;font-size:12;stroke-linecap:round;stroke-linejoin:round;stroke-width:6.9;stroke:#000"/>
  <path id="path640" d="M73.4 43.8L136.6 22.9 73.5 5.7 5.6 22.9 73.4 43.8z" style="fill:#9db8d2;font-size:12;stroke-linecap:round;stroke-linejoin:round;stroke-width:6.9;stroke:#000"/>
  <path id="path627" d="M136.6 22.9L136.6 111.8 73.4 137.9 73.4 43.8 136.6 22.9z" style="fill:#4b6983;font-size:12;stroke-linecap:round;stroke-linejoin:round;stroke-width:6.9;stroke:#000"/>
  <path id="path629" d="M73.4 43.8L73.4 137.9 5.7 112.8 5.6 22.9 73.4 43.8z" style="fill:#7590ae;font-size:12;stroke-linecap:round;stroke-linejoin:round;stroke-width:6.9;stroke:#000"/>
  <path id="path892" d="M73.3 9.3L9.3 25.6 9.3 109.2C75.9 135.4 87 152.5 70 41.4 130.3 19.2 73.3 9.3 73.3 9.3z" fill="url(#linearGradient859)"/>
  <path id="path849" d="M76.9 46.5L76.9 131.9C77.2 131.9 103.7 121.9 116 109.4 128.6 99.1 132.8 78.3 132.8 78.3L132.8 27.2 76.9 46.5z" style="fill-opacity:0.8;fill:url(#linearGradient836)"/>
  <path id="path852" d="M73.4 43.8L73.4 137.9 5.7 112.8 5.6 22.9 73.4 43.8z" style="fill:none;font-size:12;stroke-linecap:round;stroke-linejoin:round;stroke-width:6.9;stroke:#000"/>
  <rect rx="7.4" y="65.4" x="21.4" ry="7.4" height="42.9" width="101" id="rect853" style="fill:#fff;stroke-width:3.4;stroke:#000"/>
  <path id="path858" d="M90.9 101.3L90.9 96.4 98.9 96.4C99.8 96.4 100.6 96.3 101.2 96.1 101.6 96 101.9 95.8 102.2 95.6L102.7 95.3 103.2 94.8 103.9 94 104.4 93C104.5 92.6 104.6 92.2 104.7 91.8 104.8 91.4 104.8 91 104.8 90.6L104.8 72.9 110.9 72.9 110.9 91C110.9 92.7 110.6 94.3 110.2 95.6 109.7 97 109 98.1 108 98.9 107.2 99.6 106.1 100.3 105 100.7L103.1 101.2 101 101.3 90.9 101.3zM74.8 90.1L68.3 90.1 68.3 101.3 62.2 101.3 62.2 72.9 78.6 72.9C81.3 72.9 83.4 73.6 84.9 74.9 86.4 76.4 87.2 78.6 87.2 81.5 87.2 82.7 87.1 83.7 86.9 84.5 86.7 85.3 86.4 86.1 86 86.8 85.1 88.1 83.8 89.1 81.9 89.7L81.8 89.8 88 101.3 80.8 101.3 74.8 90.1zM68.3 77.8L68.3 85.7 75.4 85.7C76.9 85.7 77.9 85.4 78.6 84.9 79.5 84.3 80 83.2 80 81.7 80 80.4 79.5 79.4 78.7 78.8 77.9 78.1 76.8 77.8 75.4 77.8L68.3 77.8zM30.1 101.3L42.3 72.9 48.5 72.9 60.7 101.3 54.2 101.3 51.4 94.4 39.5 94.4 36.7 101.3 30.1 101.3zM45.4 79.9L41.3 90 49.5 90 45.4 79.9z" style="font-family:Trek;font-size:40;stroke-width:1"/>
</svg>
