<svg xmlns:svg="http://www.w3.org/2000/svg" xmlns="http://www.w3.org/2000/svg" xmlns:xlink="http://www.w3.org/1999/xlink" id="svg1" width="125.3" height="140.9" version="1">
<style>
.s0{
  stop-color:#46a046;
  stop-opacity:1;
}
.s1{
  stop-color:#df421e;
  stop-opacity:1;
}
.s2{
  stop-color:#ada7c8;
  stop-opacity:1;
}
.s3{
  stop-color:#eed680;
  stop-opacity:1;
}
.s4{
  fill:#fff;
}
.s5{
  fill-opacity:0.3;
  fill:#000;
}

</style>  <metadata id="metadata15"/>
  <defs id="defs3">
    <linearGradient id="linearGradient3587">
      <stop id="stop3589" offset="0" style="stop-color:#efe0cd;stop-opacity:0.6"/>
      <stop id="stop3591" offset="1" style="stop-color:#cececd;stop-opacity:0.2"/>
    </linearGradient>
    <linearGradient id="linearGradient2832">
      <stop offset="0" id="stop2834" style="stop-color:#ffffff;stop-opacity:1"/>
      <stop offset="1" id="stop2836" style="stop-color:#ffffff;stop-opacity:0"/>
    </linearGradient>
    <linearGradient id="linearGradient839">
      <stop offset="0" id="stop840" class="s0"/>
      <stop offset="0.4" id="stop841" class="s1"/>
      <stop offset="0.7" id="stop842" class="s2"/>
      <stop offset="1" id="stop843" class="s3"/>
    </linearGradient>
    <linearGradient xlink:href="#linearGradient839" id="linearGradient836" x1="0" y1="0.5" x2="1" y2="0.5"/>
    <linearGradient xlink:href="#linearGradient2832" id="linearGradient2830" gradientTransform="matrix(0.939922,0,0,0.896911,-12.081733,-3.3524237)" x1="24" y1="16.4" x2="73" y2="73.4" gradientUnits="userSpaceOnUse"/>
    <linearGradient y2="93.7" x2="107.3" y1="124.3" x1="111.3" gradientTransform="matrix(0.777129,0,0,0.894628,-162.4688,12.76856)" gradientUnits="userSpaceOnUse" id="linearGradient1407" xlink:href="#linearGradient1700"/>
    <linearGradient y2="93.7" x2="107.3" y1="124.3" x1="111.3" gradientTransform="matrix(0.777129,0,0,0.894628,-2.922179,10.43077)" gradientUnits="userSpaceOnUse" id="linearGradient1390" xlink:href="#linearGradient1700"/>
    <linearGradient id="linearGradient1350">
      <stop offset="0" id="stop1352" class="s0"/>
      <stop offset="0.4" id="stop1354" class="s1"/>
      <stop offset="0.7" id="stop1356" class="s2"/>
      <stop offset="1" id="stop1358" class="s3"/>
    </linearGradient>
    <linearGradient xlink:href="#linearGradient839" id="linearGradient1360" x1="0" y1="0.5" x2="1" y2="0.5"/>
    <linearGradient xlink:href="#linearGradient1700" id="linearGradient1362" gradientTransform="matrix(0.870364,0,0,1.001961,4.612015,4.886798)" x1="123.5" y1="121.7" x2="128.7" y2="88" gradientUnits="userSpaceOnUse"/>
    <linearGradient xlink:href="#linearGradient1700" id="linearGradient1703" gradientTransform="matrix(0.919657,0,0,1.058706,1.338192,1.084837)" x1="111.3" y1="124.3" x2="107.3" y2="93.7" gradientUnits="userSpaceOnUse"/>
    <linearGradient xlink:href="#linearGradient839" id="linearGradient1363" x1="0" y1="0.5" x2="1" y2="0.5"/>
    <linearGradient id="linearGradient1353">
      <stop offset="0" id="stop1355" class="s0"/>
      <stop offset="0.4" id="stop1357" class="s1"/>
      <stop offset="0.7" id="stop1359" class="s2"/>
      <stop offset="1" id="stop1361" class="s3"/>
    </linearGradient>
    <linearGradient id="linearGradient1700">
      <stop offset="0" id="stop1701" style="stop-color:#000000;stop-opacity:0.7"/>
      <stop offset="1" id="stop1702" style="stop-color:#000000;stop-opacity:0"/>
    </linearGradient>
    <linearGradient y2="0.5" x2="1" y1="0.5" x1="0" id="linearGradient1427" xlink:href="#linearGradient839"/>
    <linearGradient id="linearGradient1417">
      <stop id="stop1419" offset="0" class="s0"/>
      <stop id="stop1421" offset="0.4" class="s1"/>
      <stop id="stop1423" offset="0.7" class="s2"/>
      <stop id="stop1425" offset="1" class="s3"/>
    </linearGradient>
    <linearGradient xlink:href="#linearGradient839" id="linearGradient1384" x1="0" y1="0.5" x2="1" y2="0.5"/>
    <linearGradient id="linearGradient1374">
      <stop offset="0" id="stop1376" class="s0"/>
      <stop offset="0.4" id="stop1378" class="s1"/>
      <stop offset="0.7" id="stop1380" class="s2"/>
      <stop offset="1" id="stop1382" class="s3"/>
    </linearGradient>
    <linearGradient xlink:href="#linearGradient839" id="linearGradient2205" x1="0" y1="0.5" x2="1" y2="0.5"/>
    <linearGradient id="linearGradient2195">
      <stop offset="0" id="stop2197" class="s0"/>
      <stop offset="0.4" id="stop2199" class="s1"/>
      <stop offset="0.7" id="stop2201" class="s2"/>
      <stop offset="1" id="stop2203" class="s3"/>
    </linearGradient>
    <linearGradient xlink:href="#linearGradient839" id="linearGradient3025" x1="0" y1="0.5" x2="1" y2="0.5"/>
    <linearGradient id="linearGradient3015">
      <stop offset="0" id="stop3017" class="s0"/>
      <stop offset="0.4" id="stop3019" class="s1"/>
      <stop offset="0.7" id="stop3021" class="s2"/>
      <stop offset="1" id="stop3023" class="s3"/>
    </linearGradient>
    <linearGradient xlink:href="#linearGradient839" id="linearGradient3845" x1="0" y1="0.5" x2="1" y2="0.5"/>
    <linearGradient id="linearGradient3835">
      <stop offset="0" id="stop3837" class="s0"/>
      <stop offset="0.4" id="stop3839" class="s1"/>
      <stop offset="0.7" id="stop3841" class="s2"/>
      <stop offset="1" id="stop3843" class="s3"/>
    </linearGradient>
    <linearGradient xlink:href="#linearGradient839" id="linearGradient4665" x1="0" y1="0.5" x2="1" y2="0.5"/>
    <linearGradient id="linearGradient4655">
      <stop offset="0" id="stop4657" class="s0"/>
      <stop offset="0.4" id="stop4659" class="s1"/>
      <stop offset="0.7" id="stop4661" class="s2"/>
      <stop offset="1" id="stop4663" class="s3"/>
    </linearGradient>
    <linearGradient xlink:href="#linearGradient839" id="linearGradient5485" x1="0" y1="0.5" x2="1" y2="0.5"/>
    <linearGradient id="linearGradient5475">
      <stop offset="0" id="stop5477" class="s0"/>
      <stop offset="0.4" id="stop5479" class="s1"/>
      <stop offset="0.7" id="stop5481" class="s2"/>
      <stop offset="1" id="stop5483" class="s3"/>
    </linearGradient>
    <linearGradient xlink:href="#linearGradient839" id="linearGradient6305" x1="0" y1="0.5" x2="1" y2="0.5"/>
    <linearGradient id="linearGradient6295">
      <stop offset="0" id="stop6297" class="s0"/>
      <stop offset="0.4" id="stop6299" class="s1"/>
      <stop offset="0.7" id="stop6301" class="s2"/>
      <stop offset="1" id="stop6303" class="s3"/>
    </linearGradient>
    <linearGradient xlink:href="#linearGradient839" id="linearGradient7125" x1="0" y1="0.5" x2="1" y2="0.5"/>
    <linearGradient id="linearGradient7115">
      <stop offset="0" id="stop7117" class="s0"/>
      <stop offset="0.4" id="stop7119" class="s1"/>
      <stop offset="0.7" id="stop7121" class="s2"/>
      <stop offset="1" id="stop7123" class="s3"/>
    </linearGradient>
  </defs>
  <rect id="rect834" width="117.8" height="133.4" x="3.8" y="3.8" ry="22.9" rx="22.9" style="fill:none;stroke-linejoin:round;stroke-opacity:0.5;stroke-width:7.5;stroke:#000"/>
  <rect id="rect828" width="117.8" height="133.4" x="3.6" y="3.7" ry="22.9" rx="22.9" style="fill:#83a67f;stroke-width:3.8;stroke:#000"/>
  <path d="M100.3 132.6L24.6 132.6C13 132.6 7.3 126.9 7.3 115.2 7.3 115.2 34.9 48.7 117.7 38.6L117.7 115.2C117.7 126.9 112 132.6 100.3 132.6z" id="path2838" style="fill-opacity:0.3;fill:#fff"/>
  <g transform="matrix(0.529753,0,0,0.529753,20.520594,10.449884)" id="g1375">
    <path id="path1539" d="M71.1 10.9C49.9 12.3 28.1 36.1 19.6 69 9.8 106.6 21.1 142.1 44.8 148.1 51.1 149.7 57.5 149 63.9 146.6L124.3 117.1C129.9 112.1 137.1 110.6 140.5 99.4 143.9 88.1 141.8 82.2 137.3 74.1L93.7 19.7C89.8 15.9 85.2 13.1 80.1 11.8 77.1 11 74.1 10.7 71.1 10.9z" style="fill:#4b6983;stroke-linejoin:round;stroke-opacity:0.5;stroke-width:3.8;stroke:#000"/>
    <path d="M92.9 20.6L65.3 144.6 124 116.4C130.8 111.7 136.4 110.1 139.7 99.2 143 88.4 141 82.6 136.6 74.7L92.9 20.6z" id="path831" style="fill:#7590ae;stroke-linejoin:round;stroke-width:2.5;stroke:#000"/>
    <path id="path825" d="M145.3 78.5A44.3 70.9 0 1 1 56.7 78.5 44.3 70.9 0 1 1 145.3 78.5z" transform="matrix(0.939421,0.239581,-0.241243,0.932955,-13.93465,-17.0418)" style="fill:#9db8d2;stroke-width:2.6;stroke:#000"/>
    <path id="path4029" d="M131.1 85.6A28.3 56.7 0 1 1 74.4 85.6 28.3 56.7 0 1 1 131.1 85.6z" transform="matrix(1.131177,0.288486,-0.265628,1.027252,-33.1397,-37.83387)" style="fill:#7590ae;stroke-opacity:0.5;stroke-width:3.4;stroke:#000"/>
    <path id="path826" d="M131.1 85.6A28.3 56.7 0 1 1 74.4 85.6 28.3 56.7 0 1 1 131.1 85.6z" transform="matrix(1.131177,0.288486,-0.265628,1.027252,-33.1397,-37.83387)" style="fill:#7590ae;stroke-width:2.3;stroke:#000"/>
    <path d="M62 23.5C62 23.5 66.6 42.8 67.6 66.4 68.5 90 62.5 96.3 60.2 100.7 57.9 105.1 52.4 119.6 37.8 133.1 49.5 142.8 80.4 138.7 93.3 77.3 98.2 38.3 82.4 15.1 62 23.5z" id="path2788" style="fill-opacity:0.5;fill:#fff"/>
    <path id="path5272" d="M46.1 51.9A12.4 19.5 0 1 1 21.3 51.9 12.4 19.5 0 1 1 46.1 51.9z" transform="matrix(0.939421,0.239581,-0.276433,1.069045,58.67646,19.94617)" style="fill:#314e6c;stroke-opacity:0.5;stroke-width:4.5;stroke:#000"/>
    <path id="path827" d="M46.1 51.9A12.4 19.5 0 1 1 21.3 51.9 12.4 19.5 0 1 1 46.1 51.9z" transform="matrix(0.939421,0.239581,-0.276433,1.069045,58.67646,19.94617)" style="fill:#314e6c;stroke-width:1;stroke:#000"/>
    <path id="path922" d="M145.3 78.5A44.3 70.9 0 1 1 56.7 78.5 44.3 70.9 0 1 1 145.3 78.5z" transform="matrix(0.939421,0.239581,-0.241243,0.932955,-13.93465,-17.0418)" style="fill:none;stroke-opacity:0.5;stroke-width:3.9;stroke:#000"/>
    <path d="M60.8 21.1C39.7 18.2-3.2 95.2 35.1 136.3 5.6 101 31.8 29.7 60.8 21.1zM70.6 102.8C56.9 90.4 70.9 63.8 79.3 64.5 64.4 81.4 78 97.6 70.6 102.8z" id="path923" fill="#fff"/>
    <path d="M98.3 109.6L80.8 134.9C77.8 139.1 129.4 118.6 137.9 101.8 142.4 84.9 109.3 72.6 109.3 72.6L98.3 109.6z" id="path1078" fill="url(#linearGradient1703)"/>
    <path d="M65.5 141.4C86.6 144.4 130.7 65 92.4 22.1 118.7 60.6 93.7 128.2 65.5 141.4z" id="path2074" class="s5"/>
    <path d="M63.8 139.6C84.8 142.6 127.7 65.6 89.5 24.4 118.9 59.7 92.8 131 63.8 139.6z" id="path5112" class="s5"/>
  </g>
  <path d="M107.3 111.4C108.5 112 109.4 112.7 110.1 113.5 111.2 114.9 111.8 116.5 111.8 118.4 111.8 121.1 110.7 123.3 108.5 124.9 107.7 125.5 106.8 125.9 105.7 126.2 104.8 126.5 103.7 126.7 102.7 126.7L85.1 126.7 85.1 121.4 100.4 121.4C101.6 121.4 102.6 121.1 103.3 120.5 104.2 119.8 104.6 118.9 104.6 117.5 104.6 116.2 104.2 115.3 103.4 114.6 102.6 114 101.6 113.7 100.4 113.7L88.7 113.7 88.7 108.6 100.4 108.6C101.6 108.6 102.6 108.3 103.3 107.7 104.2 107.1 104.6 106.1 104.6 104.7 104.6 103.5 104.2 102.6 103.4 101.9 102.6 101.3 101.6 100.9 100.4 100.9L85.1 100.9 85.1 95.6 102.7 95.6C104.8 95.6 106.8 96.1 108.5 97.3 110.7 98.8 111.8 101 111.8 103.8 111.8 105.7 111.2 107.3 110.1 108.7 109.4 109.5 108.5 110.2 107.3 110.8L106.7 111.1 107.3 111.4zM60.6 115.6L60.6 126.7 53.9 126.7 53.9 95.6 72.6 95.6C75.5 95.6 77.7 96.4 79.4 98.1 81.1 99.8 81.9 102.3 81.9 105.6 81.9 108.8 81.1 111.3 79.4 113 77.7 114.7 75.5 115.6 72.6 115.6L60.6 115.6zM60.6 100.9L60.6 110.2 69.5 110.2C71 110.2 72.2 109.9 73.1 109.1 74.1 108.3 74.5 107.2 74.5 105.6 74.5 104 74.1 102.8 73.1 102.1 72.2 101.3 71 100.9 69.5 100.9L60.6 100.9zM19.5 126.7L12.7 126.7 12.7 95.6 22.7 95.6 30.9 119.6 39.1 95.6 49.2 95.6 49.2 126.7 42.5 126.7 42.5 103.4 42.3 103.4 34.2 126.7 27.7 126.7 19.6 103.4 19.5 103.4 19.5 126.7z" id="path7148" style="fill:#fff;font-family:Trek;font-size:40;stroke-width:1"/>
  <path d="M107.9 112.1C109.2 112.7 110.1 113.4 110.7 114.2 111.9 115.6 112.5 117.2 112.5 119.1 112.5 121.8 111.4 124 109.2 125.6 108.4 126.2 107.4 126.6 106.4 126.9 105.4 127.2 104.4 127.4 103.3 127.4L85.8 127.4 85.8 122 101.1 122C102.3 122 103.3 121.7 104 121.2 104.9 120.5 105.3 119.5 105.3 118.2 105.3 116.9 104.9 116 104.1 115.3 103.3 114.7 102.3 114.4 101.1 114.4L89.3 114.4 89.3 109.2 101.1 109.2C102.3 109.2 103.3 109 104 108.4 104.9 107.8 105.3 106.8 105.3 105.4 105.3 104.2 104.9 103.3 104.1 102.6 103.3 101.9 102.3 101.6 101.1 101.6L85.8 101.6 85.8 96.2 103.3 96.2C105.5 96.2 107.4 96.8 109.2 98 111.4 99.5 112.5 101.7 112.5 104.5 112.5 106.4 111.9 108 110.7 109.4 110.1 110.2 109.2 110.9 107.9 111.5L107.4 111.8 107.9 112.1zM61.3 116.2L61.3 127.4 54.6 127.4 54.6 96.2 73.3 96.2C76.1 96.2 78.4 97.1 80.1 98.8 81.8 100.5 82.6 103 82.6 106.2 82.6 109.5 81.8 112 80.1 113.7 78.4 115.4 76.1 116.2 73.3 116.2L61.3 116.2zM61.3 101.6L61.3 110.9 70.2 110.9C71.7 110.9 72.9 110.5 73.8 109.8 74.8 109 75.2 107.8 75.2 106.2 75.2 104.7 74.8 103.5 73.8 102.8 72.9 102 71.7 101.6 70.2 101.6L61.3 101.6zM20.1 127.4L13.4 127.4 13.4 96.2 23.4 96.2 31.6 120.3 39.8 96.2 49.9 96.2 49.9 127.4 43.1 127.4 43.1 104.1 43 104.1 34.9 127.4 28.4 127.4 20.3 104.1 20.1 104.1 20.1 127.4z" id="path861" style="font-family:Trek;font-size:40;stroke-width:1"/>
  <path d="M24.6 7.3L100.3 7.3C112 7.3 117.7 13 117.7 24.7 117.7 24.7 38.4 25.6 7.3 116L7.3 24.7C7.3 14.4 14.3 7.3 24.6 7.3z" id="rect2063" fill="url(#linearGradient2830)"/>
</svg>
