<svg xmlns:svg="http://www.w3.org/2000/svg" xmlns="http://www.w3.org/2000/svg" xmlns:xlink="http://www.w3.org/1999/xlink" height="140.9" width="125.3" id="svg1" version="1">
<style>
.s0{
  stop-color:#46a046;
  stop-opacity:1;
}
.s1{
  stop-color:#df421e;
  stop-opacity:1;
}
.s2{
  stop-color:#ada7c8;
  stop-opacity:1;
}
.s3{
  stop-color:#eed680;
  stop-opacity:1;
}
.s4{
  fill:#fff;
}
.s5{
  fill-opacity:0.3;
  fill:#000;
}

</style>  <metadata id="metadata15"/>
  <defs id="defs3">
    <linearGradient id="linearGradient3587">
      <stop offset="0" id="stop3589" style="stop-color:#efe0cd;stop-opacity:0.6"/>
      <stop offset="1" id="stop3591" style="stop-color:#cececd;stop-opacity:0.2"/>
    </linearGradient>
    <linearGradient id="linearGradient2832">
      <stop id="stop2834" offset="0" style="stop-color:#ffffff;stop-opacity:1"/>
      <stop id="stop2836" offset="1" style="stop-color:#ffffff;stop-opacity:0"/>
    </linearGradient>
    <linearGradient id="linearGradient839">
      <stop id="stop840" offset="0" class="s0"/>
      <stop id="stop841" offset="0.4" class="s1"/>
      <stop id="stop842" offset="0.7" class="s2"/>
      <stop id="stop843" offset="1" class="s3"/>
    </linearGradient>
    <linearGradient y2="0.5" x2="1" y1="0.5" x1="0" id="linearGradient836" xlink:href="#linearGradient839"/>
    <linearGradient gradientUnits="userSpaceOnUse" y2="73.4" x2="73" y1="16.4" x1="24" gradientTransform="matrix(0.939922,0,0,0.896911,-12.081733,-3.3524237)" id="linearGradient2830" xlink:href="#linearGradient2832"/>
    <linearGradient xlink:href="#linearGradient1700" id="linearGradient1407" gradientUnits="userSpaceOnUse" gradientTransform="matrix(0.777129,0,0,0.894628,-162.4688,12.76856)" x1="111.3" y1="124.3" x2="107.3" y2="93.7"/>
    <linearGradient xlink:href="#linearGradient1700" id="linearGradient1390" gradientUnits="userSpaceOnUse" gradientTransform="matrix(0.777129,0,0,0.894628,-2.922179,10.43077)" x1="111.3" y1="124.3" x2="107.3" y2="93.7"/>
    <linearGradient id="linearGradient1350">
      <stop id="stop1352" offset="0" class="s0"/>
      <stop id="stop1354" offset="0.4" class="s1"/>
      <stop id="stop1356" offset="0.7" class="s2"/>
      <stop id="stop1358" offset="1" class="s3"/>
    </linearGradient>
    <linearGradient y2="0.5" x2="1" y1="0.5" x1="0" id="linearGradient1360" xlink:href="#linearGradient839"/>
    <linearGradient gradientUnits="userSpaceOnUse" y2="88" x2="128.7" y1="121.7" x1="123.5" gradientTransform="matrix(0.870364,0,0,1.001961,4.612015,4.886798)" id="linearGradient1362" xlink:href="#linearGradient1700"/>
    <linearGradient gradientUnits="userSpaceOnUse" y2="93.7" x2="107.3" y1="124.3" x1="111.3" gradientTransform="matrix(0.919657,0,0,1.058706,1.338192,1.084837)" id="linearGradient1703" xlink:href="#linearGradient1700"/>
    <linearGradient y2="0.5" x2="1" y1="0.5" x1="0" id="linearGradient1363" xlink:href="#linearGradient839"/>
    <linearGradient id="linearGradient1353">
      <stop id="stop1355" offset="0" class="s0"/>
      <stop id="stop1357" offset="0.4" class="s1"/>
      <stop id="stop1359" offset="0.7" class="s2"/>
      <stop id="stop1361" offset="1" class="s3"/>
    </linearGradient>
    <linearGradient id="linearGradient1700">
      <stop id="stop1701" offset="0" style="stop-color:#000000;stop-opacity:0.7"/>
      <stop id="stop1702" offset="1" style="stop-color:#000000;stop-opacity:0"/>
    </linearGradient>
    <linearGradient xlink:href="#linearGradient839" id="linearGradient1427" x1="0" y1="0.5" x2="1" y2="0.5"/>
    <linearGradient id="linearGradient1417">
      <stop offset="0" id="stop1419" class="s0"/>
      <stop offset="0.4" id="stop1421" class="s1"/>
      <stop offset="0.7" id="stop1423" class="s2"/>
      <stop offset="1" id="stop1425" class="s3"/>
    </linearGradient>
  </defs>
  <rect rx="22.9" ry="22.9" y="3.8" x="3.8" height="133.4" width="117.8" id="rect834" style="fill:none;stroke-linejoin:round;stroke-opacity:0.5;stroke-width:7.5;stroke:#000"/>
  <rect rx="22.9" ry="22.9" y="3.7" x="3.6" height="133.4" width="117.8" id="rect828" style="fill-opacity:0.9;fill:#83a67f;stroke-width:3.8;stroke:#000"/>
  <path id="path2838" d="M100.3 132.6L24.6 132.6C13 132.6 7.3 126.9 7.3 115.2 7.3 115.2 34.9 48.7 117.7 38.6L117.7 115.2C117.7 126.9 112 132.6 100.3 132.6z" style="fill-opacity:0.3;fill:#fff"/>
  <path d="M93 125.8C88.8 125.8 85.5 124.4 83.3 121.8 81 119.1 79.9 115.2 79.9 110.2 79.9 105.1 81 101.3 83.3 98.7 85.5 96 88.7 94.7 93 94.7L109.7 94.7 109.7 100 95 100C92.4 100 90.5 100.9 89.2 102.6 87.9 104.3 87.3 106.8 87.3 110.2 87.3 113.6 87.9 116.2 89.1 117.9 90.3 119.6 92.3 120.5 95 120.5L103.1 120.5 103.1 112.8 94.3 112.8 94.3 107.7 109.7 107.7 109.7 125.8 93 125.8zM60 125.8C55.8 125.8 52.5 124.4 50.3 121.8 48 119.1 46.9 115.2 46.9 110.2 46.9 105.1 48 101.3 50.3 98.7 52.5 96 55.7 94.7 60 94.7L76.7 94.7 76.7 100 62 100C59.4 100 57.5 100.9 56.2 102.6 54.9 104.3 54.3 106.8 54.3 110.2 54.3 113.6 54.9 116.2 56.1 117.9 57.3 119.6 59.3 120.5 62 120.5L70.1 120.5 70.1 112.8 61.3 112.8 61.3 107.7 76.7 107.7 76.7 125.8 60 125.8zM12.1 110.2C12.1 107.6 12.4 105.4 12.9 103.7 13.4 101.8 14.2 100.3 15.3 98.9 17.9 95.8 22.1 94.2 27.9 94.2 33.6 94.2 37.8 95.8 40.5 98.9 40.9 99.4 41.4 100.1 41.8 101 41.9 101.1 42 101.4 42.2 101.9 42.4 102.4 42.7 103 42.9 103.7 43.4 105.5 43.7 107.7 43.7 110.2 43.7 115.1 42.6 118.9 40.5 121.5 37.9 124.7 33.7 126.2 27.9 126.2 22.1 126.2 17.9 124.7 15.3 121.6 13.2 119 12.1 115.2 12.1 110.2zM27.9 99.3C25.2 99.3 23.1 100 21.6 101.3 19.9 102.9 19.1 105.9 19.1 110.2 19.1 113.6 19.6 116.1 20.5 117.7 21.8 120 24.3 121.1 27.9 121.1 31.4 121.1 33.9 120 35.3 117.7 36.3 116.1 36.7 113.6 36.7 110.2 36.7 106.7 36.3 104.2 35.3 102.7 34 100.5 31.5 99.3 27.9 99.3z" id="path1451" style="fill:#fff;font-family:Trek;font-size:40;stroke-width:1"/>
  <path d="M93.3 126.1C89.1 126.1 85.9 124.8 83.6 122.1 81.4 119.4 80.2 115.6 80.2 110.6 80.2 105.5 81.4 101.6 83.6 99 85.8 96.3 89.1 95 93.3 95L110.1 95 110.1 100.4 95.3 100.4C92.8 100.4 90.8 101.2 89.6 102.9 88.3 104.6 87.6 107.2 87.6 110.6 87.6 114 88.2 116.5 89.4 118.2 90.6 119.9 92.6 120.8 95.3 120.8L103.4 120.8 103.4 113.1 94.7 113.1 94.7 108 110.1 108 110.1 126.1 93.3 126.1zM60.3 126.1C56.1 126.1 52.9 124.8 50.6 122.1 48.4 119.4 47.2 115.6 47.2 110.6 47.2 105.5 48.4 101.6 50.6 99 52.8 96.3 56.1 95 60.3 95L77.1 95 77.1 100.4 62.3 100.4C59.8 100.4 57.8 101.2 56.6 102.9 55.3 104.6 54.6 107.2 54.6 110.6 54.6 114 55.2 116.5 56.4 118.2 57.6 119.9 59.6 120.8 62.3 120.8L70.4 120.8 70.4 113.1 61.7 113.1 61.7 108 77.1 108 77.1 126.1 60.3 126.1zM12.4 110.6C12.4 108 12.7 105.8 13.2 104 13.7 102.2 14.6 100.6 15.7 99.2 18.2 96.1 22.4 94.6 28.2 94.6 33.9 94.6 38.1 96.1 40.8 99.2 41.3 99.8 41.7 100.5 42.2 101.4 42.2 101.5 42.4 101.8 42.6 102.3 42.8 102.8 43 103.4 43.2 104 43.8 105.9 44 108.1 44 110.6 44 115.5 43 119.2 40.8 121.9 38.2 125 34 126.6 28.2 126.6 22.4 126.6 18.2 125 15.7 121.9 13.5 119.4 12.4 115.6 12.4 110.6zM28.2 99.7C25.5 99.7 23.4 100.3 22 101.6 20.3 103.2 19.4 106.2 19.4 110.6 19.4 114 19.9 116.5 20.8 118.1 22.1 120.3 24.6 121.4 28.2 121.4 31.7 121.4 34.2 120.3 35.6 118.1 36.6 116.5 37.1 114 37.1 110.6 37.1 107.1 36.6 104.6 35.7 103 34.3 100.8 31.8 99.7 28.2 99.7z" id="path840" style="font-family:Trek;font-size:40;stroke-width:1"/>
  <g id="g1375" transform="matrix(0.529753,0,0,0.529753,20.520594,10.449884)">
    <path d="M71.1 10.9C49.9 12.3 28.1 36.1 19.6 69 9.8 106.6 21.1 142.1 44.8 148.1 51.1 149.7 57.5 149 63.9 146.6L124.3 117.1C129.9 112.1 137.1 110.6 140.5 99.4 143.9 88.1 141.8 82.2 137.3 74.1L93.7 19.7C89.8 15.9 85.2 13.1 80.1 11.8 77.1 11 74.1 10.7 71.1 10.9z" id="path1539" style="fill:#4b6983;stroke-linejoin:round;stroke-opacity:0.5;stroke-width:3.8;stroke:#000"/>
    <path id="path831" d="M92.9 20.6L65.3 144.6 124 116.4C130.8 111.7 136.4 110.1 139.7 99.2 143 88.4 141 82.6 136.6 74.7L92.9 20.6z" style="fill:#7590ae;stroke-linejoin:round;stroke-width:2.5;stroke:#000"/>
    <path transform="matrix(0.939421,0.239581,-0.241243,0.932955,-13.93465,-17.0418)" d="M145.3 78.5A44.3 70.9 0 1 1 56.7 78.5 44.3 70.9 0 1 1 145.3 78.5z" id="path825" style="fill:#9db8d2;stroke-width:2.6;stroke:#000"/>
    <path transform="matrix(1.131177,0.288486,-0.265628,1.027252,-33.1397,-37.83387)" d="M131.1 85.6A28.3 56.7 0 1 1 74.4 85.6 28.3 56.7 0 1 1 131.1 85.6z" id="path4029" style="fill:#7590ae;stroke-opacity:0.5;stroke-width:3.4;stroke:#000"/>
    <path transform="matrix(1.131177,0.288486,-0.265628,1.027252,-33.1397,-37.83387)" d="M131.1 85.6A28.3 56.7 0 1 1 74.4 85.6 28.3 56.7 0 1 1 131.1 85.6z" id="path826" style="fill:#7590ae;stroke-width:2.3;stroke:#000"/>
    <path id="path2788" d="M62 23.5C62 23.5 66.6 42.8 67.6 66.4 68.5 90 62.5 96.3 60.2 100.7 57.9 105.1 52.4 119.6 37.8 133.1 49.5 142.8 80.4 138.7 93.3 77.3 98.2 38.3 82.4 15.1 62 23.5z" style="fill-opacity:0.5;fill:#fff"/>
    <path transform="matrix(0.939421,0.239581,-0.276433,1.069045,58.67646,19.94617)" d="M46.1 51.9A12.4 19.5 0 1 1 21.3 51.9 12.4 19.5 0 1 1 46.1 51.9z" id="path5272" style="fill:#314e6c;stroke-opacity:0.5;stroke-width:4.5;stroke:#000"/>
    <path transform="matrix(0.939421,0.239581,-0.276433,1.069045,58.67646,19.94617)" d="M46.1 51.9A12.4 19.5 0 1 1 21.3 51.9 12.4 19.5 0 1 1 46.1 51.9z" id="path827" style="fill:#314e6c;stroke-width:1;stroke:#000"/>
    <path transform="matrix(0.939421,0.239581,-0.241243,0.932955,-13.93465,-17.0418)" d="M145.3 78.5A44.3 70.9 0 1 1 56.7 78.5 44.3 70.9 0 1 1 145.3 78.5z" id="path922" style="fill:none;stroke-opacity:0.5;stroke-width:3.9;stroke:#000"/>
    <path id="path923" d="M60.8 21.1C39.7 18.2-3.2 95.2 35.1 136.3 5.6 101 31.8 29.7 60.8 21.1zM70.6 102.8C56.9 90.4 70.9 63.8 79.3 64.5 64.4 81.4 78 97.6 70.6 102.8z" fill="#fff"/>
    <path id="path1078" d="M98.3 109.6L80.8 134.9C77.8 139.1 129.4 118.6 137.9 101.8 142.4 84.9 109.3 72.6 109.3 72.6L98.3 109.6z" fill="url(#linearGradient1703)"/>
    <path id="path2074" d="M65.5 141.4C86.6 144.4 130.7 65 92.4 22.1 118.7 60.6 93.7 128.2 65.5 141.4z" class="s5"/>
    <path id="path5112" d="M63.8 139.6C84.8 142.6 127.7 65.6 89.5 24.4 118.9 59.7 92.8 131 63.8 139.6z" class="s5"/>
  </g>
  <path id="rect2063" d="M24.6 7.3L100.3 7.3C112 7.3 117.7 13 117.7 24.7 117.7 24.7 38.4 25.6 7.3 116L7.3 24.7C7.3 14.4 14.3 7.3 24.6 7.3z" fill="url(#linearGradient2830)"/>
</svg>
