<svg xmlns:svg="http://www.w3.org/2000/svg" xmlns="http://www.w3.org/2000/svg" xmlns:xlink="http://www.w3.org/1999/xlink" id="svg1" width="125.3" height="140.9" version="1">
<style>
.s0{
  stop-color:#ffffff;
  stop-opacity:1;
}
.s1{
  stop-color:#ffffff;
  stop-opacity:0;
}
.s2{
  stop-color:#46a046;
  stop-opacity:1;
}
.s3{
  stop-color:#df421e;
  stop-opacity:1;
}
.s4{
  stop-color:#ada7c8;
  stop-opacity:1;
}
.s5{
  stop-color:#eed680;
  stop-opacity:1;
}
.s6{
  stop-color:#ffff00;
  stop-opacity:1;
}
.s7{
  stop-color:#ffea00;
  stop-opacity:1;
}
.s8{
  stop-color:#ffd600;
  stop-opacity:1;
}
.s9{
  stop-color:#7590ae;
  stop-opacity:1;
}
.s10{
  stop-color:#89a4c0;
  stop-opacity:1;
}
.s11{
  stop-color:#9db8d2;
  stop-opacity:1;
}
.s12{
  stop-color:#dfb546;
  stop-opacity:1;
}
.s13{
  stop-color:#d1940c;
  stop-opacity:1;
}
.s14{
  fill:#b39169;
  stroke-opacity:0.4;
  stroke-width:3.8;
  stroke:#000;
}
.s15{
  fill:#b39169;
  stroke-width:2.3;
  stroke:#000;
}
.s16{
  fill-opacity:0.4;
  fill:#fff;
}

</style>  <metadata id="metadata15"/>
  <defs id="defs3">
    <linearGradient id="linearGradient3587">
      <stop id="stop3589" offset="0" style="stop-color:#efe0cd;stop-opacity:0.6"/>
      <stop id="stop3591" offset="1" style="stop-color:#cececd;stop-opacity:0.2"/>
    </linearGradient>
    <linearGradient id="linearGradient2832">
      <stop offset="0" id="stop2834" class="s0"/>
      <stop offset="1" id="stop2836" class="s1"/>
    </linearGradient>
    <linearGradient id="linearGradient839">
      <stop offset="0" id="stop840" class="s2"/>
      <stop offset="0.4" id="stop841" class="s3"/>
      <stop offset="0.7" id="stop842" class="s4"/>
      <stop offset="1" id="stop843" class="s5"/>
    </linearGradient>
    <linearGradient xlink:href="#linearGradient839" id="linearGradient836" x1="0" y1="0.5" x2="1" y2="0.5"/>
    <linearGradient xlink:href="#linearGradient2832" id="linearGradient2830" gradientTransform="matrix(0.939922,0,0,0.896911,-12.081733,-3.3524237)" x1="24" y1="16.4" x2="73" y2="73.4" gradientUnits="userSpaceOnUse"/>
    <linearGradient y2="93.7" x2="107.3" y1="124.3" x1="111.3" gradientTransform="matrix(0.777129,0,0,0.894628,-162.4688,12.76856)" gradientUnits="userSpaceOnUse" id="linearGradient1407" xlink:href="#linearGradient1700"/>
    <linearGradient y2="93.7" x2="107.3" y1="124.3" x1="111.3" gradientTransform="matrix(0.777129,0,0,0.894628,-2.922179,10.43077)" gradientUnits="userSpaceOnUse" id="linearGradient1390" xlink:href="#linearGradient1700"/>
    <linearGradient id="linearGradient1350">
      <stop offset="0" id="stop1352" class="s2"/>
      <stop offset="0.4" id="stop1354" class="s3"/>
      <stop offset="0.7" id="stop1356" class="s4"/>
      <stop offset="1" id="stop1358" class="s5"/>
    </linearGradient>
    <linearGradient xlink:href="#linearGradient839" id="linearGradient1360" x1="0" y1="0.5" x2="1" y2="0.5"/>
    <linearGradient xlink:href="#linearGradient1700" id="linearGradient1362" gradientTransform="matrix(0.870364,0,0,1.001961,4.612015,4.886798)" x1="123.5" y1="121.7" x2="128.7" y2="88" gradientUnits="userSpaceOnUse"/>
    <linearGradient xlink:href="#linearGradient839" id="linearGradient1363" x1="0" y1="0.5" x2="1" y2="0.5"/>
    <linearGradient id="linearGradient1353">
      <stop offset="0" id="stop1355" class="s2"/>
      <stop offset="0.4" id="stop1357" class="s3"/>
      <stop offset="0.7" id="stop1359" class="s4"/>
      <stop offset="1" id="stop1361" class="s5"/>
    </linearGradient>
    <linearGradient id="linearGradient1700">
      <stop offset="0" id="stop1701" style="stop-color:#000000;stop-opacity:0.7"/>
      <stop offset="1" id="stop1702" style="stop-color:#000000;stop-opacity:0"/>
    </linearGradient>
    <linearGradient y2="0.5" x2="1" y1="0.5" x1="0" id="linearGradient1427" xlink:href="#linearGradient839"/>
    <linearGradient id="linearGradient1417">
      <stop id="stop1419" offset="0" class="s2"/>
      <stop id="stop1421" offset="0.4" class="s3"/>
      <stop id="stop1423" offset="0.7" class="s4"/>
      <stop id="stop1425" offset="1" class="s5"/>
    </linearGradient>
    <linearGradient xlink:href="#linearGradient839" id="linearGradient1381" x1="0" y1="0.5" x2="1" y2="0.5"/>
    <linearGradient id="linearGradient1371">
      <stop offset="0" id="stop1373" class="s2"/>
      <stop offset="0.4" id="stop1375" class="s3"/>
      <stop offset="0.7" id="stop1377" class="s4"/>
      <stop offset="1" id="stop1379" class="s5"/>
    </linearGradient>
    <linearGradient y2="0.5" x2="1" y1="0.5" x1="0" id="linearGradient1374" xlink:href="#linearGradient839"/>
    <linearGradient id="linearGradient1364">
      <stop id="stop1366" offset="0" class="s2"/>
      <stop id="stop1368" offset="0.4" class="s3"/>
      <stop id="stop1370" offset="0.7" class="s4"/>
      <stop id="stop1372" offset="1" class="s5"/>
    </linearGradient>
    <linearGradient gradientUnits="userSpaceOnUse" y2="85.8" x2="78.8" y1="46.3" x1="41.4" gradientTransform="scale(0.998875,1.001127)" id="linearGradient2840" xlink:href="#linearGradient2832"/>
    <linearGradient gradientUnits="userSpaceOnUse" y2="86.6" x2="79.2" y1="51.4" x1="44.2" gradientTransform="scale(0.998853,1.001148)" id="linearGradient2857" xlink:href="#linearGradient2851"/>
    <linearGradient spreadMethod="reflect" y2="0.6" x2="0.6" y1="0.5" x1="0.4" id="linearGradient1391" xlink:href="#linearGradient870"/>
    <linearGradient id="linearGradient832">
      <stop id="stop833" offset="0" class="s0"/>
      <stop id="stop835" offset="0.5" style="stop-color:#00b8df;stop-opacity:1"/>
      <stop id="stop834" offset="1" style="stop-color:#0058a9;stop-opacity:1"/>
    </linearGradient>
    <linearGradient id="linearGradient870">
      <stop id="stop871" offset="0" class="s0"/>
      <stop id="stop875" offset="0.5" style="stop-color:#ff7f7f;stop-opacity:1"/>
      <stop id="stop873" offset="1" style="stop-color:#ff0000;stop-opacity:1"/>
    </linearGradient>
    <linearGradient id="linearGradient2851">
      <stop id="stop2853" offset="0" class="s0"/>
      <stop id="stop2855" offset="1" class="s1"/>
    </linearGradient>
    <linearGradient id="linearGradient1375">
      <stop id="stop2832" offset="0" class="s0"/>
      <stop id="stop1378" offset="1" class="s1"/>
    </linearGradient>
    <linearGradient spreadMethod="reflect" y2="0.5" x2="0.4" y1="0.8" x1="0.7" id="linearGradient674" xlink:href="#linearGradient869"/>
    <linearGradient y2="0.5" x2="1" y1="0.5" x1="0" id="linearGradient1432" xlink:href="#linearGradient839"/>
    <linearGradient id="linearGradient1422">
      <stop id="stop1424" offset="0" class="s2"/>
      <stop id="stop1426" offset="0.4" class="s3"/>
      <stop id="stop1428" offset="0.7" class="s4"/>
      <stop id="stop1430" offset="1" class="s5"/>
    </linearGradient>
    <linearGradient spreadMethod="reflect" y2="0.3" x2="0.2" y1="0.5" x1="0.4" id="linearGradient904" xlink:href="#linearGradient907"/>
    <linearGradient id="linearGradient866">
      <stop id="stop867" offset="0" class="s6"/>
      <stop id="stop901" offset="0.4" class="s7"/>
      <stop id="stop868" offset="1" class="s8"/>
    </linearGradient>
    <linearGradient id="linearGradient869">
      <stop id="stop870" offset="0" class="s9"/>
      <stop id="stop912" offset="0.9" class="s10"/>
      <stop id="stop1415" offset="1" class="s11"/>
    </linearGradient>
    <linearGradient id="linearGradient907">
      <stop id="stop908" offset="0" class="s5"/>
      <stop id="stop911" offset="0.3" class="s12"/>
      <stop id="stop910" offset="1" class="s13"/>
    </linearGradient>
    <linearGradient xlink:href="#linearGradient869" id="linearGradient1471" x1="0.7" y1="0.8" x2="0.4" y2="0.5" spreadMethod="reflect"/>
    <linearGradient xlink:href="#linearGradient839" id="linearGradient1469" x1="0" y1="0.5" x2="1" y2="0.5"/>
    <linearGradient id="linearGradient1459">
      <stop offset="0" id="stop1461" class="s2"/>
      <stop offset="0.4" id="stop1463" class="s3"/>
      <stop offset="0.7" id="stop1465" class="s4"/>
      <stop offset="1" id="stop1467" class="s5"/>
    </linearGradient>
    <linearGradient xlink:href="#linearGradient907" id="linearGradient1457" x1="0.4" y1="0.5" x2="0.2" y2="0.3" spreadMethod="reflect"/>
    <linearGradient id="linearGradient1449">
      <stop offset="0" id="stop1451" class="s6"/>
      <stop offset="0.4" id="stop1453" class="s7"/>
      <stop offset="1" id="stop1455" class="s8"/>
    </linearGradient>
    <linearGradient id="linearGradient1441">
      <stop offset="0" id="stop1443" class="s9"/>
      <stop offset="0.9" id="stop1445" class="s10"/>
      <stop offset="1" id="stop1447" class="s11"/>
    </linearGradient>
    <linearGradient id="linearGradient1433">
      <stop offset="0" id="stop1435" class="s5"/>
      <stop offset="0.3" id="stop1437" class="s12"/>
      <stop offset="1" id="stop1439" class="s13"/>
    </linearGradient>
    <linearGradient xlink:href="#linearGradient2832" id="linearGradient1496" gradientUnits="userSpaceOnUse" gradientTransform="scale(0.998875,1.001127)" x1="41.4" y1="46.3" x2="78.8" y2="85.8"/>
  </defs>
  <rect id="rect834" width="117.8" height="133.4" x="3.8" y="3.8" ry="22.9" rx="22.9" style="fill:none;stroke-linejoin:round;stroke-opacity:0.5;stroke-width:7.5;stroke:#000"/>
  <rect id="rect828" width="117.8" height="133.4" x="3.6" y="3.7" ry="22.9" rx="22.9" style="fill:#bab5ab;stroke-width:3.8;stroke:#000"/>
  <path d="M100.3 132.6L24.6 132.6C13 132.6 7.3 126.9 7.3 115.2 7.3 115.2 34.9 48.7 117.7 38.6L117.7 115.2C117.7 126.9 112 132.6 100.3 132.6z" id="path2838" style="fill-opacity:0.3;fill:#fff"/>
  <g id="g1395" transform="matrix(0.507928,0,0,0.507928,8.8675636,5.4427143)">
    <path id="path1306" d="M94.1 9.9L83.3 25.5 80.6 19.9 76.9 27.1 64.8 10.4 59.1 29.6 41.3 20.3 44.6 39.6 38.2 37.3 40.6 44.5 20.8 41.3 30.4 59.3 10.8 65.6 26.8 76.7 20.8 79.7 27.6 83 11.3 94.9 30.4 100.6 21.2 118.5 40.9 115 38.6 121.9 44.5 119.8 41.3 138.5 60 128.8 66.4 148.9 77.5 132.9 80.6 139 83.6 132.8 94.8 148.8 100.8 129.6 118.5 139 115.1 118.6 122.8 121.1 120.4 114.4 139.8 117.6 130.5 100.1 149.4 94.2 133 82.5 139.8 79.2 133 75.8 149.3 64 130.1 58.2 139.4 40.4 119.7 43.9 121.9 36.9 115.3 39.3 118.5 19.9 100.4 29.5 94.1 9.9zM79.3 50.2C96.1 50.2 109.8 63.9 109.8 80.7 109.8 97.6 96.1 111.2 79.3 111.2 62.4 111.2 48.8 97.6 48.8 80.7 48.7 63.9 62.4 50.2 79.3 50.2z" class="s14"/>
    <path id="path1308" d="M94.1 9.9L83.3 25.5 80.6 19.9 76.9 27.1 64.8 10.4 59.1 29.6 41.3 20.3 44.6 39.6 38.2 37.3 40.6 44.5 20.8 41.3 30.4 59.3 10.8 65.6 26.8 76.7 20.8 79.7 27.6 83 11.3 94.9 30.4 100.6 21.2 118.5 40.9 115 38.6 121.9 44.5 119.8 41.3 138.5 60 128.8 66.4 148.9 77.5 132.9 80.6 139 83.6 132.8 94.8 148.8 100.8 129.6 118.5 139 115.1 118.6 122.8 121.1 120.4 114.4 139.8 117.6 130.5 100.1 149.4 94.2 133 82.5 139.8 79.2 133 75.8 149.3 64 130.1 58.2 139.4 40.4 119.7 43.9 121.9 36.9 115.3 39.3 118.5 19.9 100.4 29.5 94.1 9.9zM79.3 50.2C96.1 50.2 109.8 63.9 109.8 80.7 109.8 97.6 96.1 111.2 79.3 111.2 62.4 111.2 48.8 97.6 48.8 80.7 48.7 63.9 62.4 50.2 79.3 50.2z" class="s15"/>
    <path id="path2070" d="M92.3 18.5L82.9 32.2 80.4 27.2 77.2 33.6 66.6 18.9 61.5 35.8 45.9 27.6 48.8 44.5 43.1 42.6 45.3 48.9 27.8 46 36.3 61.9 19.1 67.4 33.1 77.2 27.8 79.8 33.9 82.8 19.5 93.2 36.3 98.2 28.2 114 45.5 110.9 43.5 117 48.7 115.1 45.9 131.6 62.3 123.1 68 140.7 77.7 126.7 80.4 132 83.1 126.5 93 140.6 98.3 123.7 113.8 132 110.8 114.1 117.6 116.3 115.5 110.4 132.6 113.2 124.3 97.8 141 92.6 126.6 82.3 132.6 79.4 126.5 76.4 140.9 66 124 61 132.2 45.3 114.8 48.3 116.8 42.2 111 44.3 113.8 27.2 97.9 35.7 92.3 18.5zM79.3 53.9C94.1 53.9 106.1 65.9 106.1 80.7 106.1 95.6 94.1 107.6 79.3 107.6 64.5 107.6 52.5 95.6 52.5 80.7 52.5 65.9 64.5 53.9 79.3 53.9z" fill="url(#linearGradient2840)"/>
    <path id="path2842" d="M45.9 131.6L62.3 123.1 68 140.7 77.7 126.7 80.4 132 83.1 126.5 93 140.6 98.3 123.7 113.8 132 110.8 114.1 117.6 116.3 115.5 110.4 132.6 113.2 124.3 97.8 141 92.6 126.6 82.3 132.6 79.4 126.5 76.4 140.9 66 124 61 132.2 45.3 45.9 131.6zM106.1 80.7C106.1 95.6 94.1 107.6 79.3 107.6 64.5 107.6 106.1 65.9 106.1 80.7z" class="s16"/>
  </g>
  <path d="M102.5 127.2C101.1 127.2 99.8 127.1 98.7 126.7 97.5 126.3 96.5 125.7 95.7 125 95.3 124.6 94.9 124.1 94.5 123.6 94.3 123.3 94.1 123.1 94 122.9 93.9 122.6 93.7 122.3 93.6 121.8 93.1 120.5 92.9 119 92.9 117.3L92.9 99.9 98.8 99.9 98.8 116.9C98.8 117.8 98.9 118.6 99.1 119.2 99.3 119.9 99.7 120.5 100.3 121.1 100.8 121.6 101.4 121.9 102.1 122.2 102.9 122.4 103.6 122.6 104.4 122.6L112.1 122.6 112.1 127.2 102.5 127.2zM77.3 116.5L71 116.5 71 127.2 65.1 127.2 65.1 99.9 81 99.9C83.6 99.9 85.6 100.5 87 101.8 88.5 103.2 89.3 105.3 89.3 108.2 89.3 109.3 89.2 110.2 89 111 88.8 111.8 88.5 112.6 88 113.3 87.2 114.5 85.9 115.4 84.2 116.1L84 116.1 90 127.2 83 127.2 77.3 116.5zM71 104.6L71 112.2 77.9 112.2C79.3 112.2 80.3 111.9 81 111.4 81.8 110.8 82.3 109.8 82.3 108.4 82.3 107 81.8 106.1 81 105.5 80.2 104.9 79.2 104.6 77.9 104.6L71 104.6zM62.3 115.8L46.2 115.8 46.2 116 46.6 118.1C47 119.2 47.5 120.3 48.4 121.1 48.6 121.3 48.8 121.4 48.9 121.5 49.2 121.7 49.6 121.9 50.2 122.2L51.3 122.5 52.8 122.6 62.3 122.6 62.3 127.2 51.2 127.2C47.5 127.2 44.6 126.1 42.6 123.7 40.6 121.3 39.7 118 39.7 113.5 39.7 109.1 40.6 105.7 42.6 103.4 44.6 101 47.4 99.9 51.2 99.9L62.3 99.9 62.3 104.6 52.8 104.6 52.2 104.6 51.5 104.6C51 104.6 50.5 104.8 50 105 49.5 105.2 49 105.6 48.4 106 47.8 106.5 47.3 107.3 46.9 108.2 46.7 108.8 46.4 109.8 46.2 111.1L46.2 111.3 62.3 111.3 62.3 115.8zM18.1 117.5L18.1 127.2 12.2 127.2 12.2 99.9 28.6 99.9C31.1 99.9 33.2 100.6 34.6 102.1 36.1 103.6 36.8 105.8 36.8 108.7 36.8 111.5 36.1 113.7 34.6 115.2 33.2 116.7 31.1 117.5 28.6 117.5L18.1 117.5zM18.1 104.6L18.1 112.8 25.9 112.8C27.2 112.8 28.3 112.4 29.1 111.8 29.9 111.1 30.3 110.1 30.3 108.7 30.3 107.3 29.9 106.2 29.1 105.6 28.3 104.9 27.2 104.6 25.9 104.6L18.1 104.6z" id="path1507" style="fill:#fff;font-family:Trek;font-size:40;stroke-width:1"/>
  <path d="M103.1 127.9C101.8 127.9 100.5 127.7 99.3 127.4 98.2 127 97.2 126.4 96.4 125.7 96 125.3 95.6 124.8 95.2 124.3 95 124 94.8 123.8 94.7 123.6 94.6 123.3 94.4 123 94.2 122.5 93.8 121.2 93.5 119.7 93.5 118L93.5 100.5 99.4 100.5 99.4 117.6C99.4 118.5 99.6 119.3 99.8 119.9 100 120.6 100.4 121.2 101 121.8 101.5 122.2 102.1 122.6 102.8 122.9 103.5 123.1 104.3 123.2 105.1 123.2L112.8 123.2 112.8 127.9 103.1 127.9zM78 117.1L71.7 117.1 71.7 127.9 65.8 127.9 65.8 100.5 81.6 100.5C84.3 100.5 86.3 101.2 87.7 102.5 89.2 103.9 89.9 106 89.9 108.8 89.9 109.9 89.8 110.9 89.7 111.7 89.5 112.5 89.2 113.3 88.7 113.9 87.9 115.2 86.6 116.1 84.8 116.8L84.7 116.8 90.7 127.9 83.7 127.9 78 117.1zM71.7 105.2L71.7 112.9 78.6 112.9C79.9 112.9 81 112.6 81.6 112.1 82.5 111.5 82.9 110.5 82.9 109 82.9 107.7 82.5 106.7 81.7 106.2 80.9 105.6 79.9 105.2 78.6 105.2L71.7 105.2zM62.9 116.5L46.9 116.5 46.9 116.7 47.3 118.8C47.6 119.9 48.2 120.9 49.1 121.8 49.3 122 49.4 122.1 49.6 122.2 49.9 122.4 50.3 122.6 50.9 122.8L52 123.1 53.5 123.2 62.9 123.2 62.9 127.9 51.9 127.9C48.1 127.9 45.3 126.7 43.3 124.4 41.3 122 40.3 118.6 40.3 114.2 40.3 109.8 41.3 106.4 43.3 104 45.3 101.7 48.1 100.5 51.9 100.5L62.9 100.5 62.9 105.2 53.5 105.2 52.8 105.2 52.2 105.3C51.7 105.3 51.2 105.4 50.7 105.7 50.2 105.9 49.7 106.2 49.1 106.7 48.5 107.2 48 108 47.6 108.9 47.3 109.5 47.1 110.5 46.9 111.8L46.9 112 62.9 112 62.9 116.5zM18.8 118.1L18.8 127.9 12.8 127.9 12.8 100.5 29.3 100.5C31.8 100.5 33.8 101.3 35.3 102.8 36.8 104.3 37.5 106.4 37.5 109.3 37.5 112.2 36.8 114.4 35.3 115.9 33.8 117.4 31.8 118.1 29.3 118.1L18.8 118.1zM18.8 105.2L18.8 113.4 26.6 113.4C27.9 113.4 29 113.1 29.8 112.5 30.6 111.8 31 110.7 31 109.3 31 107.9 30.6 106.9 29.8 106.3 29 105.6 27.9 105.2 26.6 105.2L18.8 105.2z" id="path861" style="font-family:Trek;font-size:40;stroke-width:1"/>
  <g id="g1486" transform="matrix(0.507928,0,0,0.507928,34.867564,21.442714)">
    <path id="path1488" d="M94.1 9.9L83.3 25.5 80.6 19.9 76.9 27.1 64.8 10.4 59.1 29.6 41.3 20.3 44.6 39.6 38.2 37.3 40.6 44.5 20.8 41.3 30.4 59.3 10.8 65.6 26.8 76.7 20.8 79.7 27.6 83 11.3 94.9 30.4 100.6 21.2 118.5 40.9 115 38.6 121.9 44.5 119.8 41.3 138.5 60 128.8 66.4 148.9 77.5 132.9 80.6 139 83.6 132.8 94.8 148.8 100.8 129.6 118.5 139 115.1 118.6 122.8 121.1 120.4 114.4 139.8 117.6 130.5 100.1 149.4 94.2 133 82.5 139.8 79.2 133 75.8 149.3 64 130.1 58.2 139.4 40.4 119.7 43.9 121.9 36.9 115.3 39.3 118.5 19.9 100.4 29.5 94.1 9.9zM79.3 50.2C96.1 50.2 109.8 63.9 109.8 80.7 109.8 97.6 96.1 111.2 79.3 111.2 62.4 111.2 48.8 97.6 48.8 80.7 48.7 63.9 62.4 50.2 79.3 50.2z" class="s14"/>
    <path id="path1490" d="M94.1 9.9L83.3 25.5 80.6 19.9 76.9 27.1 64.8 10.4 59.1 29.6 41.3 20.3 44.6 39.6 38.2 37.3 40.6 44.5 20.8 41.3 30.4 59.3 10.8 65.6 26.8 76.7 20.8 79.7 27.6 83 11.3 94.9 30.4 100.6 21.2 118.5 40.9 115 38.6 121.9 44.5 119.8 41.3 138.5 60 128.8 66.4 148.9 77.5 132.9 80.6 139 83.6 132.8 94.8 148.8 100.8 129.6 118.5 139 115.1 118.6 122.8 121.1 120.4 114.4 139.8 117.6 130.5 100.1 149.4 94.2 133 82.5 139.8 79.2 133 75.8 149.3 64 130.1 58.2 139.4 40.4 119.7 43.9 121.9 36.9 115.3 39.3 118.5 19.9 100.4 29.5 94.1 9.9zM79.3 50.2C96.1 50.2 109.8 63.9 109.8 80.7 109.8 97.6 96.1 111.2 79.3 111.2 62.4 111.2 48.8 97.6 48.8 80.7 48.7 63.9 62.4 50.2 79.3 50.2z" class="s15"/>
    <path id="path1492" d="M92.3 18.5L82.9 32.2 80.4 27.2 77.2 33.6 66.6 18.9 61.5 35.8 45.9 27.6 48.8 44.5 43.1 42.6 45.3 48.9 27.8 46 36.3 61.9 19.1 67.4 33.1 77.2 27.8 79.8 33.9 82.8 19.5 93.2 36.3 98.2 28.2 114 45.5 110.9 43.5 117 48.7 115.1 45.9 131.6 62.3 123.1 68 140.7 77.7 126.7 80.4 132 83.1 126.5 93 140.6 98.3 123.7 113.8 132 110.8 114.1 117.6 116.3 115.5 110.4 132.6 113.2 124.3 97.8 141 92.6 126.6 82.3 132.6 79.4 126.5 76.4 140.9 66 124 61 132.2 45.3 114.8 48.3 116.8 42.2 111 44.3 113.8 27.2 97.9 35.7 92.3 18.5zM79.3 53.9C94.1 53.9 106.1 65.9 106.1 80.7 106.1 95.6 94.1 107.6 79.3 107.6 64.5 107.6 52.5 95.6 52.5 80.7 52.5 65.9 64.5 53.9 79.3 53.9z" fill="url(#linearGradient1496)"/>
    <path id="path1494" d="M45.9 131.6L62.3 123.1 68 140.7 77.7 126.7 80.4 132 83.1 126.5 93 140.6 98.3 123.7 113.8 132 110.8 114.1 117.6 116.3 115.5 110.4 132.6 113.2 124.3 97.8 141 92.6 126.6 82.3 132.6 79.4 126.5 76.4 140.9 66 124 61 132.2 45.3 45.9 131.6zM106.1 80.7C106.1 95.6 94.1 107.6 79.3 107.6 64.5 107.6 106.1 65.9 106.1 80.7z" class="s16"/>
  </g>
  <path d="M24.6 7.3L100.3 7.3C112 7.3 117.7 13 117.7 24.7 117.7 24.7 38.4 25.6 7.3 116L7.3 24.7C7.3 14.4 14.3 7.3 24.6 7.3z" id="rect2063" fill="url(#linearGradient2830)"/>
</svg>
