<svg xmlns:svg="http://www.w3.org/2000/svg" xmlns="http://www.w3.org/2000/svg" xmlns:xlink="http://www.w3.org/1999/xlink" height="140.9" width="125.3" id="svg1" version="1">
<style>
.s0{
  stop-color:#46a046;
  stop-opacity:1;
}
.s1{
  stop-color:#df421e;
  stop-opacity:1;
}
.s2{
  stop-color:#ada7c8;
  stop-opacity:1;
}
.s3{
  stop-color:#eed680;
  stop-opacity:1;
}
.s4{
  fill:#fff;
  stroke-linejoin:round;
  stroke-width:4;
  stroke:#000;
}

</style>  <metadata id="metadata15"/>
  <defs id="defs3">
    <linearGradient id="linearGradient3587">
      <stop offset="0" id="stop3589" style="stop-color:#efe0cd;stop-opacity:0.6"/>
      <stop offset="1" id="stop3591" style="stop-color:#cececd;stop-opacity:0.2"/>
    </linearGradient>
    <linearGradient id="linearGradient2832">
      <stop id="stop2834" offset="0" style="stop-color:#ffffff;stop-opacity:1"/>
      <stop id="stop2836" offset="1" style="stop-color:#ffffff;stop-opacity:0"/>
    </linearGradient>
    <linearGradient id="linearGradient839">
      <stop id="stop840" offset="0" class="s0"/>
      <stop id="stop841" offset="0.4" class="s1"/>
      <stop id="stop842" offset="0.7" class="s2"/>
      <stop id="stop843" offset="1" class="s3"/>
    </linearGradient>
    <linearGradient y2="0.5" x2="1" y1="0.5" x1="0" id="linearGradient836" xlink:href="#linearGradient839"/>
    <linearGradient gradientUnits="userSpaceOnUse" y2="73.4" x2="73" y1="16.4" x1="24" gradientTransform="matrix(0.939922,0,0,0.896911,-12.081733,-3.3524237)" id="linearGradient2830" xlink:href="#linearGradient2832"/>
    <linearGradient xlink:href="#linearGradient1700" id="linearGradient1407" gradientUnits="userSpaceOnUse" gradientTransform="matrix(0.777129,0,0,0.894628,-162.4688,12.76856)" x1="111.3" y1="124.3" x2="107.3" y2="93.7"/>
    <linearGradient xlink:href="#linearGradient1700" id="linearGradient1390" gradientUnits="userSpaceOnUse" gradientTransform="matrix(0.777129,0,0,0.894628,-2.922179,10.43077)" x1="111.3" y1="124.3" x2="107.3" y2="93.7"/>
    <linearGradient id="linearGradient1350">
      <stop id="stop1352" offset="0" class="s0"/>
      <stop id="stop1354" offset="0.4" class="s1"/>
      <stop id="stop1356" offset="0.7" class="s2"/>
      <stop id="stop1358" offset="1" class="s3"/>
    </linearGradient>
    <linearGradient y2="0.5" x2="1" y1="0.5" x1="0" id="linearGradient1360" xlink:href="#linearGradient839"/>
    <linearGradient gradientUnits="userSpaceOnUse" y2="88" x2="128.7" y1="121.7" x1="123.5" gradientTransform="matrix(0.870364,0,0,1.001961,4.612015,4.886798)" id="linearGradient1362" xlink:href="#linearGradient1700"/>
    <linearGradient y2="0.5" x2="1" y1="0.5" x1="0" id="linearGradient1363" xlink:href="#linearGradient839"/>
    <linearGradient id="linearGradient1353">
      <stop id="stop1355" offset="0" class="s0"/>
      <stop id="stop1357" offset="0.4" class="s1"/>
      <stop id="stop1359" offset="0.7" class="s2"/>
      <stop id="stop1361" offset="1" class="s3"/>
    </linearGradient>
    <linearGradient id="linearGradient1700">
      <stop id="stop1701" offset="0" style="stop-color:#000000;stop-opacity:0.7"/>
      <stop id="stop1702" offset="1" style="stop-color:#000000;stop-opacity:0"/>
    </linearGradient>
    <linearGradient xlink:href="#linearGradient839" id="linearGradient1427" x1="0" y1="0.5" x2="1" y2="0.5"/>
    <linearGradient id="linearGradient1417">
      <stop offset="0" id="stop1419" class="s0"/>
      <stop offset="0.4" id="stop1421" class="s1"/>
      <stop offset="0.7" id="stop1423" class="s2"/>
      <stop offset="1" id="stop1425" class="s3"/>
    </linearGradient>
    <linearGradient y2="0.5" x2="1" y1="0.5" x1="0" id="linearGradient1381" xlink:href="#linearGradient839"/>
    <linearGradient id="linearGradient1371">
      <stop id="stop1373" offset="0" class="s0"/>
      <stop id="stop1375" offset="0.4" class="s1"/>
      <stop id="stop1377" offset="0.7" class="s2"/>
      <stop id="stop1379" offset="1" class="s3"/>
    </linearGradient>
    <linearGradient xlink:href="#linearGradient839" id="linearGradient1374" x1="0" y1="0.5" x2="1" y2="0.5"/>
    <linearGradient id="linearGradient1364">
      <stop offset="0" id="stop1366" class="s0"/>
      <stop offset="0.4" id="stop1368" class="s1"/>
      <stop offset="0.7" id="stop1370" class="s2"/>
      <stop offset="1" id="stop1372" class="s3"/>
    </linearGradient>
    <linearGradient y2="0.5" x2="1" y1="0.5" x1="0" id="linearGradient1395" xlink:href="#linearGradient839"/>
    <linearGradient id="linearGradient833">
      <stop id="stop834" offset="0" style="stop-color:#00ff00;stop-opacity:1"/>
      <stop id="stop837" offset="0.3" style="stop-color:#ff0000;stop-opacity:1"/>
      <stop id="stop838" offset="0.8" style="stop-color:#7f8cff;stop-opacity:1"/>
      <stop id="stop835" offset="1" style="stop-color:#ffff00;stop-opacity:1"/>
    </linearGradient>
    <linearGradient id="linearGradient1380">
      <stop id="stop1382" offset="0" class="s0"/>
      <stop id="stop1384" offset="0.4" class="s1"/>
      <stop id="stop1386" offset="0.7" class="s2"/>
      <stop id="stop1388" offset="1" class="s3"/>
    </linearGradient>
  </defs>
  <rect rx="22.9" ry="22.9" y="3.8" x="3.8" height="133.4" width="117.8" id="rect834" style="fill:none;stroke-linejoin:round;stroke-opacity:0.5;stroke-width:7.5;stroke:#000"/>
  <rect rx="22.9" ry="22.9" y="3.7" x="3.6" height="133.4" width="117.8" id="rect828" style="fill:#bab5ab;stroke-width:3.8;stroke:#000"/>
  <path id="path2838" d="M100.3 132.6L24.6 132.6C13 132.6 7.3 126.9 7.3 115.2 7.3 115.2 34.9 48.7 117.7 38.6L117.7 115.2C117.7 126.9 112 132.6 100.3 132.6z" style="fill-opacity:0.3;fill:#fff"/>
  <path id="path1424" d="M79.7 92.1L107.7 92.1 107.7 97.5 97 97.5 97 123.2 90.4 123.2 90.4 97.5 79.7 97.5 79.7 92.1zM55.2 112.1L55.2 123.2 48.4 123.2 48.4 92.1 67.1 92.1C70 92.1 72.3 93 74 94.7 75.6 96.3 76.5 98.8 76.5 102.1 76.5 105.4 75.6 107.8 74 109.5 72.3 111.2 70 112.1 67.1 112.1L55.2 112.1zM55.2 97.5L55.2 106.8 64.1 106.8C65.5 106.8 66.7 106.4 67.7 105.7 68.6 104.9 69.1 103.7 69.1 102.1 69.1 100.5 68.6 99.4 67.7 98.6 66.8 97.8 65.6 97.5 64.1 97.5L55.2 97.5zM23.9 112.1L23.9 123.2 17.2 123.2 17.2 92.1 35.9 92.1C38.8 92.1 41 93 42.7 94.7 44.4 96.3 45.2 98.8 45.2 102.1 45.2 105.4 44.4 107.8 42.7 109.5 41 111.2 38.8 112.1 35.9 112.1L23.9 112.1zM23.9 97.5L23.9 106.8 32.8 106.8C34.3 106.8 35.5 106.4 36.4 105.7 37.4 104.9 37.8 103.7 37.8 102.1 37.8 100.5 37.4 99.4 36.4 98.6 35.5 97.8 34.3 97.5 32.8 97.5L23.9 97.5z" style="fill:#fff;font-family:Trek;font-size:40;stroke-width:1"/>
  <path id="path931" d="M80.4 92.8L108.4 92.8 108.4 98.1 97.7 98.1 97.7 123.9 91 123.9 91 98.1 80.4 98.1 80.4 92.8zM55.8 112.8L55.8 123.9 49.1 123.9 49.1 92.8 67.8 92.8C70.7 92.8 73 93.6 74.6 95.3 76.3 97 77.2 99.5 77.2 102.8 77.2 106 76.3 108.5 74.6 110.2 73 111.9 70.7 112.8 67.8 112.8L55.8 112.8zM55.8 98.1L55.8 107.5 64.8 107.5C66.2 107.5 67.4 107.1 68.4 106.3 69.3 105.6 69.8 104.4 69.8 102.8 69.8 101.2 69.3 100 68.4 99.3 67.4 98.5 66.2 98.1 64.8 98.1L55.8 98.1zM24.6 112.8L24.6 123.9 17.9 123.9 17.9 92.8 36.6 92.8C39.4 92.8 41.7 93.6 43.4 95.3 45.1 97 45.9 99.5 45.9 102.8 45.9 106 45.1 108.5 43.4 110.2 41.7 111.9 39.4 112.8 36.6 112.8L24.6 112.8zM24.6 98.1L24.6 107.5 33.5 107.5C35 107.5 36.2 107.1 37.1 106.3 38 105.6 38.5 104.4 38.5 102.8 38.5 101.2 38 100 37.1 99.3 36.2 98.5 35 98.1 33.5 98.1L24.6 98.1z" style="font-family:Trek;font-size:40;stroke-width:1"/>
  <rect rx="1.1" y="17.1" x="14.7" ry="1.1" height="55.2" width="69.5" id="rect832" class="s4"/>
  <rect rx="1.1" y="27.8" x="25.5" ry="1.1" height="55.2" width="69.5" id="rect838" class="s4"/>
  <g transform="matrix(0.410918,0,0,0.410918,54.494264,18.076204)" id="g926">
    <path id="path1406" d="M21.9 26L21.9 139.1C45.8 120.2 57.5 124.9 78.5 139.1 99.9 153.2 121.4 153.2 139.7 129.6L139.7 11.8C120.9 35.4 106.7 49.5 79.9 26.6 55.9 7.8 45.8 7.1 21.9 26z" style="stroke-linejoin:round;stroke-width:1.3;stroke:#000"/>
    <path id="path855" d="M26.6 30.7L26.6 77.8C31.3 68.4 40.8 63.7 50.2 63.7 59.6 63.7 69 68.4 78.5 77.8L78.5 30.7C69 21.3 59.6 16.6 50.2 16.6 40.8 16.6 31.3 21.3 26.6 30.7z" style="fill:#df421e;stroke-width:1.3;stroke:#000"/>
    <path id="path856" d="M26.6 82.5L26.6 129.6C35.2 124.1 40.8 120.2 50.2 120.2 59.6 120.2 72.9 128.8 78.5 134.3L78.5 82.5C69 73.1 59.6 68.4 50.2 68.4 40.8 68.4 31.3 73.1 26.6 82.5z" style="fill:#7590ae;stroke-width:1.3;stroke:#000"/>
    <path id="path858" d="M83.2 82.5L83.2 35.4C91.8 40.9 97.3 44.8 106.7 44.8 120.9 44.8 129.5 31.5 135 26L135 77.8C125.6 87.2 116.2 91.9 106.7 91.9 102 91.9 92.6 91.9 83.2 82.5z" style="fill:#46a046;stroke-width:1.3;stroke:#000"/>
    <path id="path859" d="M83.2 134.3L83.2 87.2C91.8 92.8 97.3 96.7 106.7 96.7 120 95.8 129.5 88.1 135 82.5L135 129.6C125.6 139.1 116.2 143.8 106.7 143.8 102 143.8 92.6 143.8 83.2 134.3z" style="fill:#eed680;stroke-width:1.3;stroke:#000"/>
  </g>
  <path id="rect2063" d="M24.6 7.3L100.3 7.3C112 7.3 117.7 13 117.7 24.7 117.7 24.7 38.4 25.6 7.3 116L7.3 24.7C7.3 14.4 14.3 7.3 24.6 7.3z" fill="url(#linearGradient2830)"/>
</svg>
