<svg xmlns:svg="http://www.w3.org/2000/svg" xmlns="http://www.w3.org/2000/svg" xmlns:xlink="http://www.w3.org/1999/xlink" height="140.9" width="125.3" id="svg1" version="1">
<style>
.s0{
  stop-color:#ffffff;
  stop-opacity:1;
}
.s1{
  stop-color:#46a046;
  stop-opacity:1;
}
.s2{
  stop-color:#df421e;
  stop-opacity:1;
}
.s3{
  stop-color:#ada7c8;
  stop-opacity:1;
}
.s4{
  stop-color:#eed680;
  stop-opacity:1;
}
.s5{
  stop-color:#00ff00;
  stop-opacity:1;
}
.s6{
  stop-color:#ff0000;
  stop-opacity:1;
}
.s7{
  stop-color:#7f8cff;
  stop-opacity:1;
}
.s8{
  stop-color:#ffff00;
  stop-opacity:1;
}
.s9{
  stop-color:#bdbcbc;
  stop-opacity:1;
}
.s10{
  stop-color:#000000;
  stop-opacity:1;
}
.s11{
  stop-color:#cccaa7;
  stop-opacity:1;
}
.s12{
  stop-color:#6d5400;
  stop-opacity:1;
}
.s13{
  stroke-width:1;
  stroke:#000;
}

</style>  <metadata id="metadata15"/>
  <defs id="defs3">
    <linearGradient id="linearGradient3587">
      <stop offset="0" id="stop3589" style="stop-color:#efe0cd;stop-opacity:0.6"/>
      <stop offset="1" id="stop3591" style="stop-color:#cececd;stop-opacity:0.2"/>
    </linearGradient>
    <linearGradient id="linearGradient2832">
      <stop id="stop2834" offset="0" class="s0"/>
      <stop id="stop2836" offset="1" style="stop-color:#ffffff;stop-opacity:0"/>
    </linearGradient>
    <linearGradient id="linearGradient839">
      <stop id="stop840" offset="0" class="s1"/>
      <stop id="stop841" offset="0.4" class="s2"/>
      <stop id="stop842" offset="0.7" class="s3"/>
      <stop id="stop843" offset="1" class="s4"/>
    </linearGradient>
    <linearGradient y2="84" x2="107.8" y1="84" x1="12.2" id="linearGradient836" xlink:href="#linearGradient839" gradientTransform="scale(1.353569,0.738788)" gradientUnits="userSpaceOnUse"/>
    <linearGradient gradientUnits="userSpaceOnUse" y2="73.4" x2="73" y1="16.4" x1="24" gradientTransform="matrix(0.939922,0,0,0.896911,-12.081733,-3.3524237)" id="linearGradient2830" xlink:href="#linearGradient2832"/>
    <linearGradient xlink:href="#linearGradient1700" id="linearGradient1407" gradientUnits="userSpaceOnUse" gradientTransform="matrix(0.777129,0,0,0.894628,-162.4688,12.76856)" x1="111.3" y1="124.3" x2="107.3" y2="93.7"/>
    <linearGradient xlink:href="#linearGradient1700" id="linearGradient1390" gradientUnits="userSpaceOnUse" gradientTransform="matrix(0.777129,0,0,0.894628,-2.922179,10.43077)" x1="111.3" y1="124.3" x2="107.3" y2="93.7"/>
    <linearGradient id="linearGradient1350">
      <stop id="stop1352" offset="0" class="s1"/>
      <stop id="stop1354" offset="0.4" class="s2"/>
      <stop id="stop1356" offset="0.7" class="s3"/>
      <stop id="stop1358" offset="1" class="s4"/>
    </linearGradient>
    <linearGradient y2="0.5" x2="1" y1="0.5" x1="0" id="linearGradient1360" xlink:href="#linearGradient839"/>
    <linearGradient gradientUnits="userSpaceOnUse" y2="88" x2="128.7" y1="121.7" x1="123.5" gradientTransform="matrix(0.870364,0,0,1.001961,4.612015,4.886798)" id="linearGradient1362" xlink:href="#linearGradient1700"/>
    <linearGradient y2="0.5" x2="1" y1="0.5" x1="0" id="linearGradient1363" xlink:href="#linearGradient839"/>
    <linearGradient id="linearGradient1353">
      <stop id="stop1355" offset="0" class="s1"/>
      <stop id="stop1357" offset="0.4" class="s2"/>
      <stop id="stop1359" offset="0.7" class="s3"/>
      <stop id="stop1361" offset="1" class="s4"/>
    </linearGradient>
    <linearGradient id="linearGradient1700">
      <stop id="stop1701" offset="0" style="stop-color:#000000;stop-opacity:0.7"/>
      <stop id="stop1702" offset="1" style="stop-color:#000000;stop-opacity:0"/>
    </linearGradient>
    <linearGradient xlink:href="#linearGradient839" id="linearGradient1427" x1="0" y1="0.5" x2="1" y2="0.5"/>
    <linearGradient id="linearGradient1417">
      <stop offset="0" id="stop1419" class="s1"/>
      <stop offset="0.4" id="stop1421" class="s2"/>
      <stop offset="0.7" id="stop1423" class="s3"/>
      <stop offset="1" id="stop1425" class="s4"/>
    </linearGradient>
    <linearGradient y2="0.5" x2="1" y1="0.5" x1="0" id="linearGradient1381" xlink:href="#linearGradient839"/>
    <linearGradient id="linearGradient1371">
      <stop id="stop1373" offset="0" class="s1"/>
      <stop id="stop1375" offset="0.4" class="s2"/>
      <stop id="stop1377" offset="0.7" class="s3"/>
      <stop id="stop1379" offset="1" class="s4"/>
    </linearGradient>
    <linearGradient xlink:href="#linearGradient839" id="linearGradient1374" x1="0" y1="0.5" x2="1" y2="0.5"/>
    <linearGradient id="linearGradient1364">
      <stop offset="0" id="stop1366" class="s1"/>
      <stop offset="0.4" id="stop1368" class="s2"/>
      <stop offset="0.7" id="stop1370" class="s3"/>
      <stop offset="1" id="stop1372" class="s4"/>
    </linearGradient>
    <linearGradient xlink:href="#linearGradient839" id="linearGradient1389" x1="0" y1="0.5" x2="1" y2="0.5"/>
    <linearGradient id="linearGradient833">
      <stop offset="0" id="stop834" class="s5"/>
      <stop offset="0.3" id="stop837" class="s6"/>
      <stop offset="0.8" id="stop838" class="s7"/>
      <stop offset="1" id="stop835" class="s8"/>
    </linearGradient>
    <linearGradient id="linearGradient1373">
      <stop offset="0" id="stop1376" class="s1"/>
      <stop offset="0.4" id="stop1378" class="s2"/>
      <stop offset="0.7" id="stop1380" class="s3"/>
      <stop offset="1" id="stop1382" class="s4"/>
    </linearGradient>
    <linearGradient xlink:href="#linearGradient839" id="linearGradient2974" x1="0" y1="0.5" x2="1" y2="0.5"/>
    <linearGradient id="linearGradient2964">
      <stop offset="0" id="stop2966" class="s5"/>
      <stop offset="0.3" id="stop2968" class="s6"/>
      <stop offset="0.8" id="stop2970" class="s7"/>
      <stop offset="1" id="stop2972" class="s8"/>
    </linearGradient>
    <linearGradient id="linearGradient2954">
      <stop offset="0" id="stop2956" class="s1"/>
      <stop offset="0.4" id="stop2958" class="s2"/>
      <stop offset="0.7" id="stop2960" class="s3"/>
      <stop offset="1" id="stop2962" class="s4"/>
    </linearGradient>
    <linearGradient xlink:href="#linearGradient839" id="linearGradient2987" gradientUnits="userSpaceOnUse" gradientTransform="matrix(1.353569,0,0,0.738788,-182.1667,-25.6819)" x1="12.2" y1="84" x2="107.8" y2="84"/>
    <linearGradient y2="0.5" x2="1" y1="0.5" x1="0" id="linearGradient1418" xlink:href="#linearGradient839"/>
    <linearGradient id="linearGradient1408">
      <stop id="stop1410" offset="0" class="s5"/>
      <stop id="stop1412" offset="0.3" class="s6"/>
      <stop id="stop1414" offset="0.8" class="s7"/>
      <stop id="stop1416" offset="1" class="s8"/>
    </linearGradient>
    <linearGradient id="linearGradient1397">
      <stop id="stop1399" offset="0" class="s1"/>
      <stop id="stop1401" offset="0.4" class="s2"/>
      <stop id="stop1403" offset="0.7" class="s3"/>
      <stop id="stop1405" offset="1" class="s4"/>
    </linearGradient>
    <linearGradient y2="84" x2="107.8" y1="84" x1="12.2" gradientTransform="matrix(1.353569,0,0,0.738788,-194.7091,-13.83491)" gradientUnits="userSpaceOnUse" id="linearGradient1431" xlink:href="#linearGradient839"/>
    <linearGradient xlink:href="#linearGradient839" id="linearGradient1430" x1="0" y1="0.5" x2="1" y2="0.5"/>
    <linearGradient id="linearGradient1419">
      <stop offset="0" id="stop1422" class="s5"/>
      <stop offset="0.3" id="stop1424" class="s6"/>
      <stop offset="0.8" id="stop1426" class="s7"/>
      <stop offset="1" id="stop1428" class="s8"/>
    </linearGradient>
    <linearGradient id="linearGradient1409">
      <stop offset="0" id="stop1411" class="s1"/>
      <stop offset="0.4" id="stop1413" class="s2"/>
      <stop offset="0.7" id="stop1415" class="s3"/>
      <stop offset="1" id="stop1417" class="s4"/>
    </linearGradient>
    <linearGradient xlink:href="#linearGradient839" id="linearGradient2256" x1="0" y1="0.5" x2="1" y2="0.5"/>
    <linearGradient id="linearGradient2246">
      <stop offset="0" id="stop2248" class="s5"/>
      <stop offset="0.3" id="stop2250" class="s6"/>
      <stop offset="0.8" id="stop2252" class="s7"/>
      <stop offset="1" id="stop2254" class="s8"/>
    </linearGradient>
    <linearGradient id="linearGradient2236">
      <stop offset="0" id="stop2238" class="s1"/>
      <stop offset="0.4" id="stop2240" class="s2"/>
      <stop offset="0.7" id="stop2242" class="s3"/>
      <stop offset="1" id="stop2244" class="s4"/>
    </linearGradient>
    <linearGradient xlink:href="#linearGradient839" id="linearGradient2269" gradientUnits="userSpaceOnUse" gradientTransform="matrix(1.353569,0,0,0.738788,-202.1667,-3.665422)" x1="12.2" y1="84" x2="107.8" y2="84"/>
    <linearGradient y2="0.5" x2="1" y1="0.5" x1="0" id="linearGradient1452" xlink:href="#linearGradient839"/>
    <linearGradient id="linearGradient1442">
      <stop id="stop1444" offset="0" class="s5"/>
      <stop id="stop1446" offset="0.3" class="s6"/>
      <stop id="stop1448" offset="0.8" class="s7"/>
      <stop id="stop1450" offset="1" class="s8"/>
    </linearGradient>
    <linearGradient id="linearGradient1432">
      <stop id="stop1434" offset="0" class="s1"/>
      <stop id="stop1436" offset="0.4" class="s2"/>
      <stop id="stop1438" offset="0.7" class="s3"/>
      <stop id="stop1440" offset="1" class="s4"/>
    </linearGradient>
    <linearGradient y2="0.5" x2="1" y1="0.5" x1="0" id="linearGradient2281" xlink:href="#linearGradient839"/>
    <linearGradient id="linearGradient2271">
      <stop id="stop2273" offset="0" class="s5"/>
      <stop id="stop2275" offset="0.3" class="s6"/>
      <stop id="stop2277" offset="0.8" class="s7"/>
      <stop id="stop2279" offset="1" class="s8"/>
    </linearGradient>
    <linearGradient id="linearGradient2261">
      <stop id="stop2263" offset="0" class="s1"/>
      <stop id="stop2265" offset="0.4" class="s2"/>
      <stop id="stop2267" offset="0.7" class="s3"/>
      <stop id="stop2269" offset="1" class="s4"/>
    </linearGradient>
    <linearGradient y2="84" x2="107.8" y1="84" x1="12.2" gradientTransform="matrix(1.353569,0,0,0.738788,-163.5227,-7.733217)" gradientUnits="userSpaceOnUse" id="linearGradient2294" xlink:href="#linearGradient839"/>
    <linearGradient xlink:href="#linearGradient839" id="linearGradient1475" x1="0" y1="0.5" x2="1" y2="0.5"/>
    <linearGradient id="linearGradient1465">
      <stop offset="0" id="stop1467" class="s5"/>
      <stop offset="0.3" id="stop1469" class="s6"/>
      <stop offset="0.8" id="stop1471" class="s7"/>
      <stop offset="1" id="stop1473" class="s8"/>
    </linearGradient>
    <linearGradient id="linearGradient1455">
      <stop offset="0" id="stop1457" class="s1"/>
      <stop offset="0.4" id="stop1459" class="s2"/>
      <stop offset="0.7" id="stop1461" class="s3"/>
      <stop offset="1" id="stop1463" class="s4"/>
    </linearGradient>
    <linearGradient xlink:href="#linearGradient839" id="linearGradient2300" x1="0" y1="0.5" x2="1" y2="0.5"/>
    <linearGradient id="linearGradient2290">
      <stop offset="0" id="stop2292" class="s5"/>
      <stop offset="0.3" id="stop2294" class="s6"/>
      <stop offset="0.8" id="stop2296" class="s7"/>
      <stop offset="1" id="stop2298" class="s8"/>
    </linearGradient>
    <linearGradient id="linearGradient2280">
      <stop offset="0" id="stop2282" class="s1"/>
      <stop offset="0.4" id="stop2284" class="s2"/>
      <stop offset="0.7" id="stop2286" class="s3"/>
      <stop offset="1" id="stop2288" class="s4"/>
    </linearGradient>
    <linearGradient xlink:href="#linearGradient839" id="linearGradient2313" gradientUnits="userSpaceOnUse" gradientTransform="matrix(1.353569,0,0,0.738788,-186.9125,-34.85186)" x1="12.2" y1="84" x2="107.8" y2="84"/>
    <linearGradient y2="0.5" x2="1" y1="0.5" x1="0" id="linearGradient1498" xlink:href="#linearGradient839"/>
    <linearGradient id="linearGradient1488">
      <stop id="stop1490" offset="0" class="s5"/>
      <stop id="stop1492" offset="0.3" class="s6"/>
      <stop id="stop1494" offset="0.8" class="s7"/>
      <stop id="stop1496" offset="1" class="s8"/>
    </linearGradient>
    <linearGradient id="linearGradient1478">
      <stop id="stop1480" offset="0" class="s1"/>
      <stop id="stop1482" offset="0.4" class="s2"/>
      <stop id="stop1484" offset="0.7" class="s3"/>
      <stop id="stop1486" offset="1" class="s4"/>
    </linearGradient>
    <linearGradient y2="0.5" x2="1" y1="0.5" x1="0" id="linearGradient2325" xlink:href="#linearGradient839"/>
    <linearGradient id="linearGradient2315">
      <stop id="stop2317" offset="0" class="s5"/>
      <stop id="stop2319" offset="0.3" class="s6"/>
      <stop id="stop2321" offset="0.8" class="s7"/>
      <stop id="stop2323" offset="1" class="s8"/>
    </linearGradient>
    <linearGradient id="linearGradient2305">
      <stop id="stop2307" offset="0" class="s1"/>
      <stop id="stop2309" offset="0.4" class="s2"/>
      <stop id="stop2311" offset="0.7" class="s3"/>
      <stop id="stop2313" offset="1" class="s4"/>
    </linearGradient>
    <linearGradient y2="84" x2="107.8" y1="84" x1="12.2" gradientTransform="matrix(1.353569,0,0,0.738788,-166.5735,-17.22474)" gradientUnits="userSpaceOnUse" id="linearGradient2338" xlink:href="#linearGradient839"/>
    <linearGradient y2="0.5" x2="1" y1="0.5" x1="0" id="linearGradient3150" xlink:href="#linearGradient839"/>
    <linearGradient id="linearGradient3140">
      <stop id="stop3142" offset="0" class="s5"/>
      <stop id="stop3144" offset="0.3" class="s6"/>
      <stop id="stop3146" offset="0.8" class="s7"/>
      <stop id="stop3148" offset="1" class="s8"/>
    </linearGradient>
    <linearGradient id="linearGradient3130">
      <stop id="stop3132" offset="0" class="s1"/>
      <stop id="stop3134" offset="0.4" class="s2"/>
      <stop id="stop3136" offset="0.7" class="s3"/>
      <stop id="stop3138" offset="1" class="s4"/>
    </linearGradient>
    <linearGradient y2="84" x2="107.8" y1="84" x1="12.2" gradientTransform="matrix(1.353569,0,0,0.738788,-183.5227,-0.27559)" gradientUnits="userSpaceOnUse" id="linearGradient3163" xlink:href="#linearGradient839"/>
    <linearGradient xlink:href="#linearGradient839" id="linearGradient1533" x1="0" y1="0.5" x2="1" y2="0.5"/>
    <linearGradient id="linearGradient1523">
      <stop offset="0" id="stop1525" class="s5"/>
      <stop offset="0.3" id="stop1527" class="s6"/>
      <stop offset="0.8" id="stop1529" class="s7"/>
      <stop offset="1" id="stop1531" class="s8"/>
    </linearGradient>
    <linearGradient id="linearGradient1513">
      <stop offset="0" id="stop1515" class="s1"/>
      <stop offset="0.4" id="stop1517" class="s2"/>
      <stop offset="0.7" id="stop1519" class="s3"/>
      <stop offset="1" id="stop1521" class="s4"/>
    </linearGradient>
    <linearGradient xlink:href="#linearGradient839" id="linearGradient2359" x1="0" y1="0.5" x2="1" y2="0.5"/>
    <linearGradient id="linearGradient2349">
      <stop offset="0" id="stop2351" class="s5"/>
      <stop offset="0.3" id="stop2353" class="s6"/>
      <stop offset="0.8" id="stop2355" class="s7"/>
      <stop offset="1" id="stop2357" class="s8"/>
    </linearGradient>
    <linearGradient id="linearGradient2339">
      <stop offset="0" id="stop2341" class="s1"/>
      <stop offset="0.4" id="stop2343" class="s2"/>
      <stop offset="0.7" id="stop2345" class="s3"/>
      <stop offset="1" id="stop2347" class="s4"/>
    </linearGradient>
    <linearGradient xlink:href="#linearGradient839" id="linearGradient3184" x1="0" y1="0.5" x2="1" y2="0.5"/>
    <linearGradient id="linearGradient3174">
      <stop offset="0" id="stop3176" class="s5"/>
      <stop offset="0.3" id="stop3178" class="s6"/>
      <stop offset="0.8" id="stop3180" class="s7"/>
      <stop offset="1" id="stop3182" class="s8"/>
    </linearGradient>
    <linearGradient id="linearGradient3164">
      <stop offset="0" id="stop3166" class="s1"/>
      <stop offset="0.4" id="stop3168" class="s2"/>
      <stop offset="0.7" id="stop3170" class="s3"/>
      <stop offset="1" id="stop3172" class="s4"/>
    </linearGradient>
    <linearGradient xlink:href="#linearGradient839" id="linearGradient4009" x1="0" y1="0.5" x2="1" y2="0.5"/>
    <linearGradient id="linearGradient3999">
      <stop offset="0" id="stop4001" class="s5"/>
      <stop offset="0.3" id="stop4003" class="s6"/>
      <stop offset="0.8" id="stop4005" class="s7"/>
      <stop offset="1" id="stop4007" class="s8"/>
    </linearGradient>
    <linearGradient id="linearGradient3989">
      <stop offset="0" id="stop3991" class="s1"/>
      <stop offset="0.4" id="stop3993" class="s2"/>
      <stop offset="0.7" id="stop3995" class="s3"/>
      <stop offset="1" id="stop3997" class="s4"/>
    </linearGradient>
    <linearGradient xlink:href="#linearGradient839" id="linearGradient4836" x1="0" y1="0.5" x2="1" y2="0.5"/>
    <linearGradient id="linearGradient4826">
      <stop offset="0" id="stop4828" class="s5"/>
      <stop offset="0.3" id="stop4830" class="s6"/>
      <stop offset="0.8" id="stop4832" class="s7"/>
      <stop offset="1" id="stop4834" class="s8"/>
    </linearGradient>
    <linearGradient id="linearGradient4816">
      <stop offset="0" id="stop4818" class="s1"/>
      <stop offset="0.4" id="stop4820" class="s2"/>
      <stop offset="0.7" id="stop4822" class="s3"/>
      <stop offset="1" id="stop4824" class="s4"/>
    </linearGradient>
    <linearGradient xlink:href="#linearGradient839" id="linearGradient5661" x1="0" y1="0.5" x2="1" y2="0.5"/>
    <linearGradient id="linearGradient5651">
      <stop offset="0" id="stop5653" class="s5"/>
      <stop offset="0.3" id="stop5655" class="s6"/>
      <stop offset="0.8" id="stop5657" class="s7"/>
      <stop offset="1" id="stop5659" class="s8"/>
    </linearGradient>
    <linearGradient id="linearGradient5641">
      <stop offset="0" id="stop5643" class="s1"/>
      <stop offset="0.4" id="stop5645" class="s2"/>
      <stop offset="0.7" id="stop5647" class="s3"/>
      <stop offset="1" id="stop5649" class="s4"/>
    </linearGradient>
    <linearGradient xlink:href="#linearGradient839" id="linearGradient6486" x1="0" y1="0.5" x2="1" y2="0.5"/>
    <linearGradient id="linearGradient6476">
      <stop offset="0" id="stop6478" class="s5"/>
      <stop offset="0.3" id="stop6480" class="s6"/>
      <stop offset="0.8" id="stop6482" class="s7"/>
      <stop offset="1" id="stop6484" class="s8"/>
    </linearGradient>
    <linearGradient id="linearGradient6466">
      <stop offset="0" id="stop6468" class="s1"/>
      <stop offset="0.4" id="stop6470" class="s2"/>
      <stop offset="0.7" id="stop6472" class="s3"/>
      <stop offset="1" id="stop6474" class="s4"/>
    </linearGradient>
    <linearGradient xlink:href="#linearGradient839" id="linearGradient7313" x1="0" y1="0.5" x2="1" y2="0.5"/>
    <linearGradient id="linearGradient7303">
      <stop offset="0" id="stop7305" class="s5"/>
      <stop offset="0.3" id="stop7307" class="s6"/>
      <stop offset="0.8" id="stop7309" class="s7"/>
      <stop offset="1" id="stop7311" class="s8"/>
    </linearGradient>
    <linearGradient id="linearGradient7293">
      <stop offset="0" id="stop7295" class="s1"/>
      <stop offset="0.4" id="stop7297" class="s2"/>
      <stop offset="0.7" id="stop7299" class="s3"/>
      <stop offset="1" id="stop7301" class="s4"/>
    </linearGradient>
    <radialGradient gradientUnits="userSpaceOnUse" gradientTransform="scale(0.954943,1.047183)" r="12.1" fy="25.9" fx="-6.4" cy="25.9" cx="-7" id="radialGradient1325" xlink:href="#linearGradient850"/>
    <radialGradient gradientUnits="userSpaceOnUse" gradientTransform="scale(0.959709,1.041983)" xlink:href="#linearGradient850" id="radialGradient841" cx="-6.3" cy="25.5" r="11.6" fx="-6.6" fy="25.5"/>
    <linearGradient xlink:href="#linearGradient832" id="linearGradient8162" x1="0.4" y1="0.5" x2="0.6" y2="0.6" spreadMethod="reflect"/>
    <linearGradient xlink:href="#linearGradient832" id="linearGradient838" x1="0.5" y1="0.3" x2="1" y2="0.8" spreadMethod="reflect"/>
    <linearGradient xlink:href="#linearGradient832" id="linearGradient831" x1="0" y1="0.5" x2="1" y2="0.5"/>
    <linearGradient xlink:href="#linearGradient858" id="linearGradient829" gradientTransform="matrix(1.024356,0,0,0.836152,6.125911,11.50064)" x1="14.2" y1="86.1" x2="143.1" y2="86.1" gradientUnits="userSpaceOnUse"/>
    <linearGradient id="linearGradient826">
      <stop offset="0" id="stop827" style="stop-color:#fff700;stop-opacity:1"/>
      <stop offset="1" id="stop828" style="stop-color:#ffc900;stop-opacity:1"/>
    </linearGradient>
    <linearGradient id="linearGradient832">
      <stop offset="0" id="stop833" class="s0"/>
      <stop offset="0.5" id="stop8152" style="stop-color:#00b8df;stop-opacity:1"/>
      <stop offset="1" id="stop8154" style="stop-color:#0058a9;stop-opacity:1"/>
    </linearGradient>
    <linearGradient id="linearGradient842">
      <stop offset="0" id="stop8147" class="s0"/>
      <stop offset="1" id="stop845" style="stop-color:#585858;stop-opacity:0"/>
    </linearGradient>
    <linearGradient id="linearGradient850">
      <stop offset="0" id="stop851" class="s0"/>
      <stop offset="0.7" id="stop852" class="s9"/>
      <stop offset="1" id="stop853" class="s10"/>
    </linearGradient>
    <linearGradient id="linearGradient854">
      <stop offset="0" id="stop855" class="s11"/>
      <stop offset="0.2" id="stop858" style="stop-color:#9c8f53;stop-opacity:1"/>
      <stop offset="1" id="stop857" class="s12"/>
    </linearGradient>
    <linearGradient id="linearGradient858">
      <stop offset="0" id="stop859" class="s11"/>
      <stop offset="1" id="stop861" class="s12"/>
    </linearGradient>
    <linearGradient xlink:href="#linearGradient839" id="linearGradient8257" x1="0" y1="0.5" x2="1" y2="0.5"/>
    <linearGradient id="linearGradient8247">
      <stop offset="0" id="stop8249" class="s5"/>
      <stop offset="0.3" id="stop8251" class="s6"/>
      <stop offset="0.8" id="stop8253" class="s7"/>
      <stop offset="1" id="stop8255" class="s8"/>
    </linearGradient>
    <linearGradient id="linearGradient8237">
      <stop offset="0" id="stop8239" class="s1"/>
      <stop offset="0.4" id="stop8241" class="s2"/>
      <stop offset="0.7" id="stop8243" class="s3"/>
      <stop offset="1" id="stop8245" class="s4"/>
    </linearGradient>
    <radialGradient xlink:href="#linearGradient850" id="radialGradient8235" cx="0.4" cy="0.3" r="0.3" fx="0.3" fy="0.3"/>
    <linearGradient id="linearGradient8227">
      <stop offset="0" id="stop8229" class="s0"/>
      <stop offset="0.7" id="stop8231" class="s9"/>
      <stop offset="1" id="stop8233" class="s10"/>
    </linearGradient>
    <linearGradient xlink:href="#linearGradient858" id="linearGradient8225" x1="0" y1="0.5" x2="1" y2="0.5"/>
    <linearGradient id="linearGradient8219">
      <stop offset="0" id="stop8221" class="s11"/>
      <stop offset="1" id="stop8223" class="s12"/>
    </linearGradient>
    <linearGradient xlink:href="#linearGradient858" id="linearGradient9072" gradientUnits="userSpaceOnUse" gradientTransform="matrix(0.728851,0,0,0.59494,9.5874336,3.9897143)" x1="14.2" y1="86.1" x2="143.1" y2="86.1"/>
    <radialGradient xlink:href="#linearGradient850" id="radialGradient11350" gradientUnits="userSpaceOnUse" gradientTransform="scale(0.959709,1.041983)" cx="-6.3" cy="25.5" fx="-6.6" fy="25.5" r="11.6"/>
  </defs>
  <rect rx="22.9" ry="22.9" y="3.8" x="3.8" height="133.4" width="117.8" id="rect834" style="fill:none;stroke-linejoin:round;stroke-opacity:0.5;stroke-width:7.5;stroke:#000"/>
  <rect rx="22.9" ry="22.9" y="3.7" x="3.6" height="133.4" width="117.8" id="rect828" style="fill:#df421e;stroke-width:3.8;stroke:#000"/>
  <path id="path2838" d="M100.3 132.6L24.6 132.6C13 132.6 7.3 126.9 7.3 115.2 7.3 115.2 34.9 48.7 117.7 38.6L117.7 115.2C117.7 126.9 112 132.6 100.3 132.6z" style="fill-opacity:0.3;fill:#fff"/>
  <path d="M36.5 21.2C39.7 23.8 76.5 72.2 111.1 19.3 113.9 52.8 94.4 55.5 94.4 55.5 97 75.6 68.8 97.9 49.3 81.2 29.8 81.7 23.3 73.9 22.4 67.7 24.8 59.6 31.6 56 46.7 48.7 41.4 41.5 38 27 36.5 21.2z" id="path2083" style="fill:none;stroke-opacity:0.4;stroke-width:4.1;stroke:#000"/>
  <path d="M36.5 21.2C39.7 23.8 76.5 72.2 111.1 19.3 113.9 52.8 94.4 55.5 94.4 55.5 97 75.6 67.8 98.4 49.3 81.2 30.8 82.7 23.3 73.9 22.4 67.7 24.8 59.6 31.6 56 46.7 48.7 41.4 41.5 38 27 36.5 21.2z" id="path1567" style="fill-opacity:0.8;fill:url(#linearGradient9072);stroke-width:1.6;stroke:#000"/>
  <path id="path851" d="M60.2-13.6A10.6 10.6 0 1 1 39-13.6 10.6 10.6 0 1 1 60.2-13.6z" transform="matrix(0.772452,0,0,0.768963,9.0730236,58.665684)" style="fill:#fff;stroke-width:2.1;stroke:#000"/>
  <path id="path852" d="M60.2-13.6A10.6 10.6 0 1 1 39-13.6 10.6 10.6 0 1 1 60.2-13.6z" transform="matrix(0.962223,0,0,0.97822,16.574004,62.344414)" style="fill:#fff;stroke-width:1.7;stroke:#000"/>
  <path id="path853" d="M-10.6 0.6A7.1 7.1 0 1 1-24.8 0.6 7.1 7.1 0 1 1-10.6 0.6z" transform="matrix(0.556097,0,0,0.59102,59.786364,50.446824)" class="s13"/>
  <path id="path854" d="M-10.6 0.6A7.1 7.1 0 1 1-24.8 0.6 7.1 7.1 0 1 1-10.6 0.6z" transform="matrix(0.698487,0,0,0.712144,79.975424,52.529214)" class="s13"/>
  <path d="M46.6 81.1C46.6 81.1 63.3 84.9 79.4 66.5" id="path859" style="fill:none;stroke-linecap:round;stroke-opacity:0.2;stroke-width:2.9;stroke:#fff"/>
  <path d="M43.1 81.1C43.1 81.1 61.7 83.1 77.8 64.6" id="path855" style="fill:none;stroke-linecap:round;stroke-width:2.9;stroke:#000"/>
  <path d="M105.4 100.8L95.4 100.8C93.8 100.8 92.6 101 91.7 101.3 91.2 101.5 90.8 101.6 90.5 101.8 90.1 102 89.8 102.3 89.5 102.6 88.6 103.4 87.9 104.4 87.5 105.6L87.3 106.5 87.2 107.6 87.2 108.4 105.4 108.4 105.4 113.6 87.2 113.6 87.2 126.6 80.5 126.6 80.5 111C80.5 109.6 80.5 108.5 80.6 107.4 80.7 106.4 80.8 105.5 81 104.7 81.6 102.2 82.8 100.1 84.5 98.4 85.7 97.4 87 96.6 88.6 96.2 90.2 95.7 92.2 95.4 94.7 95.4L105.4 95.4 105.4 100.8zM77.4 95.4L77.4 100.8 65.9 100.8C63.3 100.8 61.4 101.7 60.1 103.4 58.9 105.1 58.2 107.6 58.2 111 58.2 114.4 58.8 117 60 118.7 61.2 120.4 63.2 121.2 65.9 121.2L77.4 121.2 77.4 126.6 63.9 126.6C59.7 126.6 56.4 125.2 54.2 122.6 51.9 119.9 50.8 116 50.8 111 50.8 105.9 51.9 102.1 54.2 99.4 56.4 96.8 59.7 95.4 63.9 95.4L77.4 95.4zM19.6 95.4L27.5 95.4 34.5 106.2 41.3 95.4 49.2 95.4 37.8 111 49.2 126.6 41.3 126.6 34.5 115.8 27.5 126.6 19.6 126.6 31 111 19.6 95.4z" id="path968" style="font-family:Trek;font-size:40;stroke-width:1"/>
  <path d="M104.7 100.1L94.7 100.1C93.2 100.1 91.9 100.3 91 100.6 90.5 100.8 90.1 100.9 89.8 101.1 89.4 101.3 89.1 101.6 88.8 101.9 87.9 102.7 87.3 103.7 86.9 104.9L86.6 105.8 86.5 106.9 86.5 107.8 104.7 107.8 104.7 112.9 86.5 112.9 86.5 125.9 79.8 125.9 79.8 110.3C79.8 109 79.9 107.8 79.9 106.8 80 105.7 80.2 104.8 80.3 104 80.9 101.5 82.1 99.4 83.9 97.8 85 96.7 86.3 96 87.9 95.5 89.5 95 91.6 94.8 94 94.8L104.7 94.8 104.7 100.1zM76.7 94.8L76.7 100.1 65.2 100.1C62.7 100.1 60.7 101 59.5 102.7 58.2 104.4 57.5 106.9 57.5 110.3 57.5 113.7 58.1 116.3 59.3 118 60.5 119.7 62.5 120.6 65.2 120.6L76.7 120.6 76.7 125.9 63.2 125.9C59 125.9 55.8 124.6 53.5 121.9 51.3 119.2 50.1 115.3 50.1 110.3 50.1 105.3 51.3 101.4 53.5 98.8 55.7 96.1 59 94.8 63.2 94.8L76.7 94.8zM18.9 94.8L26.9 94.8 33.8 105.5 40.6 94.8 48.5 94.8 37.1 110.3 48.5 125.9 40.6 125.9 33.8 115.2 26.9 125.9 18.9 125.9 30.3 110.3 18.9 94.8z" id="path8303" style="fill:#fff;font-family:Trek;font-size:40;stroke-width:1"/>
  <path id="path862" d="M17.7 34.2A17.7 19.5 0 1 1-17.7 34.2 17.7 19.5 0 1 1 17.7 34.2z" transform="matrix(0.71504,0,0,0.68919,25.438544,38.958304)" style="fill:url(#radialGradient11350);stroke-opacity:0.5;stroke-width:5.9;stroke:#000"/>
  <path id="rect2063" d="M24.6 7.3L100.3 7.3C112 7.3 117.7 13 117.7 24.7 117.7 24.7 38.4 25.6 7.3 116L7.3 24.7C7.3 14.4 14.3 7.3 24.6 7.3z" fill="url(#linearGradient2830)"/>
</svg>
