<svg xmlns:svg="http://www.w3.org/2000/svg" xmlns="http://www.w3.org/2000/svg" xmlns:xlink="http://www.w3.org/1999/xlink" height="145.3" width="144.1" id="svg1" version="1">
  <metadata id="metadata33"/>
  <defs id="defs3">
    <linearGradient id="linearGradient850">
      <stop id="stop851" offset="0" style="stop-color:#fbffff;stop-opacity:0"/>
      <stop id="stop852" offset="1" style="stop-color:#ffffff;stop-opacity:1"/>
    </linearGradient>
    <linearGradient gradientUnits="userSpaceOnUse" gradientTransform="matrix(0.794075,0,0,1.072367,-1.4146384,-1.7419324)" y2="11.5" x2="22.4" y1="74.5" x1="78.7" id="linearGradient859" xlink:href="#linearGradient850"/>
    <linearGradient id="linearGradient839">
      <stop id="stop840" offset="0" style="stop-color:#46a046;stop-opacity:1"/>
      <stop id="stop841" offset="0.4" style="stop-color:#df421e;stop-opacity:1"/>
      <stop id="stop842" offset="0.7" style="stop-color:#ada7c8;stop-opacity:1"/>
      <stop id="stop843" offset="1" style="stop-color:#eed680;stop-opacity:1"/>
    </linearGradient>
    <linearGradient id="linearGradient833">
      <stop id="stop834" offset="0" style="stop-color:#00ff00;stop-opacity:1"/>
      <stop id="stop837" offset="0.3" style="stop-color:#ff0000;stop-opacity:1"/>
      <stop id="stop838" offset="0.8" style="stop-color:#7f8cff;stop-opacity:1"/>
      <stop id="stop835" offset="1" style="stop-color:#ffff00;stop-opacity:1"/>
    </linearGradient>
    <linearGradient gradientUnits="userSpaceOnUse" gradientTransform="matrix(0.674011,0,0,1.263393,-1.4146384,-1.7419324)" y2="16.5" x2="110.2" y1="79.3" x1="157.2" id="linearGradient836" xlink:href="#linearGradient850"/>
    <linearGradient y2="0" x2="0" y1="0.7" x1="0.6" id="linearGradient855" xlink:href="#linearGradient850"/>
    <linearGradient y2="0.3" x2="0.7" y1="0.9" x1="0.4" id="linearGradient853" xlink:href="#linearGradient850"/>
  </defs>
  <path id="path874" d="M74.5 5.8L5.8 23.2 5.9 114.1 5.9 114.1 5.9 114.3 6.2 114.3 74.3 139.5 138.4 113.1 138.4 107.8 138.4 23.2 74.5 5.8z" style="fill:none;font-family:Trek;font-size:40;stroke-linejoin:round;stroke-opacity:0.5;stroke-width:11.5;stroke:#000"/>
  <path id="path633" d="M138.3 23.2L138.3 107.8 76.5 94.2 74.4 5.8 138.3 23.2z" style="fill:#515151;font-size:12;stroke-linecap:round;stroke-linejoin:round;stroke-width:6.9;stroke:#000"/>
  <path id="path631" d="M5.7 23.2L74.4 5.8 78.8 97.3 5.8 114.3 5.7 23.2z" style="fill:#4a494d;font-size:12;stroke-linecap:round;stroke-linejoin:round;stroke-width:6.9;stroke:#000"/>
  <path id="path640" d="M74.3 44.4L138.3 23.2 74.4 5.8 5.7 23.2 74.3 44.4z" style="fill:#9db8d2;font-size:12;stroke-linecap:round;stroke-linejoin:round;stroke-width:6.9;stroke:#000"/>
  <path id="path627" d="M138.3 23.2L138.3 113.1 74.3 139.6 74.3 44.4 138.3 23.2z" style="fill:#4b6983;font-size:12;stroke-linecap:round;stroke-linejoin:round;stroke-width:6.9;stroke:#000"/>
  <path id="path629" d="M74.3 44.4L74.3 139.6 5.8 114.1 5.7 23.2 74.3 44.4z" style="fill:#7590ae;font-size:12;stroke-linecap:round;stroke-linejoin:round;stroke-width:6.9;stroke:#000"/>
  <path id="path892" d="M74.2 9.4L9.4 25.9 9.4 110.5C76.8 137 88 154.3 70.8 41.9 131.9 19.4 74.2 9.4 74.2 9.4z" fill="url(#linearGradient859)"/>
  <path id="path849" d="M77.8 47L77.8 133.5C78.1 133.5 105 123.4 117.4 110.7 130.1 100.3 134.4 79.2 134.4 79.2L134.4 27.5 77.8 47z" style="fill-opacity:0.8;fill:url(#linearGradient836)"/>
  <path id="path852" d="M74.3 44.4L74.3 139.6 5.8 114.1 5.7 23.2 74.3 44.4z" style="fill:none;font-size:12;stroke-linecap:round;stroke-linejoin:round;stroke-width:6.9;stroke:#000"/>
  <rect rx="7.4" y="66.2" x="21.6" ry="7.4" height="43.4" width="102.2" id="rect853" style="fill:#fff;stroke-width:3.5;stroke:#000"/>
  <path id="path913" d="M86.5 92.2L86.5 102.5 80.3 102.5 80.3 73.8 97.5 73.8C100.2 73.8 102.3 74.6 103.8 76.2 105.4 77.7 106.2 80 106.2 83 106.2 86 105.4 88.3 103.8 89.9 102.3 91.5 100.2 92.2 97.5 92.2L86.5 92.2zM86.5 78.7L86.5 87.3 94.7 87.3C96.1 87.3 97.2 87 98 86.3 98.9 85.6 99.3 84.5 99.3 83 99.3 81.6 98.9 80.5 98 79.8 97.2 79.1 96.1 78.7 94.7 78.7L86.5 78.7zM76 102.5L69.8 102.5 69.8 73.8 76 73.8 76 102.5zM66.9 97.6L66.9 102.5 40.6 102.5 40.6 97.6 58.1 78.9 58.1 78.7 40.6 78.7 40.6 73.8 66.9 73.8 66.9 78.7 49.3 97.4 49.3 97.6 66.9 97.6z" style="font-family:Trek;font-size:40;stroke-width:1"/>
</svg>
