<?xml version="1.0" encoding="UTF-8" standalone="no"?>
<!-- Created with Inkscape (http://www.inkscape.org/) -->
<svg
   xmlns:dc="http://purl.org/dc/elements/1.1/"
   xmlns:cc="http://web.resource.org/cc/"
   xmlns:rdf="http://www.w3.org/1999/02/22-rdf-syntax-ns#"
   xmlns:svg="http://www.w3.org/2000/svg"
   xmlns="http://www.w3.org/2000/svg"
   xmlns:xlink="http://www.w3.org/1999/xlink"
   xmlns:sodipodi="http://sodipodi.sourceforge.net/DTD/sodipodi-0.dtd"
   xmlns:inkscape="http://www.inkscape.org/namespaces/inkscape"
   id="svg1"
   sodipodi:version="0.32"
   inkscape:version="0.45.1"
   width="125.25612"
   height="140.88696"
   sodipodi:docbase="/home/sept/svg"
   sodipodi:docname="html.svg"
   inkscape:output_extension="org.inkscape.output.svg.inkscape"
   version="1.0">
  <metadata
     id="metadata15">
    <rdf:RDF>
      <cc:Work
         rdf:about="">
        <dc:format>image/svg+xml</dc:format>
        <dc:type
           rdf:resource="http://purl.org/dc/dcmitype/StillImage" />
      </cc:Work>
    </rdf:RDF>
  </metadata>
  <defs
     id="defs3">
    <linearGradient
       id="linearGradient3587">
      <stop
         id="stop3589"
         offset="0.0000000"
         style="stop-color:#efe0cd;stop-opacity:0.56097561;" />
      <stop
         id="stop3591"
         offset="1.0000000"
         style="stop-color:#cececd;stop-opacity:0.21951219;" />
    </linearGradient>
    <linearGradient
       id="linearGradient2832">
      <stop
         style="stop-color:#ffffff;stop-opacity:1.0000000;"
         offset="0.0000000"
         id="stop2834" />
      <stop
         style="stop-color:#ffffff;stop-opacity:0.0000000;"
         offset="1.0000000"
         id="stop2836" />
    </linearGradient>
    <linearGradient
       id="linearGradient839">
      <stop
         style="stop-color:#46a046;stop-opacity:1.0000000;"
         offset="0.0000000"
         id="stop840" />
      <stop
         style="stop-color:#df421e;stop-opacity:1.0000000;"
         offset="0.39364964"
         id="stop841" />
      <stop
         style="stop-color:#ada7c8;stop-opacity:1.0000000;"
         offset="0.72036445"
         id="stop842" />
      <stop
         style="stop-color:#eed680;stop-opacity:1.0000000;"
         offset="1.0000000"
         id="stop843" />
    </linearGradient>
    <linearGradient
       xlink:href="#linearGradient839"
       id="linearGradient836"
       x1="1.3267924e-17"
       y1="0.5"
       x2="1"
       y2="0.5" />
    <linearGradient
       inkscape:collect="always"
       xlink:href="#linearGradient2832"
       id="linearGradient2830"
       gradientTransform="matrix(0.939922,0,0,0.896911,-12.081733,-3.3524237)"
       x1="23.983805"
       y1="16.369013"
       x2="72.999245"
       y2="73.39872"
       gradientUnits="userSpaceOnUse" />
    <linearGradient
       gradientUnits="userSpaceOnUse"
       gradientTransform="scale(1.0801,0.92584)"
       spreadMethod="reflect"
       y2="55.07378"
       x2="76.569054"
       y1="73.52137"
       x1="95.121384"
       id="linearGradient674"
       xlink:href="#linearGradient869" />
    <linearGradient
       y2="0.5"
       x2="1"
       y1="0.5"
       x1="1.3267924e-17"
       id="linearGradient1373"
       xlink:href="#linearGradient839" />
    <linearGradient
       id="linearGradient1363">
      <stop
         id="stop1365"
         offset="0.0000000"
         style="stop-color:#46a046;stop-opacity:1.0000000;" />
      <stop
         id="stop1367"
         offset="0.39364964"
         style="stop-color:#df421e;stop-opacity:1.0000000;" />
      <stop
         id="stop1369"
         offset="0.72036445"
         style="stop-color:#ada7c8;stop-opacity:1.0000000;" />
      <stop
         id="stop1371"
         offset="1.0000000"
         style="stop-color:#eed680;stop-opacity:1.0000000;" />
    </linearGradient>
    <linearGradient
       gradientUnits="userSpaceOnUse"
       gradientTransform="scale(0.999352,1.000649)"
       spreadMethod="reflect"
       y2="75.142357"
       x2="47.145329"
       y1="81.199532"
       x1="52.724243"
       id="linearGradient904"
       xlink:href="#linearGradient907" />
    <linearGradient
       id="linearGradient866">
      <stop
         id="stop867"
         offset="0.0000000"
         style="stop-color:#ffff00;stop-opacity:1.0000000;" />
      <stop
         id="stop901"
         offset="0.36908397"
         style="stop-color:#ffea00;stop-opacity:1.0000000;" />
      <stop
         id="stop868"
         offset="1.0000000"
         style="stop-color:#ffd600;stop-opacity:1.0000000;" />
    </linearGradient>
    <linearGradient
       id="linearGradient869">
      <stop
         id="stop870"
         offset="0.0000000"
         style="stop-color:#990000;stop-opacity:1.0000000;" />
      <stop
         id="stop871"
         offset="1.0000000"
         style="stop-color:#ffffff;stop-opacity:1.0000000;" />
    </linearGradient>
    <linearGradient
       id="linearGradient907">
      <stop
         id="stop908"
         offset="0.0000000"
         style="stop-color:#eed680;stop-opacity:1.0000000;" />
      <stop
         id="stop911"
         offset="0.29427481"
         style="stop-color:#dfb546;stop-opacity:1.0000000;" />
      <stop
         id="stop910"
         offset="1.0000000"
         style="stop-color:#d1940c;stop-opacity:1.0000000;" />
    </linearGradient>
    <linearGradient
       y2="49.74445"
       x2="-66.468513"
       y1="63.61322"
       x1="-54.605907"
       spreadMethod="reflect"
       gradientTransform="scale(1.0801,0.92584)"
       gradientUnits="userSpaceOnUse"
       id="linearGradient2167"
       xlink:href="#linearGradient869"
       inkscape:collect="always" />
    <linearGradient
       y2="75.142357"
       x2="47.145329"
       y1="81.199532"
       x1="52.724243"
       spreadMethod="reflect"
       gradientTransform="matrix(0.999352,0,0,1.000649,-151.1197,-0.37325)"
       gradientUnits="userSpaceOnUse"
       id="linearGradient2169"
       xlink:href="#linearGradient907"
       inkscape:collect="always" />
    <linearGradient
       xlink:href="#linearGradient869"
       id="linearGradient1413"
       x1="0.6885246"
       y1="0.78625953"
       x2="0.37377051"
       y2="0.47328246"
       spreadMethod="reflect" />
    <linearGradient
       xlink:href="#linearGradient839"
       id="linearGradient1411"
       x1="1.3267924e-17"
       y1="0.5"
       x2="1"
       y2="0.5" />
    <linearGradient
       id="linearGradient1401">
      <stop
         style="stop-color:#46a046;stop-opacity:1.0000000;"
         offset="0.0000000"
         id="stop1403" />
      <stop
         style="stop-color:#df421e;stop-opacity:1.0000000;"
         offset="0.39364964"
         id="stop1405" />
      <stop
         style="stop-color:#ada7c8;stop-opacity:1.0000000;"
         offset="0.72036445"
         id="stop1407" />
      <stop
         style="stop-color:#eed680;stop-opacity:1.0000000;"
         offset="1.0000000"
         id="stop1409" />
    </linearGradient>
    <linearGradient
       xlink:href="#linearGradient907"
       id="linearGradient1399"
       x1="0.35737705"
       y1="0.49346405"
       x2="0.17377049"
       y2="0.29411766"
       spreadMethod="reflect" />
    <linearGradient
       id="linearGradient1391">
      <stop
         style="stop-color:#ffff00;stop-opacity:1.0000000;"
         offset="0.0000000"
         id="stop1393" />
      <stop
         style="stop-color:#ffea00;stop-opacity:1.0000000;"
         offset="0.36908397"
         id="stop1395" />
      <stop
         style="stop-color:#ffd600;stop-opacity:1.0000000;"
         offset="1.0000000"
         id="stop1397" />
    </linearGradient>
    <linearGradient
       id="linearGradient1384">
      <stop
         style="stop-color:#7590ae;stop-opacity:1.0000000;"
         offset="0.0000000"
         id="stop1386" />
      <stop
         style="stop-color:#89a4c0;stop-opacity:1.0000000;"
         offset="0.87030536"
         id="stop912" />
      <stop
         style="stop-color:#9db8d2;stop-opacity:1.0000000;"
         offset="1.0000000"
         id="stop1389" />
    </linearGradient>
    <linearGradient
       id="linearGradient1376">
      <stop
         style="stop-color:#eed680;stop-opacity:1.0000000;"
         offset="0.0000000"
         id="stop1378" />
      <stop
         style="stop-color:#dfb546;stop-opacity:1.0000000;"
         offset="0.29427481"
         id="stop1380" />
      <stop
         style="stop-color:#d1940c;stop-opacity:1.0000000;"
         offset="1.0000000"
         id="stop1382" />
    </linearGradient>
    <linearGradient
       xlink:href="#linearGradient869"
       id="linearGradient1436"
       x1="0.6885246"
       y1="0.78625953"
       x2="0.37377051"
       y2="0.47328246"
       spreadMethod="reflect" />
    <linearGradient
       xlink:href="#linearGradient839"
       id="linearGradient1434"
       x1="1.3267924e-17"
       y1="0.5"
       x2="1"
       y2="0.5" />
    <linearGradient
       id="linearGradient1424">
      <stop
         style="stop-color:#46a046;stop-opacity:1.0000000;"
         offset="0.0000000"
         id="stop1426" />
      <stop
         style="stop-color:#df421e;stop-opacity:1.0000000;"
         offset="0.39364964"
         id="stop1428" />
      <stop
         style="stop-color:#ada7c8;stop-opacity:1.0000000;"
         offset="0.72036445"
         id="stop1430" />
      <stop
         style="stop-color:#eed680;stop-opacity:1.0000000;"
         offset="1.0000000"
         id="stop1432" />
    </linearGradient>
    <linearGradient
       xlink:href="#linearGradient907"
       id="linearGradient1422"
       x1="0.35737705"
       y1="0.49346405"
       x2="0.17377049"
       y2="0.29411766"
       spreadMethod="reflect" />
    <linearGradient
       id="linearGradient1414">
      <stop
         style="stop-color:#ffff00;stop-opacity:1.0000000;"
         offset="0.0000000"
         id="stop1416" />
      <stop
         style="stop-color:#ffea00;stop-opacity:1.0000000;"
         offset="0.36908397"
         id="stop1418" />
      <stop
         style="stop-color:#ffd600;stop-opacity:1.0000000;"
         offset="1.0000000"
         id="stop1420" />
    </linearGradient>
    <linearGradient
       id="linearGradient1406">
      <stop
         style="stop-color:#7590ae;stop-opacity:1.0000000;"
         offset="0.0000000"
         id="stop1408" />
      <stop
         style="stop-color:#89a4c0;stop-opacity:1.0000000;"
         offset="0.87030536"
         id="stop1410" />
      <stop
         style="stop-color:#9db8d2;stop-opacity:1.0000000;"
         offset="1.0000000"
         id="stop1412" />
    </linearGradient>
    <linearGradient
       id="linearGradient1397">
      <stop
         style="stop-color:#eed680;stop-opacity:1.0000000;"
         offset="0.0000000"
         id="stop1399" />
      <stop
         style="stop-color:#dfb546;stop-opacity:1.0000000;"
         offset="0.29427481"
         id="stop1401" />
      <stop
         style="stop-color:#d1940c;stop-opacity:1.0000000;"
         offset="1.0000000"
         id="stop1404" />
    </linearGradient>
    <linearGradient
       inkscape:collect="always"
       xlink:href="#linearGradient5935"
       id="linearGradient5929"
       gradientUnits="userSpaceOnUse"
       gradientTransform="scale(1.45548,0.687059)"
       x1="52.082405"
       y1="34.33255"
       x2="52.082405"
       y2="105.11836" />
    <linearGradient
       gradientUnits="userSpaceOnUse"
       gradientTransform="scale(0.988305,1.011834)"
       xlink:href="#linearGradient2873"
       id="linearGradient829"
       x1="68.464279"
       y1="134.86444"
       x2="24.628351"
       y2="23.809189"
       spreadMethod="reflect" />
    <linearGradient
       id="linearGradient826">
      <stop
         style="stop-color:#000;stop-opacity:1;"
         offset="0"
         id="stop827" />
      <stop
         style="stop-color:#fff;stop-opacity:1;"
         offset="1"
         id="stop828" />
    </linearGradient>
    <linearGradient
       id="linearGradient833">
      <stop
         style="stop-color:#004eb1;stop-opacity:1.0000000;"
         offset="0.0000000"
         id="stop834" />
      <stop
         style="stop-color:#1e88d8;stop-opacity:1.0000000;"
         offset="0.35549620"
         id="stop2312" />
      <stop
         style="stop-color:#8ec3eb;stop-opacity:1.0000000;"
         offset="0.79931182"
         id="stop844" />
      <stop
         style="stop-color:#ffffff;stop-opacity:1.0000000;"
         offset="1.0000000"
         id="stop835" />
    </linearGradient>
    <linearGradient
       id="linearGradient837">
      <stop
         style="stop-color:#fbb100;stop-opacity:1.0000000;"
         offset="0.0000000"
         id="stop838" />
      <stop
         style="stop-color:#fdd800;stop-opacity:1.0000000;"
         offset="0.29212120"
         id="stop839" />
      <stop
         style="stop-color:#ffff00;stop-opacity:1.0000000;"
         offset="1.0000000"
         id="stop2308" />
    </linearGradient>
    <linearGradient
       id="linearGradient840">
      <stop
         style="stop-color:#004eb1;stop-opacity:1.0000000;"
         offset="0.0000000"
         id="stop2301" />
      <stop
         style="stop-color:#3cc3ff;stop-opacity:1.0000000;"
         offset="1.0000000"
         id="stop2303" />
    </linearGradient>
    <linearGradient
       id="linearGradient845">
      <stop
         style="stop-color:#4b6983;stop-opacity:1.0000000;"
         offset="0.0000000"
         id="stop846" />
      <stop
         style="stop-color:#9db8d2;stop-opacity:1.0000000;"
         offset="0.44778731"
         id="stop847" />
      <stop
         style="stop-color:#cedbe8;stop-opacity:1.0000000;"
         offset="0.93561327"
         id="stop850" />
      <stop
         style="stop-color:#ffffff;stop-opacity:1.0000000;"
         offset="1.0000000"
         id="stop849" />
    </linearGradient>
    <linearGradient
       id="linearGradient2855">
      <stop
         id="stop2857"
         offset="0.0000000"
         style="stop-color:#ffffff;stop-opacity:0.0000000;" />
      <stop
         id="stop2859"
         offset="1.0000000"
         style="stop-color:#ffffff;stop-opacity:1.0000000;" />
    </linearGradient>
    <linearGradient
       id="linearGradient2873"
       inkscape:collect="always">
      <stop
         id="stop2875"
         offset="0"
         style="stop-color:#0000b1;stop-opacity:1;" />
      <stop
         id="stop2877"
         offset="1"
         style="stop-color:#0000b1;stop-opacity:0;" />
    </linearGradient>
    <linearGradient
       id="linearGradient2879">
      <stop
         id="stop2881"
         offset="0"
         style="stop-color:#4b699b;stop-opacity:1;" />
      <stop
         id="stop2883"
         offset="1"
         style="stop-color:#4b699b;stop-opacity:0;" />
    </linearGradient>
    <linearGradient
       id="linearGradient5935"
       inkscape:collect="always">
      <stop
         id="stop5937"
         offset="0"
         style="stop-color:#ffffff;stop-opacity:1;" />
      <stop
         id="stop5939"
         offset="1"
         style="stop-color:#ffffff;stop-opacity:0;" />
    </linearGradient>
    <linearGradient
       inkscape:collect="always"
       xlink:href="#linearGradient5935"
       id="linearGradient2344"
       gradientUnits="userSpaceOnUse"
       gradientTransform="scale(1.45548,0.687059)"
       x1="52.082405"
       y1="34.33255"
       x2="52.082405"
       y2="105.11836" />
    <linearGradient
       xlink:href="#linearGradient869"
       id="linearGradient2447"
       x1="0.6885246"
       y1="0.78625953"
       x2="0.37377051"
       y2="0.47328246"
       spreadMethod="reflect" />
    <linearGradient
       xlink:href="#linearGradient839"
       id="linearGradient2445"
       x1="1.3267924e-17"
       y1="0.5"
       x2="1"
       y2="0.5" />
    <linearGradient
       id="linearGradient2435">
      <stop
         style="stop-color:#46a046;stop-opacity:1.0000000;"
         offset="0.0000000"
         id="stop2437" />
      <stop
         style="stop-color:#df421e;stop-opacity:1.0000000;"
         offset="0.39364964"
         id="stop2439" />
      <stop
         style="stop-color:#ada7c8;stop-opacity:1.0000000;"
         offset="0.72036445"
         id="stop2441" />
      <stop
         style="stop-color:#eed680;stop-opacity:1.0000000;"
         offset="1.0000000"
         id="stop2443" />
    </linearGradient>
    <linearGradient
       xlink:href="#linearGradient907"
       id="linearGradient2433"
       x1="0.35737705"
       y1="0.49346405"
       x2="0.17377049"
       y2="0.29411766"
       spreadMethod="reflect" />
    <linearGradient
       id="linearGradient2425">
      <stop
         style="stop-color:#ffff00;stop-opacity:1.0000000;"
         offset="0.0000000"
         id="stop2427" />
      <stop
         style="stop-color:#ffea00;stop-opacity:1.0000000;"
         offset="0.36908397"
         id="stop2429" />
      <stop
         style="stop-color:#ffd600;stop-opacity:1.0000000;"
         offset="1.0000000"
         id="stop2431" />
    </linearGradient>
    <linearGradient
       id="linearGradient2417">
      <stop
         style="stop-color:#7590ae;stop-opacity:1.0000000;"
         offset="0.0000000"
         id="stop2419" />
      <stop
         style="stop-color:#89a4c0;stop-opacity:1.0000000;"
         offset="0.87030536"
         id="stop2421" />
      <stop
         style="stop-color:#9db8d2;stop-opacity:1.0000000;"
         offset="1.0000000"
         id="stop2423" />
    </linearGradient>
    <linearGradient
       id="linearGradient2409">
      <stop
         style="stop-color:#eed680;stop-opacity:1.0000000;"
         offset="0.0000000"
         id="stop2411" />
      <stop
         style="stop-color:#dfb546;stop-opacity:1.0000000;"
         offset="0.29427481"
         id="stop2413" />
      <stop
         style="stop-color:#d1940c;stop-opacity:1.0000000;"
         offset="1.0000000"
         id="stop2415" />
    </linearGradient>
    <linearGradient
       xlink:href="#linearGradient845"
       id="linearGradient2407"
       x1="0.45626533"
       y1="0.55078673"
       x2="0.22509645"
       y2="0.31685987"
       spreadMethod="reflect" />
    <linearGradient
       id="linearGradient2397">
      <stop
         style="stop-color:#4b6983;stop-opacity:1.0000000;"
         offset="0.0000000"
         id="stop2399" />
      <stop
         style="stop-color:#9db8d2;stop-opacity:1.0000000;"
         offset="0.44778731"
         id="stop2401" />
      <stop
         style="stop-color:#cedbe8;stop-opacity:1.0000000;"
         offset="0.93561327"
         id="stop2403" />
      <stop
         style="stop-color:#ffffff;stop-opacity:1.0000000;"
         offset="1.0000000"
         id="stop2405" />
    </linearGradient>
  </defs>
  <sodipodi:namedview
     inkscape:guide-bbox="true"
     showguides="true"
     id="base"
     pagecolor="#ffffff"
     bordercolor="#666666"
     borderopacity="1.0"
     inkscape:pageopacity="0.0"
     inkscape:pageshadow="2"
     inkscape:zoom="2.95"
     inkscape:cx="80"
     inkscape:cy="80"
     inkscape:window-width="735"
     inkscape:window-height="653"
     showgrid="true"
     snaptogrid="false"
     gridspacingx="1.0000000mm"
     gridspacingy="1.0000000mm"
     inkscape:window-x="640"
     inkscape:window-y="216"
     inkscape:current-layer="svg1" />
  <rect
     style="fill:none;fill-rule:evenodd;stroke:#000000;stroke-width:7.5;stroke-linejoin:round;stroke-miterlimit:4;stroke-dasharray:none;stroke-opacity:0.5"
     id="rect834"
     width="117.75612"
     height="133.38696"
     x="3.75"
     y="3.75"
     ry="22.892691"
     rx="22.892691" />
  <rect
     style="fill:#bab5ab;fill-opacity:1;fill-rule:evenodd;stroke:#000000;stroke-width:3.75;stroke-miterlimit:4;stroke-dasharray:none"
     id="rect828"
     width="117.75612"
     height="133.38696"
     x="3.6112251"
     y="3.6603317"
     ry="22.892691"
     rx="22.892691" />
  <path
     style="font-size:40px;fill:#ffffff;fill-opacity:1;stroke-width:1pt;font-family:Trek"
     d="M 101.43005,123.11146 C 100.22155,123.11146 99.115464,122.94759 98.111784,122.61987 C 97.108114,122.27165 96.247824,121.78005 95.530904,121.14508 C 95.162214,120.81735 94.803764,120.40769 94.455544,119.91609 C 94.291684,119.69077 94.158544,119.48594 94.056124,119.3016 C 93.953704,119.09676 93.820574,118.77928 93.656704,118.34913 C 93.247044,117.22255 93.042204,115.92188 93.042204,114.44709 L 93.042204,99.207634 L 98.203954,99.207634 L 98.203954,114.10912 C 98.203954,114.90796 98.296134,115.58391 98.480484,116.13695 C 98.685314,116.69 99.033524,117.22255 99.525124,117.73464 C 99.996234,118.16478 100.53903,118.49251 101.15353,118.71783 C 101.76802,118.92265 102.43373,119.02507 103.15063,119.02507 L 109.84862,119.02507 L 109.84862,123.11146 L 101.43005,123.11146 z M 66.557493,123.11146 L 61.395733,123.11146 L 61.395733,99.207634 L 69.076913,99.207634 L 75.344753,117.67319 L 81.674043,99.207634 L 89.385964,99.207634 L 89.385964,123.11146 L 84.224214,123.11146 L 84.224214,105.2604 L 84.101314,105.2604 L 77.894903,123.11146 L 72.886783,123.11146 L 66.680393,105.2604 L 66.557493,105.2604 L 66.557493,123.11146 z M 38.075683,99.207634 L 59.582983,99.207634 L 59.582983,103.32474 L 51.379483,103.32474 L 51.379483,123.11146 L 46.279183,123.11146 L 46.279183,103.32474 L 38.075683,103.32474 L 38.075683,99.207634 z M 14.417653,123.11146 L 14.417653,99.207634 L 19.579403,99.207634 L 19.579403,109.19317 L 29.319133,109.19317 L 29.319133,99.207634 L 34.419433,99.207634 L 34.419433,123.11146 L 29.319133,123.11146 L 29.319133,113.12593 L 19.579403,113.12593 L 19.579403,123.11146 L 14.417653,123.11146 z "
     id="path2488" />
  <path
     style="fill:#ffffff;fill-opacity:0.27935223;fill-rule:evenodd;stroke:none;stroke-width:6.25"
     d="M 100.34807,132.55498 L 24.630491,132.55498 C 12.985818,132.55498 7.2838846,126.85305 7.2838846,115.20838 C 7.2838846,115.20838 34.904216,48.692898 117.69468,38.550602 L 117.69468,115.20838 C 117.69468,126.85305 111.99274,132.55498 100.34807,132.55498 z "
     id="path2838"
     sodipodi:nodetypes="cccccc" />
  <g
     transform="translate(118.96752,-13.864116)"
     id="g2160">
    <path
       sodipodi:nodetypes="cccc"
       id="path873"
       d="M -81.317197,63.09778 L -76.328485,64.170081 L -78.286689,61.139573 L -81.317197,63.09778 z "
       style="fill-rule:evenodd;stroke:#000000;stroke-width:0.72004113pt" />
    <path
       style="fill:none;stroke:#000000;stroke-width:0.16759372"
       d="M -62.2462,51.016016 C -62.2462,51.016016 -60.572575,50.718565 -60.572575,50.718565 C -60.572575,50.718565 -59.202748,51.834488 -59.202748,51.834488 C -59.238682,51.169576 -59.546838,50.939043 -60.196908,50.635018 C -60.196908,50.635018 -60.129396,50.320931 -60.129396,50.320931 C -59.378062,50.153836 -59.207106,50.190583 -58.730172,49.635908 C -58.730172,49.635908 -60.574753,49.896612 -60.574753,49.896612 C -60.574753,49.896612 -61.807379,48.974475 -61.807379,48.974475 C -61.771445,49.639388 -61.600489,49.676135 -60.984176,50.1372 C -60.984176,50.1372 -62.2462,51.016016 -62.2462,51.016016 z M -61.501401,48.383055 C -61.501401,48.383055 -60.714132,48.880866 -60.714132,48.880866 C -59.211463,48.546669 -58.833617,49.285075 -58.358863,47.90845 C -58.358863,47.90845 -58.700774,47.834958 -58.700774,47.834958 C -59.211463,48.546669 -59.553375,48.473177 -60.408154,48.289445 C -60.408154,48.289445 -60.239377,47.504242 -60.239377,47.504242 C -60.239377,47.504242 -60.58129,47.430749 -60.58129,47.430749 C -60.58129,47.430749 -60.750067,48.215953 -60.750067,48.215953 C -60.750067,48.215953 -61.43389,48.068968 -61.43389,48.068968 C -61.43389,48.068968 -61.501401,48.383055 -61.501401,48.383055 z M -58.432908,45.756664 C -58.430729,46.578617 -58.464486,46.735664 -59.283332,47.216846 C -59.283332,47.216846 -58.945777,45.646425 -58.945777,45.646425 C -60.722846,45.593042 -60.480023,46.959622 -59.692753,47.457433 C -58.529818,47.871704 -57.542195,46.605308 -58.432908,45.756664 z M -60.007446,44.761034 C -60.007446,44.761034 -57.785019,45.238735 -57.785019,45.238735 C -57.785019,45.238735 -57.717507,44.924648 -57.717507,44.924648 C -58.743244,44.704171 -59.256111,44.593932 -59.395488,43.578186 C -59.395488,43.578186 -59.737401,43.504693 -59.737401,43.504693 C -59.737401,43.504693 -59.564267,44.3634 -59.564267,44.3634 C -59.564267,44.3634 -60.007446,44.761034 -60.007446,44.761034 z M -59.669891,43.190613 C -59.669891,43.190613 -57.447463,43.668315 -57.447463,43.668315 C -57.447463,43.668315 -57.379951,43.354228 -57.379951,43.354228 C -57.721864,43.280735 -59.602379,42.876526 -58.749779,42.238304 C -58.51131,41.960964 -57.485575,42.181441 -57.143663,42.254934 C -57.143663,42.254934 -57.076153,41.940854 -57.076153,41.940854 C -57.418065,41.867361 -59.127625,41.499898 -58.479735,40.98197 C -58.241267,40.70463 -57.215531,40.925107 -56.873619,40.998599 C -56.873619,40.998599 -56.772353,40.527473 -56.772353,40.527473 C -57.285221,40.417234 -58.14,40.233502 -58.686623,40.280304 C -59.096047,40.520898 -59.399848,41.934279 -59.330157,42.442145 C -59.363913,42.599192 -59.192957,42.635939 -59.226712,42.792979 C -59.226712,42.792979 -59.669891,43.190613 -59.669891,43.190613 z M -59.355198,45.887013 C -59.355198,45.887013 -59.625243,47.143353 -59.625243,47.143353 C -60.036844,46.561988 -60.140289,46.211154 -59.355198,45.887013 z "
       id="path900" />
    <path
       sodipodi:nodetypes="cccc"
       id="path879"
       d="M -90.412933,65.688043 C -75.104619,49.385236 -43.6272,17.342738 -32.01754,29.139154 C -21.74865,41.371321 -61.572464,66.781133 -78.400378,77.559753 L -90.412933,65.688043 z "
       style="fill:url(#linearGradient2167);fill-opacity:1;fill-rule:evenodd;stroke:#000000;stroke-width:3.60020566" />
    <path
       sodipodi:nodetypes="cccccccc"
       id="path868"
       d="M -80.266178,76.307212 C -80.266178,76.307212 -83.886954,83.28395 -82.131989,85.314942 C -80.303635,86.916702 -97.836559,92.218905 -100.68798,91.898047 C -100.68798,91.898055 -103.15674,97.307853 -106.74006,93.675094 C -110.32338,90.042343 -104.68149,87.418103 -104.68149,87.418103 C -104.67634,83.221775 -100.04858,67.151169 -98.256925,68.967546 C -96.465265,70.783921 -89.224475,67.225324 -89.224475,67.225324 C -89.224475,67.225324 -80.266178,76.307212 -80.266178,76.307212 z "
       style="fill:url(#linearGradient2169);fill-opacity:0.75;fill-rule:evenodd;stroke:#000000;stroke-width:2.7001543" />
    <path
       sodipodi:nodetypes="cc"
       id="path876"
       d="M -105.52241,92.488546 C -105.52241,92.488546 -90.991393,78.155268 -90.991393,78.155268"
       style="fill:none;fill-opacity:0.75;fill-rule:evenodd;stroke:#000000;stroke-width:0.72004113pt;stroke-linecap:round;stroke-linejoin:round" />
  </g>
  <path
     sodipodi:type="arc"
     style="fill:#000000;fill-opacity:0.26720647;fill-rule:evenodd;stroke:none;stroke-width:7.09752464;stroke-linejoin:miter;stroke-opacity:0.46451613"
     id="path837"
     sodipodi:cx="77.952759"
     sodipodi:cy="80.275589"
     sodipodi:rx="70.866142"
     sodipodi:ry="72.637794"
     d="M 148.8189 80.275589 A 70.866142 72.637794 0 1 1  7.0866165,80.275589 A 70.866142 72.637794 0 1 1  148.8189 80.275589 z"
     transform="matrix(0.308308,-0.25703,0.253264,0.30379,37.012904,53.695444)" />
  <path
     sodipodi:type="arc"
     style="fill:#4b6983;fill-opacity:1;fill-rule:evenodd;stroke:#000000;stroke-width:4.51668549;stroke-linejoin:miter;stroke-miterlimit:4;stroke-opacity:0.26720647"
     id="path825"
     sodipodi:cx="77.952759"
     sodipodi:cy="80.275589"
     sodipodi:rx="70.866142"
     sodipodi:ry="72.637794"
     d="M 148.8189 80.275589 A 70.866142 72.637794 0 1 1  7.0866165,80.275589 A 70.866142 72.637794 0 1 1  148.8189 80.275589 z"
     transform="matrix(0.289005,-0.240937,0.237406,0.28477,39.765104,54.056854)" />
  <path
     transform="matrix(0.371896,-0.310042,-0.285351,-0.342281,73.714334,118.18528)"
     d="M 130.87867 75.983261 A 39.163181 39.163181 0 1 1  52.552303,75.983261 A 39.163181 39.163181 0 1 1  130.87867 75.983261 z"
     sodipodi:ry="39.163181"
     sodipodi:rx="39.163181"
     sodipodi:cy="75.983261"
     sodipodi:cx="91.715485"
     id="path2863"
     style="fill:#ffffff;fill-opacity:0.18623478;stroke:none;stroke-width:4.51668549;stroke-miterlimit:4;stroke-opacity:0.53036439"
     sodipodi:type="arc" />
  <rect
     transform="matrix(0.7680909,-0.6403409,0.6403409,0.7680909,0,0)"
     ry="32.729568"
     rx="2.7481225"
     y="86.619881"
     x="5.1267362"
     height="20.358435"
     width="39.661442"
     id="rect3659"
     style="fill:#4b6983;fill-opacity:1;stroke:none;stroke-width:4.51668549;stroke-miterlimit:4;stroke-opacity:0.53036439" />
  <path
     style="fill:none;fill-opacity:1;stroke:#000000;stroke-width:7.73213625;stroke-linecap:round;stroke-miterlimit:4;stroke-opacity:0.41295543"
     d="M 67.775321,51.677303 C 55.220191,64.259043 51.262121,77.419381 58.941291,81.0499 C 66.620461,84.68042 83.045704,77.414245 95.600844,64.832511 C 108.15597,52.250764 112.11404,39.090428 104.43487,35.459909 C 96.755694,31.829392 80.330459,39.095562 67.775321,51.677303 z "
     id="path4385"
     sodipodi:nodetypes="ccccc" />
  <path
     style="fill:none;fill-opacity:1;stroke:#000000;stroke-width:6.28236055;stroke-linecap:round;stroke-miterlimit:4;stroke-opacity:1"
     d="M 67.352891,51.281736 C 54.797751,63.863477 50.839671,77.02381 58.518841,80.654324 C 66.198011,84.284851 82.623259,77.018679 95.178394,64.43694 C 107.73352,51.855199 111.69161,38.694863 104.01243,35.064344 C 96.333254,31.433825 79.908018,38.699996 67.352891,51.281736 z "
     id="path2086"
     sodipodi:nodetypes="ccccc" />
  <path
     style="fill:none;fill-opacity:1;stroke:#ffffff;stroke-width:1.9330343;stroke-linecap:round;stroke-miterlimit:4;stroke-opacity:0.93117412"
     d="M 66.423471,50.451753 C 53.868341,63.033494 49.910261,76.19383 57.589431,79.824339 C 65.268601,83.454864 81.693847,76.188686 94.248974,63.606952 C 106.80411,51.025216 110.76219,37.864881 103.08302,34.234362 C 95.403844,30.603845 78.978606,37.870013 66.423471,50.451753 z "
     id="path3625"
     sodipodi:nodetypes="ccccc" />
  <path
     style="fill:none;fill-opacity:1;stroke:#ffffff;stroke-width:2.70927358;stroke-linecap:round;stroke-miterlimit:4;stroke-opacity:0.45344131"
     d="M 66.311521,50.14937 C 53.756371,62.731111 49.798301,75.891445 57.477481,79.521954 C 65.156651,83.152478 81.581888,75.886301 94.137024,63.304571 C 106.69215,50.722833 110.65024,37.562498 102.97106,33.931979 C 95.291894,30.301462 78.866654,37.56763 66.311521,50.14937 z "
     id="path6698"
     sodipodi:nodetypes="ccccc" />
  <path
     sodipodi:type="arc"
     style="fill:#4b6983;fill-opacity:1;fill-rule:evenodd;stroke:#000000;stroke-width:4.51668549;stroke-linejoin:miter;stroke-miterlimit:4;stroke-opacity:0.26720647"
     id="path5916"
     sodipodi:cx="77.952759"
     sodipodi:cy="80.275589"
     sodipodi:rx="70.866142"
     sodipodi:ry="72.637794"
     d="M 148.8189,80.275589 A 70.866142,72.637794 0 0 1 7.1160753,82.369799"
     transform="matrix(-0.289005,0.240937,-0.237406,-0.28477,123.03422,62.154904)"
     sodipodi:start="0"
     sodipodi:end="3.1127578"
     sodipodi:open="true" />
  <path
     transform="matrix(0.296364,-0.247072,0.427628,0.51294,31.806304,47.231974)"
     d="M 133.89121 47.53138 A 53.891212 25.439331 0 1 1  26.108788,47.53138 A 53.891212 25.439331 0 1 1  133.89121 47.53138 z"
     sodipodi:ry="25.439331"
     sodipodi:rx="53.891212"
     sodipodi:cy="47.53138"
     sodipodi:cx="80"
     id="path2893"
     style="fill:url(#linearGradient2344);fill-opacity:1;stroke:none;stroke-width:4.51668549;stroke-miterlimit:4;stroke-opacity:0.53036439"
     sodipodi:type="arc" />
  <path
     style="font-size:40px;stroke-width:1pt;font-family:Trek"
     d="M 102.10801,123.78942 C 100.89951,123.78942 99.793424,123.62555 98.789744,123.29783 C 97.786074,122.94961 96.925784,122.45801 96.208864,121.82304 C 95.840174,121.49531 95.481724,121.08565 95.133504,120.59405 C 94.969644,120.36873 94.836504,120.1639 94.734084,119.97956 C 94.631664,119.77472 94.498534,119.45724 94.334664,119.02709 C 93.925004,117.90051 93.720164,116.59984 93.720164,115.12505 L 93.720164,99.885594 L 98.881914,99.885594 L 98.881914,114.78708 C 98.881914,115.58592 98.974094,116.26187 99.158444,116.81491 C 99.363274,117.36796 99.711484,117.90051 100.20308,118.4126 C 100.67419,118.84274 101.21699,119.17047 101.83149,119.39579 C 102.44598,119.60061 103.11169,119.70303 103.82859,119.70303 L 110.52658,119.70303 L 110.52658,123.78942 L 102.10801,123.78942 z M 67.235459,123.78942 L 62.073699,123.78942 L 62.073699,99.885594 L 69.754879,99.885594 L 76.022719,118.35115 L 82.352009,99.885594 L 90.063924,99.885594 L 90.063924,123.78942 L 84.902174,123.78942 L 84.902174,105.93836 L 84.779274,105.93836 L 78.572869,123.78942 L 73.564749,123.78942 L 67.358359,105.93836 L 67.235459,105.93836 L 67.235459,123.78942 z M 38.753649,99.885594 L 60.260949,99.885594 L 60.260949,104.0027 L 52.057449,104.0027 L 52.057449,123.78942 L 46.957149,123.78942 L 46.957149,104.0027 L 38.753649,104.0027 L 38.753649,99.885594 z M 15.095619,123.78942 L 15.095619,99.885594 L 20.257369,99.885594 L 20.257369,109.87113 L 29.997099,109.87113 L 29.997099,99.885594 L 35.097399,99.885594 L 35.097399,123.78942 L 29.997099,123.78942 L 29.997099,113.80389 L 20.257369,113.80389 L 20.257369,123.78942 L 15.095619,123.78942 z "
     id="path862" />
  <path
     style="fill:url(#linearGradient2830);fill-opacity:1;fill-rule:evenodd;stroke:none;stroke-width:6.25"
     d="M 24.630491,7.3329923 L 100.34807,7.3329923 C 111.99274,7.3329923 117.69468,13.034925 117.69468,24.6796 C 117.69468,24.6796 38.408122,25.585198 7.2838846,116.02801 L 7.2838846,24.6796 C 7.2838846,14.390857 14.34175,7.3329923 24.630491,7.3329923 z "
     id="rect2063"
     sodipodi:nodetypes="cccccc" />
</svg>
