<?xml version="1.0" encoding="UTF-8" standalone="no"?>
<!-- Created with Inkscape (http://www.inkscape.org/) -->

<svg
   xmlns:dc="http://purl.org/dc/elements/1.1/"
   xmlns:cc="http://creativecommons.org/ns#"
   xmlns:rdf="http://www.w3.org/1999/02/22-rdf-syntax-ns#"
   xmlns:svg="http://www.w3.org/2000/svg"
   xmlns="http://www.w3.org/2000/svg"
   version="1.1"
   width="24"
   height="24"
   id="svg3263">
  <defs
     id="defs3265" />
  <metadata
     id="metadata3268">
    <rdf:RDF>
      <cc:Work
         rdf:about="">
        <dc:format>image/svg+xml</dc:format>
        <dc:type
           rdf:resource="http://purl.org/dc/dcmitype/StillImage" />
        <dc:title></dc:title>
      </cc:Work>
    </rdf:RDF>
  </metadata>
  <g
     transform="translate(0,-1028.3622)"
     id="layer1">
    <path
       d="m 4.8112193,1034.3465 c -0.65802,0.9491 -1.31579,1.8824 -1.96526,2.7957 h 1.96526 v -2.7957 z m 5.5930497,-5.9841 c -1.0056297,0.011 -2.0158297,0.6237 -2.7044797,1.6814 -0.52817,0.8193 -1.06981,1.6358 -1.61677,2.446 l -0.001,4.6524 4.5864497,0 0,6.1117 -1.2573397,0 0,-4.9486 -3.32911,0 0,3.0531 c 4.8e-4,0.1794 0.009,0.3344 0.0242,0.4672 0.0159,0.1323 0.05,0.2409 0.10365,0.3284 0.0542,0.087 0.13024,0.1545 0.22885,0.1993 0.0986,0.044 0.22894,0.067 0.39039,0.067 0.29069,0 0.57549,-0.045 0.85348,-0.1347 l 0.33655,0.867 c -0.22857,0.09 -0.45614,0.1547 -0.68252,0.1952 -0.22649,0.04 -0.45837,0.06 -0.69597,0.061 -0.62311,-0.018 -1.08453,-0.1979 -1.38253,-0.5385 -0.29801,-0.3406 -0.44694,-0.844 -0.44694,-1.5118 l 0,-3.0531 -2.79468,0 c -0.51718,0.7233 -1.02656997,1.4333 -1.51848997,2.1202 -0.24176,0.3308 -0.38998,0.6865 -0.45771,1.0487 2.6e-4,10e-4 0.001,0 0.001,0 -0.21395,1.1532 0.41142,2.3841 1.63695997,3.1824 3.63482,2.3417 7.2223,4.9365 10.3844697,7.1994 1.38632,1.012 3.18425,0.432 4.23376,-1.1793 1.63991,-2.5434 3.4007,-5.0596 5.08723,-7.4269 l -1.34484,0 -1.37042,0 -0.0323,0 0,-5.2178 -2.0812,0 -1.55619,1.7891 2.4339,3.4355 -1.5333,0 -2.24544,-3.107 0,3.1002 -1.24387,0 0,-8.2359 1.24387,0 0,4.6591 2.13101,-2.5416 4.14221,0 -0.001,4.9432 0.94907,0 1.34887,0 c 0.43262,-0.6045 0.86053,-1.2011 1.27484,-1.7796 0.92747,-1.2707 0.51456,-2.8849 -0.80098,-3.9538 l -0.001,0 c -0.11972,-0.097 -0.24514,-0.1923 -0.37963,-0.28 -3.63481,-2.3425 -7.22082,-4.9372 -10.38312,-7.2007 -0.47655,-0.3477 -1.00251,-0.5077 -1.52927,-0.5022 z m -0.36212,6.6555 c 0.3382,0 0.61251,0.2743 0.61251,0.6125 0,0.3382 -0.27431,0.6125 -0.61251,0.6125 -0.3382097,0 -0.6125197,-0.2743 -0.6125197,-0.6125 0,-0.3382 0.27431,-0.6125 0.6125197,-0.6125 z m 9.24021,0 c 0.33821,0 0.61252,0.2743 0.61252,0.6125 0,0.3382 -0.27431,0.6125 -0.61252,0.6125 -0.3382,0 -0.61251,-0.2743 -0.61251,-0.6125 0,-0.3382 0.27431,-0.6125 0.61251,-0.6125 z"
       id="path3716"
       style="fill:#000000;display:inline" />
  </g>
</svg>
