<?xml version="1.0" encoding="UTF-8" standalone="no"?>
<!-- Created with Inkscape (http://www.inkscape.org/) -->
<svg
   xmlns:dc="http://purl.org/dc/elements/1.1/"
   xmlns:cc="http://web.resource.org/cc/"
   xmlns:rdf="http://www.w3.org/1999/02/22-rdf-syntax-ns#"
   xmlns:svg="http://www.w3.org/2000/svg"
   xmlns="http://www.w3.org/2000/svg"
   xmlns:xlink="http://www.w3.org/1999/xlink"
   xmlns:sodipodi="http://sodipodi.sourceforge.net/DTD/sodipodi-0.dtd"
   xmlns:inkscape="http://www.inkscape.org/namespaces/inkscape"
   id="svg1"
   sodipodi:version="0.32"
   inkscape:version="0.45.1"
   width="124.51241"
   height="140.04453"
   sodipodi:docbase="/home/sept/svg"
   sodipodi:docname="3ds.svg"
   inkscape:output_extension="org.inkscape.output.svg.inkscape"
   version="1.0">
  <metadata
     id="metadata15">
    <rdf:RDF>
      <cc:Work
         rdf:about="">
        <dc:format>image/svg+xml</dc:format>
        <dc:type
           rdf:resource="http://purl.org/dc/dcmitype/StillImage" />
      </cc:Work>
    </rdf:RDF>
  </metadata>
  <defs
     id="defs3">
    <linearGradient
       id="linearGradient2832">
      <stop
         id="stop2834"
         offset="0.0000000"
         style="stop-color:#ffffff;stop-opacity:1.0000000;" />
      <stop
         id="stop2836"
         offset="1.0000000"
         style="stop-color:#ffffff;stop-opacity:0.0000000;" />
    </linearGradient>
    <linearGradient
       gradientUnits="userSpaceOnUse"
       y2="73.39872"
       x2="72.999245"
       y1="16.369013"
       x1="23.983805"
       gradientTransform="matrix(0.9341505,0,0,0.8829252,-10.487259,-1.5153996)"
       id="linearGradient2830"
       xlink:href="#linearGradient2832"
       inkscape:collect="always" />
    <linearGradient
       id="linearGradient1356">
      <stop
         style="stop-color:#46a046;stop-opacity:1.0000000;"
         offset="0.0000000"
         id="stop1358" />
      <stop
         style="stop-color:#df421e;stop-opacity:1.0000000;"
         offset="0.39364964"
         id="stop1360" />
      <stop
         style="stop-color:#ada7c8;stop-opacity:1.0000000;"
         offset="0.72036445"
         id="stop1362" />
      <stop
         style="stop-color:#eed680;stop-opacity:1.0000000;"
         offset="1.0000000"
         id="stop1364" />
    </linearGradient>
    <radialGradient
       inkscape:collect="always"
       xlink:href="#linearGradient1356"
       id="radialGradient3673"
       cx="63.231537"
       cy="50.092251"
       fx="63.231537"
       fy="51.464809"
       r="167.43921"
       gradientUnits="userSpaceOnUse" />
  </defs>
  <sodipodi:namedview
     id="base"
     pagecolor="#ffffff"
     bordercolor="#666666"
     borderopacity="1.0"
     inkscape:pageopacity="0.0"
     inkscape:pageshadow="2"
     inkscape:zoom="2.95"
     inkscape:cx="80"
     inkscape:cy="80"
     inkscape:window-width="751"
     inkscape:window-height="653"
     showgrid="true"
     snaptogrid="false"
     gridspacingx="1.0000000mm"
     gridspacingy="1.0000000mm"
     inkscape:window-x="479"
     inkscape:window-y="111"
     inkscape:current-layer="svg1" />
  <rect
     style="fill:none;fill-rule:evenodd;stroke:#000000;stroke-width:7.5;stroke-linejoin:round;stroke-miterlimit:4;stroke-dasharray:none;stroke-opacity:0.5"
     id="rect834"
     width="117.01241"
     height="132.54453"
     x="3.75"
     y="3.75"
     ry="22.892691"
     rx="22.892691" />
  <rect
     style="fill:#df421e;fill-opacity:1;fill-rule:evenodd;stroke:#000000;stroke-width:3.75;stroke-miterlimit:4;stroke-dasharray:none"
     id="rect828"
     width="117.01241"
     height="132.54453"
     x="3.75"
     y="3.75"
     ry="22.892691"
     rx="22.892691" />
  <path
     sodipodi:nodetypes="cccccc"
     id="path2838"
     d="M 99.688027,132.62428 L 23.970459,132.62428 C 12.325789,132.62428 6.6238487,126.92235 6.6238487,115.27768 C 6.6238487,115.27768 34.244179,48.7622 117.03464,38.619904 L 117.03464,115.27768 C 117.03464,126.92235 111.3327,132.62428 99.688027,132.62428 z "
     style="fill:#ffffff;fill-opacity:0.27125507;fill-rule:evenodd;stroke:none;stroke-width:6.25" />
  <path
     transform="matrix(0.798804,0,0,0.798804,1.4988667,-3.6658716)"
     d="M 121.18196 66.562988 A 44.66563 44.66563 0 1 1  31.850697,66.562988 A 44.66563 44.66563 0 1 1  121.18196 66.562988 z"
     sodipodi:ry="44.66563"
     sodipodi:rx="44.66563"
     sodipodi:cy="66.562988"
     sodipodi:cx="76.516327"
     id="path834"
     style="fill:url(#radialGradient3673);fill-opacity:1;fill-rule:evenodd;stroke:#000000;stroke-width:4.00291634"
     sodipodi:type="arc" />
  <path
     style="font-size:40px;stroke-width:1pt;font-family:Trek"
     d="M 107.9734,93.66347 L 107.9734,99.02347 L 90.773397,99.02347 C 89.680067,99.02347 88.693397,99.34347 87.813397,99.98347 C 87.066727,100.65013 86.693397,101.57013 86.693397,102.74347 C 86.693397,104.02347 87.106727,104.98347 87.933397,105.62347 C 88.653397,106.18347 89.640067,106.46347 90.893397,106.46347 L 100.5734,106.46347 C 102.7334,106.46347 104.68007,107.0768 106.4134,108.30347 C 108.60007,109.93013 109.6934,112.37013 109.6934,115.62347 C 109.6934,118.7168 108.60007,121.14347 106.4134,122.90347 C 104.70673,124.1568 102.76007,124.78347 100.5734,124.78347 L 79.973393,124.78347 L 79.973393,119.46347 L 97.573397,119.46347 C 98.586727,119.46347 99.520067,119.10347 100.3734,118.38347 C 101.22673,117.66347 101.6534,116.74347 101.6534,115.62347 C 101.6534,114.4768 101.22673,113.5568 100.3734,112.86347 C 99.573397,112.14347 98.600067,111.78347 97.453397,111.78347 L 87.693397,111.78347 C 85.533397,111.78347 83.613397,111.18347 81.933393,109.98347 C 79.746726,108.3568 78.653393,105.94347 78.653393,102.74347 C 78.653393,99.54347 79.746726,97.13013 81.933393,95.50347 C 83.560067,94.2768 85.480067,93.66347 87.693397,93.66347 L 107.9734,93.66347 z M 46.093393,93.66347 L 62.613393,93.66347 C 66.800059,93.66347 69.986726,94.9968 72.173393,97.66347 C 74.360059,100.33013 75.453393,104.18347 75.453393,109.22347 C 75.453393,114.21013 74.360059,118.05013 72.173393,120.74347 C 70.013393,123.4368 66.826726,124.78347 62.613393,124.78347 L 46.093393,124.78347 L 46.093393,93.66347 z M 52.573393,119.46347 L 60.453393,119.46347 C 63.066726,119.46347 65.000059,118.62347 66.253393,116.94347 C 67.506726,115.2368 68.133393,112.66347 68.133393,109.22347 C 68.133393,105.78347 67.533393,103.22347 66.333393,101.54347 C 65.160059,99.86347 63.200059,99.02347 60.453393,99.02347 L 52.573393,99.02347 L 52.573393,119.46347 z M 38.413393,109.50347 C 39.666726,110.1168 40.600059,110.82347 41.213393,111.62347 C 42.360059,113.01013 42.933393,114.6368 42.933393,116.50347 C 42.933393,119.25013 41.840059,121.42347 39.653393,123.02347 C 38.826726,123.61013 37.906726,124.05013 36.893393,124.34347 C 35.906723,124.6368 34.880063,124.78347 33.813393,124.78347 L 16.293393,124.78347 L 16.293393,119.46347 L 31.573393,119.46347 C 32.800063,119.46347 33.760063,119.17013 34.453393,118.58347 C 35.333393,117.94347 35.773393,116.9568 35.773393,115.62347 C 35.773393,114.34347 35.373393,113.38347 34.573393,112.74347 C 33.773393,112.10347 32.773393,111.78347 31.573393,111.78347 L 19.813393,111.78347 L 19.813393,106.66347 L 31.573393,106.66347 C 32.773393,106.66347 33.733393,106.38347 34.453393,105.82347 C 35.333393,105.18347 35.773393,104.18347 35.773393,102.82347 C 35.773393,101.62347 35.373393,100.69013 34.573393,100.02347 C 33.773393,99.3568 32.773393,99.02347 31.573393,99.02347 L 16.293393,99.02347 L 16.293393,93.66347 L 33.813393,93.66347 C 35.973393,93.66347 37.920059,94.2368 39.653393,95.38347 C 41.840059,96.93013 42.933393,99.1168 42.933393,101.94347 C 42.933393,103.78347 42.360059,105.3968 41.213393,106.78347 C 40.573393,107.58347 39.640059,108.30347 38.413393,108.94347 L 37.893393,109.22347 L 38.413393,109.50347 z "
     id="path842" />
  <path
     style="font-size:40px;fill:#ffffff;fill-opacity:1;stroke-width:1pt;font-family:Trek"
     d="M 107.29544,92.98551 L 107.29544,98.34551 L 90.095437,98.34551 C 89.002107,98.34551 88.015437,98.66551 87.135437,99.30551 C 86.388767,99.97217 86.015437,100.89217 86.015437,102.06551 C 86.015437,103.34551 86.428767,104.30551 87.255437,104.94551 C 87.975437,105.50551 88.962107,105.78551 90.215437,105.78551 L 99.895437,105.78551 C 102.05544,105.78551 104.00211,106.39884 105.73544,107.62551 C 107.92211,109.25217 109.01544,111.69217 109.01544,114.94551 C 109.01544,118.03884 107.92211,120.46551 105.73544,122.22551 C 104.02877,123.47884 102.08211,124.10551 99.895437,124.10551 L 79.295427,124.10551 L 79.295427,118.78551 L 96.895437,118.78551 C 97.908767,118.78551 98.842107,118.42551 99.695437,117.70551 C 100.54877,116.98551 100.97544,116.06551 100.97544,114.94551 C 100.97544,113.79884 100.54877,112.87884 99.695437,112.18551 C 98.895437,111.46551 97.922107,111.10551 96.775437,111.10551 L 87.015437,111.10551 C 84.855437,111.10551 82.935437,110.50551 81.255427,109.30551 C 79.06876,107.67884 77.975427,105.26551 77.975427,102.06551 C 77.975427,98.86551 79.06876,96.45217 81.255427,94.82551 C 82.882107,93.59884 84.802107,92.98551 87.015437,92.98551 L 107.29544,92.98551 z M 45.415427,92.98551 L 61.935427,92.98551 C 66.122093,92.98551 69.30876,94.31884 71.495427,96.98551 C 73.682093,99.65217 74.775427,103.50551 74.775427,108.54551 C 74.775427,113.53217 73.682093,117.37217 71.495427,120.06551 C 69.335427,122.75884 66.14876,124.10551 61.935427,124.10551 L 45.415427,124.10551 L 45.415427,92.98551 z M 51.895427,118.78551 L 59.775427,118.78551 C 62.38876,118.78551 64.322093,117.94551 65.575427,116.26551 C 66.82876,114.55884 67.455427,111.98551 67.455427,108.54551 C 67.455427,105.10551 66.855427,102.54551 65.655427,100.86551 C 64.482093,99.18551 62.522093,98.34551 59.775427,98.34551 L 51.895427,98.34551 L 51.895427,118.78551 z M 37.735427,108.82551 C 38.98876,109.43884 39.922093,110.14551 40.535427,110.94551 C 41.682093,112.33217 42.255427,113.95884 42.255427,115.82551 C 42.255427,118.57217 41.162093,120.74551 38.975427,122.34551 C 38.14876,122.93217 37.22876,123.37217 36.215427,123.66551 C 35.228757,123.95884 34.202097,124.10551 33.135427,124.10551 L 15.615427,124.10551 L 15.615427,118.78551 L 30.895427,118.78551 C 32.122097,118.78551 33.082097,118.49217 33.775427,117.90551 C 34.655427,117.26551 35.095427,116.27884 35.095427,114.94551 C 35.095427,113.66551 34.695427,112.70551 33.895427,112.06551 C 33.095427,111.42551 32.095427,111.10551 30.895427,111.10551 L 19.135427,111.10551 L 19.135427,105.98551 L 30.895427,105.98551 C 32.095427,105.98551 33.055427,105.70551 33.775427,105.14551 C 34.655427,104.50551 35.095427,103.50551 35.095427,102.14551 C 35.095427,100.94551 34.695427,100.01217 33.895427,99.34551 C 33.095427,98.67884 32.095427,98.34551 30.895427,98.34551 L 15.615427,98.34551 L 15.615427,92.98551 L 33.135427,92.98551 C 35.295427,92.98551 37.242093,93.55884 38.975427,94.70551 C 41.162093,96.25217 42.255427,98.43884 42.255427,101.26551 C 42.255427,103.10551 41.682093,104.71884 40.535427,106.10551 C 39.895427,106.90551 38.962093,107.62551 37.735427,108.26551 L 37.215427,108.54551 L 37.735427,108.82551 z "
     id="path2143" />
  <path
     sodipodi:nodetypes="cccccc"
     id="rect2063"
     d="M 25.999537,9.0033984 L 101.2522,9.0033984 C 112.82536,9.0033984 118.49229,14.616419 118.49229,26.079515 C 118.49229,26.079515 39.692568,26.970992 8.7594457,116.00351 L 8.7594457,26.079515 C 8.7594457,15.951208 15.773973,9.0033984 25.999537,9.0033984 z "
     style="fill:url(#linearGradient2830);fill-opacity:1;fill-rule:evenodd;stroke:none;stroke-width:6.25" />
</svg>
