<?xml version="1.0" encoding="UTF-8" standalone="no"?>
<!-- Created with Inkscape (http://www.inkscape.org/) -->
<svg
   xmlns:dc="http://purl.org/dc/elements/1.1/"
   xmlns:cc="http://web.resource.org/cc/"
   xmlns:rdf="http://www.w3.org/1999/02/22-rdf-syntax-ns#"
   xmlns:svg="http://www.w3.org/2000/svg"
   xmlns="http://www.w3.org/2000/svg"
   xmlns:xlink="http://www.w3.org/1999/xlink"
   xmlns:sodipodi="http://sodipodi.sourceforge.net/DTD/sodipodi-0.dtd"
   xmlns:inkscape="http://www.inkscape.org/namespaces/inkscape"
   sodipodi:docname="tar.svg"
   sodipodi:docbase="/home/sept/svg"
   height="145.31058"
   width="144.12817"
   inkscape:version="0.45.1"
   sodipodi:version="0.32"
   id="svg1"
   inkscape:output_extension="org.inkscape.output.svg.inkscape"
   version="1.0">
  <metadata
     id="metadata33">
    <rdf:RDF>
      <cc:Work
         rdf:about="">
        <dc:format>image/svg+xml</dc:format>
        <dc:type
           rdf:resource="http://purl.org/dc/dcmitype/StillImage" />
      </cc:Work>
    </rdf:RDF>
  </metadata>
  <defs
     id="defs3">
    <linearGradient
       id="linearGradient850">
      <stop
         id="stop851"
         offset="0.0000000"
         style="stop-color:#fbffff;stop-opacity:0.0000000;" />
      <stop
         id="stop852"
         offset="1.0000000"
         style="stop-color:#ffffff;stop-opacity:1.0000000;" />
    </linearGradient>
    <linearGradient
       gradientUnits="userSpaceOnUse"
       gradientTransform="matrix(0.794075,0,0,1.072367,-1.4146384,-1.7419334)"
       y2="11.502785"
       x2="22.394283"
       y1="74.459419"
       x1="78.702637"
       id="linearGradient859"
       xlink:href="#linearGradient850" />
    <linearGradient
       id="linearGradient839">
      <stop
         id="stop840"
         offset="0.0000000"
         style="stop-color:#46a046;stop-opacity:1.0000000;" />
      <stop
         id="stop841"
         offset="0.39364964"
         style="stop-color:#df421e;stop-opacity:1.0000000;" />
      <stop
         id="stop842"
         offset="0.72036445"
         style="stop-color:#ada7c8;stop-opacity:1.0000000;" />
      <stop
         id="stop843"
         offset="1.0000000"
         style="stop-color:#eed680;stop-opacity:1.0000000;" />
    </linearGradient>
    <linearGradient
       id="linearGradient833">
      <stop
         id="stop834"
         offset="0.0000000"
         style="stop-color:#00ff00;stop-opacity:1.0000000;" />
      <stop
         id="stop837"
         offset="0.30839416"
         style="stop-color:#ff0000;stop-opacity:1.0000000;" />
      <stop
         id="stop838"
         offset="0.75000000"
         style="stop-color:#7f8cff;stop-opacity:1.0000000;" />
      <stop
         id="stop835"
         offset="1.0000000"
         style="stop-color:#ffff00;stop-opacity:1.0000000;" />
    </linearGradient>
    <linearGradient
       gradientUnits="userSpaceOnUse"
       gradientTransform="matrix(0.674011,0,0,1.263393,-1.4146384,-1.7419334)"
       y2="16.549269"
       x2="110.16822"
       y1="79.337822"
       x1="157.2149"
       id="linearGradient836"
       xlink:href="#linearGradient850" />
    <linearGradient
       y2="0.019354839"
       x2="0.029508196"
       y1="0.66881722"
       x1="0.61967212"
       id="linearGradient855"
       xlink:href="#linearGradient850" />
    <linearGradient
       y2="0.2920354"
       x2="0.67540985"
       y1="0.92035401"
       x1="0.39344263"
       id="linearGradient853"
       xlink:href="#linearGradient850" />
  </defs>
  <sodipodi:namedview
     inkscape:current-layer="svg1"
     inkscape:window-y="216"
     inkscape:window-x="624"
     gridspacingy="1.0000000mm"
     gridspacingx="1.0000000mm"
     snaptogrid="false"
     showgrid="true"
     inkscape:window-height="653"
     inkscape:window-width="751"
     inkscape:cy="25.762712"
     inkscape:cx="80"
     inkscape:zoom="2.95"
     inkscape:pageshadow="2"
     inkscape:pageopacity="0.0"
     borderopacity="1.0"
     bordercolor="#666666"
     pagecolor="#ffffff"
     id="base" />
  <path
     id="path874"
     d="M 74.515249,5.7674336 L 5.7674336,23.185078 L 5.9116196,114.1376 L 5.9404566,114.1376 L 5.9404566,114.31062 L 6.1999906,114.25295 L 74.342226,139.54314 L 138.36073,113.09946 L 138.36073,107.82226 L 138.36073,23.185078 L 74.515249,5.7674336 z "
     style="font-size:40px;fill:none;stroke:#000000;stroke-width:11.53486729;stroke-linejoin:round;stroke-opacity:0.5;font-family:Trek" />
  <path
     sodipodi:nodetypes="ccccc"
     id="path633"
     d="M 138.27868,23.203816 L 138.27868,107.83298 L 76.495565,94.241338 L 74.425923,5.7996706 L 138.27868,23.203816 z "
     style="font-size:12px;fill:#515151;fill-rule:evenodd;stroke:#000000;stroke-width:6.93995714;stroke-linecap:round;stroke-linejoin:round" />
  <path
     sodipodi:nodetypes="ccccc"
     id="path631"
     d="M 5.6647516,23.203816 L 74.425923,5.7996706 L 78.831067,97.254338 L 5.8450836,114.32064 L 5.6647516,23.203816 z "
     style="font-size:12px;fill:#4a494d;fill-rule:evenodd;stroke:#000000;stroke-width:6.93995714;stroke-linecap:round;stroke-linejoin:round" />
  <path
     sodipodi:nodetypes="ccccc"
     id="path640"
     d="M 74.258173,44.361101 L 138.27868,23.203816 L 74.425923,5.7996706 L 5.6647516,23.203816 L 74.258173,44.361101 z "
     style="font-size:12px;fill:#9db8d2;fill-rule:evenodd;stroke:#000000;stroke-width:6.93995714;stroke-linecap:round;stroke-linejoin:round" />
  <path
     sodipodi:nodetypes="ccccc"
     id="path627"
     d="M 138.27868,23.203816 L 138.27868,113.12231 L 74.258173,139.5689 L 74.258173,44.361101 L 138.27868,23.203816 z "
     style="font-size:12px;fill:#4b6983;fill-rule:evenodd;stroke:#000000;stroke-width:6.93995714;stroke-linecap:round;stroke-linejoin:round" />
  <path
     sodipodi:nodetypes="ccccc"
     id="path629"
     d="M 74.258173,44.361101 L 74.258173,139.5689 L 5.8063306,114.14642 L 5.6647516,23.203816 L 74.258173,44.361101 z "
     style="font-size:12px;fill:#7590ae;fill-rule:evenodd;stroke:#000000;stroke-width:6.93995714;stroke-linecap:round;stroke-linejoin:round" />
  <path
     sodipodi:nodetypes="ccccc"
     id="path892"
     d="M 74.172297,9.4112256 L 9.4178876,25.947253 L 9.4178876,110.53486 C 76.816811,136.97674 88.041895,154.32435 70.814365,41.915243 C 131.85873,19.424233 74.172297,9.4112256 74.172297,9.4112256 z "
     style="fill:url(#linearGradient859);fill-opacity:1;fill-rule:evenodd;stroke:none;stroke-width:1pt;stroke-linecap:butt;stroke-linejoin:miter;stroke-opacity:1" />
  <path
     sodipodi:nodetypes="cccccc"
     id="path849"
     d="M 77.846761,47.035954 L 77.846761,133.52264 C 78.100388,133.52264 104.98479,123.37758 117.41249,110.69625 C 130.09381,100.29756 134.40547,79.246528 134.40547,79.246528 L 134.40547,27.506707 L 77.846761,47.035954 z "
     style="fill:url(#linearGradient836);fill-opacity:0.75;fill-rule:evenodd;stroke:none;stroke-width:1pt;stroke-linecap:butt;stroke-linejoin:miter;stroke-opacity:1" />
  <path
     sodipodi:nodetypes="ccccc"
     id="path852"
     d="M 74.258173,44.361101 L 74.258173,139.5689 L 5.8063306,114.14642 L 5.6647516,23.203816 L 74.258173,44.361101 z "
     style="font-size:12px;fill:none;fill-rule:evenodd;stroke:#000000;stroke-width:6.93995714;stroke-linecap:round;stroke-linejoin:round" />
  <rect
     rx="7.4109693"
     y="66.225891"
     x="21.628687"
     ry="7.4109693"
     height="43.398369"
     width="102.24853"
     id="rect853"
     style="fill:#ffffff;fill-rule:evenodd;stroke:#000000;stroke-width:3.46046019" />
  <path
     id="path909"
     d="M 102.81675,91.211077 L 96.209585,91.211077 L 96.209585,102.50602 L 90.008442,102.50602 L 90.008442,73.788789 L 106.65555,73.788789 C 109.41162,73.788789 111.51558,74.465501 112.96743,75.818925 C 114.56694,77.295389 115.36669,79.522387 115.36669,82.499921 C 115.36669,83.656483 115.26826,84.665399 115.07139,85.526666 C 114.87454,86.363332 114.54233,87.138475 114.07478,87.852096 C 113.23813,89.156311 111.8847,90.140632 110.01451,90.805049 L 109.86686,90.841961 L 116.14183,102.50602 L 108.83334,102.50602 L 102.81675,91.211077 z M 96.209585,78.73494 L 96.209585,86.707837 L 103.44425,86.707837 C 104.8715,86.707837 105.94193,86.437155 106.65555,85.895782 C 107.56604,85.280595 108.02128,84.22246 108.02128,82.72139 C 108.02128,81.31875 107.59065,80.309833 106.72938,79.694641 C 105.89272,79.05484 104.79768,78.73494 103.44425,78.73494 L 96.209585,78.73494 z M 57.600081,102.50602 L 69.891636,73.788789 L 76.203515,73.788789 L 88.495067,102.50602 L 81.92481,102.50602 L 79.082618,95.529728 L 67.086356,95.529728 L 64.207253,102.50602 L 57.600081,102.50602 z M 73.066032,80.801988 L 68.858112,91.026519 L 77.23704,91.026519 L 73.066032,80.801988 z M 29.584195,73.788789 L 55.422298,73.788789 L 55.422298,78.73494 L 45.566908,78.73494 L 45.566908,102.50602 L 39.439586,102.50602 L 39.439586,78.73494 L 29.584195,78.73494 L 29.584195,73.788789 z "
     style="font-size:40px;stroke-width:1pt;font-family:Trek" />
</svg>
