<?xml version="1.0" encoding="UTF-8" standalone="no"?>
<!-- Created with Inkscape (http://www.inkscape.org/) -->

<svg
   xmlns:dc="http://purl.org/dc/elements/1.1/"
   xmlns:cc="http://creativecommons.org/ns#"
   xmlns:rdf="http://www.w3.org/1999/02/22-rdf-syntax-ns#"
   xmlns:svg="http://www.w3.org/2000/svg"
   xmlns="http://www.w3.org/2000/svg"
   xmlns:sodipodi="http://sodipodi.sourceforge.net/DTD/sodipodi-0.dtd"
   xmlns:inkscape="http://www.inkscape.org/namespaces/inkscape"
   width="14.999999"
   height="15.002106"
   id="svg6643"
   version="1.1"
   inkscape:version="0.48.4 r9939"
   sodipodi:docname="PastLink.svg">
  <defs
     id="defs6645" />
  <sodipodi:namedview
     id="base"
     pagecolor="#000000"
     bordercolor="#666666"
     borderopacity="1.0"
     inkscape:pageopacity="0"
     inkscape:pageshadow="2"
     inkscape:zoom="5.6"
     inkscape:cx="22.254797"
     inkscape:cy="-16.566961"
     inkscape:document-units="px"
     inkscape:current-layer="layer1"
     showgrid="false"
     inkscape:window-width="1600"
     inkscape:window-height="844"
     inkscape:window-x="0"
     inkscape:window-y="28"
     inkscape:window-maximized="1"
     fit-margin-top="0"
     fit-margin-left="0"
     fit-margin-right="0"
     fit-margin-bottom="0" />
  <metadata
     id="metadata6648">
    <rdf:RDF>
      <cc:Work
         rdf:about="">
        <dc:format>image/svg+xml</dc:format>
        <dc:type
           rdf:resource="http://purl.org/dc/dcmitype/StillImage" />
        <dc:title />
      </cc:Work>
    </rdf:RDF>
  </metadata>
  <g
     inkscape:label="Layer 1"
     inkscape:groupmode="layer"
     id="layer1"
     transform="translate(-1.9371206e-4,-1037.3601)">
    <path
       style="fill:#000000"
       inkscape:connector-curvature="0"
       d="m 1.1455521,1037.4258 c 0.3577413,-0.096 0.7499033,-0.063 1.0785156,0.1192 0.3875493,0.1992 0.6806592,0.576 0.7834788,1.0049 0.087703,0.348 0.04413,0.7246 -0.1045812,1.0484 0.2393192,0.2281 0.5055165,0.4236 0.74522,0.6488 0.9157569,0.7836 1.828872,1.5681 2.7422395,2.3552 0.1666657,-0.1508 0.3528312,-0.2837 0.5656646,-0.3555 0.4091511,-0.1499 0.8806663,-0.1075 1.2580697,0.1128 0.1312231,0.078 0.2404008,0.173 0.3517388,0.273 0.9350177,-0.802 1.8670271,-1.6055 2.8006651,-2.4085 0.224266,-0.232 0.496886,-0.408 0.729994,-0.6301 -0.0076,-0.024 -0.0076,-0.032 -0.0076,-0.047 -0.114074,-0.2638 -0.159249,-0.5607 -0.118284,-0.8493 0.04934,-0.3577 0.223755,-0.6962 0.487745,-0.9369 0.264459,-0.2443 0.617274,-0.3877 0.974817,-0.3979 0.382188,-0.026 0.767141,0.1287 1.052472,0.389 0.295521,0.2635 0.482513,0.6468 0.509941,1.0447 0.02207,0.284 -0.03682,0.5718 -0.163914,0.8229 -0.178873,0.3611 -0.50352,0.6414 -0.880908,0.7652 -0.370401,0.1237 -0.787798,0.092 -1.137954,-0.08 -0.08198,-0.046 -0.157931,-0.088 -0.235995,-0.1385 -0.255708,0.2033 -0.485455,0.4398 -0.746271,0.6383 -0.964794,0.8308 -1.9322939,1.6605 -2.8971081,2.4932 0.077479,0.3462 0.056522,0.7171 -0.093072,1.0399 -0.1825788,0.4149 -0.5540545,0.7323 -0.9835948,0.8523 -0.00871,1.1624 -0.00785,2.3256 -0.00871,3.4885 0.00785,0.2126 -0.00871,0.4257 0.00871,0.6377 0.3097487,0.083 0.5910311,0.2738 0.7904918,0.5323 0.2316345,0.2921 0.3516345,0.6756 0.3289216,1.0538 -0.0219,0.4073 -0.2096064,0.8008 -0.5118547,1.0706 -0.27381,0.2486 -0.6394517,0.3916 -1.0065515,0.3889 -0.3678911,0.01 -0.7343441,-0.1398 -1.008739,-0.3889 -0.2257232,-0.1996 -0.3891616,-0.4731 -0.464685,-0.768 -0.097805,-0.3766 -0.049445,-0.7883 0.1333686,-1.1268 0.2005638,-0.3866 0.570287,-0.6713 0.9852893,-0.7754 0.00785,-1.366 0.00785,-2.7331 -0.00785,-4.0995 -0.3163335,-0.079 -0.6092171,-0.2608 -0.8165135,-0.5195 -0.2829321,-0.3433 -0.4069354,-0.8162 -0.3282375,-1.2544 0.00785,-0.08 0.067583,-0.1579 0.00785,-0.208 -0.7023736,-0.6016 -1.4045207,-1.2063 -2.1066504,-1.8119 -0.3468223,-0.3106 -0.708705,-0.6053 -1.0623037,-0.9134 -0.1227472,-0.1122 -0.2533948,-0.2164 -0.3816446,-0.3227 -0.2523572,0.1769 -0.5540315,0.2851 -0.8618533,0.2863 -0.4330021,0.023 -0.86537669,-0.1806 -1.15337621,-0.51 -0.25070886,-0.2824 -0.39317385704,-0.6585 -0.39198775699,-1.0365 -0.007945663,-0.374 0.13655990699,-0.7481 0.38139092699,-1.0267 0.19783394,-0.2308 0.46493817,-0.3967 0.75504824,-0.472 z"
       id="path3047-6" />
  </g>
</svg>
