<?xml version="1.0" encoding="UTF-8" standalone="no"?>
<!-- Created with Inkscape (http://www.inkscape.org/) -->
<svg
   xmlns:dc="http://purl.org/dc/elements/1.1/"
   xmlns:cc="http://web.resource.org/cc/"
   xmlns:rdf="http://www.w3.org/1999/02/22-rdf-syntax-ns#"
   xmlns:svg="http://www.w3.org/2000/svg"
   xmlns="http://www.w3.org/2000/svg"
   xmlns:xlink="http://www.w3.org/1999/xlink"
   xmlns:sodipodi="http://sodipodi.sourceforge.net/DTD/sodipodi-0.dtd"
   xmlns:inkscape="http://www.inkscape.org/namespaces/inkscape"
   id="svg1"
   sodipodi:version="0.32"
   inkscape:version="0.45.1"
   width="125.25612"
   height="140.88696"
   sodipodi:docbase="/home/sept/svg"
   sodipodi:docname="doc.svg"
   inkscape:output_extension="org.inkscape.output.svg.inkscape"
   version="1.0">
  <metadata
     id="metadata15">
    <rdf:RDF>
      <cc:Work
         rdf:about="">
        <dc:format>image/svg+xml</dc:format>
        <dc:type
           rdf:resource="http://purl.org/dc/dcmitype/StillImage" />
      </cc:Work>
    </rdf:RDF>
  </metadata>
  <defs
     id="defs3">
    <linearGradient
       id="linearGradient3587">
      <stop
         id="stop3589"
         offset="0.0000000"
         style="stop-color:#efe0cd;stop-opacity:0.56097561;" />
      <stop
         id="stop3591"
         offset="1.0000000"
         style="stop-color:#cececd;stop-opacity:0.21951219;" />
    </linearGradient>
    <linearGradient
       id="linearGradient2832">
      <stop
         style="stop-color:#ffffff;stop-opacity:1.0000000;"
         offset="0.0000000"
         id="stop2834" />
      <stop
         style="stop-color:#ffffff;stop-opacity:0.0000000;"
         offset="1.0000000"
         id="stop2836" />
    </linearGradient>
    <linearGradient
       id="linearGradient839">
      <stop
         style="stop-color:#46a046;stop-opacity:1.0000000;"
         offset="0.0000000"
         id="stop840" />
      <stop
         style="stop-color:#df421e;stop-opacity:1.0000000;"
         offset="0.39364964"
         id="stop841" />
      <stop
         style="stop-color:#ada7c8;stop-opacity:1.0000000;"
         offset="0.72036445"
         id="stop842" />
      <stop
         style="stop-color:#eed680;stop-opacity:1.0000000;"
         offset="1.0000000"
         id="stop843" />
    </linearGradient>
    <linearGradient
       xlink:href="#linearGradient839"
       id="linearGradient836"
       x1="1.3267924e-17"
       y1="0.5"
       x2="1"
       y2="0.5" />
    <linearGradient
       inkscape:collect="always"
       xlink:href="#linearGradient2832"
       id="linearGradient2830"
       gradientTransform="matrix(0.939922,0,0,0.896911,-12.081733,-3.3524237)"
       x1="23.983805"
       y1="16.369013"
       x2="72.999245"
       y2="73.39872"
       gradientUnits="userSpaceOnUse" />
    <linearGradient
       gradientUnits="userSpaceOnUse"
       gradientTransform="scale(1.0801,0.92584)"
       spreadMethod="reflect"
       y2="55.07378"
       x2="76.569054"
       y1="73.52137"
       x1="95.121384"
       id="linearGradient674"
       xlink:href="#linearGradient869" />
    <linearGradient
       y2="0.5"
       x2="1"
       y1="0.5"
       x1="1.3267924e-17"
       id="linearGradient1373"
       xlink:href="#linearGradient839" />
    <linearGradient
       id="linearGradient1363">
      <stop
         id="stop1365"
         offset="0.0000000"
         style="stop-color:#46a046;stop-opacity:1.0000000;" />
      <stop
         id="stop1367"
         offset="0.39364964"
         style="stop-color:#df421e;stop-opacity:1.0000000;" />
      <stop
         id="stop1369"
         offset="0.72036445"
         style="stop-color:#ada7c8;stop-opacity:1.0000000;" />
      <stop
         id="stop1371"
         offset="1.0000000"
         style="stop-color:#eed680;stop-opacity:1.0000000;" />
    </linearGradient>
    <linearGradient
       gradientUnits="userSpaceOnUse"
       gradientTransform="scale(0.999352,1.000649)"
       spreadMethod="reflect"
       y2="75.142357"
       x2="47.145329"
       y1="81.199532"
       x1="52.724243"
       id="linearGradient904"
       xlink:href="#linearGradient907" />
    <linearGradient
       id="linearGradient866">
      <stop
         id="stop867"
         offset="0.0000000"
         style="stop-color:#ffff00;stop-opacity:1.0000000;" />
      <stop
         id="stop901"
         offset="0.36908397"
         style="stop-color:#ffea00;stop-opacity:1.0000000;" />
      <stop
         id="stop868"
         offset="1.0000000"
         style="stop-color:#ffd600;stop-opacity:1.0000000;" />
    </linearGradient>
    <linearGradient
       id="linearGradient869">
      <stop
         id="stop870"
         offset="0.0000000"
         style="stop-color:#990000;stop-opacity:1.0000000;" />
      <stop
         id="stop871"
         offset="1.0000000"
         style="stop-color:#ffffff;stop-opacity:1.0000000;" />
    </linearGradient>
    <linearGradient
       id="linearGradient907">
      <stop
         id="stop908"
         offset="0.0000000"
         style="stop-color:#eed680;stop-opacity:1.0000000;" />
      <stop
         id="stop911"
         offset="0.29427481"
         style="stop-color:#dfb546;stop-opacity:1.0000000;" />
      <stop
         id="stop910"
         offset="1.0000000"
         style="stop-color:#d1940c;stop-opacity:1.0000000;" />
    </linearGradient>
    <linearGradient
       y2="49.74445"
       x2="-66.468513"
       y1="63.61322"
       x1="-54.605907"
       spreadMethod="reflect"
       gradientTransform="scale(1.0801,0.92584)"
       gradientUnits="userSpaceOnUse"
       id="linearGradient2167"
       xlink:href="#linearGradient869"
       inkscape:collect="always" />
    <linearGradient
       y2="75.142357"
       x2="47.145329"
       y1="81.199532"
       x1="52.724243"
       spreadMethod="reflect"
       gradientTransform="matrix(0.999352,0,0,1.000649,-151.1197,-0.37325)"
       gradientUnits="userSpaceOnUse"
       id="linearGradient2169"
       xlink:href="#linearGradient907"
       inkscape:collect="always" />
  </defs>
  <sodipodi:namedview
     inkscape:guide-bbox="true"
     showguides="true"
     id="base"
     pagecolor="#ffffff"
     bordercolor="#666666"
     borderopacity="1.0"
     inkscape:pageopacity="0.0"
     inkscape:pageshadow="2"
     inkscape:zoom="2.95"
     inkscape:cx="80"
     inkscape:cy="79.237319"
     inkscape:window-width="782"
     inkscape:window-height="653"
     showgrid="true"
     snaptogrid="false"
     gridspacingx="1.0000000mm"
     gridspacingy="1.0000000mm"
     inkscape:window-x="592"
     inkscape:window-y="216"
     inkscape:current-layer="svg1" />
  <rect
     style="fill:none;fill-rule:evenodd;stroke:#000000;stroke-width:7.5;stroke-linejoin:round;stroke-miterlimit:4;stroke-dasharray:none;stroke-opacity:0.5"
     id="rect834"
     width="117.75612"
     height="133.38696"
     x="3.75"
     y="3.75"
     ry="22.892691"
     rx="22.892691" />
  <rect
     style="fill:#bab5ab;fill-opacity:1;fill-rule:evenodd;stroke:#000000;stroke-width:3.75;stroke-miterlimit:4;stroke-dasharray:none"
     id="rect828"
     width="117.75612"
     height="133.38696"
     x="3.6112251"
     y="3.6603317"
     ry="22.892691"
     rx="22.892691" />
  <path
     style="fill:#ffffff;fill-opacity:0.27935223;fill-rule:evenodd;stroke:none;stroke-width:6.25"
     d="M 100.34807,132.55498 L 24.630491,132.55498 C 12.985818,132.55498 7.2838846,126.85305 7.2838846,115.20838 C 7.2838846,115.20838 34.904216,48.692898 117.69468,38.550602 L 117.69468,115.20838 C 117.69468,126.85305 111.99274,132.55498 100.34807,132.55498 z "
     id="path2838"
     sodipodi:nodetypes="cccccc" />
  <path
     id="path2171"
     d="M 109.46006,92.813814 L 109.46006,98.173814 L 97.940064,98.173814 C 95.380064,98.173814 93.460064,99.027144 92.180064,100.73381 C 90.900064,102.44047 90.260064,104.98714 90.260064,108.37381 C 90.260064,111.78714 90.860064,114.34714 92.060064,116.05381 C 93.260064,117.76047 95.220064,118.61381 97.940064,118.61381 L 109.46006,118.61381 L 109.46006,123.93381 L 95.940064,123.93381 C 91.726734,123.93381 88.486734,122.60047 86.220064,119.93381 C 83.980064,117.24047 82.860061,113.38714 82.860061,108.37381 C 82.860061,103.30714 83.980064,99.453814 86.220064,96.813814 C 88.460064,94.147144 91.700064,92.813814 95.940064,92.813814 L 109.46006,92.813814 z M 48.06006,108.37381 C 48.06006,105.78714 48.313394,103.60047 48.82006,101.81381 C 49.353394,100.00047 50.18006,98.413814 51.30006,97.053814 C 53.833394,93.933814 58.02006,92.373814 63.86006,92.373814 C 69.54006,92.373814 73.726727,93.920474 76.42006,97.013814 C 76.873394,97.573814 77.326727,98.293814 77.78006,99.173814 C 77.833394,99.280474 77.966727,99.587144 78.18006,100.09381 C 78.393394,100.60047 78.606727,101.17381 78.82006,101.81381 C 79.38006,103.70714 79.66006,105.89381 79.66006,108.37381 C 79.66006,113.28047 78.593394,117.05381 76.46006,119.69381 C 73.846727,122.81381 69.646727,124.37381 63.86006,124.37381 C 58.02006,124.37381 53.833394,122.82714 51.30006,119.73381 C 49.14006,117.17381 48.06006,113.38714 48.06006,108.37381 z M 63.86006,97.493814 C 61.14006,97.493814 59.046727,98.147144 57.58006,99.453814 C 55.90006,101.05381 55.06006,104.02714 55.06006,108.37381 C 55.06006,111.78714 55.526727,114.29381 56.46006,115.89381 C 57.74006,118.13381 60.206727,119.25381 63.86006,119.25381 C 67.353394,119.25381 69.82006,118.13381 71.26006,115.89381 C 72.22006,114.29381 72.70006,111.78714 72.70006,108.37381 C 72.70006,104.90714 72.233394,102.40047 71.30006,100.85381 C 69.94006,98.613814 67.46006,97.493814 63.86006,97.493814 z M 15.500058,92.813814 L 32.020058,92.813814 C 36.206727,92.813814 39.393394,94.147144 41.58006,96.813814 C 43.766727,99.480474 44.86006,103.33381 44.86006,108.37381 C 44.86006,113.36047 43.766727,117.20047 41.58006,119.89381 C 39.42006,122.58714 36.233394,123.93381 32.020058,123.93381 L 15.500058,123.93381 L 15.500058,92.813814 z M 21.980058,118.61381 L 29.860058,118.61381 C 32.473394,118.61381 34.406727,117.77381 35.66006,116.09381 C 36.913394,114.38714 37.54006,111.81381 37.54006,108.37381 C 37.54006,104.93381 36.94006,102.37381 35.74006,100.69381 C 34.566727,99.013814 32.606727,98.173814 29.860058,98.173814 L 21.980058,98.173814 L 21.980058,118.61381 z "
     style="font-size:40px;fill:#ffffff;fill-opacity:1;stroke-width:1pt;font-family:Trek" />
  <path
     id="path905"
     d="M 110.13802,93.491774 L 110.13802,98.851774 L 98.618024,98.851774 C 96.058024,98.851774 94.138024,99.705104 92.858024,101.41177 C 91.578024,103.11843 90.938024,105.6651 90.938024,109.05177 C 90.938024,112.4651 91.538024,115.0251 92.738024,116.73177 C 93.938024,118.43843 95.898024,119.29177 98.618024,119.29177 L 110.13802,119.29177 L 110.13802,124.61177 L 96.618024,124.61177 C 92.404694,124.61177 89.164694,123.27843 86.898024,120.61177 C 84.658024,117.91843 83.538024,114.0651 83.538024,109.05177 C 83.538024,103.9851 84.658024,100.13177 86.898024,97.491774 C 89.138024,94.825104 92.378024,93.491774 96.618024,93.491774 L 110.13802,93.491774 z M 48.738026,109.05177 C 48.738026,106.4651 48.99136,104.27843 49.498026,102.49177 C 50.03136,100.67843 50.858026,99.091774 51.978026,97.731774 C 54.51136,94.611774 58.698026,93.051774 64.538026,93.051774 C 70.218026,93.051774 74.404693,94.598434 77.098026,97.691774 C 77.55136,98.251774 78.004693,98.971774 78.458026,99.851774 C 78.51136,99.958434 78.644693,100.2651 78.858026,100.77177 C 79.07136,101.27843 79.284693,101.85177 79.498026,102.49177 C 80.058026,104.3851 80.338026,106.57177 80.338026,109.05177 C 80.338026,113.95843 79.27136,117.73177 77.138026,120.37177 C 74.524693,123.49177 70.324693,125.05177 64.538026,125.05177 C 58.698026,125.05177 54.51136,123.5051 51.978026,120.41177 C 49.818026,117.85177 48.738026,114.0651 48.738026,109.05177 z M 64.538026,98.171774 C 61.818026,98.171774 59.724693,98.825104 58.258026,100.13177 C 56.578026,101.73177 55.738026,104.7051 55.738026,109.05177 C 55.738026,112.4651 56.204693,114.97177 57.138026,116.57177 C 58.418026,118.81177 60.884693,119.93177 64.538026,119.93177 C 68.03136,119.93177 70.498026,118.81177 71.938026,116.57177 C 72.898026,114.97177 73.378026,112.4651 73.378026,109.05177 C 73.378026,105.5851 72.91136,103.07843 71.978026,101.53177 C 70.618026,99.291774 68.138026,98.171774 64.538026,98.171774 z M 16.178024,93.491774 L 32.698024,93.491774 C 36.884693,93.491774 40.07136,94.825104 42.258026,97.491774 C 44.444693,100.15843 45.538026,104.01177 45.538026,109.05177 C 45.538026,114.03843 44.444693,117.87843 42.258026,120.57177 C 40.098026,123.2651 36.91136,124.61177 32.698024,124.61177 L 16.178024,124.61177 L 16.178024,93.491774 z M 22.658024,119.29177 L 30.538024,119.29177 C 33.15136,119.29177 35.084693,118.45177 36.338026,116.77177 C 37.59136,115.0651 38.218026,112.49177 38.218026,109.05177 C 38.218026,105.61177 37.618026,103.05177 36.418026,101.37177 C 35.244693,99.691774 33.284693,98.851774 30.538024,98.851774 L 22.658024,98.851774 L 22.658024,119.29177 z "
     style="font-size:40px;stroke-width:1pt;font-family:Trek" />
  <g
     transform="translate(130.96752,-9.8641157)"
     id="g2160">
    <path
       sodipodi:nodetypes="cccc"
       id="path873"
       d="M -81.317197,63.09778 L -76.328485,64.170081 L -78.286689,61.139573 L -81.317197,63.09778 z "
       style="fill-rule:evenodd;stroke:#000000;stroke-width:0.72004113pt" />
    <path
       style="fill:none;stroke:#000000;stroke-width:0.16759372"
       d="M -62.2462,51.016016 C -62.2462,51.016016 -60.572575,50.718565 -60.572575,50.718565 C -60.572575,50.718565 -59.202748,51.834488 -59.202748,51.834488 C -59.238682,51.169576 -59.546838,50.939043 -60.196908,50.635018 C -60.196908,50.635018 -60.129396,50.320931 -60.129396,50.320931 C -59.378062,50.153836 -59.207106,50.190583 -58.730172,49.635908 C -58.730172,49.635908 -60.574753,49.896612 -60.574753,49.896612 C -60.574753,49.896612 -61.807379,48.974475 -61.807379,48.974475 C -61.771445,49.639388 -61.600489,49.676135 -60.984176,50.1372 C -60.984176,50.1372 -62.2462,51.016016 -62.2462,51.016016 z M -61.501401,48.383055 C -61.501401,48.383055 -60.714132,48.880866 -60.714132,48.880866 C -59.211463,48.546669 -58.833617,49.285075 -58.358863,47.90845 C -58.358863,47.90845 -58.700774,47.834958 -58.700774,47.834958 C -59.211463,48.546669 -59.553375,48.473177 -60.408154,48.289445 C -60.408154,48.289445 -60.239377,47.504242 -60.239377,47.504242 C -60.239377,47.504242 -60.58129,47.430749 -60.58129,47.430749 C -60.58129,47.430749 -60.750067,48.215953 -60.750067,48.215953 C -60.750067,48.215953 -61.43389,48.068968 -61.43389,48.068968 C -61.43389,48.068968 -61.501401,48.383055 -61.501401,48.383055 z M -58.432908,45.756664 C -58.430729,46.578617 -58.464486,46.735664 -59.283332,47.216846 C -59.283332,47.216846 -58.945777,45.646425 -58.945777,45.646425 C -60.722846,45.593042 -60.480023,46.959622 -59.692753,47.457433 C -58.529818,47.871704 -57.542195,46.605308 -58.432908,45.756664 z M -60.007446,44.761034 C -60.007446,44.761034 -57.785019,45.238735 -57.785019,45.238735 C -57.785019,45.238735 -57.717507,44.924648 -57.717507,44.924648 C -58.743244,44.704171 -59.256111,44.593932 -59.395488,43.578186 C -59.395488,43.578186 -59.737401,43.504693 -59.737401,43.504693 C -59.737401,43.504693 -59.564267,44.3634 -59.564267,44.3634 C -59.564267,44.3634 -60.007446,44.761034 -60.007446,44.761034 z M -59.669891,43.190613 C -59.669891,43.190613 -57.447463,43.668315 -57.447463,43.668315 C -57.447463,43.668315 -57.379951,43.354228 -57.379951,43.354228 C -57.721864,43.280735 -59.602379,42.876526 -58.749779,42.238304 C -58.51131,41.960964 -57.485575,42.181441 -57.143663,42.254934 C -57.143663,42.254934 -57.076153,41.940854 -57.076153,41.940854 C -57.418065,41.867361 -59.127625,41.499898 -58.479735,40.98197 C -58.241267,40.70463 -57.215531,40.925107 -56.873619,40.998599 C -56.873619,40.998599 -56.772353,40.527473 -56.772353,40.527473 C -57.285221,40.417234 -58.14,40.233502 -58.686623,40.280304 C -59.096047,40.520898 -59.399848,41.934279 -59.330157,42.442145 C -59.363913,42.599192 -59.192957,42.635939 -59.226712,42.792979 C -59.226712,42.792979 -59.669891,43.190613 -59.669891,43.190613 z M -59.355198,45.887013 C -59.355198,45.887013 -59.625243,47.143353 -59.625243,47.143353 C -60.036844,46.561988 -60.140289,46.211154 -59.355198,45.887013 z "
       id="path900" />
    <path
       sodipodi:nodetypes="cccc"
       id="path879"
       d="M -90.412933,65.688043 C -75.104619,49.385236 -43.6272,17.342738 -32.01754,29.139154 C -21.74865,41.371321 -61.572464,66.781133 -78.400378,77.559753 L -90.412933,65.688043 z "
       style="fill:url(#linearGradient2167);fill-opacity:1;fill-rule:evenodd;stroke:#000000;stroke-width:3.60020566" />
    <path
       sodipodi:nodetypes="cccccccc"
       id="path868"
       d="M -80.266178,76.307212 C -80.266178,76.307212 -83.886954,83.28395 -82.131989,85.314942 C -80.303635,86.916702 -97.836559,92.218905 -100.68798,91.898047 C -100.68798,91.898055 -103.15674,97.307853 -106.74006,93.675094 C -110.32338,90.042343 -104.68149,87.418103 -104.68149,87.418103 C -104.67634,83.221775 -100.04858,67.151169 -98.256925,68.967546 C -96.465265,70.783921 -89.224475,67.225324 -89.224475,67.225324 C -89.224475,67.225324 -80.266178,76.307212 -80.266178,76.307212 z "
       style="fill:url(#linearGradient2169);fill-opacity:0.75;fill-rule:evenodd;stroke:#000000;stroke-width:2.7001543" />
    <path
       sodipodi:nodetypes="cc"
       id="path876"
       d="M -105.52241,92.488546 C -105.52241,92.488546 -90.991393,78.155268 -90.991393,78.155268"
       style="fill:none;fill-opacity:0.75;fill-rule:evenodd;stroke:#000000;stroke-width:0.72004113pt;stroke-linecap:round;stroke-linejoin:round" />
  </g>
  <path
     style="fill:url(#linearGradient2830);fill-opacity:1;fill-rule:evenodd;stroke:none;stroke-width:6.25"
     d="M 24.630491,7.3329923 L 100.34807,7.3329923 C 111.99274,7.3329923 117.69468,13.034925 117.69468,24.6796 C 117.69468,24.6796 38.408122,25.585198 7.2838846,116.02801 L 7.2838846,24.6796 C 7.2838846,14.390857 14.34175,7.3329923 24.630491,7.3329923 z "
     id="rect2063"
     sodipodi:nodetypes="cccccc" />
</svg>
