<svg xmlns:svg="http://www.w3.org/2000/svg" xmlns="http://www.w3.org/2000/svg" xmlns:xlink="http://www.w3.org/1999/xlink" height="145.1" width="143.9" id="svg1" version="1">
  <defs id="defs3">
    <linearGradient id="linearGradient850">
      <stop id="stop851" offset="0" style="stop-color:#fbffff;stop-opacity:0"/>
      <stop id="stop852" offset="1" style="stop-color:#ffffff;stop-opacity:1"/>
    </linearGradient>
    <linearGradient gradientUnits="userSpaceOnUse" gradientTransform="matrix(0.792857,0,0,1.070722,-1.4124695,-1.7392725)" y2="11.5" x2="22.4" y1="74.5" x1="78.7" id="linearGradient859" xlink:href="#linearGradient850"/>
    <linearGradient id="linearGradient839">
      <stop id="stop840" offset="0" style="stop-color:#46a046;stop-opacity:1"/>
      <stop id="stop841" offset="0.4" style="stop-color:#df421e;stop-opacity:1"/>
      <stop id="stop842" offset="0.7" style="stop-color:#ada7c8;stop-opacity:1"/>
      <stop id="stop843" offset="1" style="stop-color:#eed680;stop-opacity:1"/>
    </linearGradient>
    <linearGradient id="linearGradient833">
      <stop id="stop834" offset="0" style="stop-color:#00ff00;stop-opacity:1"/>
      <stop id="stop837" offset="0.3" style="stop-color:#ff0000;stop-opacity:1"/>
      <stop id="stop838" offset="0.8" style="stop-color:#7f8cff;stop-opacity:1"/>
      <stop id="stop835" offset="1" style="stop-color:#ffff00;stop-opacity:1"/>
    </linearGradient>
    <linearGradient gradientUnits="userSpaceOnUse" gradientTransform="matrix(0.672977,0,0,1.261455,-1.4124695,-1.7392725)" y2="16.5" x2="110.2" y1="79.3" x1="157.2" id="linearGradient836" xlink:href="#linearGradient850"/>
    <linearGradient y2="0" x2="0" y1="0.7" x1="0.6" id="linearGradient855" xlink:href="#linearGradient850"/>
    <linearGradient y2="0.3" x2="0.7" y1="0.9" x1="0.4" id="linearGradient853" xlink:href="#linearGradient850"/>
  </defs>
  <path id="path874" d="M74.4 5.8L5.8 23.1 5.9 114 5.9 114 5.9 114.1 6.2 114.1 74.2 139.3 138.1 112.9 138.1 107.7 138.1 23.1 74.4 5.8z" style="fill:none;font-family:Trek;font-size:40;stroke-linejoin:round;stroke-opacity:0.5;stroke-width:11.5;stroke:#000"/>
  <path id="path633" d="M138.1 23.2L138.1 107.7 76.4 94.1 74.3 5.8 138.1 23.2z" style="fill:#515151;font-size:12;stroke-linecap:round;stroke-linejoin:round;stroke-width:6.9;stroke:#000"/>
  <path id="path631" d="M5.7 23.2L74.3 5.8 78.7 97.1 5.8 114.1 5.7 23.2z" style="fill:#4a494d;font-size:12;stroke-linecap:round;stroke-linejoin:round;stroke-width:6.9;stroke:#000"/>
  <path id="path640" d="M74.1 44.3L138.1 23.2 74.3 5.8 5.7 23.2 74.1 44.3z" style="fill:#9db8d2;font-size:12;stroke-linecap:round;stroke-linejoin:round;stroke-width:6.9;stroke:#000"/>
  <path id="path627" d="M138.1 23.2L138.1 112.9 74.1 139.4 74.1 44.3 138.1 23.2z" style="fill:#4b6983;font-size:12;stroke-linecap:round;stroke-linejoin:round;stroke-width:6.9;stroke:#000"/>
  <path id="path629" d="M74.1 44.3L74.1 139.4 5.8 114 5.7 23.2 74.1 44.3z" style="fill:#7590ae;font-size:12;stroke-linecap:round;stroke-linejoin:round;stroke-width:6.9;stroke:#000"/>
  <path id="path892" d="M74.1 9.4L9.4 25.9 9.4 110.4C76.7 136.8 87.9 154.1 70.7 41.9 131.7 19.4 74.1 9.4 74.1 9.4z" fill="url(#linearGradient859)"/>
  <path id="path849" d="M77.7 47L77.7 133.3C78 133.3 104.8 123.2 117.2 110.5 129.9 100.1 134.2 79.1 134.2 79.1L134.2 27.5 77.7 47z" style="fill-opacity:0.8;fill:url(#linearGradient836)"/>
  <path id="path852" d="M74.1 44.3L74.1 139.4 5.8 114 5.7 23.2 74.1 44.3z" style="fill:none;font-size:12;stroke-linecap:round;stroke-linejoin:round;stroke-width:6.9;stroke:#000"/>
  <path id="selection_to_path" d="M75.2 11C75.2 11 75.1 11 75.1 11 75.1 11 75.1 11 75.1 11 75.1 11 75.2 11 75.2 11zM74 11.1C73.7 11.2 73.5 11.3 73.2 11.1 73.2 11.1 74 11.1 74 11.1zM70.1 11.6C70.4 11.5 71 11.4 71.3 11.5 70.7 11.7 70.1 12 69.7 12.4 70.7 12.1 71.3 12.2 72.4 12.4 72.4 12.4 73.4 12.5 73.4 12.5 73.1 12.5 72.7 12.7 72.5 12.9 72.5 12.9 73.2 13 73.2 13 73.2 13 76.3 12.6 76.3 12.6 76.9 12.6 77.4 12.7 77.9 12.9 77.9 12.9 77.8 12.2 77.8 12.2 77.8 12.2 79.6 12.8 79.6 12.8 80.9 13.2 82 13.5 83.3 14.1 83.3 14.1 84.8 14.8 84.8 14.8 85 14.9 85.3 15.1 85.5 15.2 85.9 15.2 86.7 14.9 87.2 14.8 87.5 14.8 88.5 15 88.7 15.2 88.9 15.4 88.8 15.6 89.3 16.1 89.8 16.5 90.5 17 91 17.3 91 17.3 91.1 17.2 91.1 17.2 91.1 17.2 90.1 16.1 90.1 16.1 91 16.4 92.5 17.5 93.2 18.1 95.8 20.2 98 22.7 99.6 25.6 100.1 26.5 100.6 27.5 100.9 28.5 101 28.8 101.3 29.4 101.3 29.7 101.1 29.3 101 29.2 100.7 28.9 100.7 29.5 100.7 29.9 100.8 30.4 100.9 30.6 100.9 30.9 100.7 31.1 100.7 31.1 101.8 34.2 101.8 34.2 101.8 34.6 102.1 35.2 101.9 35.5 101.6 34.1 100.9 32.3 100.4 31 100.2 30.5 99.6 29.2 99.2 28.9 99.2 29 99.2 29.1 99.1 29.2 98.8 29.6 98 29 97.9 29.6 97.8 29.9 98 30.8 98.2 31.1 98.3 31.5 98.5 31.7 98.8 31.3 98.8 31.3 98.9 31.3 98.9 31.3 99.5 32.2 99.3 32.2 99.5 33.2 99.5 33.2 100 35.6 100 35.6 99.4 35.2 99.5 34.5 98.9 34.5 98.9 34.5 99.4 36 99.4 36 99.7 36.6 99.8 36.7 100.1 37.3 100 37.4 99.9 37.4 99.8 37.5 99.7 37.8 99.7 38.9 99.8 39.2 99.8 39.4 100 39.8 100.2 39.9 100.3 39.9 100.6 39.9 100.7 39.8 100.7 39.8 99.8 42.5 99.8 42.5 99.8 42.5 99.7 43.7 99.7 43.7 99.7 43.7 99.7 44.3 99.7 44.3 99.7 44.3 99.1 43 99.1 43 99.1 43 99.1 44.3 99.1 44.3 98.8 44.2 98.7 44.3 98.6 44.6 98.6 44.6 98.5 46.1 98.5 46.1 98.2 47.5 97.4 48.7 96.9 50 96.5 50.8 96.6 51.3 96.5 51.6 96.5 51.6 95.9 50.6 95.9 50.6 95.5 51 94.8 52.2 94.9 52.7 94.9 52.7 94.9 53.2 94.9 53.2 94.9 53.5 94.7 53.9 94.6 54.2 94.5 53.5 94.5 53.8 94.7 53.2 93.9 53.7 93.2 54.5 92.5 55.2 91.9 55.8 91.2 56.4 90.5 56.9 88 58.7 85.1 59.8 82.2 60.1 82.2 60.1 80.9 60.2 80.9 60.2 80.9 60.2 79.7 60.2 79.7 60.2 79.7 60.2 79.1 60.2 79.1 60.2 77.6 60 76.3 59.9 74.8 59.4 74.5 59.3 73.4 59.1 73.1 58.9 73.1 58.9 72.7 58.3 72.7 58.3 72.7 58.3 71.3 57.3 71.3 57.3 69.2 55.5 67.3 53.8 66.1 51.2 65.4 49.7 65 48.2 64.9 46.6 64.9 46.6 64.9 45.9 64.9 45.9 64.9 45.9 64.9 44.6 64.9 44.6 64.9 44.6 65 42.4 65 42.4 65 42.4 65.6 41.2 65.6 41.2 66.1 40.1 66.3 39 67 38 67.5 37.1 67.7 37.2 68 36.9 68 36.9 68.5 36.1 68.5 36.1 68.7 35.6 69.2 35 69.6 34.7 71.1 33.3 73.1 32.3 75.1 32 75.8 31.9 76.5 31.9 77.2 31.9 78.7 31.9 80.1 32.5 81.4 33.1 82.3 33.6 83 34.2 83.8 34.9 84.1 35.2 84.4 35.5 84.5 35.8 83.9 35.3 83.6 35.1 82.9 34.7 81.6 33.9 79.7 33.4 78.3 33.4 77.2 33.4 76.4 33.4 75.3 33.7 71.5 34.7 68.6 37.4 67.4 41.2 67.1 42.2 66.9 43.2 66.8 44.1 66.8 44.1 66.8 44.9 66.8 44.9 66.8 44.9 66.8 45.7 66.8 45.7 66.8 45.7 67.2 45.3 67.2 45.3 67.2 50 70.3 54.6 74.4 56.7 75.7 57.4 77.6 58.1 79.1 58.1 81 58.1 81.9 58 83.6 57.2 83.6 57.2 83.7 57.4 83.7 57.4 84.5 57.2 85.4 56.9 86 56.4 86.7 55.9 87.3 55.2 88 54.8 87.7 55.1 87.4 55.3 87.2 55.8 87.9 55.7 88.6 55.1 89 54.7 89 54.7 91.3 52.7 91.3 52.7 91.8 52.3 92.6 51.7 92.7 51.1 92.8 50.8 92.7 50.7 92.7 50.4 92.7 50 92.9 49.4 93.2 49.1 93.5 48.9 94 48.8 94.1 48.5 94.1 48.5 94.6 47.4 94.6 47.4 94.9 46.6 95.2 45.8 95.3 44.9 95.3 44.6 95.4 44.2 95.3 43.9 95.3 43.9 94.8 44.9 94.8 44.9 95 43.9 95.2 43 95.2 42.1 95.2 42.1 95.3 41 95.3 41 95.3 41 95.3 40.2 95.3 40.2 95.3 40.2 95.2 39.6 95.2 39.6 95.2 39.6 95.2 37.1 95.2 37.1 95.2 36.3 95 36.7 94.9 36.1 94.9 36.1 94.9 35.2 94.9 35.2 94.7 34.4 94.6 33.7 94.4 33 93.4 29.8 91.7 27.1 89.5 24.6 87.5 22.4 85.3 20.6 82.5 19.6 80.8 19 78.7 18.6 76.9 18.5 76.9 18.5 76.3 18.4 76.3 18.4 76.3 18.4 75.7 18.4 75.7 18.4 75.7 18.4 75.1 18.3 75.1 18.3 75.1 18.3 74.8 18.3 74.8 18.3 74.8 18.3 73.7 18.4 73.7 18.4 73.7 18.4 72.1 18.6 72.1 18.6 71.8 18.6 71.5 18.8 71.2 18.7 71.3 18.4 70.9 18.5 70.7 18.5 70.7 18.5 69.2 18.8 69.2 18.8 67.3 19.2 66.8 20 65.2 20.7 65.2 20.7 63.7 21.3 63.7 21.3 63.6 21.3 63.6 21.4 63.5 21.5 63.5 21.5 65.2 21.2 65.2 21.2 64.5 22 63 21.8 62 22 60.8 22.4 59.3 23.6 58.6 24.6 59 24.5 59.3 24.3 59.6 24.1 59.6 24.4 59.3 24.7 59.2 24.9 59 24.9 58.7 24.9 58.6 24.9 58.4 24.9 58.1 25 58 25.1 57.2 25.3 56.5 25.9 55.9 26.3 54.4 27.4 52.9 28.9 51.7 30.3 50.7 31.3 49.7 32.5 49 33.7 49 33.7 49.7 33.8 49.7 33.8 49.3 34.8 48.8 35.8 48.4 36.7 47.9 37.4 47.3 38.7 47 39.5 47 39.5 46.7 42.8 46.7 42.8 46.7 42.8 46.3 47.2 46.3 47.2 46.3 47.2 46.2 47.8 46.2 47.8 46.2 47.8 46.1 49.6 46.1 49.6 46.1 49.6 46.2 50.4 46.2 50.4 46.2 51.2 46.3 52.1 46.6 52.8 46.6 52.8 47.2 54.1 47.2 54.1 47.2 54.6 47 55.7 47 56.1 47 56.1 47.8 57.7 47.8 57.7 47.8 57.7 47.4 57.7 47.4 57.7 47.6 58.6 48.2 60.4 49 60.9 49.6 61.3 50 60.9 50.6 61.6 51.3 62.2 52 63.8 52.3 64.7 51.6 64.5 51.4 64.1 50.9 63.6 51.1 64.6 51.5 65.4 52.1 66.3 52.1 66.3 52.7 67.3 52.7 67.3 52.9 67.7 52.4 67.8 52.6 68.2 52.7 68.7 53.5 69.3 53.9 69.7 53.6 69.6 53.3 69.6 53.5 70 53.5 70.2 53.8 70.7 53.9 70.9 53.9 70.9 55.6 73.2 55.6 73.2 55.8 73.6 56.3 74.2 56.5 74.6 56.5 74.6 56.8 74.1 56.8 74.1 56.8 74.1 56.9 74.6 56.9 74.6 57.2 75.4 57.7 76.1 58.2 76.8 58.5 77.2 58.6 77.6 59.2 77.6 59.3 77.6 59.7 77.6 59.8 77.7 59.9 77.7 60.1 78 60.2 78.1 60.4 78.4 60.5 78.5 60.8 78.8 61.5 79.5 61.9 79.8 62.8 80.2 62.8 80.2 62.2 81 62.2 81 62.8 81.1 63.5 81.4 63.9 81.8 63.9 81.8 64.7 82.4 64.7 82.4 64.7 82.4 66.4 83.2 66.4 83.2 66.4 83.2 65.9 82.2 65.9 82.2 66.5 82.6 67.1 83.4 67.7 83.9 68.2 84.5 69.2 85.3 70 85.6 71.2 86.1 72.7 86.4 74 86.6 74.5 86.7 76 87 76.4 87.2 76.4 87.2 75.2 87.1 75.2 87.1 75.2 87.1 74.1 87.1 74.1 87.1 74.1 87.1 73.2 87.1 73.2 87.1 68.8 87 63.8 84.9 60.2 82.4 52.1 76.9 46.1 68.3 43.7 58.8 43.1 56.6 42.8 54.5 42.7 52.3 42.7 52.3 42.6 51.6 42.6 51.6 42.6 51.6 42.6 50.6 42.6 50.6 42.6 50.6 42.5 49.8 42.5 49.8 42.5 49.8 42.6 47.5 42.6 47.5 42.6 47.5 42.5 46.7 42.5 46.7 42.5 46.7 42.5 45.8 42.5 45.8 42.5 45.8 42.6 44.9 42.6 44.9 42.6 44.9 42.6 43.5 42.6 43.5 42.6 43.5 42.7 42.5 42.7 42.5 42.7 42.5 42.7 41 42.7 41 42.7 41 42.4 39.3 42.4 39.3 42.4 39.1 42.6 38.7 42.7 38.5 42.7 38.5 43.3 36.4 43.3 36.4 43.9 34.6 45.1 31.3 46 29.6 46.5 29.7 46.8 29.4 47 29 47.4 28.5 48 27 48.2 26.3 48.4 26 48.8 25 49 24.8 49.1 24.6 49.3 24.7 49.4 24.5 49.4 24.5 49.7 23.9 49.7 23.9 49.9 23.6 50 23.3 50.2 23 51.2 21.7 52.8 20.3 54 19.2 54 19.2 54.8 18.5 54.8 18.5 55.1 18.1 55.6 17.6 56 17.3 56 17.3 56 17.9 56 17.9 58.6 15.7 60.8 14.7 63.8 13.3 63.8 13.3 66.1 12.3 66.1 12.3 66.1 12.3 67.6 11.7 67.6 11.7 67.6 11.7 67.6 12 67.6 12 68.5 12 69.3 11.7 70.1 11.6zM75.1 12C74.8 12.3 74.5 12.1 74.2 12 74.2 12 73.7 11.9 73.7 11.9 73.7 11.9 75.1 12 75.1 12zM44.6 27.4C44.8 28 44.2 28.8 43.6 29 43.9 28.3 44 28.2 44 27.4 44 27.4 44.6 27.4 44.6 27.4zM42.4 33.9C42.4 33.9 42 35.5 42 35.5 42 35.5 41.9 34.4 41.9 34.4 42 33.9 42.2 33.5 42.5 33.1 42.5 33.1 42.4 33.9 42.4 33.9zM86.7 42.7C86.7 42.6 86.6 42.4 86.6 42.3 86.5 42 86.8 41.6 87 41.4 87.2 41.9 87.2 42.8 87 43.3 86.8 43.1 86.8 43 86.7 42.7zM99.1 46C99.1 46 99.1 45.6 99.1 45.6 99.1 45.6 99.1 46 99.1 46zM100.4 46.4C100.3 46.9 100.1 48 99.9 48.3 99.9 48.3 100.4 45.6 100.4 45.6 100.5 45.8 100.4 46.1 100.4 46.4zM86 46.7C86 46.7 86 46.7 86 46.7 86 46.7 86 46.7 86 46.7 86 46.7 86 46.7 86 46.7zM84.7 47.5C84.4 48 84.2 48.3 84 48.9 84.3 48.9 84.4 48.9 84.7 48.8 85.4 48.3 85.4 47.8 85.9 47.2 85.7 47.9 85.2 48.8 84.8 49.4 84.8 49.4 84.7 49.4 84.7 49.4 84.4 49 84.1 49.1 84 48.9 83.9 48.6 84 48.4 84.1 48.2 84.2 47.8 84.7 47.2 85 46.9 85 47.1 84.8 47.4 84.7 47.5zM86 46.9C86 46.9 85.9 46.9 85.9 46.9 85.9 46.9 85.9 46.9 85.9 46.9 85.9 46.9 86 46.9 86 46.9zM98.9 46.9C98.9 46.9 98.8 47 98.8 47 98.8 47 98.8 46.9 98.8 46.9 98.8 46.9 98.9 46.9 98.9 46.9zM99.4 50.2C99.4 50.2 99.3 50.2 99.3 50.2 99.3 50.2 99.3 50.2 99.3 50.2 99.3 50.2 99.4 50.2 99.4 50.2zM99.3 50.3C99.3 50.3 99.2 50.4 99.2 50.4 99.2 50.4 99.2 50.3 99.2 50.3 99.2 50.3 99.3 50.3 99.3 50.3zM99.2 50.7C99.2 50.7 99.1 50.7 99.1 50.7 99.1 50.7 99.1 50.7 99.1 50.7 99.1 50.7 99.2 50.7 99.2 50.7zM99.1 51C99.1 51 99 51 99 51 99 51 99 51 99 51 99 51 99.1 51 99.1 51zM78.7 51.3C78.7 51.3 79.3 51.3 79.3 51.3 79.3 51.3 80.3 51.2 80.3 51.2 80.6 51.1 80.8 51.1 81 51.1 80.7 51.4 80.2 51.9 79.9 52 79.7 52.1 79.4 52 79.2 51.9 78.7 51.9 78.1 51.7 77.6 51.4 77.6 51.4 77.6 51.3 77.6 51.3 78.1 51.1 78.2 51.2 78.7 51.3zM65.5 51.4C65.5 51.4 65.5 51.5 65.5 51.5 65.5 51.5 65.5 51.4 65.5 51.4 65.5 51.4 65.5 51.4 65.5 51.4zM65.9 52.2C66.2 52.6 66.7 53.3 66.6 53.8 66.3 53.2 65.6 52.2 65.5 51.6 65.5 51.6 65.9 52.2 65.9 52.2zM65 54.1C65.4 54.7 66.5 56.4 66.7 56.9 66 56.4 65.3 55.5 64.9 54.7 64.7 54.6 64.3 54 64.3 53.8 64.3 53.6 64.4 53.2 64.4 53 64.6 53.2 64.9 53.8 65 54.1zM67.7 56C68.6 57 69.3 57.8 70.5 58.5 70.5 58.5 69.7 57.7 69.7 57.7 69.3 57.3 68.6 56.4 68.3 56 68.7 56.3 69 56.6 69.4 56.9 70.1 57.6 70.9 58.3 71.8 58.8 72.2 58.9 72.5 59.2 72.9 59.3 72.9 59.3 72.9 59 72.9 59 73.2 59.2 73.3 59.3 73.5 59.6 73.9 59.9 74.5 60.3 74.9 60.6 75.7 61 77.3 61.3 78.2 61.4 78.2 61.4 80.9 61.6 80.9 61.6 81.2 61.6 82 61.5 82.3 61.6 80.6 62.2 78.8 62.1 77.2 61.8 74.4 61.2 71.8 59.9 69.5 58.2 68.3 57.3 66.7 55.7 66.1 54.3 66.6 54.6 67.3 55.5 67.7 56z" fill="#de0551"/>
  <rect rx="7.4" y="66.1" x="21.6" ry="7.4" height="43.3" width="102.1" id="rect853" style="fill:#fff;stroke-width:3.5;stroke:#000"/>
  <path id="path889" d="M87.7 102.6L87.7 73.9 105.5 73.9C107.9 73.9 109.8 74.5 111.4 75.7 113.3 77 114.2 78.8 114.2 81 114.2 82.6 113.8 84.1 113 85.4 112.7 86 112.2 86.5 111.7 87 111.2 87.4 110.5 87.8 109.6 88.2 111.1 88.8 112.3 89.7 113.2 90.9 114.1 92.1 114.5 93.5 114.5 95 114.5 97.8 113.6 99.7 111.7 101 110.2 102 108.2 102.6 105.5 102.6L87.7 102.6zM103.6 85.9C104.9 85.9 106 85.6 106.7 84.9 107.4 84.3 107.8 83.4 107.8 82.3 107.8 79.8 106.4 78.6 103.6 78.6L93.9 78.6 93.9 85.9 103.6 85.9zM103.6 97.9C104.9 97.9 106 97.5 106.7 96.9 107.4 96.3 107.8 95.4 107.8 94.2 107.8 91.8 106.4 90.6 103.6 90.6L93.9 90.6 93.9 97.9 103.6 97.9zM84.8 90.6L68 90.6 68 90.8 68.4 93C68.8 94.2 69.4 95.3 70.3 96.2 70.5 96.3 70.7 96.5 70.8 96.6 71.1 96.8 71.6 97 72.2 97.3L73.3 97.6 74.9 97.7 84.8 97.7 84.8 102.6 73.2 102.6C69.3 102.6 66.3 101.3 64.2 98.9 62.2 96.4 61.1 92.9 61.1 88.2 61.1 83.6 62.2 80 64.2 77.6 66.3 75.1 69.3 73.9 73.2 73.9L84.8 73.9 84.8 78.8 74.9 78.8 74.2 78.8 73.5 78.9C73 78.9 72.5 79 72 79.3 71.5 79.5 70.9 79.9 70.3 80.3 69.7 80.9 69.2 81.7 68.7 82.6 68.5 83.3 68.2 84.3 68 85.7L68 85.9 84.8 85.9 84.8 90.6zM31.1 73.9L46.4 73.9C50.2 73.9 53.2 75.1 55.2 77.6 57.2 80 58.2 83.6 58.2 88.2 58.2 92.8 57.2 96.4 55.2 98.9 53.2 101.3 50.2 102.6 46.4 102.6L31.1 102.6 31.1 73.9zM37.1 97.7L44.4 97.7C46.8 97.7 48.6 96.9 49.7 95.4 50.9 93.8 51.4 91.4 51.4 88.2 51.4 85.1 50.9 82.7 49.8 81.2 48.7 79.6 46.9 78.8 44.4 78.8L37.1 78.8 37.1 97.7z" style="font-family:Trek;font-size:40;stroke-width:1"/>
  <metadata id="metadata33"/>
</svg>
