<?xml version="1.0" encoding="UTF-8" standalone="no"?>
<!-- Created with Inkscape (http://www.inkscape.org/) -->
<svg
   xmlns:dc="http://purl.org/dc/elements/1.1/"
   xmlns:cc="http://web.resource.org/cc/"
   xmlns:rdf="http://www.w3.org/1999/02/22-rdf-syntax-ns#"
   xmlns:svg="http://www.w3.org/2000/svg"
   xmlns="http://www.w3.org/2000/svg"
   xmlns:xlink="http://www.w3.org/1999/xlink"
   xmlns:sodipodi="http://sodipodi.sourceforge.net/DTD/sodipodi-0.dtd"
   xmlns:inkscape="http://www.inkscape.org/namespaces/inkscape"
   id="svg1"
   sodipodi:version="0.32"
   inkscape:version="0.45.1"
   width="125.25612"
   height="140.88696"
   sodipodi:docbase="/home/sept/svg"
   sodipodi:docname="perl.svg"
   inkscape:output_extension="org.inkscape.output.svg.inkscape"
   version="1.0">
  <metadata
     id="metadata15">
    <rdf:RDF>
      <cc:Work
         rdf:about="">
        <dc:format>image/svg+xml</dc:format>
        <dc:type
           rdf:resource="http://purl.org/dc/dcmitype/StillImage" />
      </cc:Work>
    </rdf:RDF>
  </metadata>
  <defs
     id="defs3">
    <linearGradient
       id="linearGradient3587">
      <stop
         id="stop3589"
         offset="0.0000000"
         style="stop-color:#efe0cd;stop-opacity:0.56097561;" />
      <stop
         id="stop3591"
         offset="1.0000000"
         style="stop-color:#cececd;stop-opacity:0.21951219;" />
    </linearGradient>
    <linearGradient
       id="linearGradient2832">
      <stop
         style="stop-color:#ffffff;stop-opacity:1.0000000;"
         offset="0.0000000"
         id="stop2834" />
      <stop
         style="stop-color:#ffffff;stop-opacity:0.0000000;"
         offset="1.0000000"
         id="stop2836" />
    </linearGradient>
    <linearGradient
       id="linearGradient839">
      <stop
         style="stop-color:#46a046;stop-opacity:1.0000000;"
         offset="0.0000000"
         id="stop840" />
      <stop
         style="stop-color:#df421e;stop-opacity:1.0000000;"
         offset="0.39364964"
         id="stop841" />
      <stop
         style="stop-color:#ada7c8;stop-opacity:1.0000000;"
         offset="0.72036445"
         id="stop842" />
      <stop
         style="stop-color:#eed680;stop-opacity:1.0000000;"
         offset="1.0000000"
         id="stop843" />
    </linearGradient>
    <linearGradient
       xlink:href="#linearGradient839"
       id="linearGradient836"
       x1="1.3267924e-17"
       y1="0.5"
       x2="1"
       y2="0.5" />
    <linearGradient
       inkscape:collect="always"
       xlink:href="#linearGradient2832"
       id="linearGradient2830"
       gradientTransform="matrix(0.939922,0,0,0.896911,-12.081733,-3.3524237)"
       x1="23.983805"
       y1="16.369013"
       x2="72.999245"
       y2="73.39872"
       gradientUnits="userSpaceOnUse" />
    <linearGradient
       y2="93.732185"
       x2="107.31592"
       y1="124.28045"
       x1="111.32588"
       gradientTransform="matrix(0.777129,0,0,0.894628,-162.4688,12.76856)"
       gradientUnits="userSpaceOnUse"
       id="linearGradient1407"
       xlink:href="#linearGradient1700"
       inkscape:collect="always" />
    <linearGradient
       y2="93.732185"
       x2="107.31592"
       y1="124.28045"
       x1="111.32588"
       gradientTransform="matrix(0.777129,0,0,0.894628,-2.922179,10.43077)"
       gradientUnits="userSpaceOnUse"
       id="linearGradient1390"
       xlink:href="#linearGradient1700"
       inkscape:collect="always" />
    <linearGradient
       id="linearGradient1350">
      <stop
         style="stop-color:#46a046;stop-opacity:1.0000000;"
         offset="0.0000000"
         id="stop1352" />
      <stop
         style="stop-color:#df421e;stop-opacity:1.0000000;"
         offset="0.39364964"
         id="stop1354" />
      <stop
         style="stop-color:#ada7c8;stop-opacity:1.0000000;"
         offset="0.72036445"
         id="stop1356" />
      <stop
         style="stop-color:#eed680;stop-opacity:1.0000000;"
         offset="1.0000000"
         id="stop1358" />
    </linearGradient>
    <linearGradient
       xlink:href="#linearGradient839"
       id="linearGradient1360"
       x1="1.3267924e-17"
       y1="0.5"
       x2="1"
       y2="0.5" />
    <linearGradient
       inkscape:collect="always"
       xlink:href="#linearGradient1700"
       id="linearGradient1362"
       gradientTransform="matrix(0.870364,0,0,1.001961,4.612015,4.886798)"
       x1="123.50353"
       y1="121.73159"
       x2="128.66997"
       y2="87.980263"
       gradientUnits="userSpaceOnUse" />
    <linearGradient
       xlink:href="#linearGradient839"
       id="linearGradient1363"
       x1="1.3267924e-17"
       y1="0.5"
       x2="1"
       y2="0.5" />
    <linearGradient
       id="linearGradient1353">
      <stop
         style="stop-color:#46a046;stop-opacity:1.0000000;"
         offset="0.0000000"
         id="stop1355" />
      <stop
         style="stop-color:#df421e;stop-opacity:1.0000000;"
         offset="0.39364964"
         id="stop1357" />
      <stop
         style="stop-color:#ada7c8;stop-opacity:1.0000000;"
         offset="0.72036445"
         id="stop1359" />
      <stop
         style="stop-color:#eed680;stop-opacity:1.0000000;"
         offset="1.0000000"
         id="stop1361" />
    </linearGradient>
    <linearGradient
       id="linearGradient1700">
      <stop
         style="stop-color:#000000;stop-opacity:0.69918698;"
         offset="0.0000000"
         id="stop1701" />
      <stop
         style="stop-color:#000000;stop-opacity:0;"
         offset="1"
         id="stop1702" />
    </linearGradient>
    <linearGradient
       y2="0.5"
       x2="1"
       y1="0.5"
       x1="1.3267924e-17"
       id="linearGradient1427"
       xlink:href="#linearGradient839" />
    <linearGradient
       id="linearGradient1417">
      <stop
         id="stop1419"
         offset="0.0000000"
         style="stop-color:#46a046;stop-opacity:1.0000000;" />
      <stop
         id="stop1421"
         offset="0.39364964"
         style="stop-color:#df421e;stop-opacity:1.0000000;" />
      <stop
         id="stop1423"
         offset="0.72036445"
         style="stop-color:#ada7c8;stop-opacity:1.0000000;" />
      <stop
         id="stop1425"
         offset="1.0000000"
         style="stop-color:#eed680;stop-opacity:1.0000000;" />
    </linearGradient>
    <linearGradient
       xlink:href="#linearGradient839"
       id="linearGradient1381"
       x1="1.3267924e-17"
       y1="0.5"
       x2="1"
       y2="0.5" />
    <linearGradient
       id="linearGradient1371">
      <stop
         style="stop-color:#46a046;stop-opacity:1.0000000;"
         offset="0.0000000"
         id="stop1373" />
      <stop
         style="stop-color:#df421e;stop-opacity:1.0000000;"
         offset="0.39364964"
         id="stop1375" />
      <stop
         style="stop-color:#ada7c8;stop-opacity:1.0000000;"
         offset="0.72036445"
         id="stop1377" />
      <stop
         style="stop-color:#eed680;stop-opacity:1.0000000;"
         offset="1.0000000"
         id="stop1379" />
    </linearGradient>
    <linearGradient
       y2="0.5"
       x2="1"
       y1="0.5"
       x1="1.3267924e-17"
       id="linearGradient1374"
       xlink:href="#linearGradient839" />
    <linearGradient
       id="linearGradient1364">
      <stop
         id="stop1366"
         offset="0.0000000"
         style="stop-color:#46a046;stop-opacity:1.0000000;" />
      <stop
         id="stop1368"
         offset="0.39364964"
         style="stop-color:#df421e;stop-opacity:1.0000000;" />
      <stop
         id="stop1370"
         offset="0.72036445"
         style="stop-color:#ada7c8;stop-opacity:1.0000000;" />
      <stop
         id="stop1372"
         offset="1.0000000"
         style="stop-color:#eed680;stop-opacity:1.0000000;" />
    </linearGradient>
    <linearGradient
       gradientUnits="userSpaceOnUse"
       y2="85.785439"
       x2="78.810638"
       y1="46.285152"
       x1="41.381039"
       gradientTransform="scale(0.998875,1.001127)"
       id="linearGradient2840"
       xlink:href="#linearGradient2832"
       inkscape:collect="always" />
    <linearGradient
       gradientUnits="userSpaceOnUse"
       y2="86.589195"
       x2="79.162498"
       y1="51.416485"
       x1="44.246502"
       gradientTransform="scale(0.998853,1.001148)"
       id="linearGradient2857"
       xlink:href="#linearGradient2851"
       inkscape:collect="always" />
    <linearGradient
       spreadMethod="reflect"
       y2="0.58706468"
       x2="0.55882353"
       y1="0.46766168"
       x1="0.44607842"
       id="linearGradient1391"
       xlink:href="#linearGradient870" />
    <linearGradient
       id="linearGradient832">
      <stop
         id="stop833"
         offset="0.0000000"
         style="stop-color:#ffffff;stop-opacity:1.0000000;" />
      <stop
         id="stop835"
         offset="0.50000000"
         style="stop-color:#00b8df;stop-opacity:1.0000000;" />
      <stop
         id="stop834"
         offset="1.0000000"
         style="stop-color:#0058a9;stop-opacity:1.0000000;" />
    </linearGradient>
    <linearGradient
       id="linearGradient870">
      <stop
         id="stop871"
         offset="0.0000000"
         style="stop-color:#ffffff;stop-opacity:1.0000000;" />
      <stop
         id="stop875"
         offset="0.50000000"
         style="stop-color:#ff7f7f;stop-opacity:1.0000000;" />
      <stop
         id="stop873"
         offset="1.0000000"
         style="stop-color:#ff0000;stop-opacity:1.0000000;" />
    </linearGradient>
    <linearGradient
       id="linearGradient2851">
      <stop
         id="stop2853"
         offset="0.0000000"
         style="stop-color:#ffffff;stop-opacity:1.0000000;" />
      <stop
         id="stop2855"
         offset="1.0000000"
         style="stop-color:#ffffff;stop-opacity:0.0000000;" />
    </linearGradient>
    <linearGradient
       id="linearGradient1375">
      <stop
         id="stop2832"
         offset="0.0000000"
         style="stop-color:#ffffff;stop-opacity:1.0000000;" />
      <stop
         id="stop1378"
         offset="1.0000000"
         style="stop-color:#ffffff;stop-opacity:0.0000000;" />
    </linearGradient>
    <linearGradient
       spreadMethod="reflect"
       y2="0.47328246"
       x2="0.37377051"
       y1="0.78625953"
       x1="0.6885246"
       id="linearGradient674"
       xlink:href="#linearGradient869" />
    <linearGradient
       y2="0.5"
       x2="1"
       y1="0.5"
       x1="1.3267924e-17"
       id="linearGradient1432"
       xlink:href="#linearGradient839" />
    <linearGradient
       id="linearGradient1422">
      <stop
         id="stop1424"
         offset="0.0000000"
         style="stop-color:#46a046;stop-opacity:1.0000000;" />
      <stop
         id="stop1426"
         offset="0.39364964"
         style="stop-color:#df421e;stop-opacity:1.0000000;" />
      <stop
         id="stop1428"
         offset="0.72036445"
         style="stop-color:#ada7c8;stop-opacity:1.0000000;" />
      <stop
         id="stop1430"
         offset="1.0000000"
         style="stop-color:#eed680;stop-opacity:1.0000000;" />
    </linearGradient>
    <linearGradient
       spreadMethod="reflect"
       y2="0.29411766"
       x2="0.17377049"
       y1="0.49346405"
       x1="0.35737705"
       id="linearGradient904"
       xlink:href="#linearGradient907" />
    <linearGradient
       id="linearGradient866">
      <stop
         id="stop867"
         offset="0.0000000"
         style="stop-color:#ffff00;stop-opacity:1.0000000;" />
      <stop
         id="stop901"
         offset="0.36908397"
         style="stop-color:#ffea00;stop-opacity:1.0000000;" />
      <stop
         id="stop868"
         offset="1.0000000"
         style="stop-color:#ffd600;stop-opacity:1.0000000;" />
    </linearGradient>
    <linearGradient
       id="linearGradient869">
      <stop
         id="stop870"
         offset="0.0000000"
         style="stop-color:#7590ae;stop-opacity:1.0000000;" />
      <stop
         id="stop912"
         offset="0.87030536"
         style="stop-color:#89a4c0;stop-opacity:1.0000000;" />
      <stop
         id="stop1415"
         offset="1.0000000"
         style="stop-color:#9db8d2;stop-opacity:1.0000000;" />
    </linearGradient>
    <linearGradient
       id="linearGradient907">
      <stop
         id="stop908"
         offset="0.0000000"
         style="stop-color:#eed680;stop-opacity:1.0000000;" />
      <stop
         id="stop911"
         offset="0.29427481"
         style="stop-color:#dfb546;stop-opacity:1.0000000;" />
      <stop
         id="stop910"
         offset="1.0000000"
         style="stop-color:#d1940c;stop-opacity:1.0000000;" />
    </linearGradient>
    <linearGradient
       xlink:href="#linearGradient869"
       id="linearGradient1471"
       x1="0.6885246"
       y1="0.78625953"
       x2="0.37377051"
       y2="0.47328246"
       spreadMethod="reflect" />
    <linearGradient
       xlink:href="#linearGradient839"
       id="linearGradient1469"
       x1="1.3267924e-17"
       y1="0.5"
       x2="1"
       y2="0.5" />
    <linearGradient
       id="linearGradient1459">
      <stop
         style="stop-color:#46a046;stop-opacity:1.0000000;"
         offset="0.0000000"
         id="stop1461" />
      <stop
         style="stop-color:#df421e;stop-opacity:1.0000000;"
         offset="0.39364964"
         id="stop1463" />
      <stop
         style="stop-color:#ada7c8;stop-opacity:1.0000000;"
         offset="0.72036445"
         id="stop1465" />
      <stop
         style="stop-color:#eed680;stop-opacity:1.0000000;"
         offset="1.0000000"
         id="stop1467" />
    </linearGradient>
    <linearGradient
       xlink:href="#linearGradient907"
       id="linearGradient1457"
       x1="0.35737705"
       y1="0.49346405"
       x2="0.17377049"
       y2="0.29411766"
       spreadMethod="reflect" />
    <linearGradient
       id="linearGradient1449">
      <stop
         style="stop-color:#ffff00;stop-opacity:1.0000000;"
         offset="0.0000000"
         id="stop1451" />
      <stop
         style="stop-color:#ffea00;stop-opacity:1.0000000;"
         offset="0.36908397"
         id="stop1453" />
      <stop
         style="stop-color:#ffd600;stop-opacity:1.0000000;"
         offset="1.0000000"
         id="stop1455" />
    </linearGradient>
    <linearGradient
       id="linearGradient1441">
      <stop
         style="stop-color:#7590ae;stop-opacity:1.0000000;"
         offset="0.0000000"
         id="stop1443" />
      <stop
         style="stop-color:#89a4c0;stop-opacity:1.0000000;"
         offset="0.87030536"
         id="stop1445" />
      <stop
         style="stop-color:#9db8d2;stop-opacity:1.0000000;"
         offset="1.0000000"
         id="stop1447" />
    </linearGradient>
    <linearGradient
       id="linearGradient1433">
      <stop
         style="stop-color:#eed680;stop-opacity:1.0000000;"
         offset="0.0000000"
         id="stop1435" />
      <stop
         style="stop-color:#dfb546;stop-opacity:1.0000000;"
         offset="0.29427481"
         id="stop1437" />
      <stop
         style="stop-color:#d1940c;stop-opacity:1.0000000;"
         offset="1.0000000"
         id="stop1439" />
    </linearGradient>
    <linearGradient
       inkscape:collect="always"
       xlink:href="#linearGradient2832"
       id="linearGradient1496"
       gradientUnits="userSpaceOnUse"
       gradientTransform="scale(0.998875,1.001127)"
       x1="41.381039"
       y1="46.285152"
       x2="78.810638"
       y2="85.785439" />
  </defs>
  <sodipodi:namedview
     id="base"
     pagecolor="#ffffff"
     bordercolor="#666666"
     borderopacity="1.0"
     inkscape:pageopacity="0.0"
     inkscape:pageshadow="2"
     inkscape:zoom="2.95"
     inkscape:cx="53.559322"
     inkscape:cy="81.241683"
     inkscape:window-width="756"
     inkscape:window-height="653"
     showgrid="true"
     snaptogrid="false"
     gridspacingx="1.0000000mm"
     gridspacingy="1.0000000mm"
     inkscape:window-x="616"
     inkscape:window-y="216"
     inkscape:current-layer="svg1" />
  <rect
     style="fill:none;fill-rule:evenodd;stroke:#000000;stroke-width:7.5;stroke-linejoin:round;stroke-miterlimit:4;stroke-dasharray:none;stroke-opacity:0.5"
     id="rect834"
     width="117.75612"
     height="133.38696"
     x="3.75"
     y="3.75"
     ry="22.892691"
     rx="22.892691" />
  <rect
     style="fill:#bab5ab;fill-opacity:1;fill-rule:evenodd;stroke:#000000;stroke-width:3.75;stroke-miterlimit:4;stroke-dasharray:none"
     id="rect828"
     width="117.75612"
     height="133.38696"
     x="3.6112251"
     y="3.6603317"
     ry="22.892691"
     rx="22.892691" />
  <path
     style="fill:#ffffff;fill-opacity:0.27935223;fill-rule:evenodd;stroke:none;stroke-width:6.25"
     d="M 100.34807,132.55498 L 24.630491,132.55498 C 12.985818,132.55498 7.2838846,126.85305 7.2838846,115.20838 C 7.2838846,115.20838 34.904216,48.692898 117.69468,38.550602 L 117.69468,115.20838 C 117.69468,126.85305 111.99274,132.55498 100.34807,132.55498 z "
     id="path2838"
     sodipodi:nodetypes="cccccc" />
  <g
     id="g1395"
     transform="matrix(0.507928,0,0,0.507928,8.8675636,5.4427143)">
    <path
       id="path1306"
       d="M 94.0625,9.9375 L 83.3125,25.53125 L 80.5625,19.875 L 76.90625,27.125 L 64.8125,10.375 L 59.0625,29.59375 L 41.25,20.34375 L 44.625,39.5625 L 38.15625,37.34375 L 40.5625,44.53125 L 20.75,41.25 L 30.375,59.3125 L 10.8125,65.59375 L 26.75,76.65625 L 20.75,79.6875 L 27.625,83.03125 L 11.25,94.875 L 30.4375,100.59375 L 21.1875,118.46875 L 40.875,115 L 38.5625,121.90625 L 44.53125,119.8125 L 41.25,138.53125 L 59.96875,128.84375 L 66.4375,148.875 L 77.5,132.90625 L 80.5625,138.96875 L 83.5625,132.78125 L 94.8125,148.75 L 100.8125,129.5625 L 118.46875,138.96875 L 115.125,118.59375 L 122.78125,121.09375 L 120.4375,114.40625 L 139.8125,117.625 L 130.46875,100.0625 L 149.4375,94.15625 L 133.03125,82.53125 L 139.8125,79.15625 L 132.96875,75.8125 L 149.3125,64 L 130.09375,58.21875 L 139.375,40.375 L 119.65625,43.875 L 121.9375,36.9375 L 115.25,39.25 L 118.46875,19.875 L 100.375,29.53125 L 94.0625,9.9375 z M 79.25,50.21875 C 96.090675,50.218749 109.75,63.878072 109.75,80.71875 C 109.75,97.559425 96.090678,111.21875 79.25,111.21875 C 62.409319,111.21875 48.75,97.559428 48.75,80.71875 C 48.749999,63.878069 62.409322,50.21875 79.25,50.21875 z "
       style="fill:#b39169;fill-opacity:1;fill-rule:evenodd;stroke:#000000;stroke-width:3.75;stroke-linecap:butt;stroke-miterlimit:4;stroke-dashoffset:0;stroke-opacity:0.44129555" />
    <path
       id="path1308"
       d="M 94.0625,9.9375 L 83.3125,25.53125 L 80.5625,19.875 L 76.90625,27.125 L 64.8125,10.375 L 59.0625,29.59375 L 41.25,20.34375 L 44.625,39.5625 L 38.15625,37.34375 L 40.5625,44.53125 L 20.75,41.25 L 30.375,59.3125 L 10.8125,65.59375 L 26.75,76.65625 L 20.75,79.6875 L 27.625,83.03125 L 11.25,94.875 L 30.4375,100.59375 L 21.1875,118.46875 L 40.875,115 L 38.5625,121.90625 L 44.53125,119.8125 L 41.25,138.53125 L 59.96875,128.84375 L 66.4375,148.875 L 77.5,132.90625 L 80.5625,138.96875 L 83.5625,132.78125 L 94.8125,148.75 L 100.8125,129.5625 L 118.46875,138.96875 L 115.125,118.59375 L 122.78125,121.09375 L 120.4375,114.40625 L 139.8125,117.625 L 130.46875,100.0625 L 149.4375,94.15625 L 133.03125,82.53125 L 139.8125,79.15625 L 132.96875,75.8125 L 149.3125,64 L 130.09375,58.21875 L 139.375,40.375 L 119.65625,43.875 L 121.9375,36.9375 L 115.25,39.25 L 118.46875,19.875 L 100.375,29.53125 L 94.0625,9.9375 z M 79.25,50.21875 C 96.090675,50.218749 109.75,63.878072 109.75,80.71875 C 109.75,97.559425 96.090678,111.21875 79.25,111.21875 C 62.409319,111.21875 48.75,97.559428 48.75,80.71875 C 48.749999,63.878069 62.409322,50.21875 79.25,50.21875 z "
       style="fill:#b39169;fill-opacity:1;fill-rule:evenodd;stroke:#000000;stroke-width:2.31577086;stroke-linecap:butt;stroke-miterlimit:4;stroke-dashoffset:0;stroke-opacity:1" />
    <path
       id="path2070"
       d="M 92.318617,18.476222 L 82.861382,32.19471 L 80.44209,27.218666 L 77.225531,33.5968 L 66.586142,18.861109 L 61.527622,35.768665 L 45.857204,27.631044 L 48.826336,44.538601 L 43.1355,42.586671 L 45.252381,48.909822 L 27.822479,46.023166 L 36.290002,61.913519 L 19.080035,67.439403 L 33.100934,77.171557 L 27.822479,79.838277 L 33.870709,82.779917 L 19.464922,93.199369 L 36.344986,98.230399 L 28.207366,113.95579 L 45.527301,110.90419 L 43.492896,116.97991 L 48.74386,115.13795 L 45.857204,131.60563 L 62.324889,123.08313 L 68.015724,140.70547 L 77.747878,126.65708 L 80.44209,131.99052 L 83.081319,126.54711 L 92.978424,140.59551 L 98.256879,123.71544 L 113.7898,131.99052 L 110.84816,114.06576 L 117.58369,116.26512 L 115.52179,110.38184 L 132.56681,113.21351 L 124.34671,97.763036 L 141.03433,92.567054 L 126.60105,82.340046 L 132.56681,79.370914 L 126.54607,76.429274 L 140.92436,66.037313 L 124.01681,60.951301 L 132.18192,45.253391 L 114.83449,48.332491 L 116.84141,42.229276 L 110.95812,44.263681 L 113.7898,27.218666 L 97.871992,35.713681 L 92.318617,18.476222 z M 79.287427,53.913359 C 94.102889,53.913358 106.11954,65.930048 106.11954,80.745512 C 106.11954,95.560973 94.102892,107.57766 79.287427,107.57766 C 64.471961,107.57766 52.455274,95.560976 52.455274,80.745512 C 52.455273,65.930045 64.471964,53.913359 79.287427,53.913359 z "
       style="fill:url(#linearGradient2840);fill-opacity:1;fill-rule:evenodd;stroke:none;stroke-width:2.03728247;stroke-linecap:butt;stroke-miterlimit:4;stroke-dashoffset:0;stroke-opacity:1" />
    <path
       sodipodi:nodetypes="ccccccccccccccccccccccccc"
       id="path2842"
       d="M 45.857204,131.60563 L 62.324889,123.08313 L 68.015724,140.70547 L 77.747878,126.65708 L 80.44209,131.99052 L 83.081319,126.54711 L 92.978424,140.59551 L 98.256879,123.71544 L 113.7898,131.99052 L 110.84816,114.06576 L 117.58369,116.26512 L 115.52179,110.38184 L 132.56681,113.21351 L 124.34671,97.763036 L 141.03433,92.567054 L 126.60105,82.340046 L 132.56681,79.370914 L 126.54607,76.429274 L 140.92436,66.037313 L 124.01681,60.951301 L 132.18192,45.253391 L 45.857204,131.60563 z M 106.11954,80.745512 C 106.11954,95.560973 94.102892,107.57766 79.287427,107.57766 C 64.471961,107.57766 106.11954,65.930048 106.11954,80.745512 z "
       style="fill:#ffffff;fill-opacity:0.35222671;fill-rule:evenodd;stroke:none;stroke-width:2.03728247;stroke-linecap:butt;stroke-miterlimit:4;stroke-dashoffset:0;stroke-opacity:1" />
  </g>
  <path
     style="font-size:40px;fill:#ffffff;fill-opacity:1;stroke-width:1pt;font-family:Trek"
     d="M 102.46445,127.23912 C 101.07983,127.23912 99.812544,127.05137 98.662594,126.67588 C 97.512644,126.27691 96.526974,125.71368 95.705594,124.98616 C 95.283164,124.61067 94.872464,124.14131 94.473504,123.57807 C 94.285764,123.31991 94.133214,123.08523 94.015874,122.87402 C 93.898534,122.63933 93.745984,122.27558 93.558244,121.78274 C 93.088884,120.49198 92.854194,119.00175 92.854194,117.31203 L 92.854194,99.851624 L 98.768204,99.851624 L 98.768204,116.92481 C 98.768204,117.84007 98.873814,118.61452 99.085024,119.24817 C 99.319714,119.88181 99.718674,120.49198 100.2819,121.07869 C 100.82167,121.57153 101.44358,121.94701 102.14763,122.20517 C 102.85168,122.43985 103.6144,122.5572 104.43579,122.5572 L 112.10992,122.5572 L 112.10992,127.23912 L 102.46445,127.23912 z M 77.294709,116.46717 L 70.993473,116.46717 L 70.993473,127.23912 L 65.079464,127.23912 L 65.079464,99.851624 L 80.955763,99.851624 C 83.584224,99.851624 85.590764,100.497 86.975384,101.78776 C 88.500824,103.19585 89.263544,105.31973 89.263544,108.1594 C 89.263544,109.26241 89.169664,110.2246 88.981924,111.046 C 88.794184,111.84391 88.477364,112.58317 88.031464,113.26375 C 87.233534,114.50757 85.942784,115.4463 84.159194,116.07995 L 84.018384,116.11515 L 90.002794,127.23912 L 83.032714,127.23912 L 77.294709,116.46717 z M 70.993473,104.56875 L 70.993473,112.17248 L 77.893151,112.17248 C 79.254315,112.17248 80.275186,111.91432 80.955763,111.39802 C 81.824093,110.81131 82.258253,109.80217 82.258253,108.37061 C 82.258253,107.03292 81.847555,106.07071 81.026168,105.48401 C 80.228243,104.87383 79.18391,104.56875 77.893151,104.56875 L 70.993473,104.56875 z M 62.263268,115.79833 L 46.175753,115.79833 L 46.175753,115.97434 L 46.598183,118.12169 C 46.950207,119.24817 47.548648,120.2573 48.393507,121.1491 C 48.581254,121.28991 48.757266,121.40725 48.921544,121.50112 C 49.226632,121.68887 49.649061,121.91181 50.188831,122.16997 L 51.315309,122.45159 L 52.829014,122.5572 L 62.263268,122.5572 L 62.263268,127.23912 L 51.1745,127.23912 C 47.46651,127.23912 44.615112,126.0657 42.620307,123.71888 C 40.64897,121.34857 39.663302,117.95741 39.663302,113.54537 C 39.663302,109.08639 40.64897,105.69523 42.620307,103.37187 C 44.591643,101.02503 47.443041,99.851624 51.1745,99.851624 L 62.263268,99.851624 L 62.263268,104.56875 L 52.829014,104.56875 L 52.160168,104.56875 L 51.491322,104.63915 C 51.021956,104.63915 50.529122,104.75649 50.012819,104.99118 C 49.519985,105.22586 48.980215,105.55442 48.393507,105.97685 C 47.830268,106.54009 47.337434,107.27934 46.915004,108.1946 C 46.656854,108.80477 46.410436,109.77871 46.175753,111.1164 L 46.175753,111.29242 L 62.263268,111.29242 L 62.263268,115.79833 z M 18.084207,117.45284 L 18.084207,127.23912 L 12.170197,127.23912 L 12.170197,99.851624 L 28.609737,99.851624 C 31.144307,99.851624 33.150847,100.6026 34.629357,102.10458 C 36.107855,103.58308 36.847107,105.76563 36.847107,108.65223 C 36.847107,111.51536 36.107855,113.69791 34.629357,115.19989 C 33.150847,116.70185 31.144307,117.45284 28.609737,117.45284 L 18.084207,117.45284 z M 18.084207,104.56875 L 18.084207,112.77092 L 25.934347,112.77092 C 27.225107,112.77092 28.281177,112.44236 29.102567,111.78525 C 29.923957,111.10466 30.334657,110.06033 30.334657,108.65223 C 30.334657,107.2676 29.923957,106.24673 29.102567,105.58962 C 28.304647,104.90903 27.248577,104.56875 25.934347,104.56875 L 18.084207,104.56875 z "
     id="path1507" />
  <path
     style="font-size:40px;stroke-width:1pt;font-family:Trek"
     d="M 103.14241,127.91708 C 101.75779,127.91708 100.4905,127.72933 99.340554,127.35384 C 98.190604,126.95487 97.204934,126.39164 96.383554,125.66412 C 95.961124,125.28863 95.550424,124.81927 95.151464,124.25603 C 94.963724,123.99787 94.811174,123.76319 94.693834,123.55198 C 94.576494,123.31729 94.423944,122.95354 94.236204,122.4607 C 93.766844,121.16994 93.532154,119.67971 93.532154,117.98999 L 93.532154,100.52958 L 99.446164,100.52958 L 99.446164,117.60277 C 99.446164,118.51803 99.551774,119.29248 99.762984,119.92613 C 99.997674,120.55977 100.39663,121.16994 100.95986,121.75665 C 101.49963,122.24949 102.12154,122.62497 102.82559,122.88313 C 103.52964,123.11781 104.29236,123.23516 105.11375,123.23516 L 112.78788,123.23516 L 112.78788,127.91708 L 103.14241,127.91708 z M 77.972675,117.14513 L 71.671439,117.14513 L 71.671439,127.91708 L 65.75743,127.91708 L 65.75743,100.52958 L 81.633729,100.52958 C 84.262184,100.52958 86.268724,101.17496 87.653344,102.46572 C 89.178784,103.87381 89.941504,105.99769 89.941504,108.83736 C 89.941504,109.94037 89.847624,110.90256 89.659884,111.72396 C 89.472144,112.52187 89.155324,113.26113 88.709424,113.94171 C 87.911494,115.18553 86.620744,116.12426 84.837154,116.75791 L 84.696344,116.79311 L 90.680754,127.91708 L 83.710674,127.91708 L 77.972675,117.14513 z M 71.671439,105.24671 L 71.671439,112.85044 L 78.571117,112.85044 C 79.932281,112.85044 80.953152,112.59228 81.633729,112.07598 C 82.502059,111.48927 82.936219,110.48013 82.936219,109.04857 C 82.936219,107.71088 82.525521,106.74867 81.704134,106.16197 C 80.906209,105.55179 79.861876,105.24671 78.571117,105.24671 L 71.671439,105.24671 z M 62.941234,116.47629 L 46.853719,116.47629 L 46.853719,116.6523 L 47.276149,118.79965 C 47.628173,119.92613 48.226614,120.93526 49.071473,121.82706 C 49.25922,121.96787 49.435232,122.08521 49.59951,122.17908 C 49.904598,122.36683 50.327027,122.58977 50.866797,122.84793 L 51.993275,123.12955 L 53.50698,123.23516 L 62.941234,123.23516 L 62.941234,127.91708 L 51.852466,127.91708 C 48.144476,127.91708 45.293078,126.74366 43.298273,124.39684 C 41.326936,122.02653 40.341268,118.63537 40.341268,114.22333 C 40.341268,109.76435 41.326936,106.37319 43.298273,104.04983 C 45.269609,101.70299 48.121007,100.52958 51.852466,100.52958 L 62.941234,100.52958 L 62.941234,105.24671 L 53.50698,105.24671 L 52.838134,105.24671 L 52.169288,105.31711 C 51.699922,105.31711 51.207088,105.43445 50.690785,105.66914 C 50.197951,105.90382 49.658181,106.23238 49.071473,106.65481 C 48.508234,107.21805 48.0154,107.9573 47.59297,108.87256 C 47.33482,109.48273 47.088402,110.45667 46.853719,111.79436 L 46.853719,111.97038 L 62.941234,111.97038 L 62.941234,116.47629 z M 18.762173,118.1308 L 18.762173,127.91708 L 12.848163,127.91708 L 12.848163,100.52958 L 29.287703,100.52958 C 31.822273,100.52958 33.828813,101.28056 35.307323,102.78254 C 36.785821,104.26104 37.525073,106.44359 37.525073,109.33019 C 37.525073,112.19332 36.785821,114.37587 35.307323,115.87785 C 33.828813,117.37981 31.822273,118.1308 29.287703,118.1308 L 18.762173,118.1308 z M 18.762173,105.24671 L 18.762173,113.44888 L 26.612313,113.44888 C 27.903073,113.44888 28.959143,113.12032 29.780533,112.46321 C 30.601923,111.78262 31.012623,110.73829 31.012623,109.33019 C 31.012623,107.94556 30.601923,106.92469 29.780533,106.26758 C 28.982613,105.58699 27.926543,105.24671 26.612313,105.24671 L 18.762173,105.24671 z "
     id="path861" />
  <g
     id="g1486"
     transform="matrix(0.507928,0,0,0.507928,34.867564,21.442714)">
    <path
       id="path1488"
       d="M 94.0625,9.9375 L 83.3125,25.53125 L 80.5625,19.875 L 76.90625,27.125 L 64.8125,10.375 L 59.0625,29.59375 L 41.25,20.34375 L 44.625,39.5625 L 38.15625,37.34375 L 40.5625,44.53125 L 20.75,41.25 L 30.375,59.3125 L 10.8125,65.59375 L 26.75,76.65625 L 20.75,79.6875 L 27.625,83.03125 L 11.25,94.875 L 30.4375,100.59375 L 21.1875,118.46875 L 40.875,115 L 38.5625,121.90625 L 44.53125,119.8125 L 41.25,138.53125 L 59.96875,128.84375 L 66.4375,148.875 L 77.5,132.90625 L 80.5625,138.96875 L 83.5625,132.78125 L 94.8125,148.75 L 100.8125,129.5625 L 118.46875,138.96875 L 115.125,118.59375 L 122.78125,121.09375 L 120.4375,114.40625 L 139.8125,117.625 L 130.46875,100.0625 L 149.4375,94.15625 L 133.03125,82.53125 L 139.8125,79.15625 L 132.96875,75.8125 L 149.3125,64 L 130.09375,58.21875 L 139.375,40.375 L 119.65625,43.875 L 121.9375,36.9375 L 115.25,39.25 L 118.46875,19.875 L 100.375,29.53125 L 94.0625,9.9375 z M 79.25,50.21875 C 96.090675,50.218749 109.75,63.878072 109.75,80.71875 C 109.75,97.559425 96.090678,111.21875 79.25,111.21875 C 62.409319,111.21875 48.75,97.559428 48.75,80.71875 C 48.749999,63.878069 62.409322,50.21875 79.25,50.21875 z "
       style="fill:#b39169;fill-opacity:1;fill-rule:evenodd;stroke:#000000;stroke-width:3.75;stroke-linecap:butt;stroke-miterlimit:4;stroke-dashoffset:0;stroke-opacity:0.44129555" />
    <path
       id="path1490"
       d="M 94.0625,9.9375 L 83.3125,25.53125 L 80.5625,19.875 L 76.90625,27.125 L 64.8125,10.375 L 59.0625,29.59375 L 41.25,20.34375 L 44.625,39.5625 L 38.15625,37.34375 L 40.5625,44.53125 L 20.75,41.25 L 30.375,59.3125 L 10.8125,65.59375 L 26.75,76.65625 L 20.75,79.6875 L 27.625,83.03125 L 11.25,94.875 L 30.4375,100.59375 L 21.1875,118.46875 L 40.875,115 L 38.5625,121.90625 L 44.53125,119.8125 L 41.25,138.53125 L 59.96875,128.84375 L 66.4375,148.875 L 77.5,132.90625 L 80.5625,138.96875 L 83.5625,132.78125 L 94.8125,148.75 L 100.8125,129.5625 L 118.46875,138.96875 L 115.125,118.59375 L 122.78125,121.09375 L 120.4375,114.40625 L 139.8125,117.625 L 130.46875,100.0625 L 149.4375,94.15625 L 133.03125,82.53125 L 139.8125,79.15625 L 132.96875,75.8125 L 149.3125,64 L 130.09375,58.21875 L 139.375,40.375 L 119.65625,43.875 L 121.9375,36.9375 L 115.25,39.25 L 118.46875,19.875 L 100.375,29.53125 L 94.0625,9.9375 z M 79.25,50.21875 C 96.090675,50.218749 109.75,63.878072 109.75,80.71875 C 109.75,97.559425 96.090678,111.21875 79.25,111.21875 C 62.409319,111.21875 48.75,97.559428 48.75,80.71875 C 48.749999,63.878069 62.409322,50.21875 79.25,50.21875 z "
       style="fill:#b39169;fill-opacity:1;fill-rule:evenodd;stroke:#000000;stroke-width:2.31577086;stroke-linecap:butt;stroke-miterlimit:4;stroke-dashoffset:0;stroke-opacity:1" />
    <path
       id="path1492"
       d="M 92.318617,18.476222 L 82.861382,32.19471 L 80.44209,27.218666 L 77.225531,33.5968 L 66.586142,18.861109 L 61.527622,35.768665 L 45.857204,27.631044 L 48.826336,44.538601 L 43.1355,42.586671 L 45.252381,48.909822 L 27.822479,46.023166 L 36.290002,61.913519 L 19.080035,67.439403 L 33.100934,77.171557 L 27.822479,79.838277 L 33.870709,82.779917 L 19.464922,93.199369 L 36.344986,98.230399 L 28.207366,113.95579 L 45.527301,110.90419 L 43.492896,116.97991 L 48.74386,115.13795 L 45.857204,131.60563 L 62.324889,123.08313 L 68.015724,140.70547 L 77.747878,126.65708 L 80.44209,131.99052 L 83.081319,126.54711 L 92.978424,140.59551 L 98.256879,123.71544 L 113.7898,131.99052 L 110.84816,114.06576 L 117.58369,116.26512 L 115.52179,110.38184 L 132.56681,113.21351 L 124.34671,97.763036 L 141.03433,92.567054 L 126.60105,82.340046 L 132.56681,79.370914 L 126.54607,76.429274 L 140.92436,66.037313 L 124.01681,60.951301 L 132.18192,45.253391 L 114.83449,48.332491 L 116.84141,42.229276 L 110.95812,44.263681 L 113.7898,27.218666 L 97.871992,35.713681 L 92.318617,18.476222 z M 79.287427,53.913359 C 94.102889,53.913358 106.11954,65.930048 106.11954,80.745512 C 106.11954,95.560973 94.102892,107.57766 79.287427,107.57766 C 64.471961,107.57766 52.455274,95.560976 52.455274,80.745512 C 52.455273,65.930045 64.471964,53.913359 79.287427,53.913359 z "
       style="fill:url(#linearGradient1496);fill-opacity:1;fill-rule:evenodd;stroke:none;stroke-width:2.03728247;stroke-linecap:butt;stroke-miterlimit:4;stroke-dashoffset:0;stroke-opacity:1" />
    <path
       sodipodi:nodetypes="ccccccccccccccccccccccccc"
       id="path1494"
       d="M 45.857204,131.60563 L 62.324889,123.08313 L 68.015724,140.70547 L 77.747878,126.65708 L 80.44209,131.99052 L 83.081319,126.54711 L 92.978424,140.59551 L 98.256879,123.71544 L 113.7898,131.99052 L 110.84816,114.06576 L 117.58369,116.26512 L 115.52179,110.38184 L 132.56681,113.21351 L 124.34671,97.763036 L 141.03433,92.567054 L 126.60105,82.340046 L 132.56681,79.370914 L 126.54607,76.429274 L 140.92436,66.037313 L 124.01681,60.951301 L 132.18192,45.253391 L 45.857204,131.60563 z M 106.11954,80.745512 C 106.11954,95.560973 94.102892,107.57766 79.287427,107.57766 C 64.471961,107.57766 106.11954,65.930048 106.11954,80.745512 z "
       style="fill:#ffffff;fill-opacity:0.35222671;fill-rule:evenodd;stroke:none;stroke-width:2.03728247;stroke-linecap:butt;stroke-miterlimit:4;stroke-dashoffset:0;stroke-opacity:1" />
  </g>
  <path
     style="fill:url(#linearGradient2830);fill-opacity:1;fill-rule:evenodd;stroke:none;stroke-width:6.25"
     d="M 24.630491,7.3329923 L 100.34807,7.3329923 C 111.99274,7.3329923 117.69468,13.034925 117.69468,24.6796 C 117.69468,24.6796 38.408122,25.585198 7.2838846,116.02801 L 7.2838846,24.6796 C 7.2838846,14.390857 14.34175,7.3329923 24.630491,7.3329923 z "
     id="rect2063"
     sodipodi:nodetypes="cccccc" />
</svg>
