<?xml version="1.0" encoding="UTF-8" standalone="no"?>
<!-- Created with Inkscape (http://www.inkscape.org/) -->
<svg
   xmlns:dc="http://purl.org/dc/elements/1.1/"
   xmlns:cc="http://web.resource.org/cc/"
   xmlns:rdf="http://www.w3.org/1999/02/22-rdf-syntax-ns#"
   xmlns:svg="http://www.w3.org/2000/svg"
   xmlns="http://www.w3.org/2000/svg"
   xmlns:xlink="http://www.w3.org/1999/xlink"
   xmlns:sodipodi="http://sodipodi.sourceforge.net/DTD/sodipodi-0.dtd"
   xmlns:inkscape="http://www.inkscape.org/namespaces/inkscape"
   sodipodi:docname="bmp.svg"
   sodipodi:docbase="/home/sept/svg"
   height="140.88696"
   width="125.25612"
   inkscape:version="0.45.1"
   sodipodi:version="0.32"
   id="svg1"
   inkscape:output_extension="org.inkscape.output.svg.inkscape"
   version="1.0">
  <metadata
     id="metadata15">
    <rdf:RDF>
      <cc:Work
         rdf:about="">
        <dc:format>image/svg+xml</dc:format>
        <dc:type
           rdf:resource="http://purl.org/dc/dcmitype/StillImage" />
      </cc:Work>
    </rdf:RDF>
  </metadata>
  <defs
     id="defs3">
    <linearGradient
       id="linearGradient3587">
      <stop
         style="stop-color:#efe0cd;stop-opacity:0.56097561;"
         offset="0.0000000"
         id="stop3589" />
      <stop
         style="stop-color:#cececd;stop-opacity:0.21951219;"
         offset="1.0000000"
         id="stop3591" />
    </linearGradient>
    <linearGradient
       id="linearGradient2832">
      <stop
         id="stop2834"
         offset="0.0000000"
         style="stop-color:#ffffff;stop-opacity:1.0000000;" />
      <stop
         id="stop2836"
         offset="1.0000000"
         style="stop-color:#ffffff;stop-opacity:0.0000000;" />
    </linearGradient>
    <linearGradient
       id="linearGradient839">
      <stop
         id="stop840"
         offset="0.0000000"
         style="stop-color:#46a046;stop-opacity:1.0000000;" />
      <stop
         id="stop841"
         offset="0.39364964"
         style="stop-color:#df421e;stop-opacity:1.0000000;" />
      <stop
         id="stop842"
         offset="0.72036445"
         style="stop-color:#ada7c8;stop-opacity:1.0000000;" />
      <stop
         id="stop843"
         offset="1.0000000"
         style="stop-color:#eed680;stop-opacity:1.0000000;" />
    </linearGradient>
    <linearGradient
       y2="84.03492"
       x2="107.81382"
       y1="84.03492"
       x1="12.23059"
       id="linearGradient836"
       xlink:href="#linearGradient839"
       gradientTransform="scale(1.353569,0.738788)"
       gradientUnits="userSpaceOnUse" />
    <linearGradient
       gradientUnits="userSpaceOnUse"
       y2="73.39872"
       x2="72.999245"
       y1="16.369013"
       x1="23.983805"
       gradientTransform="matrix(0.939922,0,0,0.896911,-12.081733,-3.3524237)"
       id="linearGradient2830"
       xlink:href="#linearGradient2832"
       inkscape:collect="always" />
    <linearGradient
       inkscape:collect="always"
       xlink:href="#linearGradient1700"
       id="linearGradient1407"
       gradientUnits="userSpaceOnUse"
       gradientTransform="matrix(0.777129,0,0,0.894628,-162.4688,12.76856)"
       x1="111.32588"
       y1="124.28045"
       x2="107.31592"
       y2="93.732185" />
    <linearGradient
       inkscape:collect="always"
       xlink:href="#linearGradient1700"
       id="linearGradient1390"
       gradientUnits="userSpaceOnUse"
       gradientTransform="matrix(0.777129,0,0,0.894628,-2.922179,10.43077)"
       x1="111.32588"
       y1="124.28045"
       x2="107.31592"
       y2="93.732185" />
    <linearGradient
       id="linearGradient1350">
      <stop
         id="stop1352"
         offset="0.0000000"
         style="stop-color:#46a046;stop-opacity:1.0000000;" />
      <stop
         id="stop1354"
         offset="0.39364964"
         style="stop-color:#df421e;stop-opacity:1.0000000;" />
      <stop
         id="stop1356"
         offset="0.72036445"
         style="stop-color:#ada7c8;stop-opacity:1.0000000;" />
      <stop
         id="stop1358"
         offset="1.0000000"
         style="stop-color:#eed680;stop-opacity:1.0000000;" />
    </linearGradient>
    <linearGradient
       y2="0.5"
       x2="1"
       y1="0.5"
       x1="1.3267924e-17"
       id="linearGradient1360"
       xlink:href="#linearGradient839" />
    <linearGradient
       gradientUnits="userSpaceOnUse"
       y2="87.980263"
       x2="128.66997"
       y1="121.73159"
       x1="123.50353"
       gradientTransform="matrix(0.870364,0,0,1.001961,4.612015,4.886798)"
       id="linearGradient1362"
       xlink:href="#linearGradient1700"
       inkscape:collect="always" />
    <linearGradient
       y2="0.5"
       x2="1"
       y1="0.5"
       x1="1.3267924e-17"
       id="linearGradient1363"
       xlink:href="#linearGradient839" />
    <linearGradient
       id="linearGradient1353">
      <stop
         id="stop1355"
         offset="0.0000000"
         style="stop-color:#46a046;stop-opacity:1.0000000;" />
      <stop
         id="stop1357"
         offset="0.39364964"
         style="stop-color:#df421e;stop-opacity:1.0000000;" />
      <stop
         id="stop1359"
         offset="0.72036445"
         style="stop-color:#ada7c8;stop-opacity:1.0000000;" />
      <stop
         id="stop1361"
         offset="1.0000000"
         style="stop-color:#eed680;stop-opacity:1.0000000;" />
    </linearGradient>
    <linearGradient
       id="linearGradient1700">
      <stop
         id="stop1701"
         offset="0.0000000"
         style="stop-color:#000000;stop-opacity:0.69918698;" />
      <stop
         id="stop1702"
         offset="1"
         style="stop-color:#000000;stop-opacity:0;" />
    </linearGradient>
    <linearGradient
       xlink:href="#linearGradient839"
       id="linearGradient1427"
       x1="1.3267924e-17"
       y1="0.5"
       x2="1"
       y2="0.5" />
    <linearGradient
       id="linearGradient1417">
      <stop
         style="stop-color:#46a046;stop-opacity:1.0000000;"
         offset="0.0000000"
         id="stop1419" />
      <stop
         style="stop-color:#df421e;stop-opacity:1.0000000;"
         offset="0.39364964"
         id="stop1421" />
      <stop
         style="stop-color:#ada7c8;stop-opacity:1.0000000;"
         offset="0.72036445"
         id="stop1423" />
      <stop
         style="stop-color:#eed680;stop-opacity:1.0000000;"
         offset="1.0000000"
         id="stop1425" />
    </linearGradient>
    <linearGradient
       y2="0.5"
       x2="1"
       y1="0.5"
       x1="1.3267924e-17"
       id="linearGradient1381"
       xlink:href="#linearGradient839" />
    <linearGradient
       id="linearGradient1371">
      <stop
         id="stop1373"
         offset="0.0000000"
         style="stop-color:#46a046;stop-opacity:1.0000000;" />
      <stop
         id="stop1375"
         offset="0.39364964"
         style="stop-color:#df421e;stop-opacity:1.0000000;" />
      <stop
         id="stop1377"
         offset="0.72036445"
         style="stop-color:#ada7c8;stop-opacity:1.0000000;" />
      <stop
         id="stop1379"
         offset="1.0000000"
         style="stop-color:#eed680;stop-opacity:1.0000000;" />
    </linearGradient>
    <linearGradient
       xlink:href="#linearGradient839"
       id="linearGradient1374"
       x1="1.3267924e-17"
       y1="0.5"
       x2="1"
       y2="0.5" />
    <linearGradient
       id="linearGradient1364">
      <stop
         style="stop-color:#46a046;stop-opacity:1.0000000;"
         offset="0.0000000"
         id="stop1366" />
      <stop
         style="stop-color:#df421e;stop-opacity:1.0000000;"
         offset="0.39364964"
         id="stop1368" />
      <stop
         style="stop-color:#ada7c8;stop-opacity:1.0000000;"
         offset="0.72036445"
         id="stop1370" />
      <stop
         style="stop-color:#eed680;stop-opacity:1.0000000;"
         offset="1.0000000"
         id="stop1372" />
    </linearGradient>
    <linearGradient
       xlink:href="#linearGradient839"
       id="linearGradient1389"
       x1="1.3267924e-17"
       y1="0.5"
       x2="1"
       y2="0.5" />
    <linearGradient
       id="linearGradient833">
      <stop
         style="stop-color:#00ff00;stop-opacity:1.0000000;"
         offset="0.0000000"
         id="stop834" />
      <stop
         style="stop-color:#ff0000;stop-opacity:1.0000000;"
         offset="0.30839416"
         id="stop837" />
      <stop
         style="stop-color:#7f8cff;stop-opacity:1.0000000;"
         offset="0.75000000"
         id="stop838" />
      <stop
         style="stop-color:#ffff00;stop-opacity:1.0000000;"
         offset="1.0000000"
         id="stop835" />
    </linearGradient>
    <linearGradient
       id="linearGradient1373">
      <stop
         style="stop-color:#46a046;stop-opacity:1.0000000;"
         offset="0.0000000"
         id="stop1376" />
      <stop
         style="stop-color:#df421e;stop-opacity:1.0000000;"
         offset="0.39364964"
         id="stop1378" />
      <stop
         style="stop-color:#ada7c8;stop-opacity:1.0000000;"
         offset="0.72036445"
         id="stop1380" />
      <stop
         style="stop-color:#eed680;stop-opacity:1.0000000;"
         offset="1.0000000"
         id="stop1382" />
    </linearGradient>
    <linearGradient
       inkscape:collect="always"
       xlink:href="#linearGradient839"
       id="linearGradient1401"
       gradientUnits="userSpaceOnUse"
       gradientTransform="matrix(1.257993,0,0,0.738788,-13.118031,-7.7425927)"
       x1="12.23059"
       y1="84.03492"
       x2="107.81382"
       y2="84.03492" />
  </defs>
  <sodipodi:namedview
     inkscape:current-layer="svg1"
     inkscape:window-y="216"
     inkscape:window-x="616"
     gridspacingy="1.0000000mm"
     gridspacingx="1.0000000mm"
     snaptogrid="false"
     showgrid="true"
     inkscape:window-height="653"
     inkscape:window-width="756"
     inkscape:cy="80"
     inkscape:cx="80"
     inkscape:zoom="2.95"
     inkscape:pageshadow="2"
     inkscape:pageopacity="0.0"
     borderopacity="1.0"
     bordercolor="#666666"
     pagecolor="#ffffff"
     id="base" />
  <rect
     rx="22.892691"
     ry="22.892691"
     y="3.75"
     x="3.75"
     height="133.38696"
     width="117.75612"
     id="rect834"
     style="fill:none;fill-rule:evenodd;stroke:#000000;stroke-width:7.5;stroke-linejoin:round;stroke-miterlimit:4;stroke-dasharray:none;stroke-opacity:0.5" />
  <rect
     rx="22.892691"
     ry="22.892691"
     y="3.6603317"
     x="3.6112251"
     height="133.38696"
     width="117.75612"
     id="rect828"
     style="fill:#df421e;fill-opacity:1;fill-rule:evenodd;stroke:#000000;stroke-width:3.75;stroke-miterlimit:4;stroke-dasharray:none" />
  <rect
     style="fill:url(#linearGradient1401);fill-rule:evenodd;stroke:#000000;stroke-width:3.32210016;stroke-miterlimit:4"
     id="rect832"
     width="117.04255"
     height="67.172066"
     ry="1.2896985"
     x="3.8682079"
     y="20.755352"
     rx="1.2896985" />
  <path
     sodipodi:nodetypes="cccccc"
     id="path2838"
     d="M 100.34807,132.55498 L 24.630491,132.55498 C 12.985818,132.55498 7.2838846,126.85305 7.2838846,115.20838 C 7.2838846,115.20838 34.904216,48.692898 117.69468,38.550602 L 117.69468,115.20838 C 117.69468,126.85305 111.99274,132.55498 100.34807,132.55498 z "
     style="fill:#ffffff;fill-opacity:0.27935223;fill-rule:evenodd;stroke:none;stroke-width:6.25" />
  <path
     sodipodi:nodetypes="cccccc"
     id="rect2063"
     d="M 24.630491,7.3329923 L 100.34807,7.3329923 C 111.99274,7.3329923 117.69468,13.034925 117.69468,24.6796 C 117.69468,24.6796 38.408122,25.585198 7.2838846,116.02801 L 7.2838846,24.6796 C 7.2838846,14.390857 14.34175,7.3329923 24.630491,7.3329923 z "
     style="fill:url(#linearGradient2830);fill-opacity:1;fill-rule:evenodd;stroke:none;stroke-width:6.25" />
  <path
     style="font-size:40px;stroke-width:1pt;font-family:Trek"
     d="M 92.165234,115.44297 L 92.165234,126.56297 L 85.445234,126.56297 L 85.445234,95.442974 L 104.12523,95.442974 C 107.00523,95.442974 109.28523,96.296304 110.96523,98.002974 C 112.64523,99.682974 113.48523,102.16297 113.48523,105.44297 C 113.48523,108.6963 112.64523,111.1763 110.96523,112.88297 C 109.28523,114.58964 107.00523,115.44297 104.12523,115.44297 L 92.165234,115.44297 z M 92.165234,100.80297 L 92.165234,110.12297 L 101.08523,110.12297 C 102.5519,110.12297 103.7519,109.74964 104.68523,109.00297 C 105.61857,108.22964 106.08523,107.04297 106.08523,105.44297 C 106.08523,103.86964 105.61857,102.70964 104.68523,101.96297 C 103.77857,101.18964 102.57857,100.80297 101.08523,100.80297 L 92.165234,100.80297 z M 51.005234,126.56297 L 44.285234,126.56297 L 44.285234,95.442974 L 54.285234,95.442974 L 62.445234,119.48297 L 70.685237,95.442974 L 80.725237,95.442974 L 80.725237,126.56297 L 74.005237,126.56297 L 74.005237,103.32297 L 73.845237,103.32297 L 65.765234,126.56297 L 59.245234,126.56297 L 51.165234,103.32297 L 51.005234,103.32297 L 51.005234,126.56297 z M 12.085234,126.56297 L 12.085234,95.442974 L 31.365234,95.442974 C 33.925234,95.442974 36.071904,96.096304 37.805234,97.402974 C 39.778574,98.842974 40.765234,100.76297 40.765234,103.16297 C 40.765234,104.92297 40.351904,106.50964 39.525234,107.92297 C 39.125234,108.56297 38.645234,109.12297 38.085234,109.60297 C 37.525234,110.0563 36.778574,110.52297 35.845234,111.00297 C 37.445234,111.58964 38.725234,112.5363 39.685234,113.84297 C 40.645234,115.14964 41.125234,116.6563 41.125234,118.36297 C 41.125234,121.32297 40.125234,123.48297 38.125234,124.84297 C 36.498574,125.98964 34.245234,126.56297 31.365234,126.56297 L 12.085234,126.56297 z M 29.285234,108.44297 C 30.751904,108.44297 31.871904,108.0963 32.645234,107.40297 C 33.418574,106.70964 33.805234,105.74964 33.805234,104.52297 C 33.805234,101.88297 32.298574,100.56297 29.285234,100.56297 L 18.805234,100.56297 L 18.805234,108.44297 L 29.285234,108.44297 z M 29.285234,121.44297 C 30.751904,121.44297 31.871904,121.0963 32.645234,120.40297 C 33.418574,119.70964 33.805234,118.74964 33.805234,117.52297 C 33.805234,114.88297 32.298574,113.56297 29.285234,113.56297 L 18.805234,113.56297 L 18.805234,121.44297 L 29.285234,121.44297 z "
     id="path841" />
  <path
     style="font-size:40px;fill:#ffffff;fill-opacity:1;stroke-width:1pt;font-family:Trek"
     d="M 91.487274,114.76501 L 91.487274,125.88501 L 84.767274,125.88501 L 84.767274,94.765014 L 103.44727,94.765014 C 106.32727,94.765014 108.60727,95.618344 110.28727,97.325014 C 111.96727,99.005014 112.80727,101.48501 112.80727,104.76501 C 112.80727,108.01834 111.96727,110.49834 110.28727,112.20501 C 108.60727,113.91168 106.32727,114.76501 103.44727,114.76501 L 91.487274,114.76501 z M 91.487274,100.12501 L 91.487274,109.44501 L 100.40727,109.44501 C 101.87394,109.44501 103.07394,109.07168 104.00727,108.32501 C 104.94061,107.55168 105.40727,106.36501 105.40727,104.76501 C 105.40727,103.19168 104.94061,102.03168 104.00727,101.28501 C 103.10061,100.51168 101.90061,100.12501 100.40727,100.12501 L 91.487274,100.12501 z M 50.327268,125.88501 L 43.607268,125.88501 L 43.607268,94.765014 L 53.607268,94.765014 L 61.767268,118.80501 L 70.007271,94.765014 L 80.047271,94.765014 L 80.047271,125.88501 L 73.327271,125.88501 L 73.327271,102.64501 L 73.167271,102.64501 L 65.087268,125.88501 L 58.567268,125.88501 L 50.487268,102.64501 L 50.327268,102.64501 L 50.327268,125.88501 z M 11.407268,125.88501 L 11.407268,94.765014 L 30.687268,94.765014 C 33.247268,94.765014 35.393938,95.418344 37.127268,96.725014 C 39.100608,98.165014 40.087268,100.08501 40.087268,102.48501 C 40.087268,104.24501 39.673938,105.83168 38.847268,107.24501 C 38.447268,107.88501 37.967268,108.44501 37.407268,108.92501 C 36.847268,109.37834 36.100608,109.84501 35.167268,110.32501 C 36.767268,110.91168 38.047268,111.85834 39.007268,113.16501 C 39.967268,114.47168 40.447268,115.97834 40.447268,117.68501 C 40.447268,120.64501 39.447268,122.80501 37.447268,124.16501 C 35.820608,125.31168 33.567268,125.88501 30.687268,125.88501 L 11.407268,125.88501 z M 28.607268,107.76501 C 30.073938,107.76501 31.193938,107.41834 31.967268,106.72501 C 32.740608,106.03168 33.127268,105.07168 33.127268,103.84501 C 33.127268,101.20501 31.620608,99.885014 28.607268,99.885014 L 18.127268,99.885014 L 18.127268,107.76501 L 28.607268,107.76501 z M 28.607268,120.76501 C 30.073938,120.76501 31.193938,120.41834 31.967268,119.72501 C 32.740608,119.03168 33.127268,118.07168 33.127268,116.84501 C 33.127268,114.20501 31.620608,112.88501 28.607268,112.88501 L 18.127268,112.88501 L 18.127268,120.76501 L 28.607268,120.76501 z "
     id="path2166" />
</svg>
