<?xml version="1.0" encoding="UTF-8" standalone="no"?>
<!-- Created with Inkscape (http://www.inkscape.org/) -->
<svg
   xmlns:dc="http://purl.org/dc/elements/1.1/"
   xmlns:cc="http://web.resource.org/cc/"
   xmlns:rdf="http://www.w3.org/1999/02/22-rdf-syntax-ns#"
   xmlns:svg="http://www.w3.org/2000/svg"
   xmlns="http://www.w3.org/2000/svg"
   xmlns:xlink="http://www.w3.org/1999/xlink"
   xmlns:sodipodi="http://sodipodi.sourceforge.net/DTD/sodipodi-0.dtd"
   xmlns:inkscape="http://www.inkscape.org/namespaces/inkscape"
   sodipodi:docname="rpm.svg"
   sodipodi:docbase="/home/sept/svg"
   height="145.19621"
   width="144.01474"
   inkscape:version="0.45.1"
   sodipodi:version="0.32"
   id="svg1"
   inkscape:output_extension="org.inkscape.output.svg.inkscape"
   version="1.0">
  <metadata
     id="metadata36">
    <rdf:RDF>
      <cc:Work
         rdf:about="">
        <dc:format>image/svg+xml</dc:format>
        <dc:type
           rdf:resource="http://purl.org/dc/dcmitype/StillImage" />
      </cc:Work>
    </rdf:RDF>
  </metadata>
  <defs
     id="defs3">
    <linearGradient
       id="linearGradient850">
      <stop
         id="stop851"
         offset="0.0000000"
         style="stop-color:#fbffff;stop-opacity:0.0000000;" />
      <stop
         id="stop852"
         offset="1.0000000"
         style="stop-color:#ffffff;stop-opacity:1.0000000;" />
    </linearGradient>
    <linearGradient
       gradientUnits="userSpaceOnUse"
       gradientTransform="matrix(0.79345,0,0,1.071523,-1.4135264,-1.7405624)"
       y2="11.502785"
       x2="22.394283"
       y1="74.459419"
       x1="78.702637"
       id="linearGradient859"
       xlink:href="#linearGradient850" />
    <linearGradient
       id="linearGradient839">
      <stop
         id="stop840"
         offset="0.0000000"
         style="stop-color:#46a046;stop-opacity:1.0000000;" />
      <stop
         id="stop841"
         offset="0.39364964"
         style="stop-color:#df421e;stop-opacity:1.0000000;" />
      <stop
         id="stop842"
         offset="0.72036445"
         style="stop-color:#ada7c8;stop-opacity:1.0000000;" />
      <stop
         id="stop843"
         offset="1.0000000"
         style="stop-color:#eed680;stop-opacity:1.0000000;" />
    </linearGradient>
    <linearGradient
       id="linearGradient833">
      <stop
         id="stop834"
         offset="0.0000000"
         style="stop-color:#00ff00;stop-opacity:1.0000000;" />
      <stop
         id="stop837"
         offset="0.30839416"
         style="stop-color:#ff0000;stop-opacity:1.0000000;" />
      <stop
         id="stop838"
         offset="0.75000000"
         style="stop-color:#7f8cff;stop-opacity:1.0000000;" />
      <stop
         id="stop835"
         offset="1.0000000"
         style="stop-color:#ffff00;stop-opacity:1.0000000;" />
    </linearGradient>
    <linearGradient
       gradientUnits="userSpaceOnUse"
       gradientTransform="matrix(0.67348,0,0,1.262399,-1.4135264,-1.7405624)"
       y2="16.549269"
       x2="110.16822"
       y1="79.337822"
       x1="157.2149"
       id="linearGradient836"
       xlink:href="#linearGradient850" />
    <linearGradient
       y2="0.019354839"
       x2="0.029508196"
       y1="0.66881722"
       x1="0.61967212"
       id="linearGradient855"
       xlink:href="#linearGradient850" />
    <linearGradient
       y2="0.2920354"
       x2="0.67540985"
       y1="0.92035401"
       x1="0.39344263"
       id="linearGradient853"
       xlink:href="#linearGradient850" />
    <linearGradient
       inkscape:collect="always"
       xlink:href="#linearGradient2830"
       id="linearGradient2840"
       gradientTransform="scale(0.998875,1.001127)"
       x1="41.381039"
       y1="46.285152"
       x2="78.810638"
       y2="85.785439"
       gradientUnits="userSpaceOnUse" />
    <linearGradient
       inkscape:collect="always"
       xlink:href="#linearGradient2851"
       id="linearGradient2857"
       gradientTransform="scale(0.998853,1.001148)"
       x1="44.246502"
       y1="51.416485"
       x2="79.162498"
       y2="86.589195"
       gradientUnits="userSpaceOnUse" />
    <linearGradient
       xlink:href="#linearGradient870"
       id="linearGradient1370"
       x1="0.44607842"
       y1="0.46766168"
       x2="0.55882353"
       y2="0.58706468"
       spreadMethod="reflect" />
    <linearGradient
       id="linearGradient832">
      <stop
         style="stop-color:#ffffff;stop-opacity:1.0000000;"
         offset="0.0000000"
         id="stop833" />
      <stop
         style="stop-color:#00b8df;stop-opacity:1.0000000;"
         offset="0.50000000"
         id="stop1366" />
      <stop
         style="stop-color:#0058a9;stop-opacity:1.0000000;"
         offset="1.0000000"
         id="stop1368" />
    </linearGradient>
    <linearGradient
       id="linearGradient870">
      <stop
         style="stop-color:#ffffff;stop-opacity:1.0000000;"
         offset="0.0000000"
         id="stop871" />
      <stop
         style="stop-color:#ff7f7f;stop-opacity:1.0000000;"
         offset="0.50000000"
         id="stop875" />
      <stop
         style="stop-color:#ff0000;stop-opacity:1.0000000;"
         offset="1.0000000"
         id="stop873" />
    </linearGradient>
    <linearGradient
       id="linearGradient2851">
      <stop
         style="stop-color:#ffffff;stop-opacity:1.0000000;"
         offset="0.0000000"
         id="stop2853" />
      <stop
         style="stop-color:#ffffff;stop-opacity:0.0000000;"
         offset="1.0000000"
         id="stop2855" />
    </linearGradient>
    <linearGradient
       id="linearGradient2830">
      <stop
         style="stop-color:#ffffff;stop-opacity:1.0000000;"
         offset="0.0000000"
         id="stop2832" />
      <stop
         style="stop-color:#ffffff;stop-opacity:0.0000000;"
         offset="1.0000000"
         id="stop2834" />
    </linearGradient>
    <linearGradient
       y2="85.785439"
       x2="78.810638"
       y1="46.285152"
       x1="41.381039"
       gradientTransform="matrix(0.696056,0,0,0.697625,16.255004,8.3050676)"
       gradientUnits="userSpaceOnUse"
       id="linearGradient1382"
       xlink:href="#linearGradient2830"
       inkscape:collect="always" />
  </defs>
  <sodipodi:namedview
     inkscape:current-layer="svg1"
     inkscape:window-y="216"
     inkscape:window-x="624"
     gridspacingy="1.0000000mm"
     gridspacingx="1.0000000mm"
     snaptogrid="false"
     showgrid="true"
     inkscape:window-height="653"
     inkscape:window-width="751"
     inkscape:cy="80"
     inkscape:cx="80"
     inkscape:zoom="2.95"
     inkscape:pageshadow="2"
     inkscape:pageopacity="0.0"
     borderopacity="1.0"
     bordercolor="#666666"
     pagecolor="#ffffff"
     id="base" />
  <path
     id="path874"
     d="M 74.456599,5.7628946 L 5.7628946,23.166832 L 5.9069666,114.04777 L 5.9357816,114.04777 L 5.9357816,114.22066 L 6.1951116,114.16303 L 74.283712,139.43332 L 138.25184,113.01045 L 138.25184,107.7374 L 138.25184,23.166832 L 74.456599,5.7628946 z "
     style="font-size:40px;fill:none;stroke:#000000;stroke-width:11.52578926;stroke-linejoin:round;stroke-opacity:0.5;font-family:Trek" />
  <path
     sodipodi:nodetypes="ccccc"
     id="path633"
     d="M 138.16986,23.185555 L 138.16986,107.74812 L 76.435363,94.167178 L 74.367349,5.7951066 L 138.16986,23.185555 z "
     style="font-size:12px;fill:#515151;fill-rule:evenodd;stroke:#000000;stroke-width:6.93449545;stroke-linecap:round;stroke-linejoin:round" />
  <path
     sodipodi:nodetypes="ccccc"
     id="path631"
     d="M 5.6602926,23.185555 L 74.367349,5.7951066 L 78.769026,97.177798 L 5.8404826,114.23067 L 5.6602926,23.185555 z "
     style="font-size:12px;fill:#4a494d;fill-rule:evenodd;stroke:#000000;stroke-width:6.93449545;stroke-linecap:round;stroke-linejoin:round" />
  <path
     sodipodi:nodetypes="ccccc"
     id="path640"
     d="M 74.199731,44.326189 L 138.16986,23.185555 L 74.367349,5.7951066 L 5.6602926,23.185555 L 74.199731,44.326189 z "
     style="font-size:12px;fill:#9db8d2;fill-rule:evenodd;stroke:#000000;stroke-width:6.93449545;stroke-linecap:round;stroke-linejoin:round" />
  <path
     sodipodi:nodetypes="ccccc"
     id="path627"
     d="M 138.16986,23.185555 L 138.16986,113.03328 L 74.199731,139.45906 L 74.199731,44.326189 L 138.16986,23.185555 z "
     style="font-size:12px;fill:#4b6983;fill-rule:evenodd;stroke:#000000;stroke-width:6.93449545;stroke-linecap:round;stroke-linejoin:round" />
  <path
     sodipodi:nodetypes="ccccc"
     id="path629"
     d="M 74.199731,44.326189 L 74.199731,139.45906 L 5.8017606,114.05659 L 5.6602926,23.185555 L 74.199731,44.326189 z "
     style="font-size:12px;fill:#7590ae;fill-rule:evenodd;stroke:#000000;stroke-width:6.93449545;stroke-linecap:round;stroke-linejoin:round" />
  <path
     sodipodi:nodetypes="ccccc"
     id="path892"
     d="M 74.113923,9.4038196 L 9.4104746,25.926833 L 9.4104746,110.44787 C 76.756356,136.86894 87.972605,154.20289 70.758634,41.882256 C 131.75496,19.408946 74.113923,9.4038196 74.113923,9.4038196 z "
     style="fill:url(#linearGradient859);fill-opacity:1;fill-rule:evenodd;stroke:none;stroke-width:1pt;stroke-linecap:butt;stroke-linejoin:miter;stroke-opacity:1" />
  <path
     sodipodi:nodetypes="cccccc"
     id="path849"
     d="M 77.785495,46.998937 L 77.785495,133.41756 C 78.038923,133.41756 104.90217,123.28048 117.32009,110.60913 C 129.99143,100.21862 134.2997,79.184161 134.2997,79.184161 L 134.2997,27.48506 L 77.785495,46.998937 z "
     style="fill:url(#linearGradient836);fill-opacity:0.75;fill-rule:evenodd;stroke:none;stroke-width:1pt;stroke-linecap:butt;stroke-linejoin:miter;stroke-opacity:1" />
  <path
     sodipodi:nodetypes="ccccc"
     id="path852"
     d="M 74.199731,44.326189 L 74.199731,139.45906 L 5.8017606,114.05659 L 5.6602926,23.185555 L 74.199731,44.326189 z "
     style="font-size:12px;fill:none;fill-rule:evenodd;stroke:#000000;stroke-width:6.93449545;stroke-linecap:round;stroke-linejoin:round" />
  <path
     style="fill:#b39169;fill-opacity:1;fill-rule:evenodd;stroke:#000000;stroke-width:2.61314988;stroke-linecap:butt;stroke-miterlimit:4;stroke-dashoffset:0;stroke-opacity:0.44129555"
     d="M 81.801517,15.229916 L 74.310487,26.096264 L 72.394177,22.154763 L 69.846355,27.206853 L 61.418946,15.534783 L 57.412117,28.927177 L 44.999654,22.481407 L 47.351489,35.873801 L 42.843805,34.327687 L 44.520577,39.336224 L 30.714434,37.049718 L 37.421519,49.636391 L 23.789587,54.013417 L 34.895474,61.722209 L 30.714434,63.834506 L 35.505209,66.164564 L 24.094454,74.417763 L 37.465072,78.402817 L 31.019301,90.858832 L 44.738339,88.441668 L 43.126897,93.254218 L 47.28616,91.795211 L 44.999654,104.83919 L 58.043628,98.088548 L 62.551312,112.04713 L 70.260104,100.91946 L 72.394177,105.14405 L 74.484697,100.83236 L 82.324147,111.96002 L 86.505187,98.589398 L 98.808764,105.14405 L 96.478714,90.945937 L 101.81389,92.688038 L 100.18067,88.027919 L 113.68194,90.270873 L 107.17084,78.032621 L 120.38903,73.916909 L 108.9565,65.816144 L 113.68194,63.464309 L 108.91294,61.134251 L 120.30192,52.902828 L 106.90953,48.874222 L 113.37708,36.439983 L 99.636264,38.878923 L 101.22593,34.044595 L 96.565814,35.656038 L 98.808764,22.154763 L 86.200319,28.883624 L 81.801517,15.229916 z M 71.479574,43.299502 C 83.21483,43.299501 92.733194,52.817864 92.733194,64.553122 C 92.733194,76.288378 83.214832,85.806742 71.479574,85.806742 C 59.744314,85.806742 50.225954,76.28838 50.225954,64.553122 C 50.225953,52.817862 59.744316,43.299502 71.479574,43.299502 z "
     id="path1306" />
  <path
     style="fill:#b39169;fill-opacity:1;fill-rule:evenodd;stroke:#000000;stroke-width:1.61372173;stroke-linecap:butt;stroke-miterlimit:4;stroke-dashoffset:0;stroke-opacity:1"
     d="M 81.801517,15.229916 L 74.310487,26.096264 L 72.394177,22.154763 L 69.846355,27.206853 L 61.418946,15.534783 L 57.412117,28.927177 L 44.999654,22.481407 L 47.351489,35.873801 L 42.843805,34.327687 L 44.520577,39.336224 L 30.714434,37.049718 L 37.421519,49.636391 L 23.789587,54.013417 L 34.895474,61.722209 L 30.714434,63.834506 L 35.505209,66.164564 L 24.094454,74.417763 L 37.465072,78.402817 L 31.019301,90.858832 L 44.738339,88.441668 L 43.126897,93.254218 L 47.28616,91.795211 L 44.999654,104.83919 L 58.043628,98.088548 L 62.551312,112.04713 L 70.260104,100.91946 L 72.394177,105.14405 L 74.484697,100.83236 L 82.324147,111.96002 L 86.505187,98.589398 L 98.808764,105.14405 L 96.478714,90.945937 L 101.81389,92.688038 L 100.18067,88.027919 L 113.68194,90.270873 L 107.17084,78.032621 L 120.38903,73.916909 L 108.9565,65.816144 L 113.68194,63.464309 L 108.91294,61.134251 L 120.30192,52.902828 L 106.90953,48.874222 L 113.37708,36.439983 L 99.636264,38.878923 L 101.22593,34.044595 L 96.565814,35.656038 L 98.808764,22.154763 L 86.200319,28.883624 L 81.801517,15.229916 z M 71.479574,43.299502 C 83.21483,43.299501 92.733194,52.817864 92.733194,64.553122 C 92.733194,76.288378 83.214832,85.806742 71.479574,85.806742 C 59.744314,85.806742 50.225954,76.28838 50.225954,64.553122 C 50.225953,52.817862 59.744316,43.299502 71.479574,43.299502 z "
     id="path1308" />
  <path
     style="fill:url(#linearGradient1382);fill-opacity:1;fill-rule:evenodd;stroke:none;stroke-width:2.03728247;stroke-linecap:butt;stroke-miterlimit:4;stroke-dashoffset:0;stroke-opacity:1"
     d="M 80.586309,21.180039 L 73.996129,30.73963 L 72.31027,27.272123 L 70.068843,31.716662 L 62.654891,21.448243 L 59.129912,33.230105 L 48.210138,27.559485 L 50.279148,39.341347 L 46.313546,37.981164 L 47.788673,42.387388 L 35.64282,40.375851 L 41.543329,51.448885 L 29.550736,55.299542 L 39.321059,62.081296 L 35.64282,63.939573 L 39.857469,65.989425 L 29.81894,73.250116 L 41.581644,76.755939 L 35.911025,87.714021 L 47.980248,85.587544 L 46.562594,89.821348 L 50.221675,88.537797 L 48.210138,100.01314 L 59.68548,94.074318 L 63.651081,106.35427 L 70.432835,96.564788 L 72.31027,100.28134 L 74.14939,96.488158 L 81.046089,106.27765 L 84.724328,94.514938 L 95.548284,100.28134 L 93.498434,87.790652 L 98.192024,89.323254 L 96.755204,85.223549 L 108.63286,87.19677 L 102.90476,76.430262 L 114.53336,72.809494 L 104.47568,65.682906 L 108.63286,63.613896 L 104.43736,61.564043 L 114.45673,54.322509 L 102.67487,50.778373 L 108.36465,39.839441 L 96.276274,41.985081 L 97.674774,37.732117 L 93.575064,39.149771 L 95.548284,27.272123 L 84.456123,33.191789 L 80.586309,21.180039 z M 71.505655,45.874053 C 81.829661,45.874052 90.203344,54.247763 90.203344,64.571771 C 90.203344,74.895776 81.829663,83.269485 71.505655,83.269485 C 61.181645,83.269485 52.807937,74.895779 52.807937,64.571771 C 52.807936,54.247761 61.181647,45.874053 71.505655,45.874053 z "
     id="path2070" />
  <path
     style="fill:#ffffff;fill-opacity:0.35222671;fill-rule:evenodd;stroke:none;stroke-width:2.03728247;stroke-linecap:butt;stroke-miterlimit:4;stroke-dashoffset:0;stroke-opacity:1"
     d="M 48.210138,100.01314 L 59.68548,94.074318 L 63.651081,106.35427 L 70.432835,96.564788 L 72.31027,100.28134 L 74.14939,96.488158 L 81.046089,106.27765 L 84.724328,94.514938 L 95.548284,100.28134 L 93.498434,87.790652 L 98.192024,89.323254 L 96.755204,85.223549 L 108.63286,87.19677 L 102.90476,76.430262 L 114.53336,72.809494 L 104.47568,65.682906 L 108.63286,63.613896 L 104.43736,61.564043 L 114.45673,54.322509 L 102.67487,50.778373 L 108.36465,39.839441 L 48.210138,100.01314 z M 90.203344,64.571771 C 90.203344,74.895776 81.829663,83.269485 71.505655,83.269485 C 61.181645,83.269485 90.203344,54.247763 90.203344,64.571771 z "
     id="path2842"
     sodipodi:nodetypes="ccccccccccccccccccccccccc" />
  <rect
     rx="7.4109697"
     y="66.173767"
     x="21.611662"
     ry="7.4109697"
     height="43.364216"
     width="102.16805"
     id="rect853"
     style="fill:#ffffff;fill-rule:evenodd;stroke:#000000;stroke-width:3.45773697" />
  <path
     id="path905"
     d="M 90.872577,102.88424 L 84.676315,102.88424 L 84.676315,74.18961 L 93.896944,74.18961 L 101.42097,96.356028 L 109.01877,74.18961 L 118.27629,74.18961 L 118.27629,102.88424 L 112.08002,102.88424 L 112.08002,81.455468 L 111.93249,81.455468 L 104.48222,102.88424 L 98.470374,102.88424 L 91.020107,81.455468 L 90.872577,81.455468 L 90.872577,102.88424 z M 62.067327,92.630898 L 62.067327,102.88424 L 55.871062,102.88424 L 55.871062,74.18961 L 73.095202,74.18961 C 75.750744,74.18961 77.853048,74.976438 79.402114,76.550092 C 80.95118,78.099158 81.725713,80.385874 81.725713,83.410241 C 81.725713,86.410023 80.95118,88.696739 79.402114,90.270415 C 77.853048,91.844064 75.750744,92.630898 73.095202,92.630898 L 62.067327,92.630898 z M 62.067327,79.131868 L 62.067327,87.725493 L 70.29213,87.725493 C 71.64449,87.725493 72.750965,87.38126 73.611557,86.692783 C 74.472149,85.979724 74.902446,84.885543 74.902446,83.410241 C 74.902446,81.959529 74.472149,80.889936 73.611557,80.201462 C 72.775553,79.4884 71.669077,79.131868 70.29213,79.131868 L 62.067327,79.131868 z M 39.605868,91.598186 L 33.003896,91.598186 L 33.003896,102.88424 L 26.807631,102.88424 L 26.807631,74.18961 L 43.441651,74.18961 C 46.195546,74.18961 48.29785,74.86579 49.748563,76.218149 C 51.346805,77.69345 52.145927,79.918696 52.145927,82.893886 C 52.145927,84.049539 52.047573,85.05766 51.850867,85.91825 C 51.65416,86.754257 51.322217,87.52879 50.855038,88.241849 C 50.019034,89.545038 48.666676,90.528593 46.797961,91.192479 L 46.65043,91.229361 L 52.92046,102.88424 L 45.61772,102.88424 L 39.605868,91.598186 z M 33.003896,79.131868 L 33.003896,87.09849 L 40.232871,87.09849 C 41.658995,87.09849 42.728589,86.828022 43.441651,86.287075 C 44.35142,85.672372 44.806304,84.615071 44.806304,83.115181 C 44.806304,81.713645 44.376008,80.705523 43.515416,80.090814 C 42.679411,79.451517 41.58523,79.131868 40.232871,79.131868 L 33.003896,79.131868 z "
     style="font-size:40px;stroke-width:1pt;font-family:Trek" />
</svg>
