<svg xmlns:svg="http://www.w3.org/2000/svg" xmlns="http://www.w3.org/2000/svg" version="1.1" width="24" height="24">
  <g transform="translate(0,-1028.3622)">
    <path d="m4.8 1034.3c-0.7 0.9-1.3 1.9-2 2.8h2v-2.8zm5.6-6c-1 0-2 0.6-2.7 1.7-0.5 0.8-1.1 1.6-1.6 2.4l0 4.7 4.6 0 0 6.1-1.3 0 0-4.9-3.3 0 0 3.1c0 0.2 0 0.3 0 0.5 0 0.1 0.1 0.2 0.1 0.3 0.1 0.1 0.1 0.2 0.2 0.2 0.1 0 0.2 0.1 0.4 0.1 0.3 0 0.6 0 0.9-0.1l0.3 0.9c-0.2 0.1-0.5 0.2-0.7 0.2-0.2 0-0.5 0.1-0.7 0.1-0.6 0-1.1-0.2-1.4-0.5-0.3-0.3-0.4-0.8-0.4-1.5l0-3.1-2.8 0c-0.5 0.7-1 1.4-1.5 2.1-0.2 0.3-0.4 0.7-0.5 1 0 0 0 0 0 0-0.2 1.2 0.4 2.4 1.6 3.2 3.6 2.3 7.2 4.9 10.4 7.2 1.4 1 3.2 0.4 4.2-1.2 1.6-2.5 3.4-5.1 5.1-7.4l-1.3 0-1.4 0 0 0 0-5.2-2.1 0-1.6 1.8 2.4 3.4-1.5 0-2.2-3.1 0 3.1-1.2 0 0-8.2 1.2 0 0 4.7 2.1-2.5 4.1 0 0 4.9 0.9 0 1.3 0c0.4-0.6 0.9-1.2 1.3-1.8 0.9-1.3 0.5-2.9-0.8-4l0 0c-0.1-0.1-0.2-0.2-0.4-0.3-3.6-2.3-7.2-4.9-10.4-7.2-0.5-0.3-1-0.5-1.5-0.5zm-0.4 6.7c0.3 0 0.6 0.3 0.6 0.6 0 0.3-0.3 0.6-0.6 0.6-0.3 0-0.6-0.3-0.6-0.6 0-0.3 0.3-0.6 0.6-0.6zm9.2 0c0.3 0 0.6 0.3 0.6 0.6 0 0.3-0.3 0.6-0.6 0.6-0.3 0-0.6-0.3-0.6-0.6 0-0.3 0.3-0.6 0.6-0.6z" fill="#000"/>
  </g>
</svg>
