<?xml version="1.0" encoding="UTF-8" standalone="no"?>
<!-- Created with Inkscape (http://www.inkscape.org/) -->
<svg
   xmlns:dc="http://purl.org/dc/elements/1.1/"
   xmlns:cc="http://web.resource.org/cc/"
   xmlns:rdf="http://www.w3.org/1999/02/22-rdf-syntax-ns#"
   xmlns:svg="http://www.w3.org/2000/svg"
   xmlns="http://www.w3.org/2000/svg"
   xmlns:xlink="http://www.w3.org/1999/xlink"
   xmlns:sodipodi="http://sodipodi.sourceforge.net/DTD/sodipodi-0.dtd"
   xmlns:inkscape="http://www.inkscape.org/namespaces/inkscape"
   sodipodi:docname="deb.svg"
   sodipodi:docbase="/home/sept/svg"
   height="145.0876"
   width="143.90703"
   inkscape:version="0.45.1"
   sodipodi:version="0.32"
   id="svg1"
   inkscape:output_extension="org.inkscape.output.svg.inkscape"
   version="1.0">
  <defs
     id="defs3">
    <linearGradient
       id="linearGradient850">
      <stop
         id="stop851"
         offset="0.0000000"
         style="stop-color:#fbffff;stop-opacity:0.0000000;" />
      <stop
         id="stop852"
         offset="1.0000000"
         style="stop-color:#ffffff;stop-opacity:1.0000000;" />
    </linearGradient>
    <linearGradient
       gradientUnits="userSpaceOnUse"
       gradientTransform="matrix(0.792857,0,0,1.070722,-1.4124695,-1.7392725)"
       y2="11.502785"
       x2="22.394283"
       y1="74.459419"
       x1="78.702637"
       id="linearGradient859"
       xlink:href="#linearGradient850" />
    <linearGradient
       id="linearGradient839">
      <stop
         id="stop840"
         offset="0.0000000"
         style="stop-color:#46a046;stop-opacity:1.0000000;" />
      <stop
         id="stop841"
         offset="0.39364964"
         style="stop-color:#df421e;stop-opacity:1.0000000;" />
      <stop
         id="stop842"
         offset="0.72036445"
         style="stop-color:#ada7c8;stop-opacity:1.0000000;" />
      <stop
         id="stop843"
         offset="1.0000000"
         style="stop-color:#eed680;stop-opacity:1.0000000;" />
    </linearGradient>
    <linearGradient
       id="linearGradient833">
      <stop
         id="stop834"
         offset="0.0000000"
         style="stop-color:#00ff00;stop-opacity:1.0000000;" />
      <stop
         id="stop837"
         offset="0.30839416"
         style="stop-color:#ff0000;stop-opacity:1.0000000;" />
      <stop
         id="stop838"
         offset="0.75000000"
         style="stop-color:#7f8cff;stop-opacity:1.0000000;" />
      <stop
         id="stop835"
         offset="1.0000000"
         style="stop-color:#ffff00;stop-opacity:1.0000000;" />
    </linearGradient>
    <linearGradient
       gradientUnits="userSpaceOnUse"
       gradientTransform="matrix(0.672977,0,0,1.261455,-1.4124695,-1.7392725)"
       y2="16.549269"
       x2="110.16822"
       y1="79.337822"
       x1="157.2149"
       id="linearGradient836"
       xlink:href="#linearGradient850" />
    <linearGradient
       y2="0.019354839"
       x2="0.029508196"
       y1="0.66881722"
       x1="0.61967212"
       id="linearGradient855"
       xlink:href="#linearGradient850" />
    <linearGradient
       y2="0.2920354"
       x2="0.67540985"
       y1="0.92035401"
       x1="0.39344263"
       id="linearGradient853"
       xlink:href="#linearGradient850" />
  </defs>
  <sodipodi:namedview
     inkscape:current-layer="svg1"
     inkscape:window-y="34"
     inkscape:window-x="469"
     gridspacingy="1.0000000mm"
     gridspacingx="1.0000000mm"
     snaptogrid="false"
     showgrid="true"
     inkscape:window-height="653"
     inkscape:window-width="751"
     inkscape:cy="86.627696"
     inkscape:cx="65.758479"
     inkscape:zoom="2.5117188"
     inkscape:pageshadow="2"
     inkscape:pageopacity="0.0"
     borderopacity="1.0"
     bordercolor="#666666"
     pagecolor="#ffffff"
     id="base" />
  <path
     id="path874"
     d="M 74.400924,5.7585855 L 5.7585855,23.149513 L 5.9025505,113.96244 L 5.9313435,113.96244 L 5.9313435,114.1352 L 6.1904795,114.07762 L 74.228167,139.32901 L 138.14844,112.9259 L 138.14844,107.65679 L 138.14844,23.149513 L 74.400924,5.7585855 z "
     style="font-size:40px;fill:none;stroke:#000000;stroke-width:11.51717091;stroke-linejoin:round;stroke-opacity:0.5;font-family:Trek" />
  <path
     sodipodi:nodetypes="ccccc"
     id="path633"
     d="M 138.06654,23.168205 L 138.06654,107.66753 L 76.378206,94.096744 L 74.311739,5.7907615 L 138.06654,23.168205 z "
     style="font-size:12px;fill:#515151;fill-rule:evenodd;stroke:#000000;stroke-width:6.92930984;stroke-linecap:round;stroke-linejoin:round" />
  <path
     sodipodi:nodetypes="ccccc"
     id="path631"
     d="M 5.6560605,23.168205 L 74.311739,5.7907615 L 78.710125,97.105124 L 5.8361145,114.14523 L 5.6560605,23.168205 z "
     style="font-size:12px;fill:#4a494d;fill-rule:evenodd;stroke:#000000;stroke-width:6.92930984;stroke-linecap:round;stroke-linejoin:round" />
  <path
     sodipodi:nodetypes="ccccc"
     id="path640"
     d="M 74.144246,44.29303 L 138.06654,23.168205 L 74.311739,5.7907615 L 5.6560605,23.168205 L 74.144246,44.29303 z "
     style="font-size:12px;fill:#9db8d2;fill-rule:evenodd;stroke:#000000;stroke-width:6.92930984;stroke-linecap:round;stroke-linejoin:round" />
  <path
     sodipodi:nodetypes="ccccc"
     id="path627"
     d="M 138.06654,23.168205 L 138.06654,112.94874 L 74.144246,139.35476 L 74.144246,44.29303 L 138.06654,23.168205 z "
     style="font-size:12px;fill:#4b6983;fill-rule:evenodd;stroke:#000000;stroke-width:6.92930984;stroke-linecap:round;stroke-linejoin:round" />
  <path
     sodipodi:nodetypes="ccccc"
     id="path629"
     d="M 74.144246,44.29303 L 74.144246,139.35476 L 5.7974215,113.97128 L 5.6560605,23.168205 L 74.144246,44.29303 z "
     style="font-size:12px;fill:#7590ae;fill-rule:evenodd;stroke:#000000;stroke-width:6.92930984;stroke-linecap:round;stroke-linejoin:round" />
  <path
     sodipodi:nodetypes="ccccc"
     id="path892"
     d="M 74.058502,9.3967755 L 9.4034375,25.907433 L 9.4034375,110.36526 C 76.698959,136.76657 87.906822,154.08757 70.705722,41.850924 C 131.65644,19.39442 74.058502,9.3967755 74.058502,9.3967755 z "
     style="fill:url(#linearGradient859);fill-opacity:1;fill-rule:evenodd;stroke:none;stroke-width:1pt;stroke-linecap:butt;stroke-linejoin:miter;stroke-opacity:1" />
  <path
     sodipodi:nodetypes="cccccc"
     id="path849"
     d="M 77.727329,46.96378 L 77.727329,133.31778 C 77.980567,133.31778 104.82372,123.18828 117.23236,110.5264 C 129.89423,100.14366 134.19927,79.124937 134.19927,79.124937 L 134.19927,27.464495 L 77.727329,46.96378 z "
     style="fill:url(#linearGradient836);fill-opacity:0.75;fill-rule:evenodd;stroke:none;stroke-width:1pt;stroke-linecap:butt;stroke-linejoin:miter;stroke-opacity:1" />
  <path
     sodipodi:nodetypes="ccccc"
     id="path852"
     d="M 74.144246,44.29303 L 74.144246,139.35476 L 5.7974215,113.97128 L 5.6560605,23.168205 L 74.144246,44.29303 z "
     style="font-size:12px;fill:none;fill-rule:evenodd;stroke:#000000;stroke-width:6.92930984;stroke-linecap:round;stroke-linejoin:round" />
  <path
     id="selection_to_path"
     d="M 75.181369,10.950329 C 75.181369,10.950329 75.121722,11.010986 75.121722,11.010986 C 75.121722,11.010986 75.121722,10.950329 75.121722,10.950329 C 75.121722,10.950329 75.181369,10.950329 75.181369,10.950329 z M 73.981408,11.133309 C 73.681169,11.19396 73.501224,11.255626 73.200986,11.133309 C 73.200986,11.133309 73.981408,11.133309 73.981408,11.133309 z M 70.14094,11.559913 C 70.441185,11.499257 70.98101,11.37694 71.281254,11.499257 C 70.741423,11.742887 70.14094,12.048184 69.721408,12.414138 C 70.741423,12.108841 71.340895,12.231164 72.360911,12.353481 C 72.360911,12.353481 73.441583,12.474795 73.441583,12.474795 C 73.081697,12.536462 72.721812,12.657769 72.481208,12.901399 C 72.481208,12.901399 73.200986,12.963066 73.200986,12.963066 C 73.200986,12.963066 76.321683,12.597112 76.321683,12.597112 C 76.861515,12.597112 77.401337,12.719436 77.881519,12.901399 C 77.881519,12.901399 77.76122,12.231164 77.76122,12.231164 C 77.76122,12.231164 79.561655,12.780092 79.561655,12.780092 C 80.881907,13.206697 82.021201,13.511993 83.281817,14.060922 C 83.281817,14.060922 84.782021,14.792829 84.782021,14.792829 C 84.961957,14.914137 85.321834,15.09711 85.501787,15.158776 C 85.921317,15.219433 86.701748,14.853479 87.241581,14.792829 C 87.541819,14.792829 88.502186,14.975802 88.68213,15.219433 C 88.862065,15.402407 88.802434,15.646037 89.342266,16.134315 C 89.761796,16.500261 90.542227,16.987523 91.022401,17.29282 C 91.022401,17.29282 91.08205,17.232169 91.08205,17.232169 C 91.08205,17.232169 90.121675,16.072648 90.121675,16.072648 C 90.961747,16.438594 92.461952,17.536451 93.181722,18.147044 C 95.762592,20.158771 97.982562,22.720435 99.602052,25.58638 C 100.14188,26.501262 100.56242,27.477803 100.92231,28.45334 C 101.04261,28.757621 101.28219,29.368216 101.28219,29.672503 C 101.10225,29.30655 100.98196,29.185242 100.68271,28.940602 C 100.68271,29.489529 100.74236,29.855477 100.802,30.404404 C 100.86267,30.648041 100.92231,30.892682 100.74236,31.075655 C 100.74236,31.075655 101.76238,34.246903 101.76238,34.246903 C 101.82202,34.551184 102.06262,35.161778 101.94231,35.466066 C 101.64208,34.12458 100.92231,32.294825 100.38248,31.013989 C 100.20253,30.466071 99.602052,29.245899 99.182512,28.879946 C 99.182512,29.002268 99.182512,29.123576 99.062232,29.245899 C 98.761982,29.611846 98.042202,29.002268 97.862272,29.611846 C 97.802622,29.917143 98.042202,30.831015 98.162502,31.136311 C 98.342452,31.502265 98.522392,31.685239 98.761982,31.258628 C 98.761982,31.258628 98.882272,31.258628 98.882272,31.258628 C 99.482762,32.234167 99.302822,32.173511 99.482762,33.209699 C 99.482762,33.209699 100.02259,35.588389 100.02259,35.588389 C 99.422102,35.222435 99.482762,34.490535 98.941922,34.490535 C 98.941922,34.490535 99.362472,35.954337 99.362472,35.954337 C 99.662712,36.624578 99.781992,36.746895 100.14188,37.295822 C 99.961942,37.356479 99.902292,37.356479 99.781992,37.539453 C 99.662712,37.844749 99.722352,38.942605 99.781992,39.247901 C 99.842652,39.429865 99.961942,39.795819 100.20253,39.918143 C 100.32282,39.918143 100.56242,39.857486 100.68271,39.795819 C 100.68271,39.795819 99.842652,42.540458 99.842652,42.540458 C 99.842652,42.540458 99.662712,43.698969 99.662712,43.698969 C 99.662712,43.698969 99.662712,44.309562 99.662712,44.309562 C 99.662712,44.309562 99.121872,42.967068 99.121872,42.967068 C 99.121872,42.967068 99.062232,44.309562 99.062232,44.309562 C 98.822632,44.247897 98.702342,44.309562 98.642692,44.553194 C 98.642692,44.553194 98.522392,46.077653 98.522392,46.077653 C 98.222152,47.480804 97.442742,48.699974 96.901882,49.980802 C 96.542012,50.773361 96.602662,51.322287 96.482362,51.565918 C 96.482362,51.565918 95.881882,50.590387 95.881882,50.590387 C 95.521992,51.018 94.802222,52.176511 94.861872,52.72544 C 94.861872,52.72544 94.922512,53.152051 94.922512,53.152051 C 94.922512,53.517997 94.742582,53.944609 94.562632,54.189249 C 94.501972,53.517997 94.501972,53.761628 94.742582,53.152051 C 93.902502,53.700978 93.242382,54.493536 92.521592,55.225437 C 91.922128,55.835022 91.202354,56.38395 90.481563,56.932876 C 88.022002,58.701977 85.141904,59.79983 82.202157,60.104116 C 82.202157,60.104116 80.881907,60.22644 80.881907,60.22644 C 80.881907,60.22644 79.681955,60.22644 79.681955,60.22644 C 79.681955,60.22644 79.081472,60.164777 79.081472,60.164777 C 77.581281,60.043465 76.261026,59.860492 74.821484,59.433883 C 74.461598,59.311562 73.441583,59.06793 73.141338,58.884957 C 73.141338,58.884957 72.661155,58.336028 72.661155,58.336028 C 72.661155,58.336028 71.340895,57.298824 71.340895,57.298824 C 69.241223,55.530735 67.321491,53.761628 66.060879,51.20098 C 65.400749,49.737172 65.040864,48.212712 64.920565,46.62658 C 64.920565,46.62658 64.860925,45.894679 64.860925,45.894679 C 64.860925,45.894679 64.860925,44.613851 64.860925,44.613851 C 64.860925,44.613851 65.040864,42.357483 65.040864,42.357483 C 65.040864,42.357483 65.641352,41.198972 65.641352,41.198972 C 66.060879,40.101117 66.301482,39.003262 66.960596,38.02773 C 67.501437,37.112849 67.741025,37.173506 67.981621,36.869217 C 67.981621,36.869217 68.460796,36.076659 68.460796,36.076659 C 68.701392,35.649039 69.241223,35.039461 69.601109,34.673508 C 71.101308,33.271366 73.081697,32.294825 75.061071,31.990535 C 75.781852,31.928871 76.501622,31.928871 77.221399,31.928871 C 78.661945,31.928871 80.101481,32.477797 81.362084,33.149048 C 82.261802,33.575653 83.041217,34.185237 83.762005,34.917138 C 84.062239,35.222435 84.361477,35.466066 84.541424,35.83202 C 83.88129,35.344759 83.6417,35.100113 82.861276,34.673508 C 81.601673,33.941607 79.7416,33.392679 78.301051,33.392679 C 77.161753,33.392679 76.440972,33.392679 75.301668,33.697975 C 71.520841,34.673508 68.581093,37.418145 67.381139,41.198972 C 67.080894,42.174509 66.900955,43.150042 66.841307,44.126589 C 66.841307,44.126589 66.78065,44.85849 66.78065,44.85849 C 66.78065,44.85849 66.841307,45.651048 66.841307,45.651048 C 66.841307,45.651048 67.201193,45.285094 67.201193,45.285094 C 67.201193,50.041459 70.26124,54.554186 74.400941,56.689246 C 75.721201,57.421147 77.641931,58.091382 79.141112,58.091382 C 81.001195,58.091382 81.901911,57.970075 83.6417,57.238174 C 83.6417,57.238174 83.701349,57.421147 83.701349,57.421147 C 84.481775,57.238174 85.442138,56.87222 86.04162,56.38395 C 86.701748,55.896689 87.302235,55.164781 87.962362,54.798833 C 87.721754,55.103114 87.361875,55.34776 87.241581,55.774364 C 87.901708,55.713707 88.561835,55.103114 89.042018,54.737166 C 89.042018,54.737166 91.321644,52.72544 91.321644,52.72544 C 91.801828,52.297826 92.582242,51.748898 92.702552,51.078658 C 92.762192,50.773361 92.702552,50.652054 92.702552,50.407413 C 92.702552,49.980802 92.882482,49.371218 93.181722,49.126578 C 93.481962,48.943604 93.962152,48.82229 94.142082,48.516993 C 94.142082,48.516993 94.562632,47.419139 94.562632,47.419139 C 94.922512,46.56593 95.162102,45.834022 95.282402,44.919148 C 95.342052,44.553194 95.401692,44.247897 95.282402,43.881943 C 95.282402,43.881943 94.802222,44.85849 94.802222,44.85849 C 94.982162,43.881943 95.221752,43.028734 95.221752,42.053196 C 95.221752,42.053196 95.282402,41.015998 95.282402,41.015998 C 95.282402,41.015998 95.282402,40.161773 95.282402,40.161773 C 95.282402,40.161773 95.221752,39.552189 95.221752,39.552189 C 95.221752,39.552189 95.221752,37.112849 95.221752,37.112849 C 95.221752,36.320291 95.041812,36.746895 94.922512,36.137317 C 94.922512,36.137317 94.861872,35.161778 94.861872,35.161778 C 94.742582,34.429877 94.562632,33.697975 94.381682,32.966068 C 93.422322,29.794827 91.682538,27.050189 89.522202,24.610848 C 87.541819,22.354481 85.321834,20.647042 82.501391,19.609845 C 80.821247,19.000259 78.72159,18.573655 76.921156,18.451332 C 76.921156,18.451332 76.321683,18.390675 76.321683,18.390675 C 76.321683,18.390675 75.721201,18.390675 75.721201,18.390675 C 75.721201,18.390675 75.121722,18.330024 75.121722,18.330024 C 75.121722,18.330024 74.821484,18.330024 74.821484,18.330024 C 74.821484,18.330024 73.741821,18.390675 73.741821,18.390675 C 73.741821,18.390675 72.061683,18.573655 72.061683,18.573655 C 71.821086,18.634305 71.461194,18.756629 71.221606,18.695972 C 71.340895,18.390675 70.921369,18.512998 70.741423,18.512998 C 70.741423,18.512998 69.181582,18.817286 69.181582,18.817286 C 67.26084,19.24389 66.78065,20.037457 65.161169,20.707698 C 65.161169,20.707698 63.72061,21.256626 63.72061,21.256626 C 63.601321,21.318293 63.601321,21.378942 63.540664,21.501266 C 63.540664,21.501266 65.161169,21.195969 65.161169,21.195969 C 64.501039,21.988528 63.00084,21.805554 62.040466,22.049184 C 60.840511,22.354481 59.340312,23.574659 58.620534,24.550191 C 59.041077,24.489535 59.280664,24.306561 59.640549,24.123587 C 59.580908,24.367218 59.340312,24.733165 59.160365,24.854479 C 59.041077,24.916145 58.740833,24.916145 58.620534,24.916145 C 58.380947,24.916145 58.14035,25.037453 57.960411,25.099119 C 57.240634,25.34275 56.460205,25.891677 55.860732,26.318281 C 54.360533,27.416136 52.920991,28.879946 51.660379,30.283097 C 50.700005,31.319285 49.740647,32.477797 49.020876,33.697975 C 49.020876,33.697975 49.67999,33.819283 49.67999,33.819283 C 49.320105,34.795831 48.839921,35.771363 48.360746,36.686244 C 47.940204,37.418145 47.280074,38.698974 47.040486,39.491533 C 47.040486,39.491533 46.6806,42.784087 46.6806,42.784087 C 46.6806,42.784087 46.260064,47.236165 46.260064,47.236165 C 46.260064,47.236165 46.200417,47.846758 46.200417,47.846758 C 46.200417,47.846758 46.140776,49.614848 46.140776,49.614848 C 46.140776,49.614848 46.200417,50.407413 46.200417,50.407413 C 46.200417,51.20098 46.320716,52.114846 46.560302,52.846754 C 46.560302,52.846754 47.160791,54.127582 47.160791,54.127582 C 47.220432,54.554186 46.979836,55.652042 47.040486,56.079661 C 47.040486,56.079661 47.760263,57.664778 47.760263,57.664778 C 47.760263,57.664778 47.400378,57.664778 47.400378,57.664778 C 47.580318,58.57966 48.240447,60.409419 49.020876,60.896674 C 49.5607,61.262633 49.980234,60.896674 50.640364,61.567931 C 51.300494,62.239179 52.020265,63.76364 52.320502,64.678521 C 51.600731,64.495542 51.420792,64.129594 50.940602,63.641315 C 51.120547,64.616858 51.540081,65.410425 52.080915,66.263638 C 52.080915,66.263638 52.741045,67.300839 52.741045,67.300839 C 52.920991,67.666788 52.440807,67.788094 52.560089,68.154052 C 52.680394,68.702981 53.520464,69.25191 53.880349,69.678514 C 53.580105,69.557202 53.340518,69.557202 53.460816,69.983812 C 53.520464,70.227442 53.820708,70.655059 53.941007,70.898694 C 53.941007,70.898694 55.560494,73.215708 55.560494,73.215708 C 55.801091,73.581662 56.280266,74.192258 56.460205,74.558212 C 56.460205,74.558212 56.821105,74.069929 56.821105,74.069929 C 56.821105,74.069929 56.940396,74.618863 56.940396,74.618863 C 57.180992,75.411421 57.720823,76.143329 58.201008,76.814576 C 58.501245,77.24118 58.620534,77.607134 59.160365,77.607134 C 59.280664,77.607134 59.701206,77.607134 59.820495,77.667789 C 59.940794,77.729448 60.120733,77.973083 60.18038,78.094399 C 60.420977,78.399697 60.541275,78.522016 60.840511,78.826296 C 61.500634,79.497544 61.921176,79.802853 62.820894,80.16879 C 62.820894,80.16879 62.220411,81.022015 62.220411,81.022015 C 62.761252,81.144333 63.481024,81.448608 63.90055,81.753907 C 63.90055,81.753907 64.740626,82.363496 64.740626,82.363496 C 64.740626,82.363496 66.420764,83.157062 66.420764,83.157062 C 66.420764,83.157062 65.940581,82.180516 65.940581,82.180516 C 66.54107,82.608133 67.141551,83.400692 67.681383,83.94962 C 68.221208,84.498548 69.241223,85.291104 69.960994,85.596402 C 71.160956,86.145328 72.721812,86.388958 74.041055,86.632597 C 74.52124,86.694264 76.021438,86.998548 76.381325,87.181524 C 76.381325,87.181524 75.241011,87.12087 75.241011,87.12087 C 75.241011,87.12087 74.101713,87.12087 74.101713,87.12087 C 74.101713,87.12087 73.200986,87.059202 73.200986,87.059202 C 68.76104,86.998548 63.84091,84.864502 60.18038,82.363496 C 52.080915,76.875226 46.140776,68.337022 43.680203,58.762633 C 43.140371,56.628589 42.780486,54.493536 42.660187,52.297826 C 42.660187,52.297826 42.600546,51.565918 42.600546,51.565918 C 42.600546,51.565918 42.600546,50.590387 42.600546,50.590387 C 42.600546,50.590387 42.539889,49.797829 42.539889,49.797829 C 42.539889,49.797829 42.600546,47.480804 42.600546,47.480804 C 42.600546,47.480804 42.539889,46.748904 42.539889,46.748904 C 42.539889,46.748904 42.539889,45.834022 42.539889,45.834022 C 42.539889,45.834022 42.600546,44.919148 42.600546,44.919148 C 42.600546,44.919148 42.600546,43.515995 42.600546,43.515995 C 42.600546,43.515995 42.660187,42.540458 42.660187,42.540458 C 42.660187,42.540458 42.660187,41.015998 42.660187,41.015998 C 42.660187,41.015998 42.4206,39.308558 42.4206,39.308558 C 42.4206,39.125585 42.600546,38.698974 42.660187,38.516 C 42.660187,38.516 43.320317,36.441598 43.320317,36.441598 C 43.860148,34.551184 45.119745,31.258628 46.020478,29.611846 C 46.500661,29.73417 46.79989,29.368216 47.040486,29.002268 C 47.400378,28.513992 47.999851,26.989532 48.240447,26.318281 C 48.420387,26.014001 48.839921,25.037453 49.020876,24.793822 C 49.140165,24.610848 49.320105,24.671499 49.440403,24.489535 C 49.440403,24.489535 49.67999,23.940607 49.67999,23.940607 C 49.859936,23.574659 49.980234,23.330014 50.22083,23.025732 C 51.18019,21.744897 52.800693,20.281089 54.000648,19.183234 C 54.000648,19.183234 54.781075,18.451332 54.781075,18.451332 C 55.140961,18.085379 55.560494,17.598117 55.98103,17.29282 C 55.98103,17.29282 56.040679,17.902405 56.040679,17.902405 C 58.560892,15.707704 60.840511,14.670506 63.781267,13.32902 C 63.781267,13.32902 66.121536,12.291815 66.121536,12.291815 C 66.121536,12.291815 67.620725,11.682237 67.620725,11.682237 C 67.620725,11.682237 67.561078,11.987534 67.561078,11.987534 C 68.460796,11.987534 69.300871,11.742887 70.14094,11.559913 z M 75.061071,11.987534 C 74.821484,12.291815 74.52124,12.108841 74.220995,11.987534 C 74.220995,11.987534 73.681169,11.865211 73.681169,11.865211 C 73.681169,11.865211 75.061071,11.987534 75.061071,11.987534 z M 44.57992,27.355486 C 44.759859,28.025721 44.220034,28.757621 43.620561,29.002268 C 43.91979,28.331018 43.980447,28.208695 44.040088,27.416136 C 44.040088,27.416136 44.57992,27.355486 44.57992,27.355486 z M 42.4206,33.88095 C 42.4206,33.88095 42.000057,35.527732 42.000057,35.527732 C 42.000057,35.527732 41.940417,34.429877 41.940417,34.429877 C 42.000057,33.941607 42.239645,33.454346 42.539889,33.088391 C 42.539889,33.088391 42.4206,33.88095 42.4206,33.88095 z M 86.701748,42.723437 C 86.701748,42.601114 86.581444,42.418141 86.581444,42.296826 C 86.521803,41.99153 86.761397,41.625582 87.001996,41.442602 C 87.241581,41.930879 87.241581,42.784087 87.001996,43.272365 C 86.822042,43.089384 86.822042,42.967068 86.701748,42.723437 z M 99.062232,45.955336 C 99.062232,45.955336 99.062232,45.589382 99.062232,45.589382 C 99.062232,45.589382 99.062232,45.955336 99.062232,45.955336 z M 100.38248,46.38295 C 100.26218,46.870211 100.14188,47.968065 99.902292,48.33402 C 99.902292,48.33402 100.44212,45.589382 100.44212,45.589382 C 100.50278,45.834022 100.44212,46.13831 100.38248,46.38295 z M 86.04162,46.687237 C 86.04162,46.687237 85.981971,46.748904 85.981971,46.748904 C 85.981971,46.748904 85.981971,46.687237 85.981971,46.687237 C 85.981971,46.687237 86.04162,46.687237 86.04162,46.687237 z M 84.72136,47.541461 C 84.422138,48.029732 84.18153,48.33402 84.001594,48.882947 C 84.301834,48.943604 84.361477,48.882947 84.661728,48.760625 C 85.442138,48.33402 85.381493,47.785092 85.861676,47.175508 C 85.681732,47.907415 85.201549,48.760625 84.782021,49.371218 C 84.782021,49.371218 84.661728,49.371218 84.661728,49.371218 C 84.361477,49.00527 84.121888,49.126578 84.001594,48.882947 C 83.88129,48.639316 84.001594,48.394677 84.062239,48.212712 C 84.242186,47.846758 84.72136,47.175508 84.961957,46.870211 C 85.0216,47.114857 84.841664,47.358488 84.72136,47.541461 z M 85.981971,46.870211 C 85.981971,46.870211 85.921317,46.931877 85.921317,46.931877 C 85.921317,46.931877 85.921317,46.870211 85.921317,46.870211 C 85.921317,46.870211 85.981971,46.870211 85.981971,46.870211 z M 98.882272,46.931877 C 98.882272,46.931877 98.822632,46.992534 98.822632,46.992534 C 98.822632,46.992534 98.822632,46.931877 98.822632,46.931877 C 98.822632,46.931877 98.882272,46.931877 98.882272,46.931877 z M 99.362472,50.163776 C 99.362472,50.163776 99.302822,50.224433 99.302822,50.224433 C 99.302822,50.224433 99.302822,50.163776 99.302822,50.163776 C 99.302822,50.163776 99.362472,50.163776 99.362472,50.163776 z M 99.302822,50.346756 C 99.302822,50.346756 99.242162,50.407413 99.242162,50.407413 C 99.242162,50.407413 99.242162,50.346756 99.242162,50.346756 C 99.242162,50.346756 99.302822,50.346756 99.302822,50.346756 z M 99.182512,50.652054 C 99.182512,50.652054 99.121872,50.712704 99.121872,50.712704 C 99.121872,50.712704 99.121872,50.652054 99.121872,50.652054 C 99.121872,50.652054 99.182512,50.652054 99.182512,50.652054 z M 99.062232,50.956341 C 99.062232,50.956341 99.002582,51.018 99.002582,51.018 C 99.002582,51.018 99.002582,50.956341 99.002582,50.956341 C 99.002582,50.956341 99.062232,50.956341 99.062232,50.956341 z M 78.661945,51.261638 C 78.661945,51.261638 79.322071,51.261638 79.322071,51.261638 C 79.322071,51.261638 80.34208,51.20098 80.34208,51.20098 C 80.581663,51.139315 80.761606,51.078658 81.001195,51.139315 C 80.701964,51.382944 80.221782,51.871216 79.921538,51.993538 C 79.681955,52.114846 79.441355,51.993538 79.201772,51.931872 C 78.661945,51.871216 78.061463,51.688242 77.581281,51.382944 C 77.581281,51.382944 77.581281,51.261638 77.581281,51.261638 C 78.061463,51.139315 78.181763,51.20098 78.661945,51.261638 z M 65.521054,51.444612 C 65.521054,51.444612 65.461407,51.505269 65.461407,51.505269 C 65.461407,51.505269 65.461407,51.444612 65.461407,51.444612 C 65.461407,51.444612 65.521054,51.444612 65.521054,51.444612 z M 65.940581,52.237169 C 66.181178,52.603123 66.661368,53.274367 66.60071,53.761628 C 66.301482,53.212701 65.641352,52.176511 65.521054,51.565918 C 65.521054,51.565918 65.940581,52.237169 65.940581,52.237169 z M 65.040864,54.127582 C 65.400749,54.737166 66.481422,56.445615 66.661368,56.932876 C 66.001238,56.445615 65.341108,55.469068 64.860925,54.737166 C 64.740626,54.554186 64.321093,54.006275 64.321093,53.823296 C 64.26145,53.640322 64.380741,53.212701 64.380741,53.029727 C 64.621338,53.212701 64.920565,53.823296 65.040864,54.127582 z M 67.681383,55.957338 C 68.581093,56.994543 69.300871,57.847752 70.500826,58.519003 C 70.500826,58.519003 69.660757,57.664778 69.660757,57.664778 C 69.300871,57.298824 68.581093,56.445615 68.341507,55.957338 C 68.701392,56.262635 69.001636,56.628589 69.361522,56.932876 C 70.14094,57.604121 70.921369,58.274362 71.821086,58.762633 C 72.180971,58.945607 72.540857,59.189244 72.901752,59.311562 C 72.901752,59.311562 72.901752,59.006264 72.901752,59.006264 C 73.200986,59.189244 73.261638,59.311562 73.501224,59.555193 C 73.86111,59.860492 74.52124,60.347746 74.941782,60.592394 C 75.721201,61.019004 77.341697,61.324296 78.241408,61.445608 C 78.241408,61.445608 80.881907,61.567931 80.881907,61.567931 C 81.241789,61.567931 81.961556,61.507276 82.261802,61.628587 C 80.581663,62.177516 78.841888,62.116855 77.161753,61.811562 C 74.400941,61.201977 71.761438,59.921146 69.480811,58.153048 C 68.341507,57.298824 66.661368,55.652042 66.060879,54.310556 C 66.60071,54.554186 67.26084,55.469068 67.681383,55.957338 z "
     style="fill:#de0551;fill-opacity:1;stroke:none;stroke-width:0.54859185;stroke-miterlimit:4" />
  <rect
     rx="7.4109688"
     y="66.124275"
     x="21.595503"
     ry="7.4109688"
     height="43.331787"
     width="102.09166"
     id="rect853"
     style="fill:#ffffff;fill-rule:evenodd;stroke:#000000;stroke-width:3.45515132" />
  <path
     id="path889"
     d="M 87.744752,102.57801 L 87.744752,73.904838 L 105.50883,73.904838 C 107.86755,73.904838 109.84542,74.506803 111.44248,75.710731 C 113.26065,77.037509 114.16974,78.806546 114.16974,81.017843 C 114.16974,82.639461 113.7889,84.101374 113.02724,85.403586 C 112.65869,85.993265 112.21643,86.509234 111.70046,86.951493 C 111.18449,87.36918 110.49653,87.799157 109.63658,88.241417 C 111.11078,88.78195 112.29014,89.654186 113.17466,90.858136 C 114.05918,92.062068 114.50144,93.450264 114.50144,95.022744 C 114.50144,97.750014 113.58006,99.740174 111.73732,100.99324 C 110.23855,102.04975 108.16239,102.57801 105.50883,102.57801 L 87.744752,102.57801 z M 103.59237,85.8827 C 104.94372,85.8827 105.97565,85.563287 106.68819,84.924471 C 107.40071,84.285649 107.75698,83.40113 107.75698,82.270911 C 107.75698,79.838485 106.36878,78.622272 103.59237,78.622272 L 93.936382,78.622272 L 93.936382,85.8827 L 103.59237,85.8827 z M 103.59237,97.860574 C 104.94372,97.860574 105.97565,97.541164 106.68819,96.902344 C 107.40071,96.263534 107.75698,95.379014 107.75698,94.248794 C 107.75698,91.816365 106.36878,90.600152 103.59237,90.600152 L 93.936382,90.600152 L 93.936382,97.860574 L 103.59237,97.860574 z M 84.796353,90.600152 L 67.953643,90.600152 L 67.953643,90.784426 L 68.395902,93.032574 C 68.764451,94.211934 69.390986,95.268444 70.275504,96.202104 C 70.472064,96.349524 70.656338,96.472374 70.828328,96.570654 C 71.147738,96.767214 71.589998,97.000634 72.155107,97.270894 L 73.334465,97.565734 L 74.919228,97.676304 L 84.796353,97.676304 L 84.796353,102.57801 L 73.187045,102.57801 C 69.304991,102.57801 66.31974,101.34951 64.231293,98.892514 C 62.167416,96.410954 61.135477,92.860584 61.135477,88.241417 C 61.135477,83.57312 62.167416,80.02276 64.231293,77.590333 C 66.29517,75.133337 69.280421,73.904838 73.187045,73.904838 L 84.796353,73.904838 L 84.796353,78.843401 L 74.919228,78.843401 L 74.218984,78.843401 L 73.51874,78.917111 C 73.027341,78.917111 72.511371,79.039962 71.970832,79.285661 C 71.454863,79.531361 70.889754,79.87534 70.275504,80.317599 C 69.685825,80.907278 69.169856,81.681232 68.727596,82.639461 C 68.457327,83.278281 68.199343,84.297934 67.953643,85.698425 L 67.953643,85.8827 L 84.796353,85.8827 L 84.796353,90.600152 z M 31.13555,73.904838 L 46.356644,73.904838 C 50.214128,73.904838 53.150239,75.133337 55.164976,77.590333 C 57.179713,80.04733 58.187082,83.59769 58.187082,88.241417 C 58.187082,92.836024 57.179713,96.374094 55.164976,98.855664 C 53.174809,101.33722 50.238698,102.57801 46.356644,102.57801 L 31.13555,102.57801 L 31.13555,73.904838 z M 37.106052,97.676304 L 44.366476,97.676304 C 46.774333,97.676304 48.555656,96.902344 49.710444,95.354444 C 50.865232,93.781954 51.442626,91.41096 51.442626,88.241417 C 51.442626,85.071891 50.889802,82.713171 49.784154,81.165263 C 48.703076,79.617355 46.897183,78.843401 44.366476,78.843401 L 37.106052,78.843401 L 37.106052,97.676304 z "
     style="font-size:40px;stroke-width:1pt;font-family:Trek" />
  <metadata
     id="metadata33">
    <rdf:RDF>
      <cc:Work
         rdf:about="">
        <dc:format>image/svg+xml</dc:format>
        <dc:type
           rdf:resource="http://purl.org/dc/dcmitype/StillImage" />
      </cc:Work>
    </rdf:RDF>
  </metadata>
</svg>
