<?xml version="1.0" encoding="UTF-8" standalone="no"?>
<!-- Created with Inkscape (http://www.inkscape.org/) -->
<svg
   xmlns:dc="http://purl.org/dc/elements/1.1/"
   xmlns:cc="http://web.resource.org/cc/"
   xmlns:rdf="http://www.w3.org/1999/02/22-rdf-syntax-ns#"
   xmlns:svg="http://www.w3.org/2000/svg"
   xmlns="http://www.w3.org/2000/svg"
   xmlns:xlink="http://www.w3.org/1999/xlink"
   xmlns:sodipodi="http://sodipodi.sourceforge.net/DTD/sodipodi-0.dtd"
   xmlns:inkscape="http://www.inkscape.org/namespaces/inkscape"
   id="svg1"
   sodipodi:version="0.32"
   inkscape:version="0.45.1"
   width="125.25612"
   height="140.88696"
   sodipodi:docbase="/home/sept/svg"
   sodipodi:docname="swfl.svg"
   inkscape:output_extension="org.inkscape.output.svg.inkscape"
   version="1.0">
  <metadata
     id="metadata15">
    <rdf:RDF>
      <cc:Work
         rdf:about="">
        <dc:format>image/svg+xml</dc:format>
        <dc:type
           rdf:resource="http://purl.org/dc/dcmitype/StillImage" />
      </cc:Work>
    </rdf:RDF>
  </metadata>
  <defs
     id="defs3">
    <linearGradient
       id="linearGradient3587">
      <stop
         id="stop3589"
         offset="0.0000000"
         style="stop-color:#efe0cd;stop-opacity:0.56097561;" />
      <stop
         id="stop3591"
         offset="1.0000000"
         style="stop-color:#cececd;stop-opacity:0.21951219;" />
    </linearGradient>
    <linearGradient
       id="linearGradient2832">
      <stop
         style="stop-color:#ffffff;stop-opacity:1.0000000;"
         offset="0.0000000"
         id="stop2834" />
      <stop
         style="stop-color:#ffffff;stop-opacity:0.0000000;"
         offset="1.0000000"
         id="stop2836" />
    </linearGradient>
    <linearGradient
       id="linearGradient839">
      <stop
         style="stop-color:#46a046;stop-opacity:1.0000000;"
         offset="0.0000000"
         id="stop840" />
      <stop
         style="stop-color:#df421e;stop-opacity:1.0000000;"
         offset="0.39364964"
         id="stop841" />
      <stop
         style="stop-color:#ada7c8;stop-opacity:1.0000000;"
         offset="0.72036445"
         id="stop842" />
      <stop
         style="stop-color:#eed680;stop-opacity:1.0000000;"
         offset="1.0000000"
         id="stop843" />
    </linearGradient>
    <linearGradient
       xlink:href="#linearGradient1353"
       id="linearGradient836"
       x1="112.71867"
       y1="40.62048"
       x2="168.28795"
       y2="94.271507"
       gradientUnits="userSpaceOnUse"
       spreadMethod="reflect" />
    <linearGradient
       inkscape:collect="always"
       xlink:href="#linearGradient2832"
       id="linearGradient2830"
       gradientTransform="matrix(0.939922,0,0,0.896911,-12.081743,-3.3524235)"
       x1="23.983805"
       y1="16.369013"
       x2="72.999245"
       y2="73.39872"
       gradientUnits="userSpaceOnUse" />
    <linearGradient
       y2="93.732185"
       x2="107.31592"
       y1="124.28045"
       x1="111.32588"
       gradientTransform="matrix(0.777129,0,0,0.894628,-162.4688,12.76856)"
       gradientUnits="userSpaceOnUse"
       id="linearGradient1407"
       xlink:href="#linearGradient1700"
       inkscape:collect="always" />
    <linearGradient
       y2="93.732185"
       x2="107.31592"
       y1="124.28045"
       x1="111.32588"
       gradientTransform="matrix(0.777129,0,0,0.894628,-2.922179,10.43077)"
       gradientUnits="userSpaceOnUse"
       id="linearGradient1390"
       xlink:href="#linearGradient1700"
       inkscape:collect="always" />
    <linearGradient
       id="linearGradient1350">
      <stop
         style="stop-color:#46a046;stop-opacity:1.0000000;"
         offset="0.0000000"
         id="stop1352" />
      <stop
         style="stop-color:#df421e;stop-opacity:1.0000000;"
         offset="0.39364964"
         id="stop1354" />
      <stop
         style="stop-color:#ada7c8;stop-opacity:1.0000000;"
         offset="0.72036445"
         id="stop1356" />
      <stop
         style="stop-color:#eed680;stop-opacity:1.0000000;"
         offset="1.0000000"
         id="stop1358" />
    </linearGradient>
    <linearGradient
       xlink:href="#linearGradient839"
       id="linearGradient1360"
       x1="1.3267924e-17"
       y1="0.5"
       x2="1"
       y2="0.5" />
    <linearGradient
       inkscape:collect="always"
       xlink:href="#linearGradient1700"
       id="linearGradient1362"
       gradientTransform="matrix(0.870364,0,0,1.001961,4.612015,4.886798)"
       x1="123.50353"
       y1="121.73159"
       x2="128.66997"
       y2="87.980263"
       gradientUnits="userSpaceOnUse" />
    <linearGradient
       xlink:href="#linearGradient839"
       id="linearGradient1363"
       x1="1.3267924e-17"
       y1="0.5"
       x2="1"
       y2="0.5" />
    <linearGradient
       id="linearGradient1353">
      <stop
         style="stop-color:#ffffff;stop-opacity:1.0000000;"
         offset="0.0000000"
         id="stop1355" />
      <stop
         style="stop-color:#656565;stop-opacity:1.0000000;"
         offset="1.0000000"
         id="stop1361" />
    </linearGradient>
    <linearGradient
       id="linearGradient1700">
      <stop
         style="stop-color:#000000;stop-opacity:0.69918698;"
         offset="0.0000000"
         id="stop1701" />
      <stop
         style="stop-color:#000000;stop-opacity:0;"
         offset="1"
         id="stop1702" />
    </linearGradient>
    <linearGradient
       y2="0.5"
       x2="1"
       y1="0.5"
       x1="1.3267924e-17"
       id="linearGradient1427"
       xlink:href="#linearGradient839" />
    <linearGradient
       id="linearGradient1417">
      <stop
         id="stop1419"
         offset="0.0000000"
         style="stop-color:#46a046;stop-opacity:1.0000000;" />
      <stop
         id="stop1421"
         offset="0.39364964"
         style="stop-color:#df421e;stop-opacity:1.0000000;" />
      <stop
         id="stop1423"
         offset="0.72036445"
         style="stop-color:#ada7c8;stop-opacity:1.0000000;" />
      <stop
         id="stop1425"
         offset="1.0000000"
         style="stop-color:#eed680;stop-opacity:1.0000000;" />
    </linearGradient>
    <linearGradient
       xlink:href="#linearGradient839"
       id="linearGradient1381"
       x1="1.3267924e-17"
       y1="0.5"
       x2="1"
       y2="0.5" />
    <linearGradient
       id="linearGradient1371">
      <stop
         style="stop-color:#46a046;stop-opacity:1.0000000;"
         offset="0.0000000"
         id="stop1373" />
      <stop
         style="stop-color:#df421e;stop-opacity:1.0000000;"
         offset="0.39364964"
         id="stop1375" />
      <stop
         style="stop-color:#ada7c8;stop-opacity:1.0000000;"
         offset="0.72036445"
         id="stop1377" />
      <stop
         style="stop-color:#eed680;stop-opacity:1.0000000;"
         offset="1.0000000"
         id="stop1379" />
    </linearGradient>
    <linearGradient
       y2="0.5"
       x2="1"
       y1="0.5"
       x1="1.3267924e-17"
       id="linearGradient1374"
       xlink:href="#linearGradient839" />
    <linearGradient
       id="linearGradient1364">
      <stop
         id="stop1366"
         offset="0.0000000"
         style="stop-color:#46a046;stop-opacity:1.0000000;" />
      <stop
         id="stop1368"
         offset="0.39364964"
         style="stop-color:#df421e;stop-opacity:1.0000000;" />
      <stop
         id="stop1370"
         offset="0.72036445"
         style="stop-color:#ada7c8;stop-opacity:1.0000000;" />
      <stop
         id="stop1372"
         offset="1.0000000"
         style="stop-color:#eed680;stop-opacity:1.0000000;" />
    </linearGradient>
    <linearGradient
       xlink:href="#linearGradient915"
       id="linearGradient920"
       x1="75.82412"
       y1="81.312263"
       x2="38.901276"
       y2="35.698303"
       gradientUnits="userSpaceOnUse" />
    <linearGradient
       xlink:href="#linearGradient850"
       id="linearGradient853"
       x1="52.861176"
       y1="52.963547"
       x2="17.128157"
       y2="52.963547"
       gradientTransform="scale(0.84537,1.182913)"
       gradientUnits="userSpaceOnUse" />
    <linearGradient
       xlink:href="#linearGradient850"
       id="linearGradient855"
       x1="86.576477"
       y1="76.533356"
       x2="40.260029"
       y2="76.385674"
       gradientTransform="scale(1.211508,0.825418)"
       gradientUnits="userSpaceOnUse" />
    <linearGradient
       xlink:href="#linearGradient915"
       id="linearGradient1437"
       x1="0.47540987"
       y1="0.50653589"
       x2="0.24262297"
       y2="0.21895424"
       spreadMethod="reflect" />
    <linearGradient
       id="linearGradient833">
      <stop
         style="stop-color:#00ff00;stop-opacity:1.0000000;"
         offset="0.0000000"
         id="stop834" />
      <stop
         style="stop-color:#ff0000;stop-opacity:1.0000000;"
         offset="0.30839416"
         id="stop837" />
      <stop
         style="stop-color:#7f8cff;stop-opacity:1.0000000;"
         offset="0.75000000"
         id="stop838" />
      <stop
         style="stop-color:#ffff00;stop-opacity:1.0000000;"
         offset="1.0000000"
         id="stop835" />
    </linearGradient>
    <linearGradient
       id="linearGradient1422">
      <stop
         style="stop-color:#46a046;stop-opacity:1.0000000;"
         offset="0.0000000"
         id="stop1424" />
      <stop
         style="stop-color:#df421e;stop-opacity:1.0000000;"
         offset="0.39364964"
         id="stop1426" />
      <stop
         style="stop-color:#ada7c8;stop-opacity:1.0000000;"
         offset="0.72036445"
         id="stop1428" />
      <stop
         style="stop-color:#eed680;stop-opacity:1.0000000;"
         offset="1.0000000"
         id="stop1430" />
    </linearGradient>
    <linearGradient
       xlink:href="#linearGradient850"
       id="linearGradient859"
       x1="160.62672"
       y1="56.151016"
       x2="123.9841"
       y2="56.151016"
       gradientTransform="scale(0.904806,1.105209)"
       gradientUnits="userSpaceOnUse" />
    <linearGradient
       id="linearGradient850">
      <stop
         style="stop-color:#000000;stop-opacity:0.39830509;"
         offset="0.0000000"
         id="stop851" />
      <stop
         style="stop-color:#ffffff;stop-opacity:0.0000000;"
         offset="1.0000000"
         id="stop852" />
    </linearGradient>
    <linearGradient
       id="linearGradient915">
      <stop
         style="stop-color:#f8f7f7;stop-opacity:1.0000000;"
         offset="0.0000000"
         id="stop916" />
      <stop
         style="stop-color:#cfcfce;stop-opacity:1.0000000;"
         offset="0.17458016"
         id="stop921" />
      <stop
         style="stop-color:#a6a7a6;stop-opacity:1.0000000;"
         offset="1.0000000"
         id="stop919" />
    </linearGradient>
    <linearGradient
       inkscape:collect="always"
       xlink:href="#linearGradient850"
       id="linearGradient1428"
       gradientUnits="userSpaceOnUse"
       gradientTransform="matrix(0.831247,0,0,1.015358,-11.788203,-6.9614645)"
       x1="160.62672"
       y1="56.151016"
       x2="123.9841"
       y2="56.151016" />
    <linearGradient
       inkscape:collect="always"
       xlink:href="#linearGradient850"
       id="linearGradient1431"
       gradientUnits="userSpaceOnUse"
       gradientTransform="matrix(1.113015,0,0,0.758313,-11.788203,-6.9614645)"
       x1="86.576477"
       y1="76.533356"
       x2="40.260029"
       y2="76.385674" />
    <linearGradient
       inkscape:collect="always"
       xlink:href="#linearGradient850"
       id="linearGradient1434"
       gradientUnits="userSpaceOnUse"
       gradientTransform="matrix(0.776643,0,0,1.086745,-11.788203,-6.9614645)"
       x1="52.861176"
       y1="52.963547"
       x2="17.128157"
       y2="52.963547" />
    <linearGradient
       inkscape:collect="always"
       xlink:href="#linearGradient5935"
       id="linearGradient5929"
       gradientUnits="userSpaceOnUse"
       gradientTransform="scale(1.45548,0.687059)"
       x1="52.082405"
       y1="34.33255"
       x2="52.082405"
       y2="105.11836" />
    <linearGradient
       gradientUnits="userSpaceOnUse"
       gradientTransform="scale(0.988305,1.011834)"
       xlink:href="#linearGradient2873"
       id="linearGradient829"
       x1="68.464279"
       y1="134.86444"
       x2="24.628351"
       y2="23.809189"
       spreadMethod="reflect" />
    <linearGradient
       id="linearGradient826">
      <stop
         style="stop-color:#000;stop-opacity:1;"
         offset="0"
         id="stop827" />
      <stop
         style="stop-color:#fff;stop-opacity:1;"
         offset="1"
         id="stop828" />
    </linearGradient>
    <linearGradient
       id="linearGradient1519">
      <stop
         style="stop-color:#004eb1;stop-opacity:1.0000000;"
         offset="0.0000000"
         id="stop1521" />
      <stop
         style="stop-color:#1e88d8;stop-opacity:1.0000000;"
         offset="0.35549620"
         id="stop1523" />
      <stop
         style="stop-color:#8ec3eb;stop-opacity:1.0000000;"
         offset="0.79931182"
         id="stop844" />
      <stop
         style="stop-color:#ffffff;stop-opacity:1.0000000;"
         offset="1.0000000"
         id="stop1526" />
    </linearGradient>
    <linearGradient
       id="linearGradient837">
      <stop
         style="stop-color:#fbb100;stop-opacity:1.0000000;"
         offset="0.0000000"
         id="stop1514" />
      <stop
         style="stop-color:#fdd800;stop-opacity:1.0000000;"
         offset="0.29212120"
         id="stop839" />
      <stop
         style="stop-color:#ffff00;stop-opacity:1.0000000;"
         offset="1.0000000"
         id="stop1517" />
    </linearGradient>
    <linearGradient
       id="linearGradient840">
      <stop
         style="stop-color:#004eb1;stop-opacity:1.0000000;"
         offset="0.0000000"
         id="stop1509" />
      <stop
         style="stop-color:#3cc3ff;stop-opacity:1.0000000;"
         offset="1.0000000"
         id="stop1511" />
    </linearGradient>
    <linearGradient
       id="linearGradient845">
      <stop
         style="stop-color:#4b6983;stop-opacity:1.0000000;"
         offset="0.0000000"
         id="stop846" />
      <stop
         style="stop-color:#9db8d2;stop-opacity:1.0000000;"
         offset="0.44778731"
         id="stop847" />
      <stop
         style="stop-color:#cedbe8;stop-opacity:1.0000000;"
         offset="0.93561327"
         id="stop850" />
      <stop
         style="stop-color:#ffffff;stop-opacity:1.0000000;"
         offset="1.0000000"
         id="stop849" />
    </linearGradient>
    <linearGradient
       id="linearGradient2855">
      <stop
         id="stop2857"
         offset="0.0000000"
         style="stop-color:#ffffff;stop-opacity:0.0000000;" />
      <stop
         id="stop2859"
         offset="1.0000000"
         style="stop-color:#ffffff;stop-opacity:1.0000000;" />
    </linearGradient>
    <linearGradient
       id="linearGradient2873"
       inkscape:collect="always">
      <stop
         id="stop2875"
         offset="0"
         style="stop-color:#0000b1;stop-opacity:1;" />
      <stop
         id="stop2877"
         offset="1"
         style="stop-color:#0000b1;stop-opacity:0;" />
    </linearGradient>
    <linearGradient
       id="linearGradient2879">
      <stop
         id="stop2881"
         offset="0"
         style="stop-color:#4b699b;stop-opacity:1;" />
      <stop
         id="stop2883"
         offset="1"
         style="stop-color:#4b699b;stop-opacity:0;" />
    </linearGradient>
    <linearGradient
       id="linearGradient5935"
       inkscape:collect="always">
      <stop
         id="stop5937"
         offset="0"
         style="stop-color:#ffffff;stop-opacity:1;" />
      <stop
         id="stop5939"
         offset="1"
         style="stop-color:#ffffff;stop-opacity:0;" />
    </linearGradient>
    <linearGradient
       xlink:href="#linearGradient915"
       id="linearGradient1655"
       x1="0.47540987"
       y1="0.50653589"
       x2="0.24262297"
       y2="0.21895424" />
    <linearGradient
       xlink:href="#linearGradient850"
       id="linearGradient1653"
       x1="0.98546511"
       y1="0.51472867"
       x2="0.0087209307"
       y2="0.51472867" />
    <linearGradient
       xlink:href="#linearGradient850"
       id="linearGradient1651"
       x1="0.91450775"
       y1="0.52676058"
       x2="0.031088082"
       y2="0.52394366" />
    <linearGradient
       xlink:href="#linearGradient915"
       id="linearGradient1649"
       x1="0.47540987"
       y1="0.50653589"
       x2="0.24262297"
       y2="0.21895424"
       spreadMethod="reflect" />
    <linearGradient
       id="linearGradient1639">
      <stop
         style="stop-color:#00ff00;stop-opacity:1.0000000;"
         offset="0.0000000"
         id="stop1641" />
      <stop
         style="stop-color:#ff0000;stop-opacity:1.0000000;"
         offset="0.30839416"
         id="stop1643" />
      <stop
         style="stop-color:#7f8cff;stop-opacity:1.0000000;"
         offset="0.75000000"
         id="stop1645" />
      <stop
         style="stop-color:#ffff00;stop-opacity:1.0000000;"
         offset="1.0000000"
         id="stop1647" />
    </linearGradient>
    <linearGradient
       id="linearGradient1629">
      <stop
         style="stop-color:#46a046;stop-opacity:1.0000000;"
         offset="0.0000000"
         id="stop1631" />
      <stop
         style="stop-color:#df421e;stop-opacity:1.0000000;"
         offset="0.39364964"
         id="stop1633" />
      <stop
         style="stop-color:#ada7c8;stop-opacity:1.0000000;"
         offset="0.72036445"
         id="stop1635" />
      <stop
         style="stop-color:#eed680;stop-opacity:1.0000000;"
         offset="1.0000000"
         id="stop1637" />
    </linearGradient>
    <linearGradient
       xlink:href="#linearGradient850"
       id="linearGradient1627"
       x1="0.93523318"
       y1="0.50078738"
       x2="0.0025906735"
       y2="0.50078738" />
    <linearGradient
       id="linearGradient1621">
      <stop
         style="stop-color:#000000;stop-opacity:0.39830509;"
         offset="0.0000000"
         id="stop1623" />
      <stop
         style="stop-color:#ffffff;stop-opacity:0.0000000;"
         offset="1.0000000"
         id="stop1625" />
    </linearGradient>
    <linearGradient
       id="linearGradient1613">
      <stop
         style="stop-color:#f8f7f7;stop-opacity:1.0000000;"
         offset="0.0000000"
         id="stop1615" />
      <stop
         style="stop-color:#cfcfce;stop-opacity:1.0000000;"
         offset="0.17458016"
         id="stop1617" />
      <stop
         style="stop-color:#a6a7a6;stop-opacity:1.0000000;"
         offset="1.0000000"
         id="stop1619" />
    </linearGradient>
    <linearGradient
       xlink:href="#linearGradient845"
       id="linearGradient1611"
       x1="0.45626533"
       y1="0.55078673"
       x2="0.22509645"
       y2="0.31685987"
       spreadMethod="reflect" />
    <linearGradient
       id="linearGradient1601">
      <stop
         style="stop-color:#4b6983;stop-opacity:1.0000000;"
         offset="0.0000000"
         id="stop1603" />
      <stop
         style="stop-color:#9db8d2;stop-opacity:1.0000000;"
         offset="0.44778731"
         id="stop1605" />
      <stop
         style="stop-color:#cedbe8;stop-opacity:1.0000000;"
         offset="0.93561327"
         id="stop1607" />
      <stop
         style="stop-color:#ffffff;stop-opacity:1.0000000;"
         offset="1.0000000"
         id="stop1609" />
    </linearGradient>
    <linearGradient
       id="linearGradient2586">
      <stop
         id="stop2588"
         offset="0.0000000"
         style="stop-color:#46a046;stop-opacity:1.0000000;" />
      <stop
         id="stop2590"
         offset="0.39364964"
         style="stop-color:#df421e;stop-opacity:1.0000000;" />
      <stop
         id="stop2592"
         offset="0.72036445"
         style="stop-color:#ada7c8;stop-opacity:1.0000000;" />
      <stop
         id="stop2594"
         offset="1.0000000"
         style="stop-color:#eed680;stop-opacity:1.0000000;" />
    </linearGradient>
    <linearGradient
       y2="0.5"
       x2="1"
       y1="0.5"
       x1="1.3267924e-17"
       id="linearGradient2584"
       xlink:href="#linearGradient839" />
    <linearGradient
       id="linearGradient2578">
      <stop
         style="stop-color:#000000;stop-opacity:0.69918698;"
         offset="0.0000000"
         id="stop2580" />
      <stop
         style="stop-color:#000000;stop-opacity:0;"
         offset="1"
         id="stop2582" />
    </linearGradient>
    <linearGradient
       id="linearGradient2570">
      <stop
         style="stop-color:#46a046;stop-opacity:1.0000000;"
         offset="0.0000000"
         id="stop2572" />
      <stop
         style="stop-color:#df421e;stop-opacity:1.0000000;"
         offset="0.39364964"
         id="stop1357" />
      <stop
         style="stop-color:#ada7c8;stop-opacity:1.0000000;"
         offset="0.72036445"
         id="stop1359" />
      <stop
         style="stop-color:#eed680;stop-opacity:1.0000000;"
         offset="1.0000000"
         id="stop2576" />
    </linearGradient>
    <linearGradient
       xlink:href="#linearGradient839"
       id="linearGradient2568"
       x1="1.3267924e-17"
       y1="0.5"
       x2="1"
       y2="0.5" />
    <linearGradient
       inkscape:collect="always"
       xlink:href="#linearGradient1700"
       id="linearGradient2565"
       gradientTransform="matrix(0.870364,0,0,1.001961,4.612015,4.886798)"
       x1="123.50353"
       y1="121.73159"
       x2="128.66997"
       y2="87.980263"
       gradientUnits="userSpaceOnUse" />
    <linearGradient
       xlink:href="#linearGradient839"
       id="linearGradient2563"
       x1="1.3267924e-17"
       y1="0.5"
       x2="1"
       y2="0.5" />
    <linearGradient
       id="linearGradient2553">
      <stop
         style="stop-color:#46a046;stop-opacity:1.0000000;"
         offset="0.0000000"
         id="stop2555" />
      <stop
         style="stop-color:#df421e;stop-opacity:1.0000000;"
         offset="0.39364964"
         id="stop2557" />
      <stop
         style="stop-color:#ada7c8;stop-opacity:1.0000000;"
         offset="0.72036445"
         id="stop2559" />
      <stop
         style="stop-color:#eed680;stop-opacity:1.0000000;"
         offset="1.0000000"
         id="stop2561" />
    </linearGradient>
    <linearGradient
       y2="93.732185"
       x2="107.31592"
       y1="124.28045"
       x1="111.32588"
       gradientTransform="matrix(0.777129,0,0,0.894628,-2.922179,10.43077)"
       gradientUnits="userSpaceOnUse"
       id="linearGradient2551"
       xlink:href="#linearGradient1700"
       inkscape:collect="always" />
    <linearGradient
       y2="93.732185"
       x2="107.31592"
       y1="124.28045"
       x1="111.32588"
       gradientTransform="matrix(0.777129,0,0,0.894628,-162.4688,12.76856)"
       gradientUnits="userSpaceOnUse"
       id="linearGradient2549"
       xlink:href="#linearGradient1700"
       inkscape:collect="always" />
    <linearGradient
       inkscape:collect="always"
       xlink:href="#linearGradient2832"
       id="linearGradient2547"
       gradientTransform="matrix(0.939922,0,0,0.896911,4.950743,6.511692)"
       x1="23.983805"
       y1="16.369013"
       x2="72.999245"
       y2="73.39872"
       gradientUnits="userSpaceOnUse" />
    <linearGradient
       xlink:href="#linearGradient839"
       id="linearGradient2545"
       x1="1.3267924e-17"
       y1="0.5"
       x2="1"
       y2="0.5" />
    <linearGradient
       id="linearGradient2535">
      <stop
         style="stop-color:#46a046;stop-opacity:1.0000000;"
         offset="0.0000000"
         id="stop2537" />
      <stop
         style="stop-color:#df421e;stop-opacity:1.0000000;"
         offset="0.39364964"
         id="stop2539" />
      <stop
         style="stop-color:#ada7c8;stop-opacity:1.0000000;"
         offset="0.72036445"
         id="stop2541" />
      <stop
         style="stop-color:#eed680;stop-opacity:1.0000000;"
         offset="1.0000000"
         id="stop2543" />
    </linearGradient>
    <linearGradient
       id="linearGradient2529">
      <stop
         style="stop-color:#ffffff;stop-opacity:1.0000000;"
         offset="0.0000000"
         id="stop2531" />
      <stop
         style="stop-color:#ffffff;stop-opacity:0.0000000;"
         offset="1.0000000"
         id="stop2533" />
    </linearGradient>
    <linearGradient
       id="linearGradient2523">
      <stop
         id="stop2525"
         offset="0.0000000"
         style="stop-color:#efe0cd;stop-opacity:0.56097561;" />
      <stop
         id="stop2527"
         offset="1.0000000"
         style="stop-color:#cececd;stop-opacity:0.21951219;" />
    </linearGradient>
    <linearGradient
       inkscape:collect="always"
       xlink:href="#linearGradient2832"
       id="linearGradient2644"
       gradientUnits="userSpaceOnUse"
       gradientTransform="matrix(0.939922,0,0,0.896911,-26.452275,-20.780799)"
       x1="23.983805"
       y1="16.369013"
       x2="72.999245"
       y2="73.39872" />
    <linearGradient
       inkscape:collect="always"
       xlink:href="#linearGradient1700"
       id="linearGradient2648"
       gradientUnits="userSpaceOnUse"
       gradientTransform="matrix(0.919657,0,0,1.058706,1.338192,1.084837)"
       x1="111.32588"
       y1="124.28045"
       x2="107.31592"
       y2="93.732185" />
    <linearGradient
       inkscape:collect="always"
       xlink:href="#linearGradient5935"
       id="linearGradient3418"
       gradientUnits="userSpaceOnUse"
       gradientTransform="scale(1.45548,0.687059)"
       x1="52.08242"
       y1="34.332561"
       x2="51.457977"
       y2="103.7161" />
  </defs>
  <sodipodi:namedview
     id="base"
     pagecolor="#ffffff"
     bordercolor="#666666"
     borderopacity="1.0"
     inkscape:pageopacity="0.0"
     inkscape:pageshadow="2"
     inkscape:zoom="2.95"
     inkscape:cx="21.517448"
     inkscape:cy="37.448764"
     inkscape:window-width="735"
     inkscape:window-height="653"
     showgrid="true"
     snaptogrid="false"
     gridspacingx="1.0000000mm"
     gridspacingy="1.0000000mm"
     inkscape:window-x="485"
     inkscape:window-y="46"
     inkscape:current-layer="svg1" />
  <rect
     style="fill:none;fill-rule:evenodd;stroke:#000000;stroke-width:7.5;stroke-linejoin:round;stroke-miterlimit:4;stroke-dasharray:none;stroke-opacity:0.5"
     id="rect834"
     width="117.75612"
     height="133.38696"
     x="3.75"
     y="3.75"
     ry="22.892691"
     rx="22.892691" />
  <rect
     style="fill:#bab5ab;fill-opacity:1;fill-rule:evenodd;stroke:#000000;stroke-width:3.75;stroke-miterlimit:4;stroke-dasharray:none"
     id="rect828"
     width="117.75612"
     height="133.38696"
     x="3.6112213"
     y="3.6603327"
     ry="22.892691"
     rx="22.892691" />
  <path
     style="fill:#ffffff;fill-opacity:0.27935223;fill-rule:evenodd;stroke:none;stroke-width:6.25"
     d="M 100.34807,132.55498 L 24.630484,132.55498 C 12.985807,132.55498 7.2838774,126.85305 7.2838774,115.20838 C 7.2838774,115.20838 34.904204,48.692898 117.69468,38.550602 L 117.69468,115.20838 C 117.69468,126.85305 111.99274,132.55498 100.34807,132.55498 z "
     id="path2838"
     sodipodi:nodetypes="cccccc" />
  <rect
     style="fill:#6e6d6e;fill-rule:evenodd;stroke:#000000;stroke-width:1.89890635"
     id="rect858"
     width="113.34888"
     height="12.042336"
     x="5.8488159"
     y="69.584473" />
  <rect
     style="fill:#6d6d6d;fill-rule:evenodd;stroke:#000000;stroke-width:1.89890635"
     id="rect857"
     width="113.34888"
     height="12.042336"
     x="5.8488159"
     y="18.404528" />
  <rect
     style="fill:url(#linearGradient1434);fill-rule:evenodd;stroke:#000000;stroke-width:0.48801541pt"
     id="rect826"
     width="27.802555"
     height="39.147247"
     x="1.5714874"
     y="30.437204" />
  <rect
     style="fill:url(#linearGradient1431);fill-rule:evenodd;stroke:#000000;stroke-width:0.48801541pt"
     id="rect827"
     width="57.743774"
     height="39.147247"
     x="31.512716"
     y="30.437204" />
  <rect
     style="fill:url(#linearGradient1428);fill-rule:evenodd;stroke:#000000;stroke-width:0.59614477pt"
     id="rect880"
     width="31.913736"
     height="39.147247"
     x="91.561234"
     y="30.446859" />
  <rect
     style="fill:#ffffff;fill-rule:evenodd;stroke:#000000;stroke-width:0.50637503pt"
     id="rect829"
     width="8.5546322"
     height="6.0211692"
     x="10.126129"
     y="21.415108" />
  <rect
     style="fill:#ffffff;fill-rule:evenodd;stroke:#000000;stroke-width:0.50637503pt"
     id="rect830"
     width="8.5546322"
     height="6.0211692"
     x="22.958061"
     y="21.415108" />
  <rect
     style="fill:#ffffff;fill-rule:evenodd;stroke:#000000;stroke-width:0.50637503pt"
     id="rect831"
     width="8.5546322"
     height="6.0211692"
     x="35.790024"
     y="21.415108" />
  <rect
     style="fill:#ffffff;fill-rule:evenodd;stroke:#000000;stroke-width:0.50637503pt"
     id="rect832"
     width="8.5546322"
     height="6.0211692"
     x="48.621964"
     y="21.415108" />
  <rect
     style="fill:#ffffff;fill-rule:evenodd;stroke:#000000;stroke-width:0.50637503pt"
     id="rect833"
     width="8.5546322"
     height="6.0211692"
     x="61.453918"
     y="21.415108" />
  <rect
     style="fill:#ffffff;fill-rule:evenodd;stroke:#000000;stroke-width:0.50637503pt"
     id="rect1457"
     width="8.5546322"
     height="6.0211692"
     x="74.285858"
     y="21.415108" />
  <rect
     style="fill:#ffffff;fill-rule:evenodd;stroke:#000000;stroke-width:0.50637503pt"
     id="rect835"
     width="8.5546322"
     height="6.0211692"
     x="87.117813"
     y="21.415108" />
  <rect
     style="fill:#ffffff;fill-rule:evenodd;stroke:#000000;stroke-width:0.50637503pt"
     id="rect836"
     width="8.5546322"
     height="6.0211692"
     x="99.949722"
     y="21.415108" />
  <rect
     style="fill:#ffffff;fill-rule:evenodd;stroke:#000000;stroke-width:0.41760755pt"
     id="rect837"
     width="5.818265"
     height="6.0211692"
     x="112.66399"
     y="21.415108" />
  <rect
     style="fill:#ffffff;fill-rule:evenodd;stroke:#000000;stroke-width:0.50637503pt"
     id="rect838"
     width="8.5546322"
     height="6.0211692"
     x="10.503357"
     y="72.860558" />
  <rect
     style="fill:#ffffff;fill-rule:evenodd;stroke:#000000;stroke-width:0.50637503pt"
     id="rect839"
     width="8.5546322"
     height="6.0211692"
     x="23.335297"
     y="72.860558" />
  <rect
     style="fill:#ffffff;fill-rule:evenodd;stroke:#000000;stroke-width:0.50637503pt"
     id="rect840"
     width="8.5546322"
     height="6.0211692"
     x="36.167252"
     y="72.860558" />
  <rect
     style="fill:#ffffff;fill-rule:evenodd;stroke:#000000;stroke-width:0.50637503pt"
     id="rect841"
     width="8.5546322"
     height="6.0211692"
     x="48.999207"
     y="72.860558" />
  <rect
     style="fill:#ffffff;fill-rule:evenodd;stroke:#000000;stroke-width:0.50637503pt"
     id="rect842"
     width="8.5546322"
     height="6.0211692"
     x="61.831146"
     y="72.860558" />
  <rect
     style="fill:#ffffff;fill-rule:evenodd;stroke:#000000;stroke-width:0.50637503pt"
     id="rect843"
     width="8.5546322"
     height="6.0211692"
     x="74.663101"
     y="72.860558" />
  <rect
     style="fill:#ffffff;fill-rule:evenodd;stroke:#000000;stroke-width:0.50637503pt"
     id="rect844"
     width="8.5546322"
     height="6.0211692"
     x="87.495041"
     y="72.860558" />
  <rect
     style="fill:#ffffff;fill-rule:evenodd;stroke:#000000;stroke-width:0.50637503pt"
     id="rect845"
     width="8.5546322"
     height="6.0211692"
     x="100.32698"
     y="72.860558" />
  <rect
     style="fill:#ffffff;fill-rule:evenodd;stroke:#000000;stroke-width:0.40221605pt"
     id="rect846"
     width="5.3972883"
     height="6.0211692"
     x="113.02309"
     y="72.860558" />
  <path
     sodipodi:type="arc"
     style="fill:#000000;fill-opacity:0.26720647;fill-rule:evenodd;stroke:none;stroke-width:7.09752464;stroke-linejoin:miter;stroke-opacity:0.46451613"
     id="path837"
     sodipodi:cx="77.952759"
     sodipodi:cy="80.275589"
     sodipodi:rx="70.866142"
     sodipodi:ry="72.637794"
     d="M 148.8189 80.275589 A 70.866142 72.637794 0 1 1  7.0866165,80.275589 A 70.866142 72.637794 0 1 1  148.8189 80.275589 z"
     transform="matrix(0.367458,-0.306342,0.301853,0.362073,26.287194,49.880774)" />
  <path
     sodipodi:type="arc"
     style="fill:#4b6983;fill-opacity:1;fill-rule:evenodd;stroke:#000000;stroke-width:4.51668549;stroke-linejoin:miter;stroke-miterlimit:4;stroke-opacity:0.26720647"
     id="path1537"
     sodipodi:cx="77.952759"
     sodipodi:cy="80.275589"
     sodipodi:rx="70.866142"
     sodipodi:ry="72.637794"
     d="M 148.8189 80.275589 A 70.866142 72.637794 0 1 1  7.0866165,80.275589 A 70.866142 72.637794 0 1 1  148.8189 80.275589 z"
     transform="matrix(0.344451,-0.287162,0.282953,0.339403,29.567494,50.311524)" />
  <path
     transform="matrix(0.443245,-0.369525,-0.340097,-0.407949,70.030014,126.74318)"
     d="M 130.87867 75.983261 A 39.163181 39.163181 0 1 1  52.552303,75.983261 A 39.163181 39.163181 0 1 1  130.87867 75.983261 z"
     sodipodi:ry="39.163181"
     sodipodi:rx="39.163181"
     sodipodi:cy="75.983261"
     sodipodi:cx="91.715485"
     id="path2863"
     style="fill:#ffffff;fill-opacity:0.19433199;stroke:none;stroke-width:4.51668549;stroke-miterlimit:4;stroke-opacity:0.53036439"
     sodipodi:type="arc" />
  <rect
     transform="matrix(0.7680913,-0.6403403,0.6403403,0.7680913,0,0)"
     ry="32.729477"
     rx="2.7481155"
     y="80.980347"
     x="1.4571939"
     height="24.264219"
     width="47.270527"
     id="rect3659"
     style="fill:#4b6983;fill-opacity:1;stroke:none;stroke-width:4.51668549;stroke-miterlimit:4;stroke-opacity:0.53036439" />
  <path
     style="fill:none;fill-opacity:1;stroke:#000000;stroke-width:9.21557236;stroke-linecap:round;stroke-miterlimit:4;stroke-opacity:0.41295543"
     d="M 62.951564,47.475452 C 47.987684,62.47104 43.270244,78.156231 52.422694,82.483276 C 61.575134,86.810325 81.151614,78.150111 96.115495,63.154528 C 111.07937,48.158933 115.79682,32.473746 106.64437,28.146699 C 97.491915,23.819656 77.915444,32.479864 62.951564,47.475452 z "
     id="path4385"
     sodipodi:nodetypes="ccccc" />
  <path
     style="fill:none;fill-opacity:1;stroke:#000000;stroke-width:7.48765182;stroke-linecap:round;stroke-miterlimit:4;stroke-opacity:1"
     d="M 62.448084,47.003995 C 47.484194,61.999583 42.766754,77.68477 51.919204,82.011809 C 61.071644,86.338863 80.648124,77.678654 95.612005,62.683066 C 110.57588,47.687477 115.29334,32.00229 106.14088,27.675244 C 96.988425,23.348198 77.411954,32.008407 62.448084,47.003995 z "
     id="path2086"
     sodipodi:nodetypes="ccccc" />
  <path
     style="fill:none;fill-opacity:1;stroke:#ffffff;stroke-width:2.30389309;stroke-linecap:round;stroke-miterlimit:4;stroke-opacity:0.93117412"
     d="M 61.340354,46.014777 C 46.376474,61.010365 41.659034,76.695555 50.811474,81.022589 C 59.963924,85.349638 79.540404,76.689424 94.504275,61.693844 C 109.46816,46.69826 114.18561,31.013073 105.03316,26.686027 C 95.880705,22.358983 76.304234,31.019189 61.340354,46.014777 z "
     id="path3625"
     sodipodi:nodetypes="ccccc" />
  <path
     style="fill:none;fill-opacity:1;stroke:#ffffff;stroke-width:3.22905636;stroke-linecap:round;stroke-miterlimit:4;stroke-opacity:0.45344131"
     d="M 61.206924,45.654381 C 46.243044,60.64997 41.525604,76.335156 50.678044,80.66219 C 59.830494,84.98924 79.406964,76.329025 94.370835,61.333448 C 109.33472,46.337864 114.05218,30.652677 104.89973,26.325631 C 95.747275,21.998587 76.170804,30.658793 61.206924,45.654381 z "
     id="path6698"
     sodipodi:nodetypes="ccccc" />
  <path
     sodipodi:type="arc"
     style="fill:#4b6983;fill-opacity:1;fill-rule:evenodd;stroke:#000000;stroke-width:4.51668549;stroke-linejoin:miter;stroke-miterlimit:4;stroke-opacity:0.26720647"
     id="path5916"
     sodipodi:cx="77.952759"
     sodipodi:cy="80.275589"
     sodipodi:rx="70.866142"
     sodipodi:ry="72.637794"
     d="M 148.8189,80.275589 A 70.866142,72.637794 0 0 1 7.1160753,82.369799"
     transform="matrix(-0.344451,0.287162,-0.282953,-0.339403,128.81212,59.963224)"
     sodipodi:start="0"
     sodipodi:end="3.1127578"
     sodipodi:open="true" />
  <path
     transform="matrix(0.353223,-0.294474,0.509669,0.611349,20.081777,42.177274)"
     d="M 133.89121 47.53138 A 53.891212 25.439331 0 1 1  26.108788,47.53138 A 53.891212 25.439331 0 1 1  133.89121 47.53138 z"
     sodipodi:ry="25.439331"
     sodipodi:rx="53.891212"
     sodipodi:cy="47.53138"
     sodipodi:cx="80"
     id="path2893"
     style="fill:url(#linearGradient3418);fill-opacity:1;stroke:none;stroke-width:4.51668549;stroke-miterlimit:4;stroke-opacity:0.53036439"
     sodipodi:type="arc" />
  <path
     style="font-size:40px;fill:#ffffff;fill-opacity:1;stroke-width:1pt;font-family:Trek"
     d="M 115.6255,98.894769 L 105.6255,98.894769 C 104.07883,98.894769 102.83883,99.068099 101.9055,99.414769 C 101.45217,99.548099 101.05217,99.708099 100.7055,99.894769 C 100.35883,100.08143 100.0255,100.3481 99.705495,100.69477 C 98.825495,101.49477 98.185495,102.48143 97.785495,103.65477 L 97.545495,104.61477 L 97.465495,105.69477 L 97.465495,106.53477 L 115.6255,106.53477 L 115.6255,111.65477 L 97.465495,111.65477 L 97.465495,124.65477 L 90.745494,124.65477 L 90.745494,109.09477 C 90.745494,107.73477 90.785494,106.5481 90.865494,105.53477 C 90.945494,104.49477 91.078824,103.5881 91.265494,102.81477 C 91.825494,100.25477 92.998825,98.161429 94.785495,96.534769 C 95.905495,95.494769 97.265495,94.734769 98.865495,94.254769 C 100.4655,93.774769 102.49217,93.534769 104.9455,93.534769 L 115.6255,93.534769 L 115.6255,98.894769 z M 43.825484,93.534769 L 51.105484,93.534769 L 55.665484,116.61477 L 55.825484,116.61477 L 62.545484,93.534769 L 70.505484,93.534769 L 77.145484,116.61477 L 77.305484,116.61477 L 81.865484,93.534769 L 89.145494,93.534769 L 81.225484,124.65477 L 73.265484,124.65477 L 66.625484,101.61477 L 66.465484,101.61477 L 59.705484,124.65477 L 51.745484,124.65477 L 43.825484,93.534769 z M 38.985484,93.534769 L 38.985484,98.894769 L 21.785487,98.894769 C 20.692147,98.894769 19.705487,99.214769 18.825487,99.854769 C 18.078817,100.52143 17.705487,101.44143 17.705487,102.61477 C 17.705487,103.89477 18.118817,104.85477 18.945487,105.49477 C 19.665487,106.05477 20.652147,106.33477 21.905487,106.33477 L 31.585484,106.33477 C 33.745484,106.33477 35.692144,106.9481 37.425484,108.17477 C 39.612144,109.80143 40.705484,112.24143 40.705484,115.49477 C 40.705484,118.5881 39.612144,121.01477 37.425484,122.77477 C 35.718814,124.0281 33.772144,124.65477 31.585484,124.65477 L 10.985487,124.65477 L 10.985487,119.33477 L 28.585484,119.33477 C 29.598814,119.33477 30.532144,118.97477 31.385484,118.25477 C 32.238814,117.53477 32.665484,116.61477 32.665484,115.49477 C 32.665484,114.3481 32.238814,113.4281 31.385484,112.73477 C 30.585484,112.01477 29.612144,111.65477 28.465484,111.65477 L 18.705487,111.65477 C 16.545487,111.65477 14.625487,111.05477 12.945487,109.85477 C 10.758817,108.2281 9.6654874,105.81477 9.6654874,102.61477 C 9.6654874,99.414769 10.758817,97.001429 12.945487,95.374769 C 14.572147,94.148099 16.492147,93.534769 18.705487,93.534769 L 38.985484,93.534769 z "
     id="path1693" />
  <path
     style="font-size:40px;stroke-width:1pt;font-family:Trek"
     d="M 116.30346,99.572729 L 106.30346,99.572729 C 104.75679,99.572729 103.51679,99.746059 102.58346,100.09273 C 102.13013,100.22606 101.73013,100.38606 101.38346,100.57273 C 101.03679,100.75939 100.70346,101.02606 100.38346,101.37273 C 99.503455,102.17273 98.863455,103.15939 98.463455,104.33273 L 98.223455,105.29273 L 98.143455,106.37273 L 98.143455,107.21273 L 116.30346,107.21273 L 116.30346,112.33273 L 98.143455,112.33273 L 98.143455,125.33273 L 91.423454,125.33273 L 91.423454,109.77273 C 91.423454,108.41273 91.463454,107.22606 91.543454,106.21273 C 91.623454,105.17273 91.756784,104.26606 91.943454,103.49273 C 92.503454,100.93273 93.676785,98.839389 95.463455,97.212729 C 96.583455,96.172729 97.943455,95.412729 99.543455,94.932729 C 101.14346,94.452729 103.17013,94.212729 105.62346,94.212729 L 116.30346,94.212729 L 116.30346,99.572729 z M 44.503444,94.212729 L 51.783444,94.212729 L 56.343444,117.29273 L 56.503444,117.29273 L 63.223444,94.212729 L 71.183444,94.212729 L 77.823444,117.29273 L 77.983444,117.29273 L 82.543454,94.212729 L 89.823454,94.212729 L 81.903454,125.33273 L 73.943444,125.33273 L 67.303444,102.29273 L 67.143444,102.29273 L 60.383444,125.33273 L 52.423444,125.33273 L 44.503444,94.212729 z M 39.663454,94.212729 L 39.663454,99.572729 L 22.463457,99.572729 C 21.370117,99.572729 20.383457,99.892729 19.503457,100.53273 C 18.756787,101.19939 18.383457,102.11939 18.383457,103.29273 C 18.383457,104.57273 18.796787,105.53273 19.623457,106.17273 C 20.343457,106.73273 21.330117,107.01273 22.583454,107.01273 L 32.263454,107.01273 C 34.423454,107.01273 36.370114,107.62606 38.103454,108.85273 C 40.290114,110.47939 41.383444,112.91939 41.383444,116.17273 C 41.383444,119.26606 40.290114,121.69273 38.103454,123.45273 C 36.396784,124.70606 34.450114,125.33273 32.263454,125.33273 L 11.663457,125.33273 L 11.663457,120.01273 L 29.263454,120.01273 C 30.276784,120.01273 31.210114,119.65273 32.063454,118.93273 C 32.916784,118.21273 33.343454,117.29273 33.343454,116.17273 C 33.343454,115.02606 32.916784,114.10606 32.063454,113.41273 C 31.263454,112.69273 30.290114,112.33273 29.143454,112.33273 L 19.383457,112.33273 C 17.223457,112.33273 15.303457,111.73273 13.623457,110.53273 C 11.436787,108.90606 10.343457,106.49273 10.343457,103.29273 C 10.343457,100.09273 11.436787,97.679389 13.623457,96.052729 C 15.250117,94.826059 17.170117,94.212729 19.383457,94.212729 L 39.663454,94.212729 z "
     id="path964" />
  <path
     style="fill:url(#linearGradient2644);fill-opacity:1;fill-rule:evenodd;stroke:none;stroke-width:6.25"
     d="M 10.259995,-10.095381 L 85.977575,-10.095381 C 97.622245,-10.095381 103.32419,-4.3934478 103.32419,7.2512272 C 103.32419,7.2512272 24.037625,8.1568252 -7.0866146,98.599639 L -7.0866146,7.2512272 C -7.0866146,-3.0375158 -0.028744609,-10.095381 10.259995,-10.095381 z "
     id="path2602"
     sodipodi:nodetypes="cccccc" />
  <g
     transform="matrix(0.529753,0,0,0.529753,2.4533073,5.8372042)"
     id="g1375">
    <path
       inkscape:export-ydpi="27.000000"
       inkscape:export-xdpi="27.000000"
       sodipodi:nodetypes="cccccccccc"
       id="path1539"
       d="M 71.062832,10.924845 C 49.872305,12.300807 28.066026,36.057179 19.551099,68.986837 C 9.81975,106.62075 21.1458,142.0585 44.830005,148.0987 C 51.073848,149.69108 57.536772,149.02305 63.876628,146.57244 L 124.32344,117.06447 C 129.92174,112.14439 137.13629,110.55715 140.5083,99.353324 C 143.88032,88.149535 141.79406,82.200175 137.29677,74.106214 L 93.702558,19.700919 C 89.797307,15.854514 85.238849,13.071963 80.061487,11.751576 C 77.100963,10.996552 74.090051,10.728279 71.062832,10.924845 z "
       style="fill:#4b6983;fill-rule:evenodd;stroke:#000000;stroke-width:3.75;stroke-linejoin:round;stroke-miterlimit:4;stroke-opacity:0.47727272" />
    <path
       style="fill:#7590ae;fill-opacity:1;fill-rule:evenodd;stroke:#000000;stroke-width:2.52408385;stroke-linejoin:round;stroke-miterlimit:4"
       d="M 92.945351,20.564156 L 65.26528,144.56473 L 124.02111,116.4245 C 130.80597,111.65325 136.43603,110.09957 139.70602,99.234682 C 142.97602,88.369815 140.97387,82.590786 136.61265,74.741679 L 92.945351,20.564156 z "
       id="path831"
       sodipodi:nodetypes="ccczcc" />
    <path
       sodipodi:type="arc"
       style="fill:#9db8d2;fill-opacity:1;fill-rule:evenodd;stroke:#000000;stroke-width:2.61141491;stroke-miterlimit:4"
       id="path825"
       sodipodi:cx="100.98425"
       sodipodi:cy="78.503937"
       sodipodi:rx="44.29134"
       sodipodi:ry="70.866142"
       d="M 145.27559 78.503937 A 44.29134 70.866142 0 1 1  56.692913,78.503937 A 44.29134 70.866142 0 1 1  145.27559 78.503937 z"
       transform="matrix(0.939421,0.239581,-0.241243,0.932955,-13.93465,-17.0418)" />
    <path
       sodipodi:type="arc"
       style="fill:#7590ae;fill-opacity:1;fill-rule:evenodd;stroke:#000000;stroke-width:3.4019165;stroke-miterlimit:4;stroke-opacity:0.45909095"
       id="path4029"
       sodipodi:cx="102.75591"
       sodipodi:cy="85.590553"
       sodipodi:rx="28.346457"
       sodipodi:ry="56.692913"
       d="M 131.10237 85.590553 A 28.346457 56.692913 0 1 1  74.409456,85.590553 A 28.346457 56.692913 0 1 1  131.10237 85.590553 z"
       transform="matrix(1.131177,0.288486,-0.265628,1.027252,-33.1397,-37.83387)" />
    <path
       sodipodi:type="arc"
       style="fill:#7590ae;fill-opacity:1;fill-rule:evenodd;stroke:#000000;stroke-width:2.27473211"
       id="path826"
       sodipodi:cx="102.75591"
       sodipodi:cy="85.590553"
       sodipodi:rx="28.346457"
       sodipodi:ry="56.692913"
       d="M 131.10237 85.590553 A 28.346457 56.692913 0 1 1  74.409456,85.590553 A 28.346457 56.692913 0 1 1  131.10237 85.590553 z"
       transform="matrix(1.131177,0.288486,-0.265628,1.027252,-33.1397,-37.83387)" />
    <path
       style="fill:#ffffff;fill-opacity:0.46558706;fill-rule:evenodd;stroke:none;stroke-width:1pt;stroke-linecap:butt;stroke-linejoin:miter;stroke-opacity:1"
       d="M 61.978897,23.522409 C 61.978897,23.522409 66.585421,42.766795 67.558215,66.383703 C 68.531007,90.000612 62.46693,96.330881 60.197074,100.7394 C 57.927228,105.14789 52.414723,119.56451 37.822802,133.10486 C 49.496334,142.80628 80.398453,138.66284 93.335626,77.310778 C 98.199603,38.264152 82.407585,15.080632 61.978897,23.522409 z "
       id="path2788"
       sodipodi:nodetypes="cccccc" />
    <path
       sodipodi:type="arc"
       style="fill:#314e6c;fill-opacity:1;fill-rule:evenodd;stroke:#000000;stroke-width:4.45297623;stroke-miterlimit:4;stroke-opacity:0.5"
       id="path5272"
       sodipodi:cx="33.661419"
       sodipodi:cy="51.929134"
       sodipodi:rx="12.401575"
       sodipodi:ry="19.48819"
       d="M 46.062994 51.929134 A 12.401575 19.48819 0 1 1  21.259844,51.929134 A 12.401575 19.48819 0 1 1  46.062994 51.929134 z"
       transform="matrix(0.939421,0.239581,-0.276433,1.069045,58.67646,19.94617)" />
    <path
       sodipodi:type="arc"
       style="fill:#314e6c;fill-opacity:1;fill-rule:evenodd;stroke:#000000;stroke-width:1pt"
       id="path827"
       sodipodi:cx="33.661419"
       sodipodi:cy="51.929134"
       sodipodi:rx="12.401575"
       sodipodi:ry="19.48819"
       d="M 46.062994 51.929134 A 12.401575 19.48819 0 1 1  21.259844,51.929134 A 12.401575 19.48819 0 1 1  46.062994 51.929134 z"
       transform="matrix(0.939421,0.239581,-0.276433,1.069045,58.67646,19.94617)" />
    <path
       sodipodi:type="arc"
       style="fill:none;fill-opacity:1;fill-rule:evenodd;stroke:#000000;stroke-width:3.91712236;stroke-miterlimit:4;stroke-opacity:0.46136367"
       id="path922"
       sodipodi:cx="100.98425"
       sodipodi:cy="78.503937"
       sodipodi:rx="44.29134"
       sodipodi:ry="70.866142"
       d="M 145.27559 78.503937 A 44.29134 70.866142 0 1 1  56.692913,78.503937 A 44.29134 70.866142 0 1 1  145.27559 78.503937 z"
       transform="matrix(0.939421,0.239581,-0.241243,0.932955,-13.93465,-17.0418)" />
    <path
       style="fill:#ffffff;fill-opacity:1;fill-rule:evenodd;stroke:none;stroke-width:1pt;stroke-linecap:butt;stroke-linejoin:miter;stroke-opacity:1"
       d="M 60.788258,21.07124 C 39.711047,18.152862 -3.1855065,95.157365 35.077744,136.339 C 5.6030673,100.97744 31.774916,29.706046 60.788258,21.07124 z "
       id="path923"
       sodipodi:nodetypes="ccc" />
    <path
       style="fill:#ffffff;fill-opacity:1;fill-rule:evenodd;stroke:none;stroke-width:1pt;stroke-linecap:butt;stroke-linejoin:miter;stroke-opacity:1"
       d="M 70.56192,102.75483 C 56.942809,90.43277 70.886184,63.843067 79.317068,64.491599 C 64.400897,81.35336 78.02001,97.566586 70.56192,102.75483 z "
       id="path1545"
       sodipodi:nodetypes="ccc" />
    <path
       style="fill:url(#linearGradient2648);fill-opacity:1;fill-rule:evenodd;stroke:none;stroke-width:0.25pt;stroke-linecap:butt;stroke-linejoin:miter;stroke-opacity:1"
       d="M 98.304479,109.56442 L 80.794182,134.85705 C 77.825266,139.14548 129.43388,118.64381 137.86477,101.78206 C 142.40449,84.920279 109.32947,72.59822 109.32947,72.59822 L 98.304479,109.56442 z "
       id="path1078"
       sodipodi:nodetypes="csccc" />
    <path
       style="fill:#000000;fill-opacity:0.29959513;fill-rule:evenodd;stroke:none;stroke-width:1pt;stroke-linecap:butt;stroke-linejoin:miter;stroke-opacity:1"
       d="M 65.528724,141.38887 C 86.605935,144.42988 130.70594,65.025282 92.442699,22.113005 C 118.70814,60.632688 93.739758,128.21106 65.528724,141.38887 z "
       id="path2074"
       sodipodi:nodetypes="ccc" />
    <path
       style="fill:#000000;fill-opacity:0.3319838;fill-rule:evenodd;stroke:none;stroke-width:1pt;stroke-linecap:butt;stroke-linejoin:miter;stroke-opacity:1"
       d="M 63.753452,139.64816 C 84.830663,142.56654 127.72722,65.562063 89.463966,24.380428 C 118.93865,59.741988 92.766794,131.01335 63.753452,139.64816 z "
       id="path5112"
       sodipodi:nodetypes="ccc" />
  </g>
  <path
     style="fill:url(#linearGradient2830);fill-opacity:1;fill-rule:evenodd;stroke:none;stroke-width:6.25"
     d="M 24.630484,7.3329922 L 100.34807,7.3329922 C 111.99274,7.3329922 117.69468,13.034925 117.69468,24.6796 C 117.69468,24.6796 38.408114,25.585198 7.2838774,116.02801 L 7.2838774,24.6796 C 7.2838774,14.390857 14.341747,7.3329922 24.630484,7.3329922 z "
     id="rect2063"
     sodipodi:nodetypes="cccccc" />
</svg>
